<svg width="49" height="48" viewBox="0 0 49 48" fill="none" xmlns="http://www.w3.org/2000/svg">
<rect x="0.928711" width="48" height="48" rx="24" fill="#3A7D44"/>
<path d="M17.0888 19.0881H22.4328C22.5288 17.8081 23.1688 16.5281 24.9288 16.5281C26.4008 16.5281 27.3288 17.3921 27.3288 18.9601C27.3288 21.0721 25.5368 21.5201 23.6808 21.5201H22.6568V25.9681H23.6808C26.5288 25.9681 27.7768 26.8001 27.7768 28.8801C27.7768 30.4161 26.8488 31.5041 25.1528 31.5041C23.1368 31.5041 22.1448 30.2881 22.1128 28.4641H16.8008C16.9608 33.7442 20.4808 36.0482 25.3448 36.0482C30.2408 36.0482 33.0568 33.2321 33.0568 29.2961C33.0568 26.2241 31.4568 24.4321 29.1208 23.6641V23.5361C30.7208 22.9922 32.6408 21.3601 32.6408 18.2881C32.6408 14.7681 29.9848 11.9521 25.0568 11.9521C20.2888 11.9521 17.2808 14.4801 17.0888 19.0881Z" fill="white"/>
</svg>
