<svg width="83" height="35" viewBox="0 0 83 35" fill="none" xmlns="http://www.w3.org/2000/svg">
<path fill-rule="evenodd" clip-rule="evenodd" d="M15.3836 7.63665C15.6095 8.36049 15.8006 8.98515 15.8998 9.31583C16.4987 11.3294 18.5931 16.15 18.9072 19.9933C19.1479 22.9254 18.3561 25.299 15.6536 25.9641C13.1974 26.5685 10.7172 25.0749 8.51996 22.3835C3.79114 16.5909 0.205041 5.31818 0.0011174 1.63285C-0.0209284 1.23052 0.285874 0.886982 0.68821 0.864937C1.08871 0.842892 1.43224 1.14969 1.45429 1.55203C1.65086 5.08855 5.1084 15.902 9.648 21.4631C11.4227 23.6364 13.3223 25.0382 15.3064 24.5495C17.2648 24.0681 17.6304 22.2384 17.4559 20.1128C17.1509 16.3723 15.0878 11.6913 14.5036 9.73103C14.138 8.50198 12.6113 3.85397 12.5764 3.42408C12.5323 2.88579 12.9163 2.70576 13.0467 2.65616C13.1478 2.61758 13.664 2.45776 13.9855 3.03646C18.5747 11.2853 31.3264 20.7668 44.9103 24.5458C58.3747 28.2918 72.699 26.4087 80.6135 11.8713C80.8064 11.5186 81.2491 11.3882 81.6018 11.5792C81.9546 11.7721 82.085 12.2148 81.8921 12.5676C73.5992 27.7994 58.6264 29.8736 44.5208 25.9494C32.6326 22.6425 21.3911 15.0551 15.3836 7.63665Z" fill="#D9DBE9"/>
<path fill-rule="evenodd" clip-rule="evenodd" d="M80.7394 12.9186C79.1502 13.5689 77.5887 14.267 75.9481 14.7943C71.5775 16.1997 66.7385 16.7344 62.2026 15.926C61.8057 15.8544 61.543 15.4759 61.6128 15.0809C61.6844 14.6841 62.0629 14.4214 62.4579 14.4912C66.7623 15.261 71.3552 14.7411 75.5016 13.4073C77.3792 12.8029 79.1539 11.9706 80.9855 11.2486C81.0774 11.2137 81.8637 10.8757 82.0492 10.8499C82.481 10.7875 82.6996 11.0373 82.786 11.1659C82.8595 11.2725 82.9219 11.4177 82.9275 11.6124C82.9311 11.7722 82.8668 12.0772 82.6941 12.4666C82.1448 13.7159 80.4455 16.4459 80.214 16.9236C77.5593 22.3983 76.0087 27.9373 74.2303 33.728C74.1109 34.112 73.7031 34.3288 73.3191 34.2112C72.9351 34.0936 72.7202 33.6857 72.8378 33.3018C74.6382 27.4376 76.2163 21.8306 78.904 16.2898C79.062 15.9609 80.0376 14.188 80.7394 12.9186Z" fill="#D9DBE9"/>
</svg>
