<svg width="82" height="78" viewBox="0 0 82 78" fill="none" xmlns="http://www.w3.org/2000/svg">
<path fill-rule="evenodd" clip-rule="evenodd" d="M79.4249 1.68737C73.792 40.2433 39.1971 58.9711 3.08187 63.2293C2.46171 63.3036 2.01582 63.8667 2.09012 64.4869C2.16443 65.107 2.72741 65.5528 3.34757 65.4785C40.4745 61.1031 75.8753 41.6493 81.6655 2.01314C81.7569 1.39583 81.3282 0.821396 80.708 0.729944C80.0907 0.638491 79.5164 1.0672 79.4249 1.68737Z" fill="#D9DBE9"/>
<path fill-rule="evenodd" clip-rule="evenodd" d="M3.89255 64.2746C5.49869 63.1 7.53066 61.6482 7.75644 61.4767C13.8752 56.8298 18.9451 51.4827 23.4092 45.2096C23.7721 44.7009 23.652 43.9921 23.1433 43.6292C22.6346 43.2662 21.9259 43.3863 21.563 43.895C17.2361 49.9795 12.3206 55.1665 6.3847 59.6734C6.0389 59.9364 1.46904 63.1972 0.594524 63.926C0.234428 64.2232 0.123048 64.5033 0.103043 64.5719C-0.0169887 64.932 0.0544365 65.2149 0.151605 65.4206C0.263063 65.6521 0.540207 65.9894 1.07749 66.1609C1.6405 66.3381 2.89231 66.4181 3.20668 66.4638C7.94794 67.1669 13.3008 67.5384 18.1735 68.8873C22.8205 70.1734 27.0358 72.3511 29.7394 76.7151C30.068 77.2466 30.7682 77.4095 31.2998 77.0809C31.8314 76.7522 31.9943 76.0521 31.6657 75.5205C28.642 70.6421 23.9721 68.1414 18.7793 66.7038C13.9352 65.3635 8.63095 64.9577 3.89255 64.2746Z" fill="#D9DBE9"/>
</svg>
