<svg width="70" height="16" viewBox="0 0 70 16" fill="none" xmlns="http://www.w3.org/2000/svg">
<path d="M32.3871 0H1.4539C0.668429 0 0.0316809 0.636748 0.0316809 1.42222V5.68887C0.0316809 6.47434 0.668429 7.11109 1.4539 7.11109H32.3871C33.1726 7.11109 33.8094 6.47434 33.8094 5.68887V1.42222C33.8094 0.636748 33.1726 0 32.3871 0Z" fill="white"/>
<path fill-rule="evenodd" clip-rule="evenodd" d="M18.5172 8.88837C19.2535 8.88837 19.8505 9.28634 19.8505 9.77725V9.62911C19.8505 11.1837 21.1107 12.4439 22.6653 12.4439C23.5861 12.4439 24.4036 12.0018 24.9171 11.3183V12.5328C24.9171 13.4655 25.6733 14.2217 26.606 14.2217C27.5388 14.2217 28.2949 13.4655 28.2949 12.5328V9.33281C28.2949 9.08735 28.6929 8.88837 29.1838 8.88837H32.3838C33.1692 8.88837 33.806 9.52512 33.806 10.3106V14.5772C33.806 15.3627 33.1692 15.9995 32.3838 15.9995H1.45054C0.665069 15.9995 0.0283203 15.3627 0.0283203 14.5772V10.3106C0.0283203 9.52512 0.665069 8.88837 1.45054 8.88837H18.5172Z" fill="white"/>
<path d="M35.6535 5.67871e-05H38.8186C39.5696 5.67871e-05 40.1233 0.161067 40.48 0.483093C40.8367 0.805118 41.0151 1.23503 41.0151 1.77285C41.0151 1.95876 40.9907 2.13969 40.9418 2.31564C40.893 2.49159 40.8179 2.65094 40.7166 2.7937C40.6152 2.93645 40.4857 3.05762 40.328 3.15722C40.1703 3.25682 39.9788 3.32653 39.7535 3.36637V3.38629C40.0163 3.40621 40.2416 3.46762 40.4293 3.57054C40.6171 3.67345 40.771 3.80127 40.8912 3.95398C41.0113 4.10669 41.0995 4.27434 41.1559 4.45694C41.2122 4.63953 41.2403 4.82378 41.2403 5.00969C41.2403 5.31511 41.1953 5.5973 41.1052 5.85625C41.0151 6.11519 40.8743 6.33762 40.6828 6.52353C40.4913 6.70944 40.2416 6.85386 39.9337 6.95677C39.6259 7.05969 39.2542 7.11114 38.8186 7.11114H35.6535V5.67871e-05ZM37.7486 5.77657H38.3343C38.5295 5.77657 38.7022 5.70519 38.8524 5.56244C39.0026 5.41969 39.0777 5.19892 39.0777 4.90013C39.0777 4.62127 39.0026 4.4088 38.8524 4.26272C38.7022 4.11665 38.5295 4.04362 38.3343 4.04362H37.7486V5.77657ZM37.7486 2.78872H38.2554C38.4732 2.78872 38.6384 2.71734 38.7511 2.57459C38.8637 2.43184 38.92 2.26419 38.92 2.07163C38.92 1.87244 38.8637 1.69981 38.7511 1.55374C38.6384 1.40767 38.4732 1.33463 38.2554 1.33463H37.7486V2.78872Z" fill="white"/>
<path d="M41.6708 0.000113574H43.7658V7.1112H41.6708V0.000113574Z" fill="white"/>
<path d="M47.4629 2.11708V1.9535C47.4629 1.74821 47.4157 1.57341 47.3214 1.42907C47.2271 1.28473 47.082 1.21256 46.8861 1.21256C46.6684 1.21256 46.5088 1.2751 46.4073 1.4002C46.3057 1.52529 46.2549 1.66482 46.2549 1.81878C46.2549 2.04331 46.3365 2.22133 46.4998 2.35283C46.663 2.48434 46.868 2.59821 47.1146 2.69444C47.3613 2.79066 47.6261 2.88849 47.9091 2.98792C48.192 3.08736 48.4568 3.21726 48.7035 3.37764C48.9502 3.53802 49.1551 3.74811 49.3184 4.00792C49.4816 4.26773 49.5632 4.60612 49.5632 5.0231C49.5632 5.75442 49.3275 6.28526 48.8559 6.61564C48.3843 6.94601 47.7023 7.1112 46.8099 7.1112C46.3891 7.1112 46.0173 7.08073 45.6945 7.01978C45.3716 6.95884 45.0995 6.85299 44.8782 6.70224C44.657 6.55149 44.4883 6.35422 44.3722 6.11045C44.2561 5.86668 44.1981 5.56517 44.1981 5.20593V4.96536H46.157V5.12895C46.157 5.42404 46.2186 5.63093 46.342 5.74961C46.4653 5.86828 46.6249 5.92762 46.8208 5.92762C47.0312 5.92762 47.1926 5.86347 47.3051 5.73517C47.4175 5.60687 47.4738 5.4497 47.4738 5.26367C47.4738 5.03914 47.3958 4.86112 47.2398 4.72961C47.0838 4.5981 46.8879 4.48584 46.6521 4.39282C46.4163 4.2998 46.1606 4.20518 45.8849 4.10896C45.6092 4.01273 45.3535 3.88764 45.1177 3.73367C44.8819 3.57971 44.686 3.37764 44.53 3.12745C44.374 2.87726 44.296 2.5501 44.296 2.14595C44.296 1.4467 44.5064 0.914261 44.9272 0.548601C45.348 0.182941 45.9865 0.000113574 46.8426 0.000113574C47.7277 0.000113574 48.368 0.168507 48.7634 0.505299C49.1588 0.842091 49.3565 1.37935 49.3565 2.11708H47.4629Z" fill="white"/>
<path d="M53.3249 2.22293C53.3249 1.83161 53.2813 1.56539 53.1943 1.42426C53.1072 1.28312 52.9657 1.21256 52.7699 1.21256C52.6175 1.21256 52.496 1.24784 52.4053 1.31841C52.3146 1.38897 52.2457 1.51407 52.1985 1.69369C52.1514 1.87331 52.1205 2.11548 52.106 2.42019C52.0915 2.72491 52.0843 3.1082 52.0843 3.57009C52.0843 4.03198 52.0915 4.41527 52.106 4.71999C52.1205 5.02471 52.1514 5.26687 52.1985 5.44649C52.2457 5.62612 52.3146 5.75121 52.4053 5.82177C52.496 5.89234 52.6175 5.92762 52.7699 5.92762C52.8932 5.92762 52.9948 5.90036 53.0746 5.84583C53.1544 5.7913 53.216 5.69989 53.2596 5.57159C53.3031 5.44329 53.3339 5.27169 53.3521 5.05678C53.3702 4.84187 53.3793 4.57084 53.3793 4.24367H55.3382V4.75367C55.3382 5.2348 55.2656 5.62932 55.1205 5.93725C54.9754 6.24517 54.7832 6.48734 54.5437 6.66375C54.3043 6.84017 54.0304 6.95884 53.7221 7.01978C53.4137 7.08073 53.0963 7.1112 52.7699 7.1112C52.204 7.1112 51.7396 7.05026 51.3769 6.92837C51.0141 6.80648 50.7312 6.60281 50.528 6.31734C50.3249 6.03187 50.1852 5.663 50.109 5.21074C50.0329 4.75848 49.9948 4.2116 49.9948 3.57009C49.9948 2.91575 50.0401 2.36086 50.1308 1.90538C50.2215 1.44991 50.3757 1.08105 50.5933 0.798788C50.811 0.516524 51.0976 0.312848 51.4531 0.187754C51.8086 0.0626597 52.2475 0.000113574 52.7699 0.000113574C53.2269 0.000113574 53.6151 0.0514335 53.9343 0.154075C54.2535 0.256716 54.5129 0.402657 54.7124 0.591902C54.9119 0.781147 55.057 1.00888 55.1477 1.27511C55.2384 1.54133 55.2838 1.84123 55.2838 2.17482V2.60783H53.3249V2.22293Z" fill="white"/>
<path d="M57.8311 0.000113574V5.05144C57.8311 5.39146 57.8866 5.61869 57.9975 5.73312C58.1084 5.84755 58.26 5.90477 58.4523 5.90477C58.6446 5.90477 58.7962 5.84755 58.9071 5.73312C59.018 5.61869 59.0735 5.39146 59.0735 5.05144V0.000113574H61.1368V4.59044C61.1368 5.08086 61.0776 5.48954 60.9593 5.81649C60.8409 6.14344 60.669 6.40499 60.4435 6.60116C60.2179 6.79733 59.9387 6.93138 59.6059 7.00331C59.2732 7.07524 58.8886 7.1112 58.4523 7.1112C58.0234 7.1112 57.6407 7.07524 57.3042 7.00331C56.9677 6.93138 56.6867 6.79733 56.4611 6.60116C56.2356 6.40499 56.0636 6.14344 55.9453 5.81649C55.827 5.48954 55.7678 5.08086 55.7678 4.59044V0.000113574H57.8311Z" fill="white"/>
<path d="M61.5674 0.000113574H63.6624V7.1112H61.5674V0.000113574Z" fill="white"/>
<path d="M65.652 1.57372H64.0976V0.000113574H69.324V1.57372H67.7471V7.1112H65.652V1.57372Z" fill="white"/>
<path d="M47.0872 8.88872L48.8202 15.9998H46.8482L46.6589 14.7549H45.1849L44.9957 15.9998H43.0536L44.7567 8.88872H47.0872ZM45.912 10.3428L45.404 13.3605H46.4398L45.9319 10.3428H45.912Z" fill="white"/>
<path d="M38.6911 8.88891H40.3643L41.0914 13.8089H41.1113L41.6093 8.88891H43.402L42.1869 16H40.1552L39.5377 11.2194H39.5178L38.9003 16H36.8686L35.6535 8.88891H37.4462L38.0039 13.8089H38.0239L38.6911 8.88891Z" fill="white"/>
<path d="M49.6133 13.2012L47.8305 8.88872H49.8324L50.5296 11.3686H50.5495L51.2466 8.88872H53.2784L51.4657 13.2012V15.9998H49.6133V13.2012Z" fill="white"/>
</svg>
