<svg width="203" height="200" viewBox="0 0 203 200" fill="none" xmlns="http://www.w3.org/2000/svg">
<path d="M38.8341 139.263C39.0577 138.876 39.4151 139.599 39.3033 139.792C38.8859 140.068 38.4986 139.844 38.223 139.427C37.3664 138.674 36.2043 138.003 35.3477 137.25C34.573 136.803 33.7164 136.05 33.1654 135.216C32.7261 134.187 32.7041 132.883 32.8759 131.691C34.0723 118.437 32.579 104.921 27.9188 92.417C26.7129 89.1383 25.2014 85.9414 23.2726 83.0201C21.0683 79.6815 17.9174 77.0876 15.2957 74.0245C7.81807 65.0589 3.90271 53.5016 -3.57495 44.536C-16.1023 29.556 -38.9371 24.3778 -56.5607 32.5382C-58.7292 33.6104 -61.0095 34.8763 -63.5354 35.2257C-65.8677 35.6869 -68.751 35.3134 -70.546 33.5023C-67.3952 36.0962 -67.3813 39.2032 -66.8163 43.1448C-66.445 46.9746 -66.9902 51.0499 -66.7307 55.0734C-66.2637 62.3157 -63.4643 69.0967 -60.3595 75.7959C-53.7107 90.2227 -45.9516 104.516 -35.3531 116.574C-24.7546 128.633 -11.3166 138.457 3.94856 142.881C10.1544 144.656 16.614 145.545 22.738 147.014C1.66395 157.573 -12.5215 178.564 -15.4273 201.936C4.43644 201.525 24.1686 193.291 38.3519 179.013C36.0833 190.099 38.3893 201.76 41.7536 212.483C47.7155 231.678 57.3135 250.389 73.0976 262.859C88.8817 275.33 111.217 280.478 129.646 272.266C132.986 263.348 136.357 253.931 135.928 244.387C135.305 234.731 130.935 225.751 125.811 217.628C115.676 201.189 103.037 186.402 88.4447 174.104C85.2939 171.51 81.9494 168.804 77.934 167.261C71.177 164.651 63.8229 165.312 56.7444 166.39C56.2532 164.557 57.9525 162.955 59.6218 161.853C64.7416 158.353 69.8614 154.853 75.4204 152.381C78.5054 151.063 81.866 150.163 84.7873 148.234C92.2992 143.274 95.0889 133.522 99.3681 125.663C104.959 115.979 114.179 107.614 115.143 96.5503C108.72 100.072 101.447 101.039 94.2569 102.31C75.7409 105.307 55.8831 110.628 44.4712 125.474C41.2064 129.787 38.6864 135.046 40.078 140.24C39.4151 139.599 38.3868 140.038 38.8341 139.263Z" fill="white"/>
<path d="M31.813 146.056C34.1672 146.899 36.4314 149.239 38.2265 151.05C39.8279 152.75 42.1221 154.591 42.5833 156.923C42.6651 157.228 42.106 158.197 41.525 157.861C39.6181 156.244 38.5759 153.576 36.7808 151.765C34.9858 149.954 32.4679 148.5 31.3956 146.332C31.2838 146.525 31.5075 146.138 31.813 146.056Z" fill="#D9DBE9"/>
<path d="M47.3495 164.323C46.0237 163.041 45.4207 161.402 44.0949 160.12C42.8809 158.644 41.3315 157.75 40.3111 156.386C40.0356 155.969 40.4529 155.693 40.6466 155.805C42.3079 156.506 43.6038 158.287 44.7359 159.457C45.868 160.627 47.4694 162.327 47.7669 164.048C47.8487 164.353 47.5432 164.435 47.3495 164.323Z" fill="#D9DBE9"/>
<path d="M43.718 151.38C43.4045 153.265 43.061 155.649 41.6672 157.169C41.2499 157.444 40.6988 156.61 40.8107 156.416C41.3179 154.643 42.5179 153.012 43.2188 151.35C43.1669 150.546 43.748 150.881 43.718 151.38Z" fill="#D9DBE9"/>
<path d="M33.5896 158.186C34.7817 158.358 36.0037 158.031 37.032 157.591C38.0604 157.152 38.4258 156.072 39.2605 155.521C40.207 154.776 41.0935 155.03 41.6446 155.864C41.9201 156.281 41.8902 156.781 41.7784 156.974C40.4065 159.798 36.1594 160.445 33.4179 159.378C33.0305 159.155 32.7849 158.238 33.5896 158.186Z" fill="#D9DBE9"/>
<path d="M21.8893 144.459C24.1536 146.799 25.5013 149.385 26.9309 152.276C27.7276 154.028 28.6361 155.585 30.2675 156.785C32.2043 157.903 33.9255 157.606 35.8923 158.225C36.3915 158.255 37.248 159.008 36.7189 159.477C34.5723 161.853 29.9758 159.974 27.7934 157.939C26.2739 156.545 25.8646 155.018 25.1797 153.073C24.0556 150.1 22.7079 147.514 21.5838 144.541C21.3901 144.429 21.8893 144.459 21.8893 144.459Z" fill="#D9DBE9"/>
<path d="M36.7473 140.64C39.988 141.737 43.1988 143.332 44.7103 146.529C45.7825 148.697 45.6765 153.801 42.7333 154.426C42.2341 154.396 41.8467 154.172 41.683 153.561C41.3336 151.036 43.9195 149.688 43.1827 146.938C42.3641 143.883 39.3471 142.4 36.941 140.752C36.4418 140.722 36.5536 140.528 36.7473 140.64Z" fill="#D9DBE9"/>
<path d="M56.1212 181.783C54.7953 180.501 53.8869 178.943 52.561 177.661C52.3674 177.549 52.4792 177.356 52.6729 177.468C54.6397 178.087 56.3528 179.592 56.7322 181.619C56.814 181.924 56.3967 182.2 56.1212 181.783Z" fill="#D9DBE9"/>
<path d="M50.5417 176.239C45.476 173.83 40.1866 171.809 36.9919 166.608C35.3686 163.605 33.6795 156.69 38.7313 155.991C39.3423 155.827 40.0053 156.468 39.8635 157.161C39.5799 158.547 38.909 159.709 38.6254 161.095C38.2819 163.479 39.2423 165.841 40.5382 167.622C42.9362 171.073 46.8917 173.615 50.6835 175.546C51.0708 175.769 50.9291 176.462 50.5417 176.239Z" fill="#D9DBE9"/>
<path d="M56.6087 171.993C55.8501 167.939 54.7041 163.662 52.917 160.048C50.9363 156.322 48.7539 154.287 45.044 152.662C44.6566 152.438 44.4929 151.827 44.7165 151.44C47.1467 147.678 51.3098 153.439 52.4938 155.413C55.6885 160.615 56.2455 166.36 56.9961 172.216C56.9961 172.216 56.6906 172.298 56.6087 171.993Z" fill="#D9DBE9"/>
<path d="M-3.69641 190.116C1.18581 183.896 7.00648 178.735 14.0412 175.049C18.49 172.711 22.8789 171.371 26.6948 167.893C29.9815 164.884 31.7188 160.98 34.8119 157.859C35.5647 157.003 37.807 158.039 37.4416 159.119C34.7198 166.07 29.5401 170.569 22.8409 173.673C13.1385 178.402 6.09582 183.89 -2.14697 191.011C-2.8698 191.368 -4.33739 190.779 -3.69641 190.116Z" fill="#D9DBE9"/>
<path d="M99.089 113.622C87.0624 117.008 80.2492 127.02 70.2333 133.633C65.3372 136.745 60.2254 138.443 55.9922 142.196C52.1763 145.675 50.5209 149.884 46.072 152.222C44.3209 153.019 44.2471 150.91 45.3054 149.971C50.1196 146.553 52.3342 141.376 57.2303 138.263C62.1264 135.15 67.8192 133.788 72.5217 130.564C81.8147 124.308 87.8451 115.652 99.2307 112.929C99.5362 112.847 99.3945 113.54 99.089 113.622Z" fill="#D9DBE9"/>
<path d="M112.669 259.624C99.449 244.502 86.9597 227.22 76.1616 210.139C68.1189 197.232 55.3738 187.549 55.9453 171.352C56.0052 170.353 57.4509 169.638 57.4728 170.942C57.9779 175.882 58.2893 180.71 61.0447 184.884C63.249 188.222 66.5117 190.623 69.0215 193.879C73.2965 199.446 76.4013 206.146 79.9534 212.07C89.7531 229.091 102.035 243.154 113.117 258.849C113.087 259.348 112.945 260.041 112.669 259.624Z" fill="#D9DBE9"/>
<path d="M91.2437 180.885C87.5279 174.35 81.5836 169.885 74.3794 168.05C68.5608 166.498 62.4807 167.636 56.6322 166.584C56.133 166.554 55.6938 165.525 56.4166 165.168C69.2859 159.427 86.6954 168.188 92.0784 180.334C91.9366 181.027 91.4074 181.496 91.2437 180.885Z" fill="#D9DBE9"/>
<path d="M62.1256 160.201C71.8221 150.563 87.8861 150.024 94.298 136.682C97.0416 131.035 98.8988 125.134 102.335 119.629C107.084 112.299 113.851 106.393 113.809 97.0724C113.757 96.2677 115.031 96.7449 115.195 97.3559C116.557 103.049 114.402 107.228 111.107 112.04C105.494 120.42 101.185 128.779 96.5403 137.718C89.8529 150.643 74.0045 152.597 63.094 160.76C62.3712 161.117 61.7083 160.476 62.1256 160.201Z" fill="#D9DBE9"/>
<path d="M-45.9024 43.5986C-28.0375 49.781 -22.5689 73.8561 -13.0067 88.1571C-6.66924 97.7557 0.502894 106.803 8.62152 115.106C14.9451 121.597 22.4389 126.957 27.5923 134.581C27.8679 134.998 27.2788 136.466 26.6159 135.825C14.5497 123.177 1.50715 111.773 -8.66602 97.6358C-14.0431 90.3994 -18.8911 82.6939 -23.128 74.8245C-29.2338 63.0355 -32.7538 49.8987 -45.8205 43.9041C-46.0142 43.7923 -45.9024 43.5986 -45.9024 43.5986Z" fill="#D9DBE9"/>
<path d="M-18.638 106.856C-12.8574 110.71 -7.36639 111.04 -0.743171 112.539C2.91487 113.36 6.62481 114.986 9.0528 117.937C9.32834 118.354 9.26844 119.353 8.57557 119.211C6.33323 118.174 4.12087 116.639 1.76671 115.796C-1.1685 114.618 -4.2455 114.133 -7.09885 113.26C-11.3379 112.104 -15.0179 109.979 -18.5561 107.162C-18.9435 106.938 -18.8317 106.744 -18.638 106.856Z" fill="#D9DBE9"/>
<path d="M9.8065 92.032C10.8108 97.002 10.0938 102.269 10.5989 107.209C11.112 110.346 11.6251 113.483 12.7492 116.456C13.5977 119.012 14.9755 121.099 15.1311 123.513C15.2949 124.124 14.2965 124.064 14.0209 123.647C10.6245 120.136 9.56838 114.362 8.95149 109.615C8.00716 103.647 10.2816 97.4712 9.41916 91.8084C9.41916 91.8084 9.72463 91.7265 9.8065 92.032Z" fill="#D9DBE9"/>
<path d="M-13.9287 58.444C-13.5354 63.5777 -14.8334 68.5097 -14.7457 73.7252C-14.7179 79.9392 -11.635 85.3345 -10.8025 91.4965C-10.7206 91.802 -11.2798 92.7704 -11.6372 92.0475C-18.8313 81.6962 -14.6178 69.9254 -13.9287 58.444C-13.9287 58.444 -14.2342 58.5259 -13.9287 58.444Z" fill="#D9DBE9"/>
<path d="M70.4082 237.55C66.0893 229.375 69.7057 220.875 67.9128 212.35C65.6587 201.494 57.3164 193.579 56.7017 182.119C56.5679 181.009 57.9018 180.488 58.2292 181.71C59.6428 188.207 61.3918 194.124 64.5566 199.825C66.4554 203.245 68.466 206.472 69.642 210.25C72.016 219.109 66.954 228.324 71.3547 236.805C71.3247 237.304 70.7656 238.272 70.4082 237.55Z" fill="#D9DBE9"/>
<path d="M94.9578 194.133C76.1224 194.105 53.1757 189.12 55.5005 165.413C55.6203 163.416 57.669 164.34 57.8846 165.756C60.005 175.502 60.9712 182.775 70.7672 188.172C78.4327 192.339 86.6134 192.931 95.0996 193.44C95.2114 193.246 95.2633 194.051 94.9578 194.133Z" fill="#D9DBE9"/>
<path d="M-20.5454 36.8044C-13.8864 42.7149 -7.8164 50.0931 -4.6078 58.4017C-4.52594 58.7072 -4.71963 58.5953 -4.91331 58.4835C-9.34394 50.5024 -14.0282 43.4078 -20.6573 36.998C-20.6573 36.998 -20.7391 36.6925 -20.5454 36.8044Z" fill="#D9DBE9"/>
<path d="M-12.8878 42.7746C-7.09341 49.7354 -2.13363 57.2473 1.38048 65.4741C1.46234 65.7796 0.96313 65.7496 1.07495 65.5559C-2.74466 57.4111 -7.20524 49.9291 -12.9997 42.9683C-13.387 42.7446 -13.0815 42.6627 -12.8878 42.7746Z" fill="#D9DBE9"/>
<path d="M-6.58601 47.9628C-1.18696 56.5031 3.68291 65.5126 7.02527 74.9313C7.10713 75.2369 6.80161 75.3187 6.71975 75.0132C2.57269 65.6463 -1.60431 56.7786 -6.89153 48.0447C-7.08521 47.9329 -6.77969 47.851 -6.58601 47.9628Z" fill="#D9DBE9"/>
<path d="M0.861226 57.4286C5.35178 64.4113 8.70214 72.0271 10.525 80.0521C10.6069 80.3576 10.3013 80.4394 10.2195 80.1339C7.89744 72.0789 4.93444 64.6869 0.749396 57.6223C0.36203 57.3986 0.779366 57.1231 0.861226 57.4286Z" fill="#D9DBE9"/>
<path d="M7.11706 66.7204C10.1999 72.1157 12.8355 78.2858 13.668 84.4478C13.5562 84.6415 13.3625 84.5297 13.3625 84.5297C11.7253 78.4195 9.97626 72.5031 6.81153 66.8023C6.61785 66.6905 6.92337 66.6086 7.11706 66.7204Z" fill="#D9DBE9"/>
<path d="M10.7294 71.6468C13.8123 77.0421 15.6432 83.264 17.1985 89.0687C17.1985 89.0687 17.0867 89.2623 17.0048 88.9568C14.6448 83.2041 13.4249 76.8184 10.342 71.4231C10.342 71.4231 10.6476 71.3413 10.7294 71.6468Z" fill="#D9DBE9"/>
<path d="M15.5849 77.5489C17.0884 82.5488 18.9792 87.7724 19.8716 92.936C19.8716 92.936 19.7598 93.1297 19.5661 93.0179C17.4517 88.1817 16.4774 82.7126 14.974 77.7126C15.0858 77.5189 15.5031 77.2434 15.5849 77.5489Z" fill="#D9DBE9"/>
<path d="M18.4224 82.028C19.9258 87.0279 21.9285 92.0578 22.8209 97.2214C22.9028 97.5269 22.5154 97.3033 22.5154 97.3033C20.5946 92.5789 19.5085 87.3034 17.8114 82.1917C17.8414 81.6925 18.3405 81.7224 18.4224 82.028Z" fill="#D9DBE9"/>
<path d="M21.9445 88.4519C22.9568 91.6188 23.9691 94.7856 24.8696 98.1462C24.9514 98.4517 24.4522 98.4218 24.564 98.2281C23.3581 94.9494 22.5395 91.8943 21.639 88.5337C21.3635 88.1164 21.8627 88.1464 21.9445 88.4519Z" fill="#D9DBE9"/>
<path d="M-12.7439 103.804C-7.2908 106.436 -1.61411 108.68 3.50351 111.893C3.6972 112.005 3.66725 112.504 3.47357 112.392C-2.00949 110.259 -7.43262 107.128 -12.5802 104.415C-13.2731 104.273 -13.1313 103.58 -12.7439 103.804Z" fill="#D9DBE9"/>
<path d="M-11.6416 105.473C-5.83107 108.828 0.151185 110.99 6.21529 113.459C6.60266 113.682 6.26718 114.263 5.87982 114.04C-0.549719 112.652 -6.47206 109.491 -12.0889 106.248C-12.3644 105.83 -12.0289 105.249 -11.6416 105.473Z" fill="#D9DBE9"/>
<path d="M17.4415 96.6987C20.5624 99.7918 24.2644 103.22 26.6324 107.17C26.6324 107.17 26.6025 107.669 26.4088 107.557C22.9824 104.546 20.3088 100.678 17.1061 97.2798C16.8305 96.8624 17.0542 96.4751 17.4415 96.6987Z" fill="#D9DBE9"/>
<path d="M17.8735 99.5296C22.0446 103.487 26.3795 108.056 29.1868 113.034C29.3805 113.146 29.1568 113.533 28.9632 113.421C24.9038 109.27 21.5973 104.262 17.538 100.111C17.4561 99.8051 17.6798 99.4177 17.8735 99.5296Z" fill="#D9DBE9"/>
<path d="M17.8572 103.136C21.9165 107.287 26.475 111.469 29.8933 116.283C30.087 116.395 29.7815 116.477 29.7815 116.477C25.4167 112.407 21.6928 107.675 17.4398 103.412C17.0524 103.188 17.6635 103.024 17.8572 103.136Z" fill="#D9DBE9"/>
<path d="M16.6789 106.071C21.3192 110.557 26.5706 114.881 30.6818 119.837C30.8755 119.948 30.57 120.03 30.3763 119.918C25.3186 115.707 20.9019 110.833 16.0678 106.234C15.8741 106.122 16.2915 105.847 16.6789 106.071Z" fill="#D9DBE9"/>
<path d="M17.2218 108.709C21.4449 113.471 26.4207 117.377 30.4501 122.028C30.6438 122.139 30.2264 122.415 30.2264 122.415C25.2206 119.008 20.722 113.829 16.6927 109.178C16.6108 108.873 17.0282 108.597 17.2218 108.709Z" fill="#D9DBE9"/>
<path d="M17.0419 111.704C21.213 115.662 25.4959 119.426 29.4734 123.272C29.6671 123.383 29.5553 123.577 29.3616 123.465C24.855 120.089 20.7957 115.937 16.8182 112.091C16.6245 111.98 16.96 111.399 17.0419 111.704Z" fill="#D9DBE9"/>
<path d="M18.278 114.483C22.0617 118.217 26.151 121.869 29.4056 126.072C29.5993 126.184 29.3757 126.572 29.182 126.46C25.1746 123.113 21.7263 118.798 17.9425 115.064C17.7788 114.453 18.0024 114.066 18.278 114.483Z" fill="#D9DBE9"/>
<path d="M18.404 117.396C22.687 121.16 27.1637 125.036 30.5001 129.545C30.6938 129.657 30.3883 129.739 30.1946 129.627C25.9117 125.863 22.2697 121.436 17.9867 117.672C17.7931 117.56 18.0166 117.173 18.404 117.396Z" fill="#D9DBE9"/>
<path d="M17.8962 119.17C21.8736 123.016 26.1566 126.78 29.6049 131.095C29.7986 131.207 29.4931 131.289 29.2994 131.177C25.0983 127.719 21.4563 123.292 17.4788 119.446C17.0915 119.222 17.5088 118.947 17.8962 119.17Z" fill="#D9DBE9"/>
<path d="M17.9406 121.777C22.2535 125.042 26.9238 129.029 29.7611 133.508C29.9548 133.62 29.7312 134.007 29.6493 133.702C25.56 130.05 22.2236 125.541 17.717 122.164C17.2178 122.134 17.5533 121.553 17.9406 121.777Z" fill="#D9DBE9"/>
<path d="M20.7777 126.256C23.2656 128.209 26.4464 130.303 28.0697 133.307C28.2634 133.418 28.0397 133.806 27.8461 133.694C25.2463 131.935 23.012 129.095 20.5241 127.142C20.2485 126.725 20.584 126.144 20.7777 126.256Z" fill="#D9DBE9"/>
<path d="M16.9373 135.144C18.5985 135.845 20.5653 136.464 21.8912 137.746C22.0848 137.858 21.8612 138.245 21.6675 138.133C20.0062 137.432 18.5685 136.344 16.9072 135.643C16.7136 135.531 16.5499 134.92 16.9373 135.144Z" fill="#D9DBE9"/>
<path d="M18.0261 133.706C19.8811 134.519 22.1235 135.555 23.5311 137.143C23.7248 137.255 23.5012 137.642 23.3075 137.53C21.4525 136.717 19.7393 135.212 17.8843 134.399C17.6906 134.287 17.8324 133.594 18.0261 133.706Z" fill="#D9DBE9"/>
<path d="M20.1043 134.132C22.153 135.057 24.2835 136.287 25.5794 138.068C25.773 138.18 25.5494 138.567 25.4675 138.261C23.6425 136.949 22.0111 135.749 20.0743 134.631C19.8806 134.519 19.717 133.908 20.1043 134.132Z" fill="#D9DBE9"/>
<path d="M21.5202 133.916C23.5689 134.841 25.5057 135.959 27.1071 137.658C27.3007 137.77 27.1889 137.964 26.9952 137.852C25.1702 136.54 23.5388 135.34 21.602 134.222C21.2965 134.304 21.3265 133.805 21.5202 133.916Z" fill="#D9DBE9"/>
<path d="M23.323 133.924C25.4535 135.154 27.8896 136.302 29.3792 138.195C29.5728 138.307 29.3492 138.694 29.1555 138.583C27.025 137.353 25.1181 135.735 22.9876 134.505C22.9057 134.2 23.1293 133.812 23.323 133.924Z" fill="#D9DBE9"/>
<path d="M25.7073 134.268C28.337 135.528 31.0486 137.093 32.8137 139.404C33.0074 139.515 32.7837 139.903 32.59 139.791C30.184 138.144 28.1953 136.221 25.5656 134.961C25.1782 134.737 25.5137 134.156 25.7073 134.268Z" fill="#D9DBE9"/>
<path d="M27.9795 134.805C30.7211 135.871 33.6263 137.548 35.3914 139.859C35.5851 139.97 35.2796 140.052 35.0859 139.94C32.7916 138.099 30.4974 136.258 27.8677 134.998C27.4504 135.274 27.4804 134.775 27.9795 134.805Z" fill="#D9DBE9"/>
<path d="M30.8333 135.677C33.6567 137.049 36.7556 138.838 38.6026 141.454C38.7962 141.566 38.5726 141.953 38.4908 141.648C36.0028 139.695 33.8204 137.66 30.6915 136.37C30.6096 136.065 30.446 135.454 30.8333 135.677Z" fill="#D9DBE9"/>
<path d="M33.7982 136.356C36.1224 137.698 38.6104 139.651 40.1818 141.85C40.3755 141.961 40.0699 142.043 39.8763 141.931C37.7757 140.202 35.8988 138.086 33.3809 136.632C33.3809 136.632 33.6046 136.244 33.7982 136.356Z" fill="#D9DBE9"/>
<path d="M37.4782 138.48C39.0796 140.18 40.7927 141.685 42.2004 143.273C42.3941 143.384 42.1705 143.772 42.0886 143.466C40.3754 141.961 38.774 140.261 37.1727 138.562C36.6735 138.532 37.0908 138.257 37.4782 138.48Z" fill="#D9DBE9"/>
<path d="M27.4482 141.987C29.2732 143.299 30.8746 144.998 31.4476 147.137C31.5295 147.442 31.0303 147.412 31.1421 147.219C29.8462 145.438 28.8559 143.575 27.0309 142.263C26.9491 141.957 27.2545 141.875 27.4482 141.987Z" fill="#D9DBE9"/>
<path d="M28.7223 142.464C30.741 143.888 32.4242 145.892 33.1909 148.143C33.2728 148.448 32.8854 148.225 32.8854 148.225C31.5077 146.138 30.5173 144.275 28.6104 142.657C28.2231 142.434 28.5286 142.352 28.7223 142.464Z" fill="#D9DBE9"/>
<path d="M30.9649 143.5C32.2608 145.281 33.5567 147.063 34.547 148.926C34.7407 149.037 34.4352 149.119 34.2415 149.007C32.8338 147.42 31.8434 145.557 30.5476 143.776C30.5775 143.277 30.8831 143.195 30.9649 143.5Z" fill="#D9DBE9"/>
<path d="M33.0953 144.73C34.6148 146.124 36.1044 148.017 36.6774 150.155C36.7593 150.461 36.5656 150.349 36.3719 150.237C35.1878 148.262 34.2794 146.705 32.8717 145.117C32.7898 144.812 32.8198 144.313 33.0953 144.73Z" fill="#D9DBE9"/>
<path d="M34.7262 145.931C36.1339 147.518 37.7054 149.717 38.2784 151.855C38.3602 152.161 37.9728 151.937 37.9728 151.937C36.7888 149.962 35.7985 148.099 34.3089 146.206C34.0334 145.789 34.6444 145.625 34.7262 145.931Z" fill="#D9DBE9"/>
<path d="M36.745 147.354C38.3464 149.054 39.7241 151.14 39.8798 153.554C39.9616 153.86 39.7679 153.748 39.5743 153.636C38.8076 151.386 38.1227 149.441 36.5214 147.742C36.3277 147.63 36.6631 147.049 36.745 147.354Z" fill="#D9DBE9"/>
<path d="M38.9278 149.389C39.6427 150.835 40.4394 152.586 40.8487 154.113C40.9305 154.419 40.7368 154.307 40.5431 154.195C39.9402 152.556 39.5308 151.028 38.9278 149.389C38.846 149.083 38.5405 149.165 38.9278 149.389Z" fill="#D9DBE9"/>
<path d="M39.814 149.643C40.8343 151.007 41.4373 152.646 41.4293 154.449C41.4293 154.449 41.3175 154.643 41.1238 154.531C40.7145 153.004 40.3052 151.476 39.2849 150.112C39.2031 149.807 39.6203 149.531 39.814 149.643Z" fill="#D9DBE9"/>
<path d="M41.282 150.232C41.4458 150.843 41.6095 151.454 41.6614 152.259C41.6614 152.259 41.4377 152.646 41.3559 152.341C41.1921 151.73 41.0284 151.119 40.671 150.396C40.7828 150.202 41.0065 149.815 41.282 150.232Z" fill="#D9DBE9"/>
<path d="M40.7065 154.807C42.3678 155.507 43.8874 156.901 44.1848 158.622C44.2667 158.928 43.8793 158.704 43.8793 158.704C42.859 157.341 42.2261 156.2 40.6766 155.306C39.9837 155.164 40.2074 154.777 40.7065 154.807Z" fill="#D9DBE9"/>
<path d="M41.4592 153.949C43.2023 154.956 44.61 156.543 44.9893 158.57C44.8775 158.764 44.7658 158.957 44.6839 158.652C43.8872 156.901 43.1724 155.455 41.4292 154.448C40.9301 154.418 41.0718 153.726 41.4592 153.949Z" fill="#D9DBE9"/>
<path d="M42.6814 153.622C44.5064 154.934 46.3833 157.05 46.539 159.464C46.4272 159.658 46.3154 159.852 46.2335 159.546C45.1613 157.378 44.5583 155.738 42.5396 154.315C42.1522 154.091 42.294 153.398 42.6814 153.622Z" fill="#D9DBE9"/>
<path d="M43.2922 153.459C45.5346 154.495 46.8005 156.775 47.4553 159.22C47.5372 159.525 47.3435 159.413 47.1498 159.301C45.9658 157.327 45.3928 155.188 43.2623 153.958C43.0686 153.846 43.0986 153.347 43.2922 153.459Z" fill="#D9DBE9"/>
<path d="M44.5442 152.632C46.3692 153.944 47.9706 155.643 47.9326 157.945C48.0145 158.251 47.8208 158.139 47.6272 158.027C46.9423 156.083 46.1456 154.331 44.4025 153.325C44.0151 153.101 44.1569 152.408 44.5442 152.632Z" fill="#D9DBE9"/>
<path d="M44.4109 151.521C47.2343 152.893 49.6922 155.345 50.0935 158.675C49.9817 158.869 49.8699 159.063 49.7881 158.757C48.3584 155.866 47.0925 153.586 44.0755 152.102C43.8818 151.99 44.2172 151.409 44.4109 151.521Z" fill="#D9DBE9"/>
<path d="M45.9903 151.917C49.0074 153.401 51.1897 155.435 53.0367 158.051C53.2304 158.163 53.0067 158.55 52.813 158.438C50.8543 156.016 48.4782 153.87 45.6548 152.498C45.4612 152.386 45.6029 151.693 45.9903 151.917Z" fill="#D9DBE9"/>
<path d="M35.6689 158.613C34.387 159.938 32.1665 160.206 30.3335 160.697C27.8894 161.352 25.5572 161.813 23.0313 162.163C22.7258 162.244 22.9494 161.857 23.0613 161.663C25.0061 160.978 27.3384 160.517 29.3651 160.138C31.3918 159.759 33.9996 159.715 35.587 158.307C35.587 158.307 35.7807 158.419 35.6689 158.613Z" fill="#D9DBE9"/>
<path d="M32.7693 161.845C29.2151 162.633 25.4372 163.809 21.8011 164.292C21.6074 164.181 21.7192 163.987 21.7192 163.987C25.3034 162.699 29.1333 162.328 32.7993 161.346C33.1048 161.264 33.0748 161.763 32.7693 161.845Z" fill="#D9DBE9"/>
<path d="M29.5127 164.354C26.1521 165.255 22.2923 166.125 18.9917 166.027C18.798 165.915 18.7161 165.61 18.9098 165.722C22.4641 164.933 25.9884 164.644 29.5426 163.855C29.5426 163.855 29.6245 164.161 29.5127 164.354Z" fill="#D9DBE9"/>
<path d="M28.6399 167.208C24.6683 168.272 20.1157 169 16.0703 167.956C15.8766 167.844 15.7947 167.539 15.9884 167.651C20.3174 167.309 24.3109 167.549 28.4762 166.597C28.6699 166.708 28.9454 167.126 28.6399 167.208Z" fill="#D9DBE9"/>
<path d="M26.6051 169.39C21.9706 169.814 17.0306 170.319 12.2324 170.131C12.0387 170.019 11.845 169.907 12.1505 169.825C16.9787 169.514 21.6951 169.396 26.5232 169.085C26.6351 168.891 26.9106 169.308 26.6051 169.39Z" fill="#D9DBE9"/>
<path d="M23.0431 171.982C18.2149 172.293 13.4686 172.91 8.55859 172.916C8.3649 172.804 8.28304 172.499 8.47672 172.61C13.223 171.994 18.0512 171.682 22.7676 171.565C23.1849 171.289 23.3486 171.9 23.0431 171.982Z" fill="#D9DBE9"/>
<path d="M20.4869 172.83C16.6571 173.202 12.7973 174.072 8.9975 173.944C8.80382 173.832 8.72201 173.527 9.02751 173.445C12.8873 172.575 16.7989 172.509 20.6287 172.137C20.8224 172.249 20.7924 172.748 20.4869 172.83Z" fill="#D9DBE9"/>
<path d="M15.896 175.862C11.7907 175.816 7.73723 176.575 3.60193 177.028C3.60193 177.028 3.21454 176.804 3.52005 176.722C7.40977 175.353 11.8206 175.317 15.8141 175.557C15.8141 175.557 16.0897 175.974 15.896 175.862Z" fill="#D9DBE9"/>
<path d="M17.5656 174.759C13.3784 174.407 9.1313 175.054 4.88418 175.701C4.57867 175.783 4.60861 175.284 4.72043 175.09C8.80383 173.832 13.2147 173.796 17.5956 174.26C17.7893 174.372 17.8711 174.677 17.5656 174.759Z" fill="#D9DBE9"/>
<path d="M12.8334 178.483C9.22727 178.467 5.5912 178.95 1.87323 179.128C1.67955 179.016 1.48584 178.904 1.59766 178.711C4.95823 177.81 9.06357 177.856 12.5579 178.066C12.6697 177.872 13.1389 178.401 12.8334 178.483Z" fill="#D9DBE9"/>
<path d="M9.24887 179.771C5.61276 180.254 2.14036 181.348 -1.30206 181.943C-1.30206 181.943 -1.68945 181.72 -1.57763 181.526C1.61922 180.015 5.44903 179.643 8.97331 179.354C9.27882 179.272 9.55438 179.689 9.24887 179.771Z" fill="#D9DBE9"/>
<path d="M4.38282 182.386C1.2459 182.899 -1.42177 183.941 -4.28315 184.871C-4.58866 184.953 -4.55871 184.454 -4.36502 184.566C-1.66736 183.025 1.58136 182.318 4.41277 181.887C4.8301 181.611 4.68833 182.304 4.38282 182.386Z" fill="#D9DBE9"/>
<path d="M2.51158 185.179C-0.707201 185.386 -3.29303 186.734 -6.34809 187.553C-6.65359 187.634 -6.73542 187.329 -6.6236 187.135C-4.20148 185.177 -0.565383 184.693 2.34789 184.568C2.6534 184.486 3.01077 185.209 2.51158 185.179Z" fill="#D9DBE9"/>
<path d="M0.283423 187.249C-2.24249 187.598 -4.60467 188.559 -7.04871 189.214C-7.35422 189.296 -7.4361 188.99 -7.32427 188.796C-5.23763 187.419 -2.40617 186.987 0.119744 186.638C0.425249 186.556 0.894435 187.085 0.283423 187.249Z" fill="#D9DBE9"/>
<path d="M114.554 98.0189C110.351 101.274 105.716 101.697 100.582 102.09C93.2284 102.751 86.2017 104.634 79.1451 107.016C78.8396 107.097 78.7577 106.792 78.8696 106.598C84.1231 104.208 89.6222 102.735 95.4788 101.984C101.946 101.07 108.823 101.683 114.36 97.9071C114.472 97.7134 114.666 97.8253 114.554 98.0189Z" fill="#D9DBE9"/>
<path d="M60.9792 112.537C50.4122 118.316 40.3802 128.535 38.439 140.843C38.4091 141.342 37.7162 141.2 37.7462 140.701C37.5787 128.467 50.9713 117.347 60.8973 112.232C61.0091 112.038 61.091 112.344 60.9792 112.537Z" fill="#D9DBE9"/>
<path d="M90.9084 113.031C85.9005 116.338 82.0546 120.315 78.1788 124.792C78.067 124.986 77.7914 124.568 77.9033 124.375C81.198 119.562 85.7368 115.727 90.6329 112.614C90.9384 112.532 91.2139 112.949 90.9084 113.031Z" fill="#D9DBE9"/>
<path d="M85.4386 114.007C81.451 118.677 77.9325 123.876 73.9449 128.547C73.8331 128.74 73.5575 128.323 73.6694 128.129C76.8823 123.012 81.1754 118.26 85.3567 113.701C85.163 113.589 85.5504 113.813 85.4386 114.007Z" fill="#D9DBE9"/>
<path d="M81.3557 115.263C77.7854 119.658 75.1017 124.306 72.6934 129.372C72.5816 129.566 72.1942 129.342 72.3061 129.148C74.3269 123.859 77.5099 119.241 81.162 115.151C81.2739 114.958 81.4676 115.069 81.3557 115.263Z" fill="#D9DBE9"/>
<path d="M78.159 116.775C74.8942 121.087 72.5978 125.96 69.8022 130.802C69.6904 130.995 69.6085 130.69 69.6085 130.69C71.5176 125.594 74.7005 120.976 77.9653 116.663C77.9953 116.164 78.2708 116.581 78.159 116.775Z" fill="#D9DBE9"/>
<path d="M74.321 118.949C71.4436 123.486 69.259 128.164 66.769 132.925C66.6571 133.118 66.5753 132.813 66.5753 132.813C68.3725 127.911 71.1681 123.069 74.2392 118.644C74.1573 118.338 74.4328 118.756 74.321 118.949Z" fill="#D9DBE9"/>
<path d="M71.3998 120.878C69.2452 125.057 67.2542 129.847 64.5186 133.691C64.4068 133.885 64.0194 133.661 64.1313 133.468C65.8985 129.065 68.6641 124.722 70.8187 120.543C71.0423 120.155 71.6234 120.491 71.3998 120.878Z" fill="#D9DBE9"/>
<path d="M69.3129 122.256C66.8827 126.018 65.5328 130.145 63.8774 134.354C63.7656 134.548 63.5719 134.436 63.49 134.131C63.9534 129.75 66.4135 125.489 68.7318 121.921C68.9554 121.533 69.5365 121.869 69.3129 122.256Z" fill="#D9DBE9"/>
<path d="M66.6671 124.602C64.9299 128.506 63.2744 132.715 60.9561 136.283C60.8443 136.477 60.6506 136.365 60.7624 136.171C62.4997 132.268 64.6244 128.588 66.3616 124.684C66.3916 124.185 66.8908 124.215 66.6671 124.602Z" fill="#D9DBE9"/>
<path d="M64.3049 125.563C63.0968 128.997 62.0823 132.544 60.375 135.948C60.2632 136.142 59.8758 135.918 59.9876 135.724C60.8084 132.066 62.5157 128.662 63.7238 125.228C63.8357 125.034 64.4167 125.369 64.3049 125.563Z" fill="#D9DBE9"/>
<path d="M62.502 125.554C60.2356 129.927 58.5502 134.635 56.3656 139.314C56.2538 139.507 55.9483 139.589 56.0601 139.395C57.2463 134.657 59.7364 129.897 62.0028 125.524C62.2265 125.137 62.7257 125.167 62.502 125.554Z" fill="#D9DBE9"/>
<path d="M59.051 127.953C57.7829 132.385 56.5149 136.818 54.6658 140.916C54.554 141.109 54.4721 140.804 54.4721 140.804C55.7401 136.371 57.3955 132.162 58.8573 127.841C58.8872 127.342 59.2746 127.565 59.051 127.953Z" fill="#D9DBE9"/>
<path d="M57.2405 129.747C55.3096 133.539 54.5707 137.502 53.1389 141.324C53.0271 141.518 52.8334 141.406 52.7515 141.1C52.9912 137.107 54.8403 133.01 56.6594 129.411C56.7713 129.218 57.4642 129.36 57.2405 129.747Z" fill="#D9DBE9"/>
<path d="M55.2357 131.431C54.3031 135.283 53.646 139.552 52.2143 143.373C52.1025 143.567 51.9088 143.455 52.0206 143.262C52.454 139.38 53.8039 135.253 55.042 131.319C54.7664 130.902 55.1538 131.125 55.2357 131.431Z" fill="#D9DBE9"/>
<path d="M54.2068 131.871C52.775 135.692 52.0361 139.656 50.7162 143.284C50.6043 143.478 50.4106 143.366 50.3288 143.06C50.7622 139.179 52.3058 135.163 53.6257 131.535C53.7376 131.341 54.3186 131.677 54.2068 131.871Z" fill="#D9DBE9"/>
<path d="M52.508 133.472C51.0763 137.294 50.531 141.369 49.293 145.303C49.1811 145.497 48.9874 145.385 48.9874 145.385C49.2271 141.391 50.7707 137.376 52.2025 133.554C52.3143 133.36 52.6199 133.279 52.508 133.472Z" fill="#D9DBE9"/>
<path d="M49.892 135.318C48.9594 139.17 48.4961 143.551 47.1762 147.179C47.0643 147.373 46.8706 147.261 46.9825 147.067C47.2222 143.074 48.7657 139.058 49.6164 134.901C49.6164 134.901 50.0038 135.125 49.892 135.318Z" fill="#D9DBE9"/>
<path d="M48.3346 136.227C46.9847 140.354 46.4394 144.43 45.4769 148.781C45.3651 148.974 45.1715 148.863 45.2833 148.669C45.4411 144.37 46.9028 140.049 48.1409 136.115C48.1709 135.616 48.5582 135.84 48.3346 136.227Z" fill="#D9DBE9"/>
<path d="M46.1881 138.602C45.3154 141.456 44.8302 144.533 43.7638 147.274C43.652 147.468 43.2647 147.244 43.3765 147.051C43.5563 144.055 44.6526 140.815 45.7189 138.073C45.8307 137.88 46.4117 138.215 46.1881 138.602Z" fill="#D9DBE9"/>
<path d="M43.9898 140.174C43.2889 141.835 43.0872 143.527 42.5799 145.3C42.4681 145.493 42.2745 145.381 42.1926 145.076C42.0069 143.161 42.7078 141.5 43.5205 139.645C43.6324 139.451 44.1016 139.98 43.9898 140.174Z" fill="#D9DBE9"/>
<path d="M42.9312 141.113C42.5657 142.193 42.0884 143.467 41.5293 144.435C41.4175 144.629 41.0302 144.405 41.142 144.212C41.4256 142.826 41.9847 141.858 42.4619 140.584C42.6856 140.196 43.1548 140.725 42.9312 141.113Z" fill="#D9DBE9"/>
<path d="M54.131 161.524C55.994 160.534 58.5199 160.184 60.6804 160.915C60.8741 161.027 60.7623 161.221 60.4568 161.303C58.3482 161.376 56.2396 161.45 54.1011 162.023C53.9074 161.912 53.8255 161.606 54.131 161.524Z" fill="#D9DBE9"/>
<path d="M54.6979 158.752C56.6128 158.567 58.9151 158.605 60.77 159.417C60.9637 159.529 60.8519 159.723 60.5464 159.805C58.5496 159.685 56.6647 159.371 54.5561 159.445C54.3625 159.333 54.5042 158.641 54.6979 158.752Z" fill="#D9DBE9"/>
<path d="M53.6473 157.888C55.8977 157.122 58.1181 156.854 60.1667 157.779C60.3604 157.89 60.4423 158.196 60.2486 158.084C58.0582 157.852 56.0614 157.733 54.1165 158.417C53.811 158.499 53.3418 157.97 53.6473 157.888Z" fill="#D9DBE9"/>
<path d="M52.739 156.33C55.2649 155.981 58.1782 155.855 60.6142 157.003L60.6961 157.309C58.0064 157.047 55.7341 156.51 53.2082 156.859C52.709 156.829 52.4335 156.412 52.739 156.33Z" fill="#D9DBE9"/>
<path d="M52.33 154.802C55.1614 154.371 58.2684 154.357 60.5926 155.699C60.7863 155.811 60.6745 156.004 60.4808 155.893C57.7093 155.325 55.437 154.788 52.4938 155.413C52.3001 155.301 51.8308 154.772 52.33 154.802Z" fill="#D9DBE9"/>
<path d="M50.5343 152.992C54.0586 152.703 57.6647 152.719 60.9055 153.815C61.0991 153.927 60.9873 154.12 60.6818 154.202C57.1875 153.993 53.7232 153.284 50.1989 153.573C50.1989 153.573 50.2288 153.074 50.5343 152.992Z" fill="#D9DBE9"/>
<path d="M48.7916 151.985C53.3442 151.257 59.059 151.199 63.0145 153.741C63.0145 153.741 63.0963 154.046 62.9027 153.935C60.6304 153.397 58.4698 152.667 56.2794 152.435C53.7016 151.98 51.1757 152.329 48.6498 152.678C48.6498 152.678 48.4861 152.067 48.7916 151.985Z" fill="#D9DBE9"/>
<path d="M49.4625 150.823C54.708 150.236 61.0337 150.014 66.2413 151.73C66.4349 151.842 66.5168 152.147 66.3231 152.035C60.6383 151.594 55.3709 150.877 49.6262 151.434C49.4325 151.322 49.157 150.905 49.4625 150.823Z" fill="#D9DBE9"/>
<path d="M49.217 149.907C54.798 148.739 61.7647 147.854 67.3596 149.793C67.5533 149.905 67.6352 150.211 67.4415 150.099C64.4463 149.919 61.4812 149.24 58.5679 149.366C55.4609 149.38 52.6295 149.811 49.6862 150.436C49.0752 150.6 48.9115 149.988 49.217 149.907Z" fill="#D9DBE9"/>
<path d="M49.8882 148.745C55.7746 147.495 62.0485 146.469 67.9569 146.523C68.1506 146.635 68.2324 146.94 68.0387 146.828C61.9067 147.162 55.9683 147.607 49.97 149.05C49.8582 149.244 49.5827 148.827 49.8882 148.745Z" fill="#D9DBE9"/>
<path d="M49.0012 148.491C54.0012 146.987 59.0829 145.789 64.2985 145.702C64.4921 145.813 64.3803 146.007 64.3803 146.007C59.2167 146.9 54.1649 147.598 49.1649 149.102C48.8594 149.184 48.6957 148.573 49.0012 148.491Z" fill="#D9DBE9"/>
<path d="M50.6706 147.389C53.0109 145.124 56.3196 143.419 59.732 143.323C59.9257 143.435 60.1194 143.547 59.8139 143.629C56.647 144.641 53.7856 145.572 51.2517 147.724C51.028 148.111 50.5588 147.582 50.6706 147.389Z" fill="#D9DBE9"/>
<path d="M51.5953 145.34C55.0158 143.441 59.4347 141.602 63.4282 141.842C63.6219 141.954 63.51 142.147 63.51 142.147C59.3448 143.1 55.5969 143.777 51.7591 145.951C51.3417 146.227 51.2898 145.422 51.5953 145.34Z" fill="#D9DBE9"/>
<path d="M55.1354 141.444C58.7196 140.157 62.6912 139.092 66.461 139.719C66.6547 139.831 66.5429 140.025 66.4311 140.219C62.6013 140.59 58.9951 140.574 55.2991 142.055C54.8818 142.331 54.8299 141.526 55.1354 141.444Z" fill="#D9DBE9"/>
<path d="M57.0281 139.955C60.7241 138.474 64.8894 137.521 68.9947 137.568C69.3002 137.486 69.1584 138.179 68.9648 138.067C64.7476 138.214 60.9996 138.891 56.9981 140.455C56.8863 140.648 56.9162 140.149 57.0281 139.955Z" fill="#D9DBE9"/>
<path d="M59.0333 138.271C64.1969 137.379 69.2787 136.181 74.5242 135.594C74.5242 135.594 74.7179 135.706 74.6061 135.899C69.5243 137.097 64.4724 137.796 59.197 138.882C59.0033 138.77 58.7278 138.353 59.0333 138.271Z" fill="#D9DBE9"/>
<path d="M61.731 136.731C66.4254 135.309 71.7309 133.724 76.6409 133.718C76.8346 133.83 76.9164 134.135 76.7228 134.023C71.8347 135.333 66.701 135.726 62.0066 137.148C61.5892 137.423 61.4255 136.812 61.731 136.731Z" fill="#D9DBE9"/>
<path d="M65.9258 135.279C70.0391 133.522 74.8454 131.907 79.3381 132.176C79.3381 132.176 79.5317 132.288 79.4199 132.482C74.9491 133.516 70.5083 134.051 66.0895 135.89C66.0895 135.89 65.5084 135.555 65.9258 135.279Z" fill="#D9DBE9"/>
<path d="M69.0416 133.461C72.514 132.367 76.4036 130.998 80.2035 131.126C80.3972 131.237 80.5909 131.349 80.2854 131.431C76.6193 132.413 72.9832 132.896 69.2053 134.072C69.0116 133.961 68.7361 133.543 69.0416 133.461Z" fill="#D9DBE9"/>
<path d="M73.1246 132.204C76.8206 130.722 80.7103 129.352 84.4283 129.175L84.5102 129.48C80.8441 130.463 76.9844 131.333 73.2883 132.815C73.0946 132.703 72.8191 132.286 73.1246 132.204Z" fill="#D9DBE9"/>
<path d="M73.7436 130.237C77.1341 128.837 80.912 127.661 84.63 127.484C84.8237 127.595 84.9055 127.901 84.7118 127.789C81.0457 128.771 77.4096 129.254 74.0191 130.654C73.9073 130.848 73.6318 130.431 73.7436 130.237Z" fill="#D9DBE9"/>
<path d="M73.4677 129.82C77.0519 128.532 80.6661 126.745 84.414 126.068C84.7195 125.986 84.8014 126.292 84.4959 126.374C81.1872 128.079 77.2157 129.143 73.6315 130.431C73.4378 130.319 72.9685 129.79 73.4677 129.82Z" fill="#D9DBE9"/>
<path d="M76.3073 127.585C79.8916 126.297 83.3939 124.704 87.2537 123.834C87.5592 123.752 87.641 124.057 87.3355 124.139C83.8332 125.732 80.0553 126.908 76.4711 128.196C76.1656 128.278 76.1955 127.779 76.3073 127.585Z" fill="#D9DBE9"/>
<path d="M78.5878 126.32C82.1201 124.227 86.569 121.889 90.5925 121.629C90.898 121.548 90.6743 121.935 90.5625 122.129C88.8113 122.925 86.7846 123.305 84.8397 123.989C82.783 124.868 80.7263 125.747 78.7515 126.931C78.3342 127.206 78.1705 126.595 78.5878 126.32Z" fill="#D9DBE9"/>
<path d="M79.4006 124.464C82.7093 122.759 86.629 120.89 90.4588 120.519C90.7643 120.437 90.7343 120.936 90.4288 121.018C86.6509 122.194 82.9848 123.176 79.5643 125.075C79.4525 125.269 79.2888 124.658 79.4006 124.464Z" fill="#D9DBE9"/>
<path d="M83.3801 121.598C86.1596 120.362 89.5502 118.962 92.5453 119.142C92.5453 119.142 92.739 119.254 92.6272 119.448C89.654 120.572 86.6289 120.891 83.5438 122.209C83.432 122.403 83.2683 121.792 83.3801 121.598Z" fill="#D9DBE9"/>
<path d="M84.6621 120.271C87.4416 119.035 90.7203 117.829 93.7155 118.009C93.9092 118.121 94.1028 118.233 93.7973 118.315C90.936 119.245 87.799 119.758 84.8258 120.882C84.5203 120.964 84.2448 120.547 84.6621 120.271Z" fill="#D9DBE9"/>
<path d="M87.2776 118.424C89.4161 117.851 91.6664 117.084 93.8868 116.817C94.1923 116.735 93.9687 117.122 93.9687 117.122C91.7183 117.889 89.5798 118.462 87.2476 118.923C86.942 119.005 87.1657 118.618 87.2776 118.424Z" fill="#D9DBE9"/>
<path d="M90.7284 116.026C92.2559 115.617 93.9772 115.32 95.5865 115.216C95.7802 115.328 95.6684 115.521 95.5565 115.715C93.9471 115.819 92.4197 116.228 90.7803 116.831C90.2811 116.801 90.4229 116.108 90.7284 116.026Z" fill="#D9DBE9"/>
<path d="M45.2318 147.863C46.4538 147.536 47.7876 147.015 49.0915 146.993L49.1734 147.298C48.0332 147.931 46.6176 148.147 45.3955 148.474C44.7845 148.638 44.9263 147.945 45.2318 147.863Z" fill="#D9DBE9"/>
<path d="M44.792 146.835C46.7669 145.651 49.1291 144.691 51.4313 144.729C51.625 144.841 51.5131 145.034 51.5131 145.034C49.2628 145.801 47.2361 146.18 45.0676 147.252C44.6502 147.528 44.4865 146.917 44.792 146.835Z" fill="#D9DBE9"/>
<path d="M44.964 145.644C47.3562 144.184 50.1357 142.948 53.1608 142.629C53.4663 142.547 53.7419 142.964 53.4363 143.046C50.6868 143.783 48.1309 144.631 45.5451 145.979C45.1278 146.255 44.6585 145.725 44.964 145.644Z" fill="#D9DBE9"/>
<path d="M45.7766 143.789C48.7498 142.664 51.8349 141.347 54.9718 140.834C54.9718 140.834 55.1655 140.945 55.0536 141.139C52.1623 142.569 48.9136 143.275 45.9404 144.4C45.6349 144.481 45.4711 143.87 45.7766 143.789Z" fill="#D9DBE9"/>
<path d="M46.4775 142.128C50.0617 140.84 54.0632 139.276 57.893 138.905C58.0867 139.017 58.2804 139.129 57.9749 139.211C54.3907 140.498 50.5309 141.369 46.753 142.545C46.4475 142.627 46.172 142.21 46.4775 142.128Z" fill="#D9DBE9"/>
<path d="M47.9834 140.414C51.5157 138.321 56.3519 136.207 60.621 136.864C60.8147 136.976 60.7028 137.169 60.591 137.363C56.2321 138.204 52.2905 138.769 48.3408 141.137C47.8416 141.107 47.6779 140.496 47.9834 140.414Z" fill="#D9DBE9"/>
<path d="M51.2401 137.904C55.4652 135.953 60.4951 133.951 65.2933 134.139C65.487 134.25 65.6807 134.362 65.3752 134.444C63.2366 135.017 60.8226 135.173 58.684 135.746C56.24 136.401 53.8777 137.361 51.5156 138.321C51.2919 138.709 50.8227 138.18 51.2401 137.904Z" fill="#D9DBE9"/>
<path d="M54.3848 135.588C60.3312 133.34 67.3879 130.958 73.6018 130.93C73.9073 130.848 73.8773 131.347 73.5718 131.429C70.7104 132.36 67.6853 132.679 64.7421 133.304C61.1878 134.093 57.7155 135.187 54.4368 136.393C54.2431 136.281 54.0793 135.67 54.3848 135.588Z" fill="#D9DBE9"/>
<path d="M57.7238 133.383C63.8939 130.748 71.4796 127.897 78.1628 128.398C78.1628 128.398 78.5501 128.622 78.2446 128.704C74.884 129.604 71.2779 129.588 67.9173 130.488C64.5568 131.389 61.0844 132.483 57.8875 133.994C57.7757 134.188 57.4183 133.465 57.7238 133.383Z" fill="#D9DBE9"/>
<path d="M63.4246 130.219C66.3978 129.094 69.5646 128.082 72.6197 127.264C74.1472 126.854 75.3693 126.527 76.785 126.311C77.5897 126.259 78.3125 125.902 79.1172 125.85C79.7282 125.686 81.0321 125.664 81.3376 125.582C81.2258 125.776 81.1439 125.471 81.1439 125.471C81.1439 125.471 81.1439 125.471 81.2557 125.277C81.2557 125.277 81.2557 125.277 81.4494 125.389L81.6431 125.501C81.8368 125.612 81.8368 125.612 81.725 125.806C81.5832 126.499 80.8903 126.357 80.2793 126.521C78.4462 127.012 76.5314 127.198 74.6983 127.689C71.0322 128.671 67.3662 129.654 63.782 130.941C63.3946 130.718 63.1191 130.3 63.4246 130.219Z" fill="#D9DBE9"/>
<path d="M70.3472 126.727C74.0432 125.245 77.9629 123.376 81.9864 123.117C82.1801 123.229 82.0682 123.422 82.0682 123.422C78.3722 124.904 74.207 125.856 70.5109 127.338C70.0117 127.308 70.0417 126.809 70.3472 126.727Z" fill="#D9DBE9"/>
<path d="M74.7141 124.083C77.4637 123.347 80.3251 122.416 83.1046 121.18C83.2164 120.987 83.2982 121.292 83.1864 121.486C80.6006 122.834 77.6274 123.958 74.8778 124.694C74.5723 124.776 74.4086 124.165 74.7141 124.083Z" fill="#D9DBE9"/>
<path d="M41.1557 172.368C39.4184 176.271 36.9583 180.532 33.5079 182.931C33.2024 183.012 33.1205 182.707 33.2324 182.513C36.1317 179.281 38.7256 176.13 40.5747 172.032C40.992 171.757 41.3794 171.98 41.1557 172.368Z" fill="#D9DBE9"/>
<path d="M-7.13288 195.621C-5.4336 194.019 -2.84776 192.672 -0.351811 192.822C-0.158128 192.933 -0.076263 193.239 -0.269946 193.127C-2.714 193.782 -4.85253 194.355 -6.74549 195.845C-7.08096 196.426 -7.2447 195.815 -7.13288 195.621Z" fill="#D9DBE9"/>
<path d="M-4.59859 193.468C-2.70562 191.978 -0.313462 190.519 2.37617 190.78C2.56985 190.892 2.45804 191.086 2.45804 191.086C0.0139921 191.741 -2.12455 192.314 -4.32302 193.885C-4.74035 194.161 -4.90409 193.55 -4.59859 193.468Z" fill="#D9DBE9"/>
<path d="M-2.95129 191.062C-0.507244 190.407 1.85492 189.447 4.18715 188.986C4.38083 189.098 4.26901 189.291 4.26901 189.291C1.90683 190.252 -0.5372 190.907 -2.98125 191.561C-3.28676 191.643 -3.2568 191.144 -2.95129 191.062Z" fill="#D9DBE9"/>
<path d="M-1.80321 188.626C0.976305 187.39 3.83771 186.46 6.66912 186.029C6.86281 186.141 7.0565 186.252 6.751 186.334C3.80776 186.959 0.94637 187.89 -1.63947 189.237C-1.63947 189.237 -1.91504 188.82 -1.80321 188.626Z" fill="#D9DBE9"/>
<path d="M0.395299 187.055C3.0111 185.208 6.73711 183.227 10.0897 184.13C10.2833 184.242 10.1715 184.435 10.0597 184.629C6.61728 185.224 3.59219 185.543 0.752742 187.778C0.335413 188.053 -0.0220298 187.33 0.395299 187.055Z" fill="#D9DBE9"/>
<path d="M3.23459 184.821C6.26772 182.698 9.65827 181.298 13.3463 181.62C13.54 181.732 13.6218 182.037 13.3163 182.119C9.5983 182.297 6.54329 183.115 3.39834 185.432C3.28651 185.625 3.12277 185.014 3.23459 184.821Z" fill="#D9DBE9"/>
<path d="M6.60322 182.118C9.99375 180.718 13.8834 179.349 17.4896 179.365C17.4896 179.365 17.6833 179.476 17.5714 179.67C14.099 180.764 10.4629 181.247 6.87873 182.535C6.76691 182.729 6.18589 182.393 6.60322 182.118Z" fill="#D9DBE9"/>
<path d="M9.94151 179.913C11.8045 178.923 13.973 177.851 16.1934 177.583C16.4989 177.501 16.469 178.001 16.2753 177.889C14.2186 178.767 12.2737 179.452 10.4107 180.443C9.88155 180.912 9.52418 180.189 9.94151 179.913Z" fill="#D9DBE9"/>
<path d="M34.5202 161.049C35.0932 163.187 36.0018 164.745 37.2976 166.526C37.4913 166.638 37.1858 166.72 37.1858 166.72C35.3608 165.408 34.4823 163.351 34.0211 161.019C33.9392 160.713 34.632 160.855 34.5202 161.049Z" fill="#D9DBE9"/>
<path d="M33.7076 162.903C34.4743 165.154 35.7702 166.935 37.5653 168.746C37.5653 168.746 37.6471 169.051 37.4534 168.94C35.4347 167.516 34.1688 165.236 33.4021 162.985C33.3202 162.68 33.6258 162.598 33.7076 162.903Z" fill="#D9DBE9"/>
<path d="M32.8131 164.452C33.7735 166.815 35.1512 168.901 36.8344 170.906C36.8344 170.906 36.9163 171.212 36.7226 171.1C34.622 169.371 33.2443 167.284 32.3958 164.728C32.2021 164.616 32.7312 164.147 32.8131 164.452Z" fill="#D9DBE9"/>
<path d="M31.9189 166.001C32.7974 168.058 34.2051 169.645 35.6128 171.233C35.8064 171.345 35.501 171.426 35.501 171.426C33.6759 170.115 32.4919 168.14 31.5015 166.277C31.6134 166.083 31.837 165.696 31.9189 166.001Z" fill="#D9DBE9"/>
<path d="M31.7468 167.194C32.6253 169.251 33.8393 170.727 35.1352 172.508C35.1352 172.508 35.217 172.813 35.0233 172.702C33.1983 171.39 32.0143 169.415 31.3294 167.47C31.2476 167.164 31.4712 166.777 31.7468 167.194Z" fill="#D9DBE9"/>
<path d="M30.0777 168.296C30.6807 169.936 31.701 171.299 33.0268 172.581C33.2205 172.693 33.1086 172.887 32.9149 172.775C31.1718 171.769 30.2633 170.211 29.6604 168.572C29.6903 168.073 29.9958 167.991 30.0777 168.296Z" fill="#D9DBE9"/>
<path d="M28.8555 168.623C29.9577 170.293 31.1717 171.768 32.3857 173.244C32.5794 173.356 32.2739 173.438 32.2739 173.438C30.7544 172.044 29.6522 170.375 28.55 168.705C28.3563 168.593 28.6618 168.512 28.8555 168.623Z" fill="#D9DBE9"/>
<path d="M27.879 169.868C28.2883 171.395 29.2267 172.454 30.5525 173.736C30.5525 173.736 30.6344 174.041 30.4407 173.929C28.8912 173.035 27.8709 171.671 27.5734 169.95C27.4916 169.644 27.7971 169.562 27.879 169.868Z" fill="#D9DBE9"/>
<path d="M26.8507 170.307C27.5355 172.252 28.6676 173.422 29.5761 174.98C29.5761 174.98 29.658 175.285 29.4643 175.173C28.0267 174.085 27.0363 172.222 26.5451 170.389C26.3515 170.277 26.7688 170.002 26.8507 170.307Z" fill="#D9DBE9"/>
<path d="M24.7936 171.185C25.5902 172.937 26.9161 174.219 28.1301 175.694L28.0182 175.888C26.3869 174.688 25.4784 173.13 24.4881 171.267C24.1007 171.044 24.5999 171.074 24.7936 171.185Z" fill="#D9DBE9"/>
<path d="M24.5406 172.072C25.1436 173.711 26.1639 175.075 27.0724 176.633C27.2661 176.744 27.1543 176.938 26.9606 176.826C25.6348 175.544 24.7262 173.987 24.2351 172.154C24.1532 171.848 24.3469 171.96 24.5406 172.072Z" fill="#D9DBE9"/>
<path d="M22.2904 172.839C23.087 174.59 24.1892 176.259 24.9858 178.01L24.874 178.204C23.7719 176.535 22.9752 174.784 22.1786 173.032C21.9849 172.921 22.2085 172.533 22.2904 172.839Z" fill="#D9DBE9"/>
<path d="M21.2316 173.778C22.1401 175.335 22.9368 177.086 23.7334 178.837C23.9271 178.949 23.5098 179.225 23.6216 179.031C22.7131 177.474 21.9164 175.722 21.008 174.165C20.7324 173.748 20.8442 173.554 21.2316 173.778Z" fill="#D9DBE9"/>
<path d="M20.4491 175.133C20.9702 176.467 21.4913 177.801 21.7069 179.217C21.7888 179.522 21.5951 179.41 21.4014 179.299C20.8803 177.965 20.3592 176.631 19.838 175.297C19.868 174.798 20.3672 174.828 20.4491 175.133Z" fill="#D9DBE9"/>
<path d="M18.5042 175.818C19.1072 177.457 19.7101 179.096 20.6186 180.654C20.8123 180.766 20.5069 180.848 20.3132 180.736C19.0992 179.26 18.608 177.427 18.005 175.788C17.9232 175.482 18.4223 175.512 18.5042 175.818Z" fill="#D9DBE9"/>
<path d="M16.7528 176.614C17.4676 178.06 17.9888 179.394 18.5099 180.728C18.5099 180.728 18.2863 181.115 18.3981 180.921C17.5714 179.669 17.1621 178.142 16.641 176.808C16.3355 176.89 16.5591 176.502 16.7528 176.614Z" fill="#D9DBE9"/>
<path d="M15.5008 177.441C16.1337 178.581 16.4612 179.803 17.0941 180.943C17.176 181.249 16.9823 181.137 16.7886 181.025C16.1557 179.885 15.5227 178.745 15.0016 177.411C14.8079 177.299 15.3071 177.329 15.5008 177.441Z" fill="#D9DBE9"/>
<path d="M14.2488 178.267C14.8818 179.407 15.3211 180.435 15.6485 181.657L15.5367 181.851C15.2093 180.629 14.77 179.601 14.137 178.461C13.9433 178.349 14.0552 178.155 14.2488 178.267Z" fill="#D9DBE9"/>
<path d="M31.9724 160.094C30.958 163.64 29.7199 167.573 27.156 170.225C27.0442 170.419 26.7686 170.001 26.7686 170.001C28.4759 166.597 30.2651 163.498 31.3913 159.758C31.615 159.371 32.1961 159.706 31.9724 160.094Z" fill="#D9DBE9"/>
<path d="M30.393 159.699C29.4604 163.55 27.8349 167.26 25.241 170.411C25.1292 170.605 25.0474 170.299 25.0474 170.299C27.0602 166.813 28.9612 163.52 29.8938 159.669C30.1174 159.281 30.5048 159.505 30.393 159.699Z" fill="#D9DBE9"/>
<path d="M29.4548 158.64C28.5222 162.492 26.755 166.894 23.8856 169.628C23.7738 169.822 23.4982 169.404 23.61 169.211C25.9284 165.642 27.8294 162.35 28.9856 158.111C28.9037 157.805 29.4847 158.141 29.4548 158.64Z" fill="#D9DBE9"/>
<path d="M27.6139 160.934C25.4893 164.614 23.4465 168.599 20.7408 171.944C20.629 172.138 20.4353 172.026 20.5471 171.832C22.2844 167.928 25.1019 164.39 27.2265 160.71C27.3383 160.517 27.7257 160.74 27.6139 160.934Z" fill="#D9DBE9"/>
<path d="M24.1249 165.634C21.8066 169.202 19.1828 172.852 15.7024 175.749C15.5905 175.943 15.5087 175.638 15.6205 175.444C18.3262 172.099 21.4193 168.978 23.8494 165.217C24.0731 164.829 24.3486 165.247 24.1249 165.634Z" fill="#D9DBE9"/>
<path d="M21.8152 167.398C19.1096 170.743 16.2621 174.78 12.6998 177.372C12.588 177.566 12.3124 177.148 12.4243 176.955C15.2418 173.416 18.5285 170.407 21.1523 166.757C21.6515 166.787 22.1208 167.316 21.8152 167.398Z" fill="#D9DBE9"/>
<path d="M18.3645 169.798C16.1879 172.673 13.7059 175.63 10.9483 178.17C10.8365 178.363 10.5609 177.946 10.5609 177.946C12.9311 175.183 15.495 172.531 17.9771 169.574C18.2007 169.187 18.4763 169.604 18.3645 169.798Z" fill="#D9DBE9"/>
<path d="M14.4969 172.471C12.6259 175.264 10.2257 178.527 7.41625 180.262C7.30442 180.456 7.22255 180.15 7.22255 180.15C9.59277 177.387 12.1267 175.234 14.1096 172.247C14.3332 171.86 14.6088 172.277 14.4969 172.471Z" fill="#D9DBE9"/>
<path d="M9.86774 177.805C8.50393 178.825 7.14013 179.845 5.58263 180.754C5.47081 180.947 5.19524 180.53 5.30707 180.336C6.58902 179.011 8.14656 178.102 9.51037 177.082C9.81588 177 10.1732 177.723 9.86774 177.805Z" fill="#D9DBE9"/>
<path d="M-13.9006 133.093C-8.94672 135.695 -3.73918 137.41 1.35651 139.319C1.55019 139.431 1.43838 139.625 1.2447 139.513C-4.1046 138.49 -9.47587 136.164 -14.1243 133.48C-14.318 133.369 -14.0943 132.981 -13.9006 133.093Z" fill="#D9DBE9"/>
<path d="M-7.76253 137.67C-3.27785 139.742 1.57224 140.735 6.31053 141.921C6.31053 141.921 6.50421 142.033 6.39239 142.227C1.48236 142.233 -3.50154 140.13 -7.79253 138.169C-7.98622 138.057 -7.95621 137.558 -7.76253 137.67Z" fill="#D9DBE9"/>
<path d="M1.31858 141.621C5.83322 143.195 10.3259 143.465 14.7886 144.233C14.9823 144.345 14.8705 144.539 14.8705 144.539C10.3179 145.268 5.49777 143.776 1.28864 142.121C1.09495 142.009 0.931218 141.398 1.31858 141.621Z" fill="#D9DBE9"/>
<path d="M9.07398 144.291C12.151 144.776 15.1461 144.956 18.1931 145.941C18.3868 146.052 18.4687 146.358 18.275 146.246C15.3617 146.372 12.121 145.275 9.23767 144.902C8.5448 144.76 8.68662 144.067 9.07398 144.291Z" fill="#D9DBE9"/>
<path d="M13.5071 145.559C15.7794 146.096 18.2753 146.246 20.5476 146.783C20.5476 146.783 20.8231 147.2 20.6294 147.088C18.409 147.356 15.6376 146.789 13.3653 146.251C13.1716 146.14 13.0079 145.529 13.5071 145.559Z" fill="#D9DBE9"/>
<path d="M17.6643 146.409C18.4391 146.857 19.0201 147.192 19.713 147.334C19.9067 147.446 19.683 147.833 19.683 147.833C18.6847 147.773 18.2973 147.55 17.5226 147.102C17.1352 146.879 17.4707 146.298 17.6643 146.409Z" fill="#D9DBE9"/>
<path d="M60.1462 174.811C63.0135 178.79 66.1862 182.688 68.5243 187.137L68.4125 187.33C65.5452 183.351 62.7079 178.872 60.1462 174.811C60.258 174.617 60.1462 174.811 60.1462 174.811Z" fill="#D9DBE9"/>
<path d="M62.8285 176.875C65.3902 180.936 68.3693 184.722 70.8192 188.978C71.0129 189.089 70.7074 189.171 70.7074 189.171C67.7284 185.385 65.2784 181.13 62.7166 177.069C62.523 176.957 62.9403 176.681 62.8285 176.875Z" fill="#D9DBE9"/>
<path d="M65.3161 178.827C67.4905 182.665 70.194 186.034 72.3684 189.871C72.5621 189.983 72.2566 190.065 72.2566 190.065C69.553 186.696 67.3787 182.859 65.2043 179.021C64.8169 178.797 65.1224 178.715 65.3161 178.827Z" fill="#D9DBE9"/>
<path d="M68.1096 180.699C69.9265 183.814 72.049 186.848 73.866 189.963C74.0597 190.074 73.7541 190.156 73.7541 190.156C71.5198 187.317 69.8147 184.008 68.1096 180.699C67.9159 180.588 67.6104 180.669 68.1096 180.699Z" fill="#D9DBE9"/>
<path d="M71.2606 183.292C73.0257 185.603 74.4852 187.995 75.5275 190.662C75.5275 190.662 75.4157 190.856 75.222 190.744C73.8742 188.159 72.4146 185.766 70.7613 183.262C70.7613 183.262 71.0669 183.181 71.2606 183.292Z" fill="#D9DBE9"/>
<path d="M43.6215 173.017C45.5503 175.938 47.4791 178.859 48.7969 181.944C48.9906 182.056 48.6851 182.138 48.6851 182.138C46.6444 179.41 44.8275 176.295 43.5097 173.21C43.4278 172.905 43.5396 172.711 43.6215 173.017Z" fill="#D9DBE9"/>
<path d="M45.3645 174.023C47.2634 177.444 49.6614 180.894 51.3366 184.702C51.5303 184.814 51.2248 184.896 51.0311 184.784C48.8267 181.445 46.846 177.719 44.9472 174.299C44.6716 173.882 45.1708 173.911 45.3645 174.023Z" fill="#D9DBE9"/>
<path d="M46.9358 176.221C49.222 179.865 51.9775 184.039 53.429 188.234C53.6227 188.346 53.3172 188.428 53.1235 188.316C50.6436 184.56 48.6929 180.335 46.5185 176.497C46.3548 175.886 46.854 175.916 46.9358 176.221Z" fill="#D9DBE9"/>
<path d="M47.8823 175.477C50.1685 179.122 52.6483 182.878 54.5172 186.797L54.4054 186.991C52.1192 183.347 49.9448 179.509 47.6586 175.865C47.5768 175.559 47.6886 175.366 47.8823 175.477Z" fill="#D9DBE9"/>
<path d="M49.1044 175.149C51.8898 178.823 54.9208 183.414 55.8432 188.079L55.7314 188.272C53.587 183.935 51.9417 179.628 48.9627 175.842C48.6871 175.425 48.7171 174.926 49.1044 175.149Z" fill="#D9DBE9"/>
<path d="M51.3684 177.491C53.2972 180.412 55.4197 183.445 56.5138 186.918L56.402 187.111C54.4732 184.19 53.0735 180.799 51.0329 178.072C50.7573 177.655 51.2865 177.185 51.3684 177.491Z" fill="#D9DBE9"/>
<path d="M53.8347 178.139C55.2943 180.531 56.9475 183.035 58.2953 185.621C58.489 185.733 58.0717 186.008 58.1835 185.814C56.4184 183.504 55.0706 180.918 53.4174 178.414C53.1418 177.997 53.5592 177.722 53.8347 178.139Z" fill="#D9DBE9"/>
<path d="M37.9123 177.985C39.1482 180.764 40.496 183.35 41.9256 186.241C42.1193 186.353 41.8137 186.435 41.8137 186.435C39.855 184.013 38.6191 181.233 37.6886 178.372C37.4131 177.955 37.7186 177.873 37.9123 177.985Z" fill="#D9DBE9"/>
<path d="M37.8966 181.59C39.0507 184.064 40.7039 186.568 42.2753 188.767C42.469 188.879 42.3572 189.072 42.1635 188.961C40.2866 186.844 38.827 184.452 37.5911 181.672C37.5092 181.367 37.8147 181.285 37.8966 181.59Z" fill="#D9DBE9"/>
<path d="M37.5012 183.17C40.033 187.731 43.2877 191.934 46.125 196.413L46.0131 196.607C42.5349 192.791 39.8094 188.118 37.2776 183.558C37.002 183.14 37.3075 183.058 37.5012 183.17Z" fill="#D9DBE9"/>
<path d="M37.3211 186.165C39.793 191.724 42.9058 196.62 46.5178 201.547C46.7115 201.658 46.406 201.74 46.406 201.74C42.2649 197.283 39.182 191.888 37.0156 186.247C36.7401 185.83 37.2393 185.86 37.3211 186.165Z" fill="#D9DBE9"/>
<path d="M36.1651 190.405C38.7488 195.77 42.0853 200.279 45.5036 205.093C45.5036 205.093 45.5855 205.398 45.3918 205.287C41.3325 201.135 38.3315 196.045 35.7478 190.68C35.8596 190.486 36.0833 190.099 36.1651 190.405Z" fill="#D9DBE9"/>
<path d="M36.3125 194.622C40.4756 200.382 45.2497 205.979 48.9955 212.016C49.1892 212.128 49.0774 212.321 48.8837 212.209C44.1914 206.918 40.252 200.77 36.0889 195.009C35.8952 194.897 36.1188 194.51 36.3125 194.622Z" fill="#D9DBE9"/>
<path d="M90.9842 176.862C91.4674 180.498 95.6984 183.458 98.1564 185.91C100.339 187.944 102.715 190.091 104.785 192.319C104.979 192.431 104.674 192.513 104.674 192.513C101.329 189.807 98.2082 186.714 95.0874 183.621C93.2923 181.81 90.8045 179.857 90.8724 177.056C90.9024 176.557 91.0961 176.669 90.9842 176.862Z" fill="#D9DBE9"/>
<path d="M60.7096 185.465C63.6368 188.446 66.564 191.428 69.2675 194.796C69.4612 194.908 69.1557 194.99 69.1557 194.99C66.1167 192.202 63.4131 188.834 60.5978 185.659C60.2104 185.435 60.6277 185.16 60.7096 185.465Z" fill="#D9DBE9"/>
<path d="M97.9285 199.723C93.5556 197.456 88.6836 195.16 84.5344 192.506C84.3407 192.394 84.3707 191.895 84.7581 192.119C89.2427 194.191 93.5856 196.957 98.1521 199.335C98.234 199.641 98.3159 199.946 97.9285 199.723Z" fill="#D9DBE9"/>
<path d="M96.9 200.162C91.998 198.365 86.5149 196.232 82.3957 193.079C82.202 192.967 82.3138 192.774 82.6193 192.692C87.5213 194.489 92.1398 197.672 97.1237 199.775C97.0118 199.968 97.0937 200.274 96.9 200.162Z" fill="#D9DBE9"/>
<path d="M95.9235 201.407C88.9728 198.685 81.7466 195.546 75.8023 191.081C75.8023 191.081 75.7205 190.776 75.9142 190.887C82.6412 193.997 89.1146 197.992 96.0353 201.213C96.3408 201.131 96.1171 201.519 95.9235 201.407Z" fill="#D9DBE9"/>
<path d="M92.9505 202.53C85.4488 198.974 77.7534 195.305 71.1163 190.699C70.9226 190.587 71.0344 190.393 71.2281 190.505C78.618 194.255 85.7843 198.393 93.1742 202.143C93.5616 202.366 93.3379 202.754 92.9505 202.53Z" fill="#D9DBE9"/>
<path d="M88.7856 203.482C79.6225 199.225 70.4076 194.163 62.6983 187.388C62.5046 187.276 62.6165 187.082 62.8101 187.194C71.4959 192.725 79.7643 198.532 88.8974 203.289C89.0911 203.401 88.9793 203.594 88.7856 203.482Z" fill="#D9DBE9"/>
<path d="M86.2815 205.136C79.227 200.805 71.7852 196.25 65.6253 190.369C65.4316 190.258 65.6553 189.87 65.849 189.982C72.7916 194.507 79.4807 199.918 86.5052 204.749C86.5052 204.749 86.4752 205.248 86.2815 205.136Z" fill="#D9DBE9"/>
<path d="M84.2848 205.015C78.1388 202.242 72.1347 198.775 67.3006 194.177C67.1069 194.065 67.3306 193.677 67.5243 193.789C73.1111 197.531 78.2806 201.549 84.5084 204.628C84.7021 204.74 84.4785 205.127 84.2848 205.015Z" fill="#D9DBE9"/>
<path d="M83.003 206.342C78.4365 203.963 73.6762 201.473 69.3633 198.209C69.1696 198.097 69.1996 197.598 69.587 197.821C74.1535 200.199 78.4664 203.464 83.0329 205.842C83.2266 205.954 83.1967 206.454 83.003 206.342Z" fill="#D9DBE9"/>
<path d="M57.2429 166.42C59.6789 167.569 61.5858 169.186 63.269 171.191C63.3509 171.496 63.2391 171.69 62.8517 171.466C61.0566 169.655 59.1497 168.038 57.0192 166.808C57.0192 166.808 56.9374 166.502 57.2429 166.42Z" fill="#D9DBE9"/>
<path d="M59.7393 166.57C62.2572 168.024 64.857 169.783 66.5102 172.287C66.7039 172.399 66.3984 172.48 66.2047 172.369C64.1341 170.14 62.1454 168.217 59.5157 166.957C59.322 166.845 59.3519 166.346 59.7393 166.57Z" fill="#D9DBE9"/>
<path d="M61.1548 166.354C63.7027 167.309 66.4143 168.874 67.8738 171.266C68.0675 171.378 67.8439 171.766 67.6502 171.654C65.3559 169.813 63.4491 168.195 60.8194 166.935C60.432 166.712 60.7675 166.131 61.1548 166.354Z" fill="#D9DBE9"/>
<path d="M64.0687 166.228C66.4228 167.07 68.9407 168.524 70.4003 170.916C70.594 171.028 70.1766 171.304 70.1766 171.304C68.0761 169.574 66.3629 168.069 63.9269 166.921C63.5395 166.697 63.7632 166.31 64.0687 166.228Z" fill="#D9DBE9"/>
<path d="M66.1768 166.155C68.8884 167.721 71.7936 169.398 73.7524 171.82C73.946 171.932 73.7224 172.319 73.5287 172.208C70.929 170.448 68.5529 168.302 65.8413 166.736C65.6477 166.624 65.7894 165.932 66.1768 166.155Z" fill="#D9DBE9"/>
<path d="M68.6731 166.304C71.6902 167.787 75.2583 170.106 76.8816 173.109C77.0753 173.221 76.7698 173.302 76.7698 173.302C75.5258 172.326 74.5055 170.962 73.2616 169.986C71.9357 168.704 70.1926 167.697 68.5313 166.996C68.1439 166.773 68.2858 166.08 68.6731 166.304Z" fill="#D9DBE9"/>
<path d="M70.9449 166.842C74.0438 168.631 77.2246 170.726 79.0416 173.841C79.2352 173.952 78.9297 174.034 78.7361 173.922C76.0844 171.358 73.8202 169.018 70.7213 167.229C70.5276 167.117 70.5575 166.618 70.9449 166.842Z" fill="#D9DBE9"/>
<path d="M73.7468 166.91C76.7339 168.893 80.0784 171.598 81.5899 174.795C81.6718 175.101 81.3662 175.183 81.1725 175.071C80.0404 173.901 79.0201 172.537 77.8061 171.061C76.4803 169.779 74.9608 168.386 73.3295 167.185C73.024 167.267 73.3594 166.686 73.7468 166.91Z" fill="#D9DBE9"/>
<path d="M75.8251 167.336C80.0042 169.49 83.2888 173.194 85.5451 177.337C85.7387 177.449 85.5151 177.837 85.3214 177.725C82.1187 174.326 79.9442 170.488 75.6832 168.028C75.2958 167.805 75.4377 167.112 75.8251 167.336Z" fill="#D9DBE9"/>
<path d="M79.7287 169.072C83.4306 172.501 87.0726 176.928 88.9934 181.652C89.1871 181.764 88.8815 181.846 88.8815 181.846C86.0443 177.367 83.4825 173.306 79.5051 169.46C79.1177 169.236 79.3413 168.849 79.7287 169.072Z" fill="#D9DBE9"/>
<path d="M83.4309 172.5C87.6839 176.764 91.9889 181.831 93.8497 187.554C93.9316 187.86 93.7379 187.748 93.5442 187.636C90.1558 182.323 87.3485 177.345 83.0136 172.776C82.7381 172.359 83.1554 172.083 83.4309 172.5Z" fill="#D9DBE9"/>
<path d="M87.4382 175.848C91.9667 180.529 95.9661 185.678 98.5198 191.543C98.6016 191.848 98.2961 191.93 98.2143 191.625C95.0495 185.924 91.7431 180.916 87.2145 176.235C86.8272 176.012 87.0508 175.624 87.4382 175.848Z" fill="#D9DBE9"/>
<path d="M93.0769 180.395C96.4952 185.209 99.8836 190.522 102.05 196.163C102.132 196.469 101.938 196.357 101.745 196.245C98.8553 190.962 96.2716 185.596 92.6596 180.67C92.5777 180.365 92.995 180.089 93.0769 180.395Z" fill="#D9DBE9"/>
<path d="M96.9427 184.434C100.778 188.973 103.25 194.532 104.917 200.143C104.999 200.448 104.612 200.224 104.612 200.224C102.028 194.859 100.249 189.442 96.5253 184.709C96.4435 184.404 96.749 184.322 96.9427 184.434Z" fill="#D9DBE9"/>
<path d="M101.686 190.53C102.87 192.504 103.861 194.367 104.933 196.536L104.821 196.73C103.749 194.561 102.677 192.393 101.686 190.53C101.605 190.224 101.493 190.418 101.686 190.53Z" fill="#D9DBE9"/>
<path d="M101.016 191.691C97.3058 190.066 93.5959 188.44 90.1096 186.428C89.9159 186.316 90.0278 186.122 90.3333 186.04C94.155 187.472 97.6413 189.485 101.239 191.304C101.239 191.304 101.209 191.803 101.016 191.691Z" fill="#D9DBE9"/>
<path d="M98.2822 188.822C93.7157 186.444 88.8955 184.952 83.9935 183.155C83.7998 183.043 83.9116 182.849 83.9116 182.849C88.9554 183.954 93.6338 186.138 98.2004 188.516C98.6995 188.546 98.6696 189.046 98.2822 188.822Z" fill="#D9DBE9"/>
<path d="M95.8243 186.37C91.9506 184.134 88.2406 182.508 83.9197 181.047C83.726 180.935 83.8378 180.741 84.0315 180.853C88.1887 181.704 92.4798 183.665 95.9361 186.177C96.1298 186.289 96.018 186.482 95.8243 186.37Z" fill="#D9DBE9"/>
<path d="M92.9789 183.695C88.8816 181.846 84.5607 180.384 80.3516 178.728C80.1579 178.617 80.076 178.311 80.3815 178.229C84.8442 178.998 89.3289 181.071 93.0089 183.196C93.3963 183.419 93.3663 183.918 92.9789 183.695Z" fill="#D9DBE9"/>
<path d="M91.7949 181.72C86.2899 178.283 80.7768 176.65 74.7646 174.986C74.571 174.874 74.4891 174.569 74.6828 174.681C80.8667 175.152 86.9009 178.119 92.0185 181.332C92.1004 181.638 92.1822 181.943 91.7949 181.72Z" fill="#D9DBE9"/>
<path d="M90.1418 179.216C83.1692 175.19 75.7931 174.547 68.0897 172.682C67.896 172.57 68.0078 172.377 68.0078 172.377C75.8012 172.744 83.6983 174.721 90.3654 178.829C90.3654 178.829 90.3355 179.328 90.1418 179.216Z" fill="#D9DBE9"/>
<path d="M83.3931 174.803C75.7496 171.94 68.4555 171.602 60.3267 171.815C60.133 171.704 60.0511 171.398 60.2448 171.51C67.7706 169.657 76.3906 171.277 83.4231 174.304C83.7286 174.222 83.5868 174.915 83.3931 174.803Z" fill="#D9DBE9"/>
<path d="M77.9698 171.672C71.4884 169.479 65.3563 169.813 58.7251 170.116C58.5314 170.004 58.4495 169.699 58.6432 169.811C64.7833 167.674 72.1293 168.817 77.9997 171.173C78.3053 171.091 78.2753 171.59 77.9698 171.672Z" fill="#D9DBE9"/>
<path d="M71.518 168.98C67.219 168.822 62.6963 169.052 58.3972 168.894C58.3972 168.894 58.2036 168.782 58.3154 168.589C62.6444 168.247 67.2489 168.323 71.5479 168.481C71.7416 168.593 72.0172 169.01 71.518 168.98Z" fill="#D9DBE9"/>
<path d="M51.3206 188.308C55.358 191.155 59.8646 194.532 62.7318 198.511C62.7318 198.511 62.7019 199.011 62.5082 198.899C58.6945 195.664 55.328 191.654 51.4024 188.613C51.2088 188.501 51.1269 188.196 51.3206 188.308Z" fill="#D9DBE9"/>
<path d="M50.4783 190.662C55.5959 193.875 60.8473 198.198 64.1538 203.206C64.3475 203.318 64.2357 203.511 64.042 203.399C59.7071 198.831 55.7596 194.486 50.3665 190.855C50.3665 190.855 50.3964 190.356 50.4783 190.662Z" fill="#D9DBE9"/>
<path d="M52.8156 195.112C58.4843 199.16 64.3167 203.818 68.398 209.273C68.5917 209.385 68.2862 209.467 68.2862 209.467C63.0647 204.645 58.4543 199.659 52.5919 195.499C52.0927 195.469 52.4282 194.888 52.8156 195.112Z" fill="#D9DBE9"/>
<path d="M54.3795 199.113C59.1916 202.408 64.2793 206.12 67.8094 210.74C68.0031 210.852 67.7795 211.239 67.5858 211.128C63.1091 207.252 59.0498 203.101 54.1559 199.5C53.9622 199.388 53.9922 198.889 54.3795 199.113Z" fill="#D9DBE9"/>
<path d="M18.7283 150.381C18.8401 150.188 18.7583 149.882 18.982 149.495C19.1756 149.607 19.0638 149.8 19.2575 149.912C15.7551 151.505 12.722 153.628 9.49517 155.639C9.18967 155.72 9.10785 155.415 9.21967 155.221C11.7836 152.57 15.6214 150.395 19.0938 149.301C19.3993 149.219 19.4811 149.525 19.3693 149.718C19.2575 149.912 19.1456 150.106 18.922 150.493C18.8102 150.687 18.6165 150.575 18.7283 150.381Z" fill="#D9DBE9"/>
<path d="M12.3265 155.207C9.40516 157.136 6.40204 158.759 3.48074 160.688C3.36892 160.882 3.28703 160.576 3.39886 160.382C5.73911 158.118 9.07772 155.914 12.2446 154.901C12.4383 155.013 12.3265 155.207 12.3265 155.207Z" fill="#D9DBE9"/>
<path d="M10.2017 158.888C6.50562 160.369 3.36066 162.685 0.133847 164.696C0.0220238 164.89 -0.253494 164.473 -0.141671 164.279C2.53405 161.434 6.45376 159.565 10.1498 158.083C10.3435 158.195 10.5072 158.806 10.2017 158.888Z" fill="#D9DBE9"/>
<path d="M6.46791 162.67C3.07738 164.07 0.349764 166.11 -2.02045 168.874C-2.13228 169.068 -2.40778 168.65 -2.29595 168.457C-0.11942 165.581 2.9137 163.459 6.49791 162.171C6.80342 162.089 6.77341 162.588 6.46791 162.67Z" fill="#D9DBE9"/>
<path d="M1.59355 167.087C-0.523056 168.964 -2.36412 171.258 -4.48073 173.135C-4.59255 173.329 -4.67442 173.023 -4.67442 173.023C-3.22072 170.505 -0.992247 168.435 1.20622 166.863C1.42987 166.476 1.8172 166.7 1.59355 167.087Z" fill="#D9DBE9"/>
<path d="M-9.84071 112.194C-6.60803 115.094 -3.37538 117.993 -0.783662 121.555C-0.589979 121.667 -0.895445 121.749 -1.08913 121.637C-4.01631 118.656 -6.83167 115.481 -10.0644 112.582C-10.3399 112.164 -10.1163 111.777 -9.84071 112.194Z" fill="#D9DBE9"/>
<path d="M-7.76158 112.62C-4.25335 115.936 -0.469587 119.67 2.09216 123.732C2.28585 123.844 2.17402 124.037 1.98033 123.925C-1.41608 120.415 -4.28331 116.435 -7.98522 113.007C-8.37259 112.783 -8.03712 112.202 -7.76158 112.62Z" fill="#D9DBE9"/>
<path d="M-4.79626 113.298C-1.86908 116.279 1.05812 119.26 3.15064 122.793C3.34433 122.905 3.03883 122.986 3.03883 122.986C0.417155 119.923 -2.09274 116.667 -5.01992 113.685C-5.29546 113.268 -5.18362 113.074 -4.79626 113.298Z" fill="#D9DBE9"/>
<path d="M-1.74986 114.283C0.759994 117.54 3.38167 120.603 5.69784 123.748L5.58603 123.942C2.96435 120.879 0.648174 117.734 -1.9735 114.671C-2.16718 114.559 -2.13722 114.06 -1.74986 114.283Z" fill="#D9DBE9"/>
<path d="M-0.892628 115.036C2.03455 118.017 5.04359 121.304 7.74713 124.673C7.94081 124.785 7.71716 125.172 7.6353 124.866C4.70812 121.885 2.00459 118.517 -1.11627 115.424C-1.30995 115.312 -1.08631 114.924 -0.892628 115.036Z" fill="#D9DBE9"/>
<path d="M0.0232887 114.79C3.44966 117.801 6.65236 121.2 9.32593 125.068C9.51962 125.18 9.29598 125.567 9.21412 125.262C6.3169 121.781 3.41969 118.301 -0.00667637 115.29C-0.20036 115.178 -0.170394 114.678 0.0232887 114.79Z" fill="#D9DBE9"/>
<path d="M2.13228 114.716C6.16163 119.366 10.4965 123.935 13.9967 129.055L13.8849 129.248C9.74373 124.792 5.93797 119.754 1.90862 115.103C1.82676 114.798 2.05042 114.41 2.13228 114.716Z" fill="#D9DBE9"/>
<path d="M4.67947 115.672C8.51514 120.21 12.7382 124.973 15.7392 130.062C15.9329 130.174 15.7092 130.562 15.6274 130.256C11.7917 125.717 8.48518 120.709 4.45582 116.059C4.06846 115.835 4.2921 115.448 4.67947 115.672Z" fill="#D9DBE9"/>
<path d="M6.6165 116.789C10.9813 120.859 15.7036 125.651 17.9817 131.099C18.1754 131.21 17.7581 131.486 17.8699 131.292C13.9524 126.448 10.8395 121.552 6.28102 117.371C6.00548 116.953 6.53464 116.484 6.6165 116.789Z" fill="#D9DBE9"/>
<path d="M9.99147 118.996C13.1642 122.893 16.6425 126.709 18.9806 131.158C19.1743 131.27 18.9507 131.657 18.8688 131.352C15.5842 127.648 12.7469 123.169 9.76783 119.383C9.38046 119.159 9.79779 118.884 9.99147 118.996Z" fill="#D9DBE9"/>
<path d="M12.0613 121.225C15.4577 124.735 19.4052 129.08 21.4378 133.611C21.6315 133.723 21.4078 134.11 21.326 133.804C18.0713 129.601 15.5096 125.54 11.8377 121.612C11.2566 121.276 11.6739 121.001 12.0613 121.225Z" fill="#D9DBE9"/>
<path d="M16.8137 125.518C19.048 128.358 21.7515 131.726 23.1512 135.117C23.2331 135.422 23.0394 135.31 22.8457 135.199C20.4177 132.247 18.6307 128.633 16.5082 125.6C16.1208 125.376 16.62 125.406 16.8137 125.518Z" fill="#D9DBE9"/>
<path d="M19.1601 128.164C20.7615 129.863 22.251 131.756 23.1295 133.813C23.3232 133.924 22.9059 134.2 22.7122 134.088C21.2227 132.195 20.2323 130.332 18.6309 128.633C18.7428 128.439 19.0782 127.858 19.1601 128.164Z" fill="#D9DBE9"/>
<path d="M20.3226 128.834C21.924 130.533 23.6072 132.538 24.4558 135.094C24.4558 135.094 24.3439 135.287 24.1502 135.175C22.7725 133.089 21.5885 131.114 20.099 129.221C19.9053 129.109 20.1289 128.722 20.3226 128.834Z" fill="#D9DBE9"/>
<path d="M22.2291 130.452C23.4431 131.927 24.4634 133.291 25.3719 134.849C25.4538 135.154 25.2601 135.042 25.0664 134.931C24.0461 133.567 22.8321 132.091 21.8118 130.727C21.5363 130.31 21.9536 130.035 22.2291 130.452Z" fill="#D9DBE9"/>
<path d="M16.3785 136.112C17.7044 137.394 19.112 138.981 20.1323 140.345C20.326 140.457 20.2142 140.651 20.0205 140.539C18.5829 139.45 17.1752 137.863 16.073 136.194C15.6856 135.97 16.1849 136 16.3785 136.112Z" fill="#D9DBE9"/>
<path d="M14.7987 135.717C16.5638 138.027 18.858 139.868 20.6231 142.179C20.8168 142.29 20.3995 142.566 20.3995 142.566C17.9934 140.919 16.2283 138.608 14.4632 136.298C14.3814 135.993 14.605 135.605 14.7987 135.717Z" fill="#D9DBE9"/>
<path d="M15.0145 137.133C16.6378 140.136 19.1257 142.089 21.2782 144.623C21.4719 144.734 21.2482 145.122 21.0545 145.01C18.2311 143.638 16.0268 140.299 14.7909 137.52C14.5153 137.103 14.9326 136.827 15.0145 137.133Z" fill="#D9DBE9"/>
<path d="M13.8446 138.265C16.3844 141.022 19.1478 143.392 21.7995 145.956C21.9931 146.068 21.8514 146.761 21.464 146.537C18.5887 144.361 15.8552 141.491 13.5091 138.846C13.4272 138.54 13.7627 137.959 13.8446 138.265Z" fill="#D9DBE9"/>
<path d="M13.7025 138.957C15.1102 140.545 16.5179 142.132 18.2311 143.638C19.5569 144.92 21.3001 145.926 22.6259 147.208C22.8196 147.32 22.7078 147.514 22.4022 147.596C18.6923 145.97 15.6014 142.378 13.2853 139.233C13.2034 138.927 13.427 138.54 13.7025 138.957Z" fill="#D9DBE9"/>
<path d="M11.7879 139.143C13.9404 141.677 16.7337 143.548 19.1098 145.695C19.3035 145.807 19.0799 146.194 18.8862 146.082C15.8691 144.599 13.523 141.953 11.3706 139.419C11.2887 139.113 11.5942 139.031 11.7879 139.143Z" fill="#D9DBE9"/>
<path d="M9.35167 137.996C11.7797 140.947 14.8486 143.235 17.694 145.911C17.8876 146.023 17.5821 146.105 17.5821 146.105C14.2895 144.204 11.4742 141.029 9.23986 138.189C8.54699 138.047 8.9643 137.772 9.35167 137.996Z" fill="#D9DBE9"/>
<path d="M8.24189 138.129C9.37402 139.299 10.588 140.775 11.7202 141.945C12.1894 142.474 13.8207 143.674 14.3718 144.509C15.0047 145.649 14.0283 146.893 12.8363 146.721C10.2585 146.266 11.6902 142.444 14.0963 144.091C14.2899 144.203 14.1781 144.397 13.9844 144.285C12.9042 143.92 11.8839 142.556 11.3328 141.721C10.2007 140.551 9.26221 139.493 8.13007 138.323C7.54902 137.987 7.96634 137.712 8.24189 138.129Z" fill="#D9DBE9"/>
<path d="M6.77397 137.54C8.62091 140.156 11.1088 142.109 13.2613 144.643C13.455 144.754 13.2313 145.142 13.0376 145.03C10.3261 143.464 8.20364 140.431 6.35669 137.816C6.27483 137.51 6.58029 137.428 6.77397 137.54Z" fill="#D9DBE9"/>
<path d="M2.90052 135.303C5.24665 137.948 7.59278 140.594 9.93891 143.24C10.0208 143.545 9.71532 143.627 9.52164 143.515C7.06368 141.063 4.82937 138.224 2.48324 135.578C2.09587 135.355 2.70683 135.191 2.90052 135.303Z" fill="#D9DBE9"/>
<path d="M0.903409 135.183C3.13772 138.023 6.09489 140.505 8.3292 143.344C8.52288 143.456 8.41107 143.65 8.21738 143.538C5.3421 141.361 2.83221 138.105 0.597901 135.265C0.404218 135.153 0.821549 134.878 0.903409 135.183Z" fill="#D9DBE9"/>
<path d="M-1.28699 134.952C0.835499 137.985 3.59897 140.355 5.83327 143.195C6.02696 143.306 5.72146 143.388 5.72146 143.388C2.84618 141.212 0.529986 138.067 -1.39882 135.145C-1.78618 134.922 -1.36885 134.646 -1.28699 134.952Z" fill="#D9DBE9"/>
<path d="M-4.33389 133.968C-1.87594 136.42 0.775708 138.984 2.81633 141.711C3.01002 141.823 2.70449 141.905 2.51081 141.793C-0.170792 139.728 -2.29327 136.695 -4.6394 134.05C-4.83308 133.938 -4.41575 133.662 -4.33389 133.968Z" fill="#D9DBE9"/>
<path d="M-7.84964 132.453C-5.50351 135.099 -2.96369 137.857 -0.729382 140.696C-0.5357 140.808 -0.871155 141.389 -1.06484 141.277C-1.64589 140.942 -1.64589 140.942 -1.80961 140.331C-1.80961 140.331 -1.58598 139.943 -1.6978 140.137C-1.50412 140.249 -1.11676 140.473 -0.923078 140.584C-1.0349 140.778 -1.14671 140.972 -1.25853 141.165C-3.60466 138.52 -6.03268 135.568 -8.37881 132.923C-8.26699 132.729 -8.04333 132.342 -7.84964 132.453Z" fill="#D9DBE9"/>
</svg>
