<svg width="66" height="54" viewBox="0 0 66 54" fill="none" xmlns="http://www.w3.org/2000/svg">
<path d="M3.26844 25.2466C2.10503 25.8858 1.8855 27.2827 2.23582 28.5708C2.58614 29.8589 3.23324 30.8818 3.44308 32.162C3.90227 34.0199 3.33854 36.5249 4.96904 37.6032C4.52387 38.0009 4.61693 38.8517 5.01468 39.2969C5.40452 39.8825 5.81016 40.1873 6.3563 40.4998C9.07116 42.3438 11.9265 44.1956 14.6414 46.0395C17.2236 47.735 19.9385 49.5789 22.9897 50.4552C26.8759 51.5194 31.1299 51.0541 35.0021 49.8627C46.0566 46.2567 54.2672 35.5852 55.2042 23.9407C55.6213 19.0316 54.7741 14.0514 56.5803 9.5023C57.0808 8.12116 58.0027 6.76373 59.4471 6.14034C61.1803 5.39227 63.1234 5.92439 65.0665 6.4565C63.2499 3.67662 59.059 3.01803 56.5522 4.99094C54.9278 6.30885 54.1148 8.23613 52.7634 9.71033C51.1075 11.5902 48.656 12.5797 46.2282 13.1478C43.8004 13.7158 41.2638 13.714 38.8597 13.8606C32.2095 14.3321 25.496 15.9274 19.297 18.3972C14.5425 20.2437 9.60787 22.7846 4.58201 21.9382C4.16055 21.9144 3.747 21.7503 3.31764 21.867C1.75649 22.0611 3.55731 25.1219 3.26844 25.2466Z" fill="#FBFAF4"/>
<path d="M64.6929 5.58989C61.7682 2.4658 57.0769 3.18837 54.4989 6.42565C52.374 9.12471 50.9832 11.3013 47.4078 12.2276C44.5428 13.0529 41.4442 13.0195 38.3298 13.2671C32.5225 13.786 26.8161 15.0152 21.2186 16.8142C18.2052 17.7721 15.3165 19.0189 12.5603 20.414C9.23427 21.9181 6.70553 21.7758 3.21711 21.1567C2.79565 21.133 2.89662 21.8433 3.17759 21.8591C5.53423 22.5555 8.05507 22.8382 10.4907 22.1297C13.0748 21.2885 15.55 19.8776 18.1499 18.7555C23.6306 16.5271 29.4853 15.1653 35.3085 14.3655C39.9919 13.7834 45.7439 14.248 50.1008 11.9564C52.4276 10.678 53.3969 8.47762 54.9125 6.58986C57.623 3.50097 61.7287 3.16823 64.6929 5.58989C64.685 5.73037 64.685 5.73037 64.6929 5.58989Z" fill="#D9DBE9"/>
<path d="M63.1317 5.78394C61.0718 4.82247 58.7766 5.5389 57.269 7.28618C55.152 9.84474 55.0791 13.6457 55.0457 16.7443C54.8086 20.9589 54.8524 25.1893 53.7803 29.2159C52.7082 33.2426 50.8089 36.9409 48.0984 40.0297C43.2551 45.9582 35.9937 49.7775 28.4847 50.4825C23.6687 50.9162 19.6895 49.0012 15.8903 46.3916C14.2598 45.3133 12.6372 44.0946 11.0067 43.0164C9.37618 41.9381 4.53822 40.2566 5.25034 37.619C5.26615 37.3381 4.8526 37.1739 4.83679 37.4548C3.98419 40.0845 6.73066 41.3665 8.50165 42.4526C12.3167 44.7812 15.8112 47.7965 19.9309 49.7194C26.5162 52.9085 34.2288 51.0875 40.4831 47.6343C47.3231 43.7912 52.4869 37.1762 54.4669 29.5364C55.547 25.3693 55.5031 21.1389 55.7402 16.9243C55.6964 12.694 56.6237 3.72663 63.1317 5.78394Z" fill="#D9DBE9"/>
<path d="M15.9019 41.1779C12.6488 38.8809 7.96533 39.4629 5.17321 36.4872C3.71482 34.855 4.22322 33.3333 3.76403 31.4754C3.52258 30.7572 3.12483 30.312 2.73499 29.7264C1.97902 28.1336 2.47952 26.7525 3.54196 25.4029C3.69034 25.2704 3.57357 24.841 3.2847 24.9657C2.11339 25.7454 1.4724 27.1186 1.54175 28.3909C1.62691 29.3822 2.01676 29.9678 2.53127 30.8423C3.15466 32.2867 2.66207 33.5274 3.00449 34.9559C4.10899 40.3734 12.0552 39.4112 15.894 41.3183C15.8861 41.4588 16.0344 41.3263 15.9019 41.1779Z" fill="#D9DBE9"/>
<path d="M15.4418 29.3138C12.8973 29.4525 10.1034 29.0134 7.75466 28.1766C6.5061 27.8245 5.27334 27.1915 4.33737 26.2932C3.67446 25.5513 2.02203 22.3579 4.00464 22.1875C4.28561 22.2034 4.5903 21.7977 4.32514 21.5009C3.81062 20.6264 2.67883 20.7036 2.06947 21.5149C1.30381 22.5993 2.03607 24.6135 2.53478 25.769C4.97479 29.9933 11.3045 30.2085 15.4418 29.3138C15.4339 29.4543 15.4418 29.3138 15.4418 29.3138Z" fill="#D9DBE9"/>
<path d="M52.2238 11.7939C52.0895 14.1822 52.3924 16.3132 52.6795 18.7251C53.0438 22.2689 52.581 25.4842 50.9944 28.6364C54.2607 23.1829 52.0324 17.7022 52.2238 11.7939Z" fill="#D9DBE9"/>
<path d="M52.115 11.2241C51.8954 12.6211 50.0138 13.5018 48.8583 14.0005C47.8433 14.5071 46.6957 14.8653 45.6886 15.2314C47.2576 14.8969 48.702 14.2735 50.0138 13.5018C50.8883 12.9872 52.0438 12.4885 52.115 11.2241Z" fill="#D9DBE9"/>
<path d="M51.9189 12.1996C52.1288 13.4798 50.2471 14.3604 49.3805 14.7345C48.5139 15.1085 47.6473 15.4825 46.7806 15.8565L46.7727 15.997C48.0608 15.6467 49.2163 15.148 50.3876 14.3683C51.2622 13.8538 52.2851 13.2067 51.9189 12.1996C52.0594 12.2075 51.9189 12.1996 51.9189 12.1996Z" fill="#D9DBE9"/>
<path d="M51.9885 13.4718C51.1675 15.5396 48.3104 16.2244 46.5692 17.1129L46.5613 17.2534C48.4271 16.6537 51.308 15.5475 51.9885 13.4718C52.129 13.4797 51.9885 13.4718 51.9885 13.4718Z" fill="#D9DBE9"/>
<path d="M51.4959 14.7125C51.1122 16.523 48.1145 17.1999 46.6702 17.8233L46.6623 17.9638C47.802 17.7461 48.817 17.2395 49.832 16.7329C50.566 16.2104 51.4326 15.8364 51.4959 14.7125Z" fill="#D9DBE9"/>
<path d="M52.0182 15.4466C51.0804 17.085 49.7607 17.9972 48.0433 18.4643L48.0354 18.6048C49.8775 18.4266 51.3614 17.1008 52.0182 15.4466C52.1587 15.4545 52.0182 15.4466 52.0182 15.4466Z" fill="#D9DBE9"/>
<path d="M51.963 16.4299C52.2896 18.1395 49.1278 19.23 47.9723 19.7287L47.9644 19.8691C49.2603 19.3783 52.4301 18.1474 51.963 16.4299C51.9709 16.2895 51.9709 16.2895 51.963 16.4299Z" fill="#D9DBE9"/>
<path d="M52.4538 17.726C52.2422 18.9824 50.9462 19.4732 49.9233 20.1203C49.3376 20.5102 48.6115 20.8921 48.0259 21.2819L48.0179 21.4224C49.1734 20.9237 50.1964 20.2766 51.2193 19.6295C51.9533 19.1071 52.5469 18.5768 52.4538 17.726C52.5943 17.7339 52.4538 17.726 52.4538 17.726Z" fill="#D9DBE9"/>
<path d="M52.9522 18.8815C52.147 20.6683 50.671 21.8536 48.9378 22.6017L48.9299 22.7421C50.7957 22.1425 52.2875 20.6762 52.9522 18.8815C53.0927 18.8894 52.9601 18.741 52.9522 18.8815Z" fill="#D9DBE9"/>
<path d="M44.4001 15.5818C38.3039 16.2253 32.3403 17.0172 26.4618 18.8004C23.7373 19.6337 21.2779 20.7637 18.5375 21.8779C15.6488 23.1246 12.6591 23.6611 9.52887 24.1896C9.38838 24.1817 9.52097 24.3301 9.66146 24.338C15.7419 23.9755 20.5676 20.8646 26.1651 19.0656C32.0514 17.1419 38.2881 16.5063 44.4001 15.5818C44.5406 15.5897 44.4001 15.5818 44.4001 15.5818Z" fill="#D9DBE9"/>
<path d="M47.8297 22.2575C45.4712 24.0978 42.0443 24.8915 39.1792 25.7168C35.7364 26.7915 32.2936 27.8662 28.7341 28.5115C22.3174 29.8417 15.956 30.1884 9.56482 28.5604C15.7997 30.4615 22.5905 29.9979 28.8667 28.6599C32.2857 28.0067 35.588 26.9241 38.8903 25.8415C42.0363 25.032 45.4554 24.3788 47.8297 22.2575C47.9701 22.2654 47.8297 22.2575 47.8297 22.2575Z" fill="#D9DBE9"/>
<path d="M49.3445 32.9123C44.7822 38.8566 37.9265 42.9806 30.4175 43.6856C26.8737 44.0499 23.229 43.704 19.7643 42.6635C16.8536 41.795 14.123 40.2321 10.8839 40.1908C10.7434 40.1829 10.7276 40.4639 10.8681 40.4718C14.7938 40.8336 18.2032 42.8575 21.9568 43.7733C25.2968 44.5249 28.6763 44.5742 31.947 44.0535C39.0662 42.7629 45.2116 38.7398 49.3445 32.9123C49.4771 33.0607 49.3445 32.9123 49.3445 32.9123Z" fill="#D9DBE9"/>
<path d="M38.3557 42.8638C33.0629 44.2572 27.3408 45.7674 21.9251 44.3353C19.147 43.6152 16.6815 42.3491 13.9113 41.4886C11.0085 40.4797 6.20827 40.6324 4.54794 37.5794C4.41536 37.431 4.26697 37.5636 4.39955 37.712C5.40488 39.8825 7.48845 40.4225 9.58783 40.6816C13.0763 41.3007 16.2363 42.7468 19.5605 43.7794C25.9122 46.1098 31.9074 44.7559 38.3557 42.8638C38.3478 43.0043 38.3557 42.8638 38.3557 42.8638Z" fill="#D9DBE9"/>
<path d="M33.5929 44.8509C28.3633 45.1204 22.8449 45.5146 17.7339 43.6768C15.6661 42.8558 13.7625 41.6213 11.5464 40.9329C9.04926 40.2286 6.50471 40.3673 4.49227 38.5629C4.35969 38.4145 4.34389 38.6955 4.34389 38.6955C5.65389 40.4604 7.6207 40.571 9.57168 40.9627C12.6387 41.558 15.0804 43.2456 17.8427 44.2466C23.11 45.8113 28.488 45.4093 33.5929 44.8509C33.7255 44.9993 33.5929 44.8509 33.5929 44.8509Z" fill="#D9DBE9"/>
<path d="M30.0899 31.97C23.9937 32.6135 18.1091 32.0006 12.1157 30.8178C12.1157 30.8178 11.9673 30.9504 12.1078 30.9583C17.9449 32.4141 24.1342 32.6214 30.0899 31.97C30.0899 31.97 30.0978 31.8295 30.0899 31.97Z" fill="#D9DBE9"/>
<path d="M27.4508 33.7945C24.2038 33.8937 21.121 33.5793 18.062 32.8435C15.1434 32.1156 12.389 30.9741 9.44672 30.6676C9.30623 30.6597 9.43881 30.8081 9.43881 30.8081C12.6542 31.2709 15.6816 32.5686 18.8891 33.1719C21.6751 33.7514 24.6174 34.0579 27.4508 33.7945C27.5834 33.9429 27.5913 33.8024 27.4508 33.7945Z" fill="#D9DBE9"/>
<path d="M23.6019 34.5645C17.8657 33.819 12.4579 32.2463 7.05804 30.5332C6.91756 30.5253 7.05014 30.6737 7.05014 30.6737C12.2937 32.6599 17.9983 33.9674 23.6019 34.5645C23.7345 34.7129 23.6019 34.5645 23.6019 34.5645Z" fill="#D9DBE9"/>
<path d="M20.0505 35.0694C15.5944 34.114 11.4431 32.753 7.15131 31.3841C7.15131 31.3841 7.00292 31.5167 7.1434 31.5246C11.271 33.3071 15.7191 34.4029 20.183 35.2178C20.0426 35.2099 20.1909 35.0773 20.0505 35.0694Z" fill="#D9DBE9"/>
<path d="M24.0613 36.4224C18.1451 36.3714 13.0578 34.1122 7.68158 31.9776C7.54109 31.9697 7.67367 32.1181 7.67367 32.1181C12.7531 34.5178 18.2777 36.5198 24.0613 36.4224C24.0534 36.5629 24.0613 36.4224 24.0613 36.4224Z" fill="#D9DBE9"/>
<path d="M21.8828 37.5684C16.8649 36.5814 12.019 35.0404 7.18105 33.3589C7.04056 33.351 7.03266 33.4915 7.17314 33.4994C11.8548 35.4539 16.849 36.8624 21.8828 37.5684C22.0154 37.7167 22.0233 37.5763 21.8828 37.5684Z" fill="#D9DBE9"/>
<path d="M18.2066 37.7843C14.4689 36.5875 10.8795 35.2581 7.28216 34.0692C7.14168 34.0613 7.27426 34.2097 7.27426 34.2097C10.7153 35.6717 14.4609 36.728 18.2066 37.7843C18.3392 37.9327 18.2066 37.7843 18.2066 37.7843Z" fill="#D9DBE9"/>
<path d="M16.9262 37.994C13.8751 37.1177 10.9881 35.8279 7.93695 34.9515C7.93695 34.9515 7.78856 35.0841 7.92905 35.092C10.8081 36.5224 13.8672 37.2582 16.9262 37.994C16.9104 38.275 17.0588 38.1424 16.9262 37.994Z" fill="#D9DBE9"/>
<path d="M15.3572 38.3287C12.9926 37.7729 10.9328 36.8114 8.7245 35.9825C8.58402 35.9746 8.57611 36.1151 8.7166 36.123C10.7686 37.2249 13.1252 37.9213 15.3572 38.3287C15.4897 38.4771 15.4976 38.3366 15.3572 38.3287Z" fill="#D9DBE9"/>
<path d="M14.3425 38.8351C14.3425 38.8351 14.202 38.8272 14.0536 38.9598L14.0457 39.1003C14.1941 38.9677 14.3346 38.9756 14.3425 38.8351C14.3346 38.9756 14.3425 38.8351 14.3425 38.8351Z" fill="#D9DBE9"/>
<path d="M13.9209 38.8116C12.1341 38.0064 10.3473 37.2012 8.40423 36.6691C8.40423 36.6691 8.25584 36.8017 8.39633 36.8096C10.1752 37.7553 12.1183 38.2874 13.913 38.9521C14.0535 38.96 14.0614 38.8195 13.9209 38.8116Z" fill="#D9DBE9"/>
<path d="M13.2026 39.0529C11.9541 38.7008 10.7134 38.2082 9.45693 37.9966C9.31644 37.9887 9.30854 38.1292 9.44902 38.1371C10.5492 38.6218 11.8057 38.8334 13.2026 39.0529C13.1947 39.1934 13.2026 39.0529 13.2026 39.0529Z" fill="#D9DBE9"/>
<path d="M12.1877 39.5595C11.0797 39.2153 10.1121 38.879 8.99609 38.6753L8.98819 38.8158C9.95578 39.1521 11.0639 39.4963 12.1798 39.7L12.1877 39.5595Z" fill="#D9DBE9"/>
<path d="M52.4711 14.9084C51.8398 13.6045 50.4902 12.5421 49.0854 12.463C49.0854 12.463 48.937 12.5956 49.0775 12.6035C50.4665 12.9635 51.6993 13.5966 52.4711 14.9084C52.4632 15.0489 52.4711 14.9084 52.4711 14.9084Z" fill="#D9DBE9"/>
<path d="M52.2914 15.6029C51.6601 14.299 50.3106 13.2365 48.9057 13.1575C48.9057 13.1575 48.7573 13.2901 48.8978 13.298C50.2868 13.658 51.3791 14.2832 52.2914 15.6029C52.2835 15.7434 52.2914 15.6029 52.2914 15.6029Z" fill="#D9DBE9"/>
<path d="M52.3683 16.7346C51.4718 15.1339 49.9897 13.9231 48.1713 13.6799C48.1713 13.6799 48.0229 13.8125 48.1634 13.8204C49.966 14.3446 51.3235 15.2665 52.3683 16.7346C52.3604 16.8751 52.3683 16.7346 52.3683 16.7346Z" fill="#D9DBE9"/>
<path d="M52.4616 17.5854C51.5573 16.1252 50.2235 14.7819 48.5693 14.1251C50.0593 15.1954 51.2684 16.2499 52.4616 17.5854C52.3132 17.718 52.4537 17.7259 52.4616 17.5854Z" fill="#D9DBE9"/>
<path d="M52.2817 18.2799C51.3853 16.6793 50.0516 15.3359 48.249 14.8117C48.249 14.8117 48.1085 14.8037 48.2411 14.9521C49.8874 15.7494 51.2369 16.8119 52.2817 18.2799C52.2659 18.5609 52.4143 18.4283 52.2817 18.2799Z" fill="#D9DBE9"/>
<path d="M52.8968 19.865C51.8678 18.1159 50.4015 16.6241 48.6147 15.8189C48.6147 15.8189 48.4663 15.9515 48.6068 15.9594C50.2373 17.0377 51.5789 18.2406 52.8968 19.865C52.7484 19.9975 52.8968 19.865 52.8968 19.865Z" fill="#D9DBE9"/>
<path d="M52.4201 20.8245C51.5236 19.2238 50.2057 17.5995 48.5673 16.6617C48.5673 16.6617 48.4189 16.7943 48.5594 16.8022C50.1899 17.8805 51.3832 19.2159 52.4201 20.8245C52.4122 20.965 52.5606 20.8324 52.4201 20.8245Z" fill="#D9DBE9"/>
<path d="M52.1393 20.8088C51.2428 19.2081 49.9012 18.0052 48.2549 17.2079C48.2549 17.2079 48.2549 17.2079 48.247 17.3484C49.8933 18.1457 51.1023 19.2002 52.1393 20.8088C52.1393 20.8088 52.2798 20.8167 52.1393 20.8088Z" fill="#D9DBE9"/>
<path d="M52.0841 21.7922C51.3123 20.4804 50.2517 19.2933 48.8784 18.6523L48.8705 18.7928C50.2358 19.5742 51.3123 20.4804 52.0841 21.7922C52.0762 21.9327 52.2167 21.9406 52.0841 21.7922Z" fill="#D9DBE9"/>
<path d="M52.4028 23.642C51.7873 22.0572 50.602 20.5812 49.0962 19.7918L49.0883 19.9323C50.4457 20.8542 51.6469 22.0493 52.4028 23.642C52.3949 23.7825 52.4028 23.642 52.4028 23.642Z" fill="#D9DBE9"/>
<path d="M52.3476 24.6256C51.7321 23.0407 50.5468 21.5647 49.041 20.7754C49.041 20.7754 48.9005 20.7675 49.033 20.9159C50.3826 21.9783 51.5916 23.0328 52.3476 24.6256C52.3397 24.7661 52.3397 24.7661 52.3476 24.6256Z" fill="#D9DBE9"/>
<path d="M51.8944 25.1638C51.5362 24.0163 50.897 22.8529 49.7968 22.3682C49.7968 22.3682 49.6563 22.3603 49.7889 22.5087C50.7328 23.2664 51.3878 24.1488 51.746 25.2964C51.746 25.2964 52.027 25.3122 51.8944 25.1638Z" fill="#D9DBE9"/>
<path d="M51.5739 25.8505C51.3404 24.9918 50.6933 23.9689 50.0146 23.5079C50.0146 23.5079 49.8741 23.5 50.0067 23.6484C50.537 24.2419 51.0594 24.976 51.5739 25.8505C51.4256 25.9831 51.5739 25.8505 51.5739 25.8505Z" fill="#D9DBE9"/>
<path d="M51.6511 26.9821C51.2613 26.3965 51.0119 25.8187 50.6142 25.3735C50.6142 25.3735 50.4737 25.3656 50.6063 25.514C50.8636 25.9513 51.2534 26.537 51.6511 26.9821C51.6432 27.1226 51.6511 26.9821 51.6511 26.9821Z" fill="#D9DBE9"/>
<path d="M47.1092 15.0294C45.7518 14.1074 44.2381 13.4586 42.5522 13.3637L42.5443 13.5042C44.2144 13.88 45.6034 14.24 47.1092 15.0294C47.0934 15.3104 47.1013 15.1699 47.1092 15.0294Z" fill="#D9DBE9"/>
<path d="M45.9694 15.2471C44.331 14.3093 42.5363 13.6447 40.71 13.5419C40.71 13.5419 40.71 13.5419 40.7021 13.6824C42.5126 14.0661 44.1826 14.4419 45.9694 15.2471C45.9615 15.3876 45.9615 15.3876 45.9694 15.2471Z" fill="#D9DBE9"/>
<path d="M44.822 15.6055C43.0431 14.6598 41.1079 13.9872 39.1411 13.8766L39.1332 14.0171C41.0842 14.4087 43.0273 14.9408 44.8062 15.8865C44.8141 15.746 44.9625 15.6134 44.822 15.6055Z" fill="#D9DBE9"/>
<path d="M43.1282 15.651C41.3414 14.8458 39.4062 14.1732 37.4395 14.0625L37.4315 14.203C39.3825 14.5947 41.193 14.9784 43.1124 15.9319C43.2608 15.7994 43.2687 15.6589 43.1282 15.651Z" fill="#D9DBE9"/>
<path d="M42.4018 16.033C40.4904 14.939 38.4147 14.2585 36.2995 14.2804C36.2995 14.2804 36.1511 14.413 36.2916 14.4209C38.391 14.6799 40.4825 15.0795 42.3939 16.1735C42.386 16.314 42.5423 16.0409 42.4018 16.033Z" fill="#D9DBE9"/>
<path d="M40.833 16.3675C38.9294 15.133 36.5728 14.4367 34.3171 14.4507C34.3171 14.4507 34.1687 14.5833 34.3092 14.5912C36.6895 14.866 38.781 15.2656 40.8251 16.508C40.8251 16.508 40.9735 16.3754 40.833 16.3675Z" fill="#D9DBE9"/>
<path d="M39.8258 16.7336C37.7897 15.3507 35.3004 14.506 32.748 14.7852L32.7401 14.9257C35.2767 14.9275 37.6413 15.4833 39.8179 16.8741C39.9584 16.882 39.9663 16.7415 39.8258 16.7336Z" fill="#D9DBE9"/>
<path d="M37.5782 16.6072C35.7993 15.6615 33.7157 15.1215 31.6006 15.1435L31.5926 15.284C33.6999 15.4025 35.6509 15.7941 37.4298 16.7398C37.7108 16.7556 37.7187 16.6151 37.5782 16.6072Z" fill="#D9DBE9"/>
<path d="M36.0167 16.8013C34.2299 15.9961 32.1464 15.456 30.0312 15.478L30.0233 15.6185C32.1227 15.8775 33.9332 16.2612 35.8605 17.0743C36.1493 16.9496 36.1572 16.8092 36.0167 16.8013Z" fill="#D9DBE9"/>
<path d="M33.7692 16.6748C31.9983 15.5887 29.7821 14.9003 27.659 15.0627L27.6511 15.2031C29.7584 15.3217 31.7094 15.7134 33.6209 16.8074C33.7534 16.9558 33.7613 16.8153 33.7692 16.6748Z" fill="#D9DBE9"/>
<path d="M32.9023 17.0488C31.1234 16.1031 28.9072 15.4147 26.9167 15.7255L26.9088 15.866C29.024 15.844 30.8424 16.0873 32.9023 17.0488C32.8944 17.1892 32.9023 17.0488 32.9023 17.0488Z" fill="#D9DBE9"/>
<path d="M32.8785 17.4703C31.0996 16.5247 29.016 15.9846 26.9008 16.0065L26.8929 16.147C29.0002 16.2656 30.9512 16.6572 32.7301 17.6029C33.0032 17.7592 33.0111 17.6187 32.8785 17.4703Z" fill="#D9DBE9"/>
<path d="M30.3498 17.3279C28.563 16.5227 26.7604 15.9985 24.7778 16.1688L24.7699 16.3093C26.7367 16.4199 28.5551 16.6632 30.3498 17.3279C30.3419 17.4684 30.3498 17.3279 30.3498 17.3279Z" fill="#D9DBE9"/>
<path d="M28.9213 17.6703C27.2829 16.7326 25.4724 16.3489 23.6224 16.6676L23.6145 16.8081C25.4487 16.7703 27.1266 17.0057 28.9213 17.6703C28.9055 17.9513 28.9134 17.8108 28.9213 17.6703Z" fill="#D9DBE9"/>
<path d="M28.1875 18.1928C26.2681 17.2393 24.1766 16.8398 22.0298 17.4236L22.0219 17.5641C24.1529 17.2612 26.1197 17.3719 28.0391 18.3254C28.3122 18.4817 28.328 18.2008 28.1875 18.1928Z" fill="#D9DBE9"/>
<path d="M26.0563 18.4958C24.129 17.6827 22.0454 17.1427 19.8986 17.7266L19.8907 17.867C22.1622 17.5721 24.129 17.6827 26.0563 18.4958C26.0484 18.6363 26.1968 18.5037 26.0563 18.4958Z" fill="#D9DBE9"/>
<path d="M24.4874 18.8302C22.7006 18.025 20.7496 17.6334 18.8838 18.2331C18.7433 18.2252 18.8759 18.3736 18.8759 18.3736C20.7259 18.0549 22.5522 18.1576 24.4874 18.8302C24.4795 18.9707 24.4795 18.9707 24.4874 18.8302Z" fill="#D9DBE9"/>
<path d="M23.4723 19.3367C21.8181 18.6799 19.8671 18.2883 18.0091 18.7475L18.0012 18.888C19.8434 18.7097 21.6697 18.8125 23.4565 19.6177L23.4723 19.3367Z" fill="#D9DBE9"/>
<path d="M21.9033 19.6712C20.1165 18.8661 18.0171 18.607 16.1592 19.0662L16.1513 19.2067C18.1339 19.0364 19.9681 18.9986 21.8954 19.8117L21.9033 19.6712Z" fill="#D9DBE9"/>
<path d="M20.8961 20.0376C19.2419 19.3808 17.2909 18.9892 15.433 19.4484L15.4251 19.5889C17.2593 19.5511 18.953 19.5055 20.7477 20.1702C21.0287 20.186 21.0366 20.0455 20.8961 20.0376Z" fill="#D9DBE9"/>
<path d="M20.0215 20.552C18.1021 19.5984 15.8701 19.191 13.8638 19.7828L13.8559 19.9233C15.979 19.7608 17.9537 19.731 20.0136 20.6925C20.1462 20.8409 20.1541 20.7004 20.0215 20.552Z" fill="#D9DBE9"/>
<path d="M18.9986 21.199C17.3682 20.1208 15.1362 19.7134 13.2624 20.4535L13.2545 20.594C15.253 20.1428 17.0872 20.105 18.8503 21.3316C19.1312 21.3474 19.1391 21.207 18.9986 21.199Z" fill="#D9DBE9"/>
<path d="M17.5778 21.401C16.0799 20.4711 13.9884 20.0716 12.3957 20.8275L12.3878 20.968C14.2457 20.5088 15.9394 20.4632 17.4294 21.5336C17.562 21.682 17.7183 21.4089 17.5778 21.401Z" fill="#D9DBE9"/>
<path d="M16.4146 22.0402C14.9167 21.1103 12.6847 20.7029 11.092 21.4588L11.0841 21.5993C13.0746 21.2885 14.6278 21.235 16.3988 22.3211C16.4067 22.1806 16.4146 22.0402 16.4146 22.0402Z" fill="#D9DBE9"/>
<path d="M15.4153 22.2658C13.9095 21.4764 11.8101 21.2174 10.2173 21.9733C10.2173 21.9733 10.2094 22.1138 10.3499 22.1217C12.1999 21.803 13.6206 21.6011 15.4074 22.4063L15.4153 22.2658Z" fill="#D9DBE9"/>
<path d="M13.5494 22.8656C12.473 21.9594 10.8108 21.4432 9.49905 22.2149L9.49115 22.3554C10.2015 22.2545 10.7713 22.1456 11.6063 22.3335C12.3009 22.5135 12.9875 22.834 13.5336 23.1466C13.5336 23.1466 13.5415 23.0061 13.5494 22.8656Z" fill="#D9DBE9"/>
<path d="M12.6749 23.38C11.7389 22.4818 10.0847 21.825 8.79662 22.1753L8.78872 22.3158C10.3341 22.4027 11.45 22.6064 12.6749 23.38C12.6591 23.661 12.8075 23.5284 12.6749 23.38Z" fill="#D9DBE9"/>
<path d="M11.5275 23.7382C10.4589 22.6916 8.67216 21.8864 7.0952 22.3614L7.0873 22.5019C8.78894 22.3158 10.178 22.6758 11.5275 23.7382C11.5196 23.8787 11.5275 23.7382 11.5275 23.7382Z" fill="#D9DBE9"/>
<path d="M10.2553 23.8076C9.19469 22.6205 7.68887 21.8311 5.98724 22.0172L5.97933 22.1577C7.52467 22.2447 8.90582 22.7452 9.96647 23.9323C10.0991 24.0807 10.2474 23.9481 10.2553 23.8076Z" fill="#D9DBE9"/>
<path d="M9.11577 24.0253C8.19561 22.8461 6.5493 22.0488 4.98815 22.2429C4.84767 22.235 4.98025 22.3833 4.98025 22.3833C6.65817 22.6187 8.04722 22.9787 9.11577 24.0253C9.10787 24.1658 9.24836 24.1737 9.11577 24.0253Z" fill="#D9DBE9"/>
<path d="M8.54585 24.1342C7.49311 22.8066 5.71421 21.861 4.01258 22.0471L4.00467 22.1876C5.6905 22.2825 7.21213 22.7908 8.54585 24.1342C8.53795 24.2747 8.67843 24.2826 8.54585 24.1342Z" fill="#D9DBE9"/>
<path d="M7.31281 23.501C6.37683 22.6028 5.0115 21.8214 3.73132 22.0312C3.73132 22.0312 3.73132 22.0312 3.72342 22.1717C4.27746 22.3438 4.97989 22.3833 5.53393 22.5554C6.22055 22.8759 6.76667 23.1885 7.3049 23.6415C7.15651 23.7741 7.3049 23.6415 7.31281 23.501Z" fill="#D9DBE9"/>
<path d="M6.47026 23.4536C5.53428 22.5554 4.02055 21.9065 2.59989 22.1085L2.59199 22.2489C3.98894 22.4684 5.24541 22.6801 6.32187 23.5862L6.47026 23.4536Z" fill="#D9DBE9"/>
<path d="M4.94037 23.0858C4.13698 22.3359 3.0447 21.7108 1.89711 22.069L1.8892 22.2095C3.01309 22.2727 3.98859 22.4685 4.78408 23.3589C4.92456 23.3668 4.93247 23.2263 4.94037 23.0858Z" fill="#D9DBE9"/>
<path d="M5.07307 23.2342C4.65952 23.07 4.09757 23.0384 3.68402 22.8742C3.68402 22.8742 3.53563 23.0067 3.67612 23.0146C4.08967 23.1788 4.64371 23.351 5.05726 23.5152C5.06516 23.3747 5.21355 23.2421 5.07307 23.2342Z" fill="#D9DBE9"/>
<path d="M47.0281 41.5197C45.8647 42.1589 44.725 42.3766 43.3123 42.4381L43.3044 42.5786C44.7013 42.7981 46.1378 42.3152 47.0281 41.5197C47.1686 41.5276 47.1686 41.5276 47.0281 41.5197Z" fill="#D9DBE9"/>
<path d="M45.4193 42.5567C44.3964 43.2038 43.4051 43.2889 42.2812 43.2257C42.2812 43.2257 42.2812 43.2257 42.2733 43.3662C43.3893 43.5699 44.5369 43.2117 45.4193 42.5567C45.5598 42.5646 45.5598 42.5646 45.4193 42.5567Z" fill="#D9DBE9"/>
<path d="M44.9586 43.2353C43.9436 43.742 42.8039 43.9597 41.6721 44.037C42.9286 44.2486 44.0762 43.8904 44.9586 43.2353C45.0991 43.2433 45.107 43.1028 44.9586 43.2353Z" fill="#D9DBE9"/>
<path d="M44.7864 43.7895C43.2095 44.2645 41.7888 44.4664 40.0872 44.6526C41.773 44.7474 43.342 44.4129 44.7864 43.7895C44.919 43.9379 44.9269 43.7974 44.7864 43.7895Z" fill="#D9DBE9"/>
<path d="M43.3419 44.4129C41.7571 45.0284 40.1959 45.2224 38.4943 45.4085L38.4864 45.549C40.1801 45.5034 41.8976 45.0363 43.3419 44.4129C43.4824 44.4208 43.3419 44.4129 43.3419 44.4129Z" fill="#D9DBE9"/>
<path d="M42.4675 44.9275C40.7263 45.816 38.7437 45.9863 36.769 46.0162L36.7611 46.1566C38.7279 46.2673 40.7263 45.816 42.4675 44.9275C42.608 44.9354 42.4754 44.787 42.4675 44.9275Z" fill="#D9DBE9"/>
<path d="M42.0064 45.6062C40.2732 46.3543 38.5636 46.6809 36.5968 46.5703L36.5889 46.7107C38.4073 46.9539 40.4057 46.5027 41.9985 45.7467C42.139 45.7546 42.0064 45.6062 42.0064 45.6062Z" fill="#D9DBE9"/>
<path d="M41.686 46.2928C39.3829 47.1497 37.1194 47.3043 34.739 47.0294C37.1036 47.5853 39.5155 47.2981 41.686 46.2928C41.8265 46.3007 41.686 46.2928 41.686 46.2928Z" fill="#D9DBE9"/>
<path d="M40.6392 47.3612C37.5011 48.0303 34.5588 47.7238 31.3592 46.9801C31.3592 46.9801 31.2108 47.1126 31.3513 47.1205C34.2541 48.1294 37.5011 48.0303 40.6392 47.3612Z" fill="#D9DBE9"/>
<path d="M37.3289 48.5844C35.0575 48.8794 33.0986 48.6282 30.8745 48.0803L30.8666 48.2208C32.9423 48.9013 35.19 49.0278 37.3289 48.5844C37.4615 48.7328 37.4694 48.5923 37.3289 48.5844Z" fill="#D9DBE9"/>
<path d="M36.33 48.8099C33.3482 49.2059 30.5464 48.9073 27.6357 48.0389L27.6278 48.1794C30.3822 49.3209 33.4729 49.4947 36.33 48.8099C36.4626 48.9583 36.4705 48.8178 36.33 48.8099Z" fill="#D9DBE9"/>
<path d="M35.0181 49.5818C31.498 49.5247 28.1501 48.9136 24.8101 48.1619L24.8022 48.3024C28.1264 49.335 31.6306 49.6731 35.0102 49.7223L35.0181 49.5818Z" fill="#D9DBE9"/>
<path d="M32.8633 50.3059C28.5083 50.0609 24.6379 48.7157 20.5024 47.0738C20.5024 47.0738 20.3619 47.0658 20.4945 47.2142C24.1848 49.2539 28.5083 50.0609 32.8633 50.3059C32.8554 50.4464 32.8633 50.3059 32.8633 50.3059Z" fill="#D9DBE9"/>
<path d="M29.8815 50.7022C25.2297 50.7223 21.4146 48.3937 17.4433 46.3382C17.4433 46.3382 17.2949 46.4708 17.4354 46.4787C21.2504 48.8073 25.3622 50.8707 29.8815 50.7022C30.0141 50.8505 30.022 50.7101 29.8815 50.7022Z" fill="#D9DBE9"/>
<path d="M26.6032 51.3633C22.0542 49.5571 17.9582 47.2127 13.8701 44.7278C13.8701 44.7278 13.7217 44.8604 13.8622 44.8683C17.6456 47.7588 22.0384 49.8381 26.6032 51.3633C26.5953 51.5038 26.7437 51.3712 26.6032 51.3633Z" fill="#D9DBE9"/>
<path d="M20.5163 49.3296C17.5283 47.3294 14.4078 45.1808 11.412 43.3211C11.2715 43.3132 11.2636 43.4537 11.4041 43.4616C14.3841 45.6023 17.5204 47.4699 20.5084 49.4701C20.5005 49.6106 20.5084 49.4701 20.5163 49.3296Z" fill="#D9DBE9"/>
<path d="M2.74456 27.0492C3.28279 27.5023 3.81312 28.0958 4.49184 28.5568C4.49184 28.5568 4.63232 28.5647 4.49184 28.5568C4.1099 27.8307 3.43118 27.3697 2.74456 27.0492C2.75246 26.9087 2.75246 26.9087 2.74456 27.0492Z" fill="#D9DBE9"/>
<path d="M2.46331 27.0334C3.11831 27.9158 3.78122 28.6578 4.7409 29.1346C3.93751 28.3847 3.12622 27.7754 2.46331 27.0334C2.47121 26.8929 2.47121 26.8929 2.46331 27.0334Z" fill="#D9DBE9"/>
<path d="M2.01061 27.5717C2.95449 28.3295 4.03095 29.2356 5.12322 29.8608C5.12322 29.8608 5.27161 29.7282 5.13113 29.7203C4.18725 28.9625 3.10288 28.1969 2.01061 27.5717C2.01852 27.4312 1.87803 27.4233 2.01061 27.5717Z" fill="#D9DBE9"/>
<path d="M1.83047 28.2662C2.91484 29.0318 3.9913 29.938 5.21614 30.7115C5.21614 30.7115 5.21614 30.7115 5.22405 30.5711C4.28807 29.6728 3.05532 29.0397 1.83047 28.2662C1.83838 28.1257 1.83047 28.2662 1.83047 28.2662Z" fill="#D9DBE9"/>
<path d="M2.07171 28.9845C3.42914 29.9064 4.77867 30.9688 6.144 31.7503C6.144 31.7503 6.28449 31.7582 6.144 31.7503C4.93496 30.6958 3.43704 29.7659 2.07171 28.9845C2.07961 28.844 2.07961 28.844 2.07171 28.9845Z" fill="#D9DBE9"/>
<path d="M2.71087 30.1477C4.0683 31.0697 5.28525 31.9837 6.64268 32.9057C6.64268 32.9057 6.64268 32.9057 6.65058 32.7652C5.44154 31.7107 4.0762 30.9292 2.71087 30.1477C2.71877 30.0072 2.71877 30.0072 2.71087 30.1477Z" fill="#D9DBE9"/>
<path d="M3.23333 30.8817C4.59076 31.8037 5.94029 32.8661 7.31353 33.5071C7.31353 33.5071 7.31353 33.5071 7.32143 33.3666C6.10448 32.4526 4.59866 31.6632 3.23333 30.8817C3.24123 30.7412 3.24123 30.7412 3.23333 30.8817Z" fill="#D9DBE9"/>
<path d="M3.61528 31.608C4.83223 32.522 6.18175 33.5845 7.69548 34.2334L7.70338 34.0929C6.20546 33.163 4.84013 32.3816 3.61528 31.608C3.4906 31.3191 3.4827 31.4596 3.61528 31.608Z" fill="#D9DBE9"/>
<path d="M3.84899 32.4668C5.20642 33.3888 6.55595 34.4512 8.06967 35.1001C8.06967 35.1001 8.21016 35.108 8.07757 34.9596C6.57966 34.0298 5.21433 33.2483 3.84899 32.4668C3.85689 32.3263 3.71641 32.3184 3.84899 32.4668Z" fill="#D9DBE9"/>
<path d="M4.10625 32.904C5.45577 33.9665 6.94579 35.0368 8.45161 35.8262C8.45161 35.8262 8.5921 35.8341 8.45951 35.6857C6.9616 34.7559 5.46368 33.826 4.10625 32.904C3.97366 32.7556 3.96576 32.8961 4.10625 32.904Z" fill="#D9DBE9"/>
<path d="M4.07461 33.4659C5.69721 34.6846 7.46029 35.9112 9.38757 36.7243C9.38757 36.7243 9.52805 36.7323 9.39547 36.5839C7.61658 35.6382 5.8456 34.5521 4.07461 33.4659C4.08252 33.3254 4.07461 33.4659 4.07461 33.4659Z" fill="#D9DBE9"/>
<path d="M4.32422 34.0436C6.34456 35.7075 8.65377 37.2467 11.2993 37.8184L11.3072 37.6779C8.82587 36.6927 6.48504 35.7154 4.32422 34.0436Z" fill="#D9DBE9"/>
<path d="M4.15176 34.5977C6.85081 36.7226 10.0029 38.3093 13.3509 38.9204C13.4914 38.9283 13.3588 38.7799 13.3588 38.7799C10.0266 37.8878 6.9913 36.7305 4.15176 34.5977C4.15966 34.4572 4.15176 34.5977 4.15176 34.5977Z" fill="#D9DBE9"/>
<path d="M4.79919 35.6207C7.77921 37.7613 11.2044 39.5043 14.8649 39.5693L14.8728 39.4288C11.2439 38.8018 7.9276 37.6288 4.79919 35.6207C4.80709 35.4802 4.6666 35.4723 4.79919 35.6207Z" fill="#D9DBE9"/>
<path d="M5.44613 36.6436C9.13649 38.6833 13.1552 39.8959 17.3382 40.695C17.4787 40.7029 17.4866 40.5625 17.3461 40.5546C13.3194 39.4824 9.28488 38.5508 5.44613 36.6436C5.45404 36.5031 5.30565 36.6357 5.44613 36.6436Z" fill="#D9DBE9"/>
<path d="M53.6777 8.49356C52.5204 11.5289 52.0734 14.4633 52.602 17.5935C53.3561 21.7229 52.5887 25.3439 51.6491 29.519C51.6412 29.6594 51.7817 29.6673 51.7896 29.5269C52.7985 26.6241 53.5343 23.565 53.4273 20.4585C53.3737 18.9053 52.8987 17.3283 52.7126 15.6267C52.4334 13.0743 52.9892 10.7097 53.6777 8.49356C53.826 8.36098 53.6856 8.35307 53.6777 8.49356Z" fill="#D9DBE9"/>
<path d="M51.2641 11.3172C51.5828 13.1672 51.8857 15.2982 52.6338 17.0314L52.7742 17.0393C52.1825 15.033 51.5828 13.1672 51.2641 11.3172C51.272 11.1767 51.272 11.1767 51.2641 11.3172Z" fill="#D9DBE9"/>
<path d="M50.4669 12.9635C51.3318 15.1261 51.7673 17.4055 52.4837 19.7007L52.6242 19.7086C52.3371 17.2967 51.4802 14.9935 50.4669 12.9635C50.6232 12.6905 50.4749 12.823 50.4669 12.9635Z" fill="#D9DBE9"/>
<path d="M50.4886 15.0786C52.6398 19.4275 52.5273 23.931 51.1505 28.3633C51.1505 28.3633 51.1426 28.5038 51.291 28.3712C53.0735 24.2436 52.6556 19.1465 50.4886 15.0786C50.4965 14.9381 50.3561 14.9302 50.4886 15.0786Z" fill="#D9DBE9"/>
<path d="M50.1838 15.4844C51.5298 21.6201 51.463 27.8173 47.51 32.9502C47.5021 33.0907 47.5021 33.0907 47.6505 32.9581C51.8686 28.122 51.8265 21.355 50.1838 15.4844C50.1917 15.3439 50.1917 15.3439 50.1838 15.4844Z" fill="#D9DBE9"/>
<path d="M51.8031 21.7762C51.0734 27.2315 49.5324 32.0773 44.9718 35.4849L44.9639 35.6254C49.7659 32.936 51.3701 26.9663 51.8031 21.7762Z" fill="#D9DBE9"/>
<path d="M51.3938 26.5449C49.8132 32.0932 46.4933 35.9934 41.5508 38.6748L41.5429 38.8153C46.4538 36.6958 50.2426 31.9764 51.3938 26.5449Z" fill="#D9DBE9"/>
<path d="M62.5775 5.61189C63.1315 5.78399 63.545 5.94818 64.0912 6.26077C64.3642 6.41706 64.6373 6.57336 64.9262 6.44869C65.3714 6.05094 64.4196 5.43365 64.1386 5.41785L64.1307 5.55834C64.2633 5.70673 64.5363 5.86301 64.5284 6.00349C64.5205 6.14398 64.3801 6.13609 64.3722 6.27658C64.3722 6.27658 64.3722 6.27658 64.2317 6.26867C64.0912 6.26077 63.9586 6.11237 63.8181 6.10447C63.5609 5.6672 63.1394 5.64351 62.5775 5.61189C62.5854 5.4714 62.5775 5.61189 62.5775 5.61189Z" fill="#D9DBE9"/>
<path d="M57.6906 7.30981C56.9723 7.55126 56.2462 7.93319 55.7931 8.47142L55.7852 8.61192C56.3788 8.08159 56.9644 7.69175 57.6906 7.30981C57.6827 7.4503 57.6906 7.30981 57.6906 7.30981Z" fill="#D9DBE9"/>
<path d="M57.0729 8.26157C56.3468 8.6435 55.4722 9.158 55.1438 9.98511C55.1438 9.98511 55.1359 10.1256 55.1438 9.98511C55.7453 9.3143 56.3389 8.78395 57.065 8.40202C57.2055 8.40992 57.2134 8.26947 57.0729 8.26157Z" fill="#D9DBE9"/>
<path d="M56.4479 9.35397C55.8623 9.74381 55.1282 10.2663 54.6673 10.945C54.6673 10.945 54.6594 11.0855 54.6673 10.945C55.4013 10.4225 55.8544 9.8843 56.4479 9.35397C56.5884 9.36188 56.5963 9.22139 56.4479 9.35397Z" fill="#D9DBE9"/>
<path d="M55.8069 10.7272C55.0808 11.1092 54.4951 11.499 54.0341 12.1777C54.0341 12.1777 54.0262 12.3182 54.0341 12.1777C54.6277 11.6474 55.2134 11.2576 55.8069 10.7272C55.9395 10.8756 55.9474 10.7351 55.8069 10.7272Z" fill="#D9DBE9"/>
<path d="M55.4785 11.5542C54.9007 11.8036 54.3151 12.1934 53.9946 12.88C53.9946 12.88 53.9867 13.0205 53.9946 12.88C54.4477 12.3418 54.7524 11.9361 55.4785 11.5542C55.4785 11.5542 55.4864 11.4137 55.4785 11.5542Z" fill="#D9DBE9"/>
<path d="M55.2986 12.2488C54.7129 12.6386 54.1193 13.1689 53.8068 13.7151C54.3924 13.3252 54.705 12.7791 55.2906 12.3893C55.439 12.2567 55.4469 12.1162 55.2986 12.2488Z" fill="#D9DBE9"/>
<path d="M55.1184 12.9432C54.6732 13.341 54.2281 13.7387 53.9155 14.2849C53.9155 14.2849 53.9155 14.2849 54.056 14.2928C54.509 13.7545 54.8137 13.3489 55.1184 12.9432C55.3994 12.959 55.2668 12.8107 55.1184 12.9432Z" fill="#D9DBE9"/>
<path d="M55.0709 13.7863C54.4932 14.0356 54.048 14.4333 54.0164 14.9953C54.3211 14.5896 54.6258 14.184 55.063 13.9267C55.2114 13.7941 55.2193 13.6537 55.0709 13.7863Z" fill="#D9DBE9"/>
<path d="M55.3203 14.3639C54.8831 14.6212 54.5784 15.0268 54.2737 15.4324C54.2737 15.4324 54.2658 15.5729 54.2737 15.4324C54.7109 15.1752 55.0156 14.7695 55.3203 14.3639C55.4529 14.5123 55.3203 14.3639 55.3203 14.3639Z" fill="#D9DBE9"/>
<path d="M55.2886 14.9259C54.703 15.3158 54.1094 15.8461 53.7968 16.3922C53.7968 16.3922 53.7889 16.5327 53.7968 16.3922C54.3825 16.0024 54.6951 15.4563 55.2886 14.9259C55.4212 15.0743 55.4291 14.9338 55.2886 14.9259Z" fill="#D9DBE9"/>
<path d="M54.9446 16.034C54.5073 16.2913 54.07 16.5485 53.8979 17.1026C53.8979 17.1026 53.89 17.2431 53.8979 17.1026C54.3352 16.8453 54.6399 16.4397 55.0771 16.1824C55.2176 16.1903 55.0929 15.9014 54.9446 16.034Z" fill="#D9DBE9"/>
<path d="M55.1859 16.7524C54.7487 17.0096 54.3114 17.2669 54.1393 17.821C54.1393 17.821 54.1393 17.821 54.2798 17.8289C54.5845 17.4232 54.8813 17.158 55.1859 16.7524C55.3264 16.7603 55.1939 16.6119 55.1859 16.7524Z" fill="#D9DBE9"/>
<path d="M55.1307 17.7356C54.7013 17.8524 54.4045 18.1176 54.3808 18.539C54.3808 18.539 54.3729 18.6795 54.3808 18.539C54.5371 18.266 54.8339 18.0008 55.1227 17.8761C55.2632 17.884 55.2711 17.7435 55.1307 17.7356Z" fill="#D9DBE9"/>
<path d="M55.0753 18.719C54.6381 18.9762 54.3413 19.2414 54.1771 19.6549C54.1771 19.6549 54.1692 19.7954 54.1771 19.6549C54.4739 19.3897 54.6302 19.1167 55.0674 18.8594C55.2079 18.8673 55.2158 18.7269 55.0753 18.719Z" fill="#D9DBE9"/>
<path d="M54.8715 19.835C54.5747 20.1001 54.2859 20.2248 54.1296 20.4979L54.1217 20.6384C54.4105 20.5137 54.7073 20.2485 54.8636 19.9755C55.012 19.8429 54.8794 19.6945 54.8715 19.835Z" fill="#D9DBE9"/>
<path d="M48.0292 16.2086C46.195 16.2463 44.3766 16.0031 42.5424 16.0408L42.5345 16.1813C44.3529 16.4245 46.195 16.2463 48.0292 16.2086C48.1697 16.2165 48.1697 16.2165 48.0292 16.2086Z" fill="#D9DBE9"/>
<path d="M47.1546 16.7232C44.7663 16.5889 42.2455 16.3061 39.8335 16.5932L39.8256 16.7337C42.2218 16.7275 44.7663 16.5889 47.1546 16.7232C47.1467 16.8637 47.1546 16.7232 47.1546 16.7232Z" fill="#D9DBE9"/>
<path d="M46.4205 17.2456C43.6107 17.0875 40.8089 16.789 38.1239 16.9198L38.116 17.0603C40.9257 17.2184 43.6028 17.228 46.4205 17.2456C46.553 17.394 46.5609 17.2535 46.4205 17.2456Z" fill="#D9DBE9"/>
<path d="M44.5628 17.7048C42.315 17.5784 40.0672 17.4519 37.9521 17.4738L37.9442 17.6143C40.0593 17.5924 42.315 17.5784 44.5628 17.7048Z" fill="#D9DBE9"/>
<path d="M44.1177 18.1026C42.0262 17.703 39.7863 17.4361 37.6633 17.5985L37.6554 17.739C39.7705 17.7171 42.0183 17.8435 44.1177 18.1026C44.2503 18.251 44.1177 18.1026 44.1177 18.1026Z" fill="#D9DBE9"/>
<path d="M46.3609 13.2962C44.222 13.7396 41.7942 14.3076 39.8968 15.4692L39.8889 15.6097C42.0436 14.8854 44.0736 13.8721 46.3609 13.2962C46.353 13.4367 46.3609 13.2962 46.3609 13.2962Z" fill="#D9DBE9"/>
<path d="M43.9489 13.5833C41.8179 13.8862 39.499 15.0241 37.6095 16.0452L37.6016 16.1857C39.7642 15.3209 41.6695 14.0188 43.9489 13.5833C43.941 13.7238 43.9489 13.5833 43.9489 13.5833Z" fill="#D9DBE9"/>
<path d="M42.2475 13.7694C39.976 14.0644 37.665 15.0618 35.6192 16.356L35.6113 16.4964C37.9302 15.3585 39.8276 14.1969 42.2475 13.7694C42.3801 13.9178 42.388 13.7773 42.2475 13.7694Z" fill="#D9DBE9"/>
<path d="M40.9671 13.9793C38.5472 14.4069 36.1115 15.1155 34.1904 16.6985L34.1825 16.839C36.3688 15.5527 38.5314 14.6879 40.9513 14.2603C40.9592 14.1198 40.9671 13.9793 40.9671 13.9793Z" fill="#D9DBE9"/>
<path d="M39.0006 13.8687C36.4481 14.1479 34.2539 15.5747 32.3327 17.1578L32.3248 17.2982C34.3786 15.8636 36.2997 14.2805 38.8522 14.0013C39.141 13.8766 39.1489 13.7361 39.0006 13.8687Z" fill="#D9DBE9"/>
<path d="M38.0093 13.9537C35.5895 14.3813 33.2785 15.3787 31.4978 16.9697C31.4978 16.9697 31.4899 17.1102 31.4978 16.9697C33.6841 15.6834 35.7221 14.5297 38.0093 13.9537C38.1419 14.1021 38.1498 13.9616 38.0093 13.9537Z" fill="#D9DBE9"/>
<path d="M36.0267 14.124C33.4822 14.2627 31.4205 15.8379 29.7724 17.5772L29.7645 17.7177C31.6857 16.1347 33.3338 14.3953 36.0188 14.2645C36.1593 14.2724 36.0267 14.124 36.0267 14.124Z" fill="#D9DBE9"/>
<path d="M34.1845 14.3024C31.9051 14.7378 29.7267 15.8837 28.4843 17.9277C28.4843 17.9277 28.4763 18.0682 28.6168 18.0761C30.1244 16.3288 31.8893 15.0188 34.3171 14.4508C34.3171 14.4508 34.325 14.3103 34.1845 14.3024Z" fill="#D9DBE9"/>
<path d="M33.201 14.247C31.0621 14.6904 28.7432 15.8283 27.3681 17.724C27.3681 17.724 27.3602 17.8645 27.5086 17.7319C29.2893 16.1409 30.9058 14.9635 33.201 14.247C33.3335 14.3954 33.201 14.247 33.201 14.247Z" fill="#D9DBE9"/>
<path d="M30.3358 15.0722C28.7509 15.6877 27.2749 16.873 26.0799 18.0741L26.072 18.2146C27.3996 17.1619 28.6026 15.8202 30.1874 15.2048C30.4684 15.2206 30.4763 15.0801 30.3358 15.0722Z" fill="#D9DBE9"/>
<path d="M28.4782 15.5314C27.1664 16.3032 25.7141 17.0671 24.527 18.1277C24.527 18.1277 24.5191 18.2682 24.527 18.1277C25.9793 17.3639 27.1585 16.4437 28.4782 15.5314C28.6187 15.5393 28.4782 15.5314 28.4782 15.5314Z" fill="#D9DBE9"/>
<path d="M49.6773 37.0181C46.302 41.9017 40.8591 45.9643 35.2537 47.9038C29.2189 49.9601 23.4748 49.355 17.6851 47.0563C17.5446 47.0484 17.5367 47.1889 17.6772 47.1968C28.7245 53.7374 43.3483 46.809 49.6773 37.0181C49.8099 37.1665 49.8178 37.026 49.6773 37.0181Z" fill="#D9DBE9"/>
<path d="M39.2125 45.167C34.2305 48.5509 27.8928 48.4762 22.3366 47.0361C19.2776 46.3003 16.2264 45.424 13.3395 44.1341C10.7335 42.8601 8.27586 41.4534 5.66197 40.3199C5.52148 40.312 5.51358 40.4525 5.50568 40.5929C11.2243 44.1561 17.295 46.4706 23.8346 47.966C28.993 48.9609 35.0813 48.4578 39.2125 45.167C39.3451 45.3154 39.353 45.1749 39.2125 45.167Z" fill="#D9DBE9"/>
<path d="M22.7742 46.7789C17.2022 45.6198 12.2553 43.3685 7.04335 40.8204C6.90287 40.8125 6.89496 40.953 7.03545 40.9609C11.7944 44.0472 17.3347 45.7682 22.7742 46.7789C22.9146 46.7868 22.9146 46.7868 22.7742 46.7789Z" fill="#D9DBE9"/>
<path d="M18.2168 45.1132C14.6195 43.9243 11.046 42.3139 7.44867 41.125C7.30818 41.1171 7.44076 41.2655 7.44076 41.2655C10.7334 42.86 14.6116 44.0647 18.2168 45.1132C18.3494 45.2615 18.2168 45.1132 18.2168 45.1132Z" fill="#D9DBE9"/>
<path d="M12.2094 41.6747C12.5913 42.4009 13.1138 43.1349 13.6441 43.7285C13.6441 43.7285 13.7846 43.7364 13.652 43.588C13.4105 42.8697 12.7476 42.1278 12.2094 41.6747C12.2173 41.5342 12.2173 41.5342 12.2094 41.6747Z" fill="#D9DBE9"/>
<path d="M12.623 41.8391C13.0128 42.4247 13.5352 43.1588 14.2139 43.6198C14.2139 43.6198 14.2139 43.6198 14.2218 43.4793C13.832 42.8936 13.3017 42.3001 12.623 41.8391C12.6309 41.6986 12.623 41.8391 12.623 41.8391Z" fill="#D9DBE9"/>
<path d="M13.3095 42.1594C13.7072 42.6045 14.2375 43.1981 14.7837 43.5107L14.9242 43.5186C14.3859 43.0655 13.9882 42.6203 13.3095 42.1594C13.4579 42.0268 13.3095 42.1594 13.3095 42.1594Z" fill="#D9DBE9"/>
<path d="M14.4097 42.6441C14.8074 43.0892 15.2051 43.5344 15.6108 43.8391C15.6108 43.8391 15.6108 43.8391 15.6187 43.6986C15.221 43.2534 14.8232 42.8083 14.4176 42.5036C14.4255 42.3631 14.2771 42.4957 14.4097 42.6441Z" fill="#D9DBE9"/>
<path d="M15.1043 42.8242C15.51 43.1288 15.9077 43.574 16.3134 43.8787C16.3134 43.8787 16.4539 43.8866 16.3134 43.8787C16.0561 43.4414 15.51 43.1288 15.1043 42.8242C15.1122 42.6837 14.9638 42.8163 15.1043 42.8242Z" fill="#D9DBE9"/>
<path d="M16.2044 43.3087C16.4617 43.746 16.8673 44.0506 17.2651 44.4958C17.2651 44.4958 17.4056 44.5037 17.2651 44.4958C16.8673 44.0506 16.6022 43.7539 16.2044 43.3087C16.2123 43.1682 16.0639 43.3008 16.2044 43.3087Z" fill="#D9DBE9"/>
<path d="M11.3901 41.2058C11.7878 41.651 12.1777 42.2367 12.5754 42.6818L12.7159 42.6897C12.326 42.1041 11.9362 41.5184 11.3901 41.2058C11.398 41.0653 11.398 41.0653 11.3901 41.2058Z" fill="#D9DBE9"/>
<path d="M10.9687 41.1822C11.3585 41.7678 11.7562 42.213 12.1461 42.7987C12.1461 42.7987 12.2866 42.8066 12.2945 42.6661C11.9046 42.0804 11.5069 41.6353 10.9687 41.1822C10.9766 41.0417 10.9687 41.1822 10.9687 41.1822Z" fill="#D9DBE9"/>
<path d="M10.5473 41.1584C10.8046 41.5957 11.0618 42.0329 11.4596 42.4781C11.3507 41.9082 10.9529 41.4631 10.5473 41.1584C10.5552 41.0179 10.5552 41.0179 10.5473 41.1584Z" fill="#D9DBE9"/>
<path d="M9.72015 40.83C10.11 41.4156 10.6482 41.8687 11.0381 42.4543C11.0381 42.4543 11.1786 42.4622 11.0381 42.4543C10.6482 41.8687 10.2584 41.2831 9.72015 40.83C9.72015 40.83 9.57967 40.8221 9.72015 40.83Z" fill="#D9DBE9"/>
<path d="M3.00983 27.3461C2.79821 28.6025 3.14063 30.0311 3.78773 31.054L3.92821 31.0619C3.57789 29.7738 2.7903 28.743 3.00983 27.3461C3.15031 27.354 3.00983 27.3461 3.00983 27.3461Z" fill="#D9DBE9"/>
<path d="M4.81643 32.8029C4.56529 34.7618 5.40641 37.3458 7.32579 38.2994C7.32579 38.2994 7.46627 38.3073 7.33369 38.1589C5.86739 36.6671 4.83045 35.0585 4.81643 32.8029C4.95691 32.8108 4.81643 32.8029 4.81643 32.8029Z" fill="#D9DBE9"/>
<path d="M5.35491 33.2562C5.53313 35.0983 6.39007 37.4014 8.17686 38.2066C8.17686 38.2066 8.32525 38.074 8.18477 38.0661C6.99154 36.7306 5.79829 35.3951 5.35491 33.2562C5.5033 33.1236 5.36282 33.1157 5.35491 33.2562Z" fill="#D9DBE9"/>
<path d="M6.0415 33.5764C6.19601 35.84 7.78699 37.6207 9.69846 38.7147C9.83895 38.7227 9.84685 38.5822 9.70637 38.5743C8.09168 37.215 6.46908 35.9963 6.0415 33.5764C6.18199 33.5844 6.0415 33.5764 6.0415 33.5764Z" fill="#D9DBE9"/>
<path d="M7.6958 34.2333C7.73353 36.0675 8.45788 38.2222 10.1042 39.0195C10.2447 39.0274 10.2526 38.8869 10.1121 38.879C8.91095 37.684 7.86612 36.2159 7.6958 34.2333C7.83629 34.2412 7.6958 34.2333 7.6958 34.2333Z" fill="#D9DBE9"/>
<path d="M7.22698 35.0526C7.44472 36.1923 7.92763 37.6287 8.87151 38.3865L9.01199 38.3944C8.36489 37.3715 7.71779 36.3486 7.36747 35.0605C7.37537 34.92 7.23489 34.9121 7.22698 35.0526Z" fill="#D9DBE9"/>
<path d="M8.62395 35.272C8.81798 36.8332 9.56605 38.5664 11.0719 39.3558C11.0719 39.3558 11.2203 39.2232 11.0798 39.2153C9.87073 38.1608 8.95056 36.9816 8.62395 35.272C8.77234 35.1394 8.63186 35.1315 8.62395 35.272Z" fill="#D9DBE9"/>
<path d="M9.30267 35.733C9.63718 37.3021 10.3931 38.8948 11.8911 39.8247C12.0316 39.8326 12.0395 39.6921 11.899 39.6842C10.6978 38.4892 9.77766 37.31 9.30267 35.733C9.45106 35.6004 9.31057 35.5925 9.30267 35.733Z" fill="#D9DBE9"/>
<path d="M10.1137 36.3424C10.5966 37.7789 11.493 39.3796 12.8584 40.1611C12.8584 40.1611 12.9988 40.1689 12.8663 40.0206C11.6572 38.966 10.7371 37.7868 10.2542 36.3503C10.2542 36.3503 10.1216 36.202 10.1137 36.3424Z" fill="#D9DBE9"/>
<path d="M10.9169 37.0923C11.4077 38.3883 12.32 39.708 13.5527 40.3411C13.6932 40.349 13.7011 40.2085 13.5606 40.2006C12.4842 39.2945 11.5482 38.3962 10.9169 37.0923C11.0653 36.9598 10.9248 36.9518 10.9169 37.0923Z" fill="#D9DBE9"/>
<path d="M12.0092 37.7174C12.5237 38.592 13.1629 39.7554 13.9742 40.3647C13.9742 40.3647 14.1147 40.3726 13.9821 40.2243C13.7249 39.787 13.3192 39.4823 12.9215 39.0371C12.6642 38.5998 12.407 38.1626 12.0092 37.7174C12.1576 37.5848 12.0171 37.5769 12.0092 37.7174Z" fill="#D9DBE9"/>
<path d="M12.8205 38.3269C13.3271 39.3419 14.1068 40.5132 15.0585 41.1305C15.0585 41.1305 15.199 41.1384 15.0664 40.99C14.6687 40.5448 14.271 40.0997 13.8732 39.6545C13.616 39.2172 13.2261 38.6315 12.8205 38.3269C12.9768 38.0538 12.8284 38.1864 12.8205 38.3269Z" fill="#D9DBE9"/>
<path d="M13.913 38.9519C14.4196 39.9669 15.0667 40.9898 16.0185 41.6071C16.0185 41.6071 16.0185 41.6071 16.0264 41.4666C15.3635 40.7247 14.7006 39.9828 13.913 38.9519C14.0614 38.8194 13.913 38.9519 13.913 38.9519Z" fill="#D9DBE9"/>
<path d="M15.2705 39.8739C15.9176 40.8968 16.7052 41.9276 17.6649 42.4044C17.6649 42.4044 17.8054 42.4123 17.8133 42.2718C17.0178 41.3815 16.066 40.7642 15.4189 39.7413C15.2784 39.7334 15.13 39.866 15.2705 39.8739Z" fill="#D9DBE9"/>
<path d="M16.7524 41.0849C17.1501 41.53 17.3995 42.1078 17.9377 42.5608L18.0782 42.5688C17.6883 41.9831 17.2906 41.5379 16.7524 41.0849C16.9008 40.9523 16.7603 40.9444 16.7524 41.0849Z" fill="#D9DBE9"/>
<path d="M52.2313 34.2024C52.1997 34.7643 50.5139 34.6695 50.0924 34.6458L50.0845 34.7863C50.6385 34.9584 51.2084 34.8495 51.7782 34.7407C52.0592 34.7565 52.3481 34.6318 52.2313 34.2024Z" fill="#D9DBE9"/>
<path d="M51.63 34.8732C51.0444 35.263 50.4824 35.2315 49.7721 35.3324L49.7642 35.4729C50.4587 35.6529 51.177 35.4114 51.63 34.8732C51.7626 35.0216 51.63 34.8732 51.63 34.8732Z" fill="#D9DBE9"/>
<path d="M51.5743 35.8565C50.8561 36.098 50.1536 36.0584 49.4433 36.1594L49.4354 36.2999C50.1378 36.3394 50.8482 36.2385 51.5664 35.997C51.7069 36.0049 51.7227 35.724 51.5743 35.8565Z" fill="#D9DBE9"/>
<path d="M51.1214 36.3947C50.5278 36.925 49.6849 36.8776 48.9825 36.8381C48.842 36.8302 48.9746 36.9786 48.9746 36.9786C49.8096 37.1665 50.6525 37.2139 51.1214 36.3947C51.254 36.5431 51.1214 36.3947 51.1214 36.3947Z" fill="#D9DBE9"/>
<path d="M50.6447 37.3543C49.9265 37.5958 49.0836 37.5483 48.3733 37.6493L48.3654 37.7898C49.2083 37.8372 49.9265 37.5958 50.6447 37.3543C50.7773 37.5027 50.7852 37.3622 50.6447 37.3543Z" fill="#D9DBE9"/>
<path d="M49.6061 38.2825C48.8879 38.524 48.1854 38.4845 47.3425 38.4371C47.3425 38.4371 47.1941 38.5696 47.3346 38.5776C48.0212 38.898 48.8721 38.805 49.6061 38.2825C49.7387 38.4309 49.7466 38.2904 49.6061 38.2825Z" fill="#D9DBE9"/>
<path d="M49.2936 38.8286C48.5675 39.2105 47.865 39.171 47.0221 39.1236C47.0221 39.1236 46.8737 39.2562 47.0142 39.2641C47.7008 39.5845 48.5596 39.351 49.2936 38.8286C49.4262 38.977 49.2936 38.8286 49.2936 38.8286Z" fill="#D9DBE9"/>
<path d="M48.8324 39.5073C48.0905 40.1702 47.2555 39.9823 46.2721 39.927L46.2642 40.0674C47.0992 40.2554 48.0826 40.3107 48.8245 39.6477C48.965 39.6556 48.8324 39.5073 48.8324 39.5073Z" fill="#D9DBE9"/>
<path d="M48.3554 40.4671C47.926 40.5839 47.4967 40.7007 47.0752 40.677C46.6538 40.6532 46.2323 40.6295 45.8109 40.6058C45.8109 40.6058 45.8109 40.6058 45.8029 40.7463C46.4896 41.0668 47.6214 40.9895 48.3554 40.4671C48.488 40.6155 48.3554 40.4671 48.3554 40.4671Z" fill="#D9DBE9"/>
<path d="M47.4655 41.2624C46.7393 41.6444 46.0369 41.6048 45.194 41.5574L45.1861 41.6979C45.8806 41.8779 46.8798 41.6523 47.4655 41.2624C47.6059 41.2704 47.4734 41.122 47.4655 41.2624Z" fill="#D9DBE9"/>
<path d="M52.4037 11.0994C51.8795 12.902 51.4879 14.853 51.6582 16.8356L51.7987 16.8435C51.9093 14.8767 52.0121 13.0504 52.4037 11.0994C52.5442 11.1073 52.4037 11.0994 52.4037 11.0994Z" fill="#D9DBE9"/>
<path d="M52.5724 15.6187C51.6206 15.0014 50.5204 14.5167 49.3886 14.5939L49.3807 14.7344C50.5046 14.7977 51.4722 15.134 52.5724 15.6187C52.5644 15.7591 52.5724 15.6187 52.5724 15.6187Z" fill="#D9DBE9"/>
<path d="M52.4572 12.6527C51.5273 14.1506 50.2076 15.0629 48.4823 15.6704L48.4744 15.8109C50.1839 15.4843 51.6599 14.299 52.4572 12.6527C52.5977 12.6606 52.4572 12.6527 52.4572 12.6527Z" fill="#D9DBE9"/>
<path d="M52.3781 14.0575C52.2297 14.1901 52.2139 14.4711 52.0656 14.6037C52.2139 14.4711 52.2218 14.3306 52.3781 14.0575Z" fill="#D9DBE9"/>
<path d="M47.18 13.765C49.3013 16.1393 49.8378 19.129 49.2424 22.196C49.2424 22.196 49.375 22.3443 49.3829 22.2039C50.3839 19.4416 49.1687 15.9909 47.18 13.765C47.1879 13.6246 47.0395 13.7571 47.18 13.765Z" fill="#D9DBE9"/>
<path d="M48.3119 13.6879C50.2215 17.3186 50.9994 21.0265 48.9518 24.8574C48.9439 24.9979 49.0844 25.0058 49.0844 25.0058C51.5298 21.6201 50.2373 17.0376 48.3119 13.6879C48.3198 13.5474 48.1714 13.68 48.3119 13.6879Z" fill="#D9DBE9"/>
<path d="M51.9717 26.2956C50.9032 25.249 49.3579 25.162 47.9293 25.5044L47.9214 25.6449C49.342 25.443 50.7627 25.2411 51.9717 26.2956C51.9638 26.4361 51.9717 26.2956 51.9717 26.2956Z" fill="#D9DBE9"/>
<path d="M52.1514 25.6009C51.2155 24.7027 49.6859 24.3347 48.5225 24.9739L48.5146 25.1144C49.8027 24.7641 51.0671 24.8353 52.1514 25.6009C52.1435 25.7414 52.1514 25.6009 52.1514 25.6009Z" fill="#D9DBE9"/>
<path d="M52.191 24.8987C52.09 24.1884 51.255 24.0005 50.6931 23.9689C49.7176 23.7731 48.7263 23.8582 47.8518 24.3727L47.8439 24.5132C48.5542 24.4123 49.1319 24.1629 49.8344 24.2024C50.5447 24.1014 52.09 24.1884 52.191 24.8987C52.1831 25.0392 52.191 24.8987 52.191 24.8987Z" fill="#D9DBE9"/>
<path d="M52.2462 23.9152C51.4744 22.6034 49.0545 23.031 47.899 23.5297L47.8911 23.6702C49.0387 23.312 51.4744 22.6034 52.2462 23.9152C52.2382 24.0557 52.3866 23.9231 52.2462 23.9152Z" fill="#D9DBE9"/>
<path d="M52.4341 23.0802C51.0766 22.1583 49.375 22.3444 47.9306 22.9678L47.9227 23.1083C49.4997 22.6333 50.9361 22.1504 52.4341 23.0802C52.4262 23.2207 52.4341 23.0802 52.4341 23.0802Z" fill="#D9DBE9"/>
<path d="M52.3335 22.3697C51.2571 21.4636 49.688 21.7981 48.392 22.2889L48.3841 22.4294C49.8127 22.087 51.1087 21.5962 52.3335 22.3697C52.3256 22.5102 52.474 22.3776 52.3335 22.3697Z" fill="#D9DBE9"/>
<path d="M52.0999 21.5112C50.602 20.5813 48.744 21.0405 47.2996 21.6639L47.2917 21.8044C48.8687 21.3294 50.4536 20.7139 51.9515 21.6438C52.2245 21.8001 52.2404 21.5191 52.0999 21.5112Z" fill="#D9DBE9"/>
<path d="M52.2878 20.6762C50.3684 19.7226 48.3621 20.3144 46.4884 21.0546L46.4805 21.195C48.4868 20.6032 50.3605 19.8631 52.2878 20.6762C52.2799 20.8167 52.4283 20.6841 52.2878 20.6762Z" fill="#D9DBE9"/>
<path d="M51.9138 19.8095C49.8539 18.8481 47.7071 19.432 45.8255 20.3126C45.8255 20.3126 45.8176 20.4531 45.8255 20.3126C47.6913 19.7129 49.846 18.9886 51.9138 19.8095C51.9058 19.95 51.9138 19.8095 51.9138 19.8095Z" fill="#D9DBE9"/>
<path d="M52.3669 19.2713C50.4633 18.0368 47.6141 18.5811 45.7404 19.3213L45.7325 19.4618C47.8714 19.0184 50.315 18.1694 52.3669 19.2713C52.359 19.4118 52.3669 19.2713 52.3669 19.2713Z" fill="#D9DBE9"/>
<path d="M52.5469 18.5767C50.0814 17.3106 47.3806 17.7223 44.937 18.5714L44.9291 18.7118C47.4973 18.1517 49.933 17.4431 52.3985 18.7093C52.539 18.7172 52.6874 18.5846 52.5469 18.5767Z" fill="#D9DBE9"/>
<path d="M52.0478 17.4213C49.9959 16.3194 47.7086 16.8953 45.6943 17.6276L45.6864 17.7681C47.8332 17.1842 49.988 16.4599 52.0399 17.5618C52.032 17.7023 52.0399 17.5618 52.0478 17.4213Z" fill="#D9DBE9"/>
<path d="M51.9548 16.5704C50.8467 16.2262 49.8712 16.0304 48.7315 16.2482C47.4514 16.458 46.3038 16.8162 45.1562 17.1744L45.1483 17.3149C46.288 17.0972 47.4356 16.7389 48.5753 16.5212C49.7229 16.163 50.8388 16.3667 51.9548 16.5704C51.9469 16.7109 51.9548 16.5704 51.9548 16.5704Z" fill="#D9DBE9"/>
<path d="M52.5562 15.8996C50.0591 15.1954 47.4987 15.6151 45.2035 16.3315L45.1956 16.472C47.6234 15.9039 50.0512 15.3359 52.5483 16.0401C52.6888 16.048 52.5562 15.8996 52.5562 15.8996Z" fill="#D9DBE9"/>
<path d="M51.8935 15.1577C49.5211 14.7424 46.8361 14.8732 44.6576 16.019L44.6497 16.1594C46.9528 15.3025 49.3727 14.8749 51.7372 15.4308C51.8856 15.2982 51.8935 15.1577 51.8935 15.1577Z" fill="#D9DBE9"/>
<path d="M52.0579 14.7442C49.8655 13.6343 46.579 14.4359 44.4164 15.3008L44.4085 15.4412C46.8363 14.8732 49.7171 13.7669 52.0579 14.7442C52.1826 15.0331 52.1905 14.8926 52.0579 14.7442Z" fill="#D9DBE9"/>
<path d="M51.8163 14.0259C50.5757 13.5333 49.155 13.7352 47.8748 13.945C46.3137 14.1391 44.7446 14.4736 43.1598 15.0891L43.1518 15.2296C45.728 14.5289 49.1787 13.3137 51.8163 14.0259C51.8005 14.3068 51.8084 14.1663 51.8163 14.0259Z" fill="#D9DBE9"/>
<path d="M51.4184 13.5809C48.5077 12.7125 45.6427 13.5378 42.9023 14.6519L42.8944 14.7924C45.7674 13.8266 48.4998 12.853 51.4184 13.5809C51.551 13.7293 51.5589 13.5888 51.4184 13.5809Z" fill="#D9DBE9"/>
<path d="M51.8636 13.183C49.9047 12.9319 47.6411 13.0864 45.7753 13.6861L45.7674 13.8266C47.8905 13.6641 49.7563 13.0645 51.8478 13.464C51.9962 13.3314 52.0041 13.1909 51.8636 13.183Z" fill="#D9DBE9"/>
<path d="M52.3089 12.7852C51.4818 12.4568 50.0849 12.2373 49.0777 12.6034C48.9373 12.5955 49.0698 12.7439 49.0698 12.7439C49.6318 12.7755 50.0611 12.6588 50.6231 12.6904C51.3255 12.7299 51.747 12.7536 52.3089 12.7852C52.4415 12.9336 52.4494 12.7931 52.3089 12.7852Z" fill="#D9DBE9"/>
<path d="M52.9022 12.255C52.2393 11.513 50.4129 11.4103 49.5463 11.7843L49.5384 11.9248C50.6702 11.8475 52.0988 11.5051 52.9022 12.255C52.8943 12.3955 53.0426 12.2629 52.9022 12.255Z" fill="#D9DBE9"/>
<path d="M52.9578 11.2715C52.2711 10.951 51.2956 10.7552 50.5695 11.1371L50.5616 11.2776C50.9831 11.3013 51.2719 11.1766 51.6934 11.2003C52.1148 11.224 52.5284 11.3882 52.9419 11.5524C53.0824 11.5603 53.0903 11.4198 52.9578 11.2715Z" fill="#D9DBE9"/>
<path d="M53.1219 10.858C52.8488 10.7017 52.4353 10.5375 52.0059 10.6542C51.8655 10.6463 51.998 10.7947 51.998 10.7947C52.4116 10.9589 52.6926 10.9747 53.114 10.9984C53.2545 11.0063 53.2624 10.8659 53.1219 10.858Z" fill="#D9DBE9"/>
<path d="M53.1457 10.4365C52.7322 10.2723 52.1781 10.1002 51.7409 10.3575L51.733 10.498C52.1544 10.5217 52.5838 10.4049 52.9894 10.7096C53.1378 10.577 53.2862 10.4444 53.1457 10.4365Z" fill="#D9DBE9"/>
<path d="M53.3096 10.0231C53.0366 9.86676 52.623 9.70255 52.3341 9.82723L52.3262 9.96773C52.6151 9.84305 52.8961 9.85886 53.3096 10.0231C53.3017 10.1635 53.3096 10.0231 53.3096 10.0231Z" fill="#D9DBE9"/>
<path d="M53.3412 9.46091C53.0839 9.02365 52.8188 8.72687 52.2568 8.69525C52.2568 8.69525 52.2568 8.69522 52.2489 8.8357C52.6704 8.85941 52.9434 9.01574 53.3412 9.46091C53.1928 9.59349 53.3412 9.46091 53.3412 9.46091Z" fill="#D9DBE9"/>
<path d="M25.6052 16.4974C23.9967 17.5343 22.5207 18.7197 21.3177 20.0613L21.3098 20.2018C22.6533 18.8681 23.9888 17.6748 25.6052 16.4974C25.6052 16.4974 25.6131 16.3569 25.6052 16.4974Z" fill="#D9DBE9"/>
<path d="M23.8798 17.105C22.5443 18.2982 21.0762 19.3431 19.7328 20.6768C19.7328 20.6768 19.7249 20.8173 19.8654 20.8252C21.2009 19.632 22.5443 18.2982 23.8798 17.105C23.8798 17.105 23.8877 16.9645 23.8798 17.105Z" fill="#D9DBE9"/>
<path d="M21.8813 17.556C20.3736 19.3033 18.6167 20.4728 16.7113 21.7749L16.7034 21.9154C18.7335 20.9022 20.5141 19.3112 21.8813 17.556C22.0217 17.5639 22.0296 17.4234 21.8813 17.556Z" fill="#D9DBE9"/>
<path d="M20.6012 17.766C18.219 20.0278 15.8527 22.0086 12.5741 22.6697C12.5741 22.6697 12.4257 22.8023 12.5662 22.8102C15.8211 22.5705 18.3595 20.0357 20.6012 17.766C20.5932 17.9065 20.6012 17.766 20.6012 17.766Z" fill="#D9DBE9"/>
<path d="M18.8682 18.514C16.1576 21.6029 12.699 22.9585 8.74173 23.1587L8.73383 23.2991C12.6674 23.5204 16.4386 21.6187 18.8682 18.514C19.0086 18.5219 19.0086 18.5219 18.8682 18.514Z" fill="#D9DBE9"/>
<path d="M17.572 19.0049C15.7992 20.4553 13.7455 21.89 11.4582 22.466C9.17093 23.042 6.79849 22.6266 4.39443 22.7732C4.25394 22.7653 4.24604 22.9058 4.38652 22.9137C6.76687 23.1886 9.71707 23.3546 12.0123 22.6381C14.167 21.9138 15.9318 20.6037 17.572 19.0049C17.7046 19.1532 17.572 19.0049 17.572 19.0049Z" fill="#D9DBE9"/>
<path d="M14.5191 20.6652C12.2854 22.7944 9.61615 22.6442 6.81435 22.3456C6.67386 22.3377 6.66596 22.4782 6.80644 22.4861C9.58454 23.2061 12.5663 22.8102 14.5191 20.6652C14.6596 20.6731 14.527 20.5247 14.5191 20.6652Z" fill="#D9DBE9"/>
<path d="M13.2228 21.1559C12.0594 21.7951 10.9118 22.1534 9.63955 22.2227C8.22679 22.2842 6.97824 21.932 5.57338 21.853C5.4329 21.8451 5.42499 21.9856 5.56548 21.9935C7.90631 22.9708 11.2859 23.02 13.3554 21.3043C13.3554 21.3043 13.3633 21.1639 13.2228 21.1559Z" fill="#D9DBE9"/>
<path d="M5.77182 28.3469C6.84037 29.3936 7.90893 30.4402 8.97749 31.4868C8.97749 31.4868 9.11797 31.4947 8.97749 31.4868C8.05732 30.3076 6.98876 29.261 5.77182 28.3469C5.77972 28.2064 5.63133 28.339 5.77182 28.3469Z" fill="#D9DBE9"/>
<path d="M7.01273 28.8396C7.95661 29.5974 8.74419 30.6282 9.68807 31.386C9.68807 31.386 9.82856 31.3939 9.68807 31.386C8.90049 30.3551 7.96451 29.4569 7.02063 28.6992C6.88805 28.5508 6.87224 28.8317 7.01273 28.8396Z" fill="#D9DBE9"/>
<path d="M7.69913 29.1601C8.65091 29.7774 9.4464 30.6677 10.3982 31.285C10.3982 31.285 10.5387 31.2929 10.4061 31.1445C9.6106 30.2542 8.65881 29.6369 7.70703 29.0197L7.69913 29.1601Z" fill="#D9DBE9"/>
<path d="M8.81523 29.3638C9.62653 29.9731 10.4378 30.5825 11.3896 31.1997C11.3896 31.1997 11.3896 31.1998 11.3975 31.0593C10.7346 30.3173 9.78282 29.7001 8.82314 29.2233C8.68265 29.2154 8.67475 29.3559 8.81523 29.3638Z" fill="#D9DBE9"/>
<path d="M9.79863 29.4191C10.6099 30.0285 11.2807 30.6299 12.0999 31.0988C12.0999 31.0988 12.0999 31.0988 12.1078 30.9583C11.4291 30.4974 10.6178 29.888 9.79863 29.4191C9.66605 29.2707 9.65814 29.4112 9.79863 29.4191Z" fill="#D9DBE9"/>
<path d="M10.493 29.5991C11.1717 30.0601 11.8425 30.6615 12.5291 30.982C12.6696 30.9899 12.6696 30.9899 12.537 30.8415C11.8662 30.2401 11.1796 29.9196 10.5088 29.3181C10.5009 29.4586 10.493 29.5991 10.493 29.5991Z" fill="#D9DBE9"/>
<path d="M11.6013 29.9432C12.1395 30.3963 12.6778 30.8494 13.2239 31.162C13.2239 31.162 13.3723 31.0294 13.2318 31.0215C12.842 30.4358 12.1554 30.1153 11.6171 29.6623C11.6171 29.6623 11.4608 29.9353 11.6013 29.9432Z" fill="#D9DBE9"/>
<path d="M12.171 29.8344C12.8497 30.2953 13.5205 30.8968 14.1992 31.3578L14.3476 31.2252C13.6768 30.6238 12.9981 30.1628 12.3193 29.7018C12.1868 29.5534 12.1789 29.6939 12.171 29.8344Z" fill="#D9DBE9"/>
<path d="M12.8735 29.874C13.5523 30.335 14.2389 30.6555 14.7771 31.1086C14.9176 31.1165 14.9255 30.976 14.785 30.9681C14.1063 30.5071 13.4197 30.1866 12.741 29.7256C12.7489 29.5852 12.7331 29.8661 12.8735 29.874Z" fill="#D9DBE9"/>
<path d="M23.1051 30.8725C22.4264 30.4115 21.7477 29.9505 21.0532 29.7705C20.9127 29.7626 21.0453 29.911 21.0453 29.911C21.7319 30.2315 22.4185 30.552 23.1051 30.8725C23.2377 31.0209 23.2456 30.8804 23.1051 30.8725Z" fill="#D9DBE9"/>
<path d="M22.5273 31.1217C21.7081 30.6528 20.8889 30.184 19.9213 29.8477C19.7808 29.8398 19.7729 29.9803 19.9134 29.9882C20.7326 30.457 21.6923 30.9338 22.5273 31.1217C22.6598 31.2701 22.6678 31.1296 22.5273 31.1217Z" fill="#D9DBE9"/>
<path d="M21.3956 31.199C20.5764 30.7302 19.7572 30.2613 18.9301 29.9329C18.7896 29.925 18.7817 30.0655 18.9222 30.0734C19.7335 30.6828 20.5606 31.0111 21.3798 31.48C21.5203 31.4879 21.5282 31.3474 21.3956 31.199Z" fill="#D9DBE9"/>
<path d="M20.2794 30.9953C19.8659 30.8311 19.3197 30.5185 18.9062 30.3543C18.4926 30.1901 18.087 29.8855 17.6655 29.8618L17.6576 30.0022C18.3284 30.6037 19.3039 30.7995 20.1231 31.2684C20.2636 31.2763 20.2715 31.1358 20.2794 30.9953Z" fill="#D9DBE9"/>
<path d="M19.0072 31.0647C18.4611 30.7521 17.7824 30.2911 17.0878 30.1111C17.0878 30.1111 16.9394 30.2437 17.0799 30.2516C17.6261 30.5642 18.3206 30.7442 19.0072 31.0647C18.9993 31.2051 19.0072 31.0647 19.0072 31.0647Z" fill="#D9DBE9"/>
<path d="M17.8833 31.0014C17.0641 30.5325 16.2528 29.9231 15.4257 29.5947C15.2852 29.5868 15.2773 29.7273 15.4178 29.7352C16.0886 30.3367 17.0562 30.673 17.8754 31.1419C17.8675 31.2823 18.0159 31.1498 17.8833 31.0014Z" fill="#D9DBE9"/>
<path d="M16.6272 30.7898C15.8159 30.1804 15.0046 29.5711 14.037 29.2348C13.8965 29.2269 13.8886 29.3674 13.8886 29.3674C14.6999 29.9767 15.6596 30.4535 16.4788 30.9224C16.6113 31.0708 16.7676 30.7977 16.6272 30.7898Z" fill="#D9DBE9"/>
<path d="M15.2301 30.5704C14.5514 30.1094 13.5996 29.4921 12.7646 29.3042C12.6241 29.2963 12.7567 29.4447 12.7567 29.4447C13.4275 30.0461 14.3951 30.3824 15.2143 30.8513C15.3548 30.8592 15.3627 30.7187 15.2301 30.5704Z" fill="#D9DBE9"/>
<path d="M7.06614 30.3929C6.27065 29.5026 5.48308 28.4718 4.68759 27.5814C4.55501 27.4331 4.5392 27.714 4.5392 27.714C5.1863 28.737 6.12227 29.6352 6.91776 30.5255C7.05034 30.6739 7.20663 30.4008 7.06614 30.3929Z" fill="#D9DBE9"/>
<path d="M5.68497 29.8924C4.89739 28.8616 4.40658 27.5656 3.619 26.5347C3.619 26.5347 3.47852 26.5268 3.47061 26.6673C3.82884 27.8149 4.749 28.9941 5.68497 29.8924C5.67707 30.0329 5.68497 29.8924 5.68497 29.8924Z" fill="#D9DBE9"/>
<path d="M5.13114 29.7203C4.0784 28.3927 3.29871 27.2214 3.11258 25.5198C3.12049 25.3793 2.98 25.3714 2.9721 25.5119C2.87725 27.1977 4.06258 28.6737 4.98275 29.8529C5.11533 30.0013 5.13114 29.7203 5.13114 29.7203Z" fill="#D9DBE9"/>
<path d="M6.5657 31.7739C4.80262 30.5472 1.95518 28.5549 2.6673 25.9173C2.6752 25.7768 2.54261 25.6284 2.39422 25.761C0.979678 28.3591 4.65424 30.6798 6.42522 31.766C6.5578 31.9143 6.70619 31.7818 6.5657 31.7739Z" fill="#D9DBE9"/>
<path d="M7.72701 33.6715C5.12892 32.2569 3.10858 30.593 2.43165 27.5954C2.43956 27.4549 2.29116 27.5875 2.28326 27.728C2.24985 30.8266 5.2457 32.6863 7.7112 33.9524C7.85169 33.9603 7.85959 33.8199 7.72701 33.6715Z" fill="#D9DBE9"/>
<path d="M4.1414 27.2687C3.42316 27.5102 2.57235 27.6033 1.98669 27.9931C1.98669 27.9931 1.8383 28.1257 1.97879 28.1336C2.68912 28.0326 3.54784 27.7991 4.27398 27.4171C4.27398 27.4171 4.28189 27.2766 4.1414 27.2687Z" fill="#D9DBE9"/>
<path d="M4.11783 27.6902C3.67267 28.088 3.10282 28.1969 2.52507 28.4462C2.38459 28.4383 2.51717 28.5867 2.65765 28.5946C3.21959 28.6262 3.80524 28.2364 4.25041 27.8386C4.25832 27.6982 4.12574 27.5498 4.11783 27.6902Z" fill="#D9DBE9"/>
<path d="M4.80411 28.0108C4.50733 28.276 4.21055 28.5412 3.78119 28.6579C3.49232 28.7826 3.06295 28.8994 2.77407 29.0241L2.76617 29.1646C3.4686 29.2041 4.35103 28.5491 4.80411 28.0108C4.94459 28.0187 4.81201 27.8703 4.80411 28.0108Z" fill="#D9DBE9"/>
<path d="M5.49888 28.1908C5.2021 28.4559 4.76484 28.7132 4.47597 28.8379C4.03871 29.0951 3.75773 29.0793 3.32047 29.3366C3.32047 29.3366 3.31256 29.4771 3.45305 29.485C4.30386 29.3919 5.0379 28.8695 5.63146 28.3392C5.77195 28.3471 5.63937 28.1987 5.49888 28.1908Z" fill="#D9DBE9"/>
<path d="M5.89642 28.6358C5.45915 28.8931 5.02189 29.1503 4.58463 29.4075C4.14736 29.6648 3.718 29.7816 3.28073 30.0388C3.28073 30.0388 3.27283 30.1793 3.41331 30.1872C4.40462 30.1021 5.28705 29.4471 6.0211 28.9247C6.16948 28.7921 6.0369 28.6437 5.89642 28.6358Z" fill="#D9DBE9"/>
<path d="M6.30214 28.9406C5.5681 29.463 4.68567 30.118 3.81904 30.4921L3.81114 30.6325C4.23259 30.6563 4.52937 30.3911 4.81825 30.2664C5.26341 29.8686 5.70068 29.6114 6.28633 29.2216C6.44263 28.9485 6.45053 28.808 6.30214 28.9406Z" fill="#D9DBE9"/>
<path d="M6.99693 29.1205C6.27079 29.5024 5.54465 29.8844 4.81851 30.2663L4.81061 30.4068C5.52884 30.1654 6.40337 29.6508 6.98903 29.261C7.12951 29.2689 7.13742 29.1284 6.99693 29.1205Z" fill="#D9DBE9"/>
<path d="M7.9801 29.176C7.68332 29.4411 7.24606 29.6984 6.80879 29.9557C6.51201 30.2208 6.08265 30.3376 5.64538 30.5948C5.64538 30.5948 5.63748 30.7353 5.64538 30.5948C6.63669 30.5097 7.52703 29.7142 7.9801 29.176C8.12059 29.1839 8.12849 29.0434 7.9801 29.176Z" fill="#D9DBE9"/>
<path d="M8.38592 29.4805C8.08914 29.7456 7.79237 30.0108 7.49559 30.2759C7.19881 30.5411 6.90994 30.6658 6.62106 30.7905C6.62106 30.7905 6.61316 30.931 6.62106 30.7905C7.33139 30.6895 8.07333 30.0266 8.52641 29.4884C8.66689 29.4963 8.53431 29.3479 8.38592 29.4805Z" fill="#D9DBE9"/>
<path d="M8.94773 29.5121C8.49466 30.0503 8.05739 30.3076 7.47174 30.6974L7.46383 30.8379C8.18207 30.5964 8.63514 30.0582 8.94773 29.5121C9.08821 29.52 9.09612 29.3795 8.94773 29.5121Z" fill="#D9DBE9"/>
<path d="M9.50984 29.5437C9.05676 30.0819 8.6195 30.3392 8.03385 30.729L8.02594 30.8695C8.74418 30.6281 9.19725 30.0898 9.50984 29.5437C9.65032 29.5516 9.65032 29.5516 9.50984 29.5437Z" fill="#D9DBE9"/>
<path d="M10.212 29.5832C9.89944 30.1294 9.31379 30.5192 8.86072 31.0574L8.85281 31.1979C9.43847 30.808 9.89944 30.1294 10.212 29.5832C10.3525 29.5911 10.2199 29.4427 10.212 29.5832Z" fill="#D9DBE9"/>
<path d="M10.766 29.7554C10.4613 30.161 9.87564 30.5509 9.57095 30.9566L9.56305 31.097C10.0003 30.8398 10.4534 30.3015 10.766 29.7554C10.9065 29.7633 10.766 29.7554 10.766 29.7554Z" fill="#D9DBE9"/>
<path d="M11.1799 29.9196C10.8673 30.4657 10.5626 30.8714 10.3905 31.4254L10.3826 31.5659C10.8357 31.0277 11.1483 30.4816 11.1799 29.9196C11.3204 29.9275 11.3283 29.787 11.1799 29.9196Z" fill="#D9DBE9"/>
<path d="M7.71078 23.9463C6.02496 23.8514 4.21445 23.4677 2.85702 22.5458C2.72444 22.3974 2.70863 22.6784 2.70863 22.6784C3.91767 23.7329 6.15754 23.9998 7.71078 23.9463C7.84336 24.0947 7.85127 23.9542 7.71078 23.9463Z" fill="#D9DBE9"/>
<path d="M8.38924 24.4073C6.13356 24.4213 4.19838 23.7487 2.29482 22.5142C2.15433 22.5063 2.14643 22.6468 2.28691 22.6547C3.8937 24.1544 6.26614 24.5697 8.52972 24.4152C8.52182 24.5557 8.52972 24.4152 8.38924 24.4073Z" fill="#D9DBE9"/>
<path d="M9.06801 24.8682C7.93622 24.9455 6.94491 25.0306 5.82893 24.8269C4.71295 24.6232 3.76908 23.8654 2.6531 23.6617L2.80149 23.5292C2.80149 23.5292 2.80149 23.5292 2.661 23.5213L2.51261 23.6538C2.89454 24.38 4.42408 24.7479 5.1186 24.9279C6.51555 25.1474 7.77992 25.2185 9.06801 24.8682C9.20059 25.0166 9.20849 24.8761 9.06801 24.8682Z" fill="#D9DBE9"/>
<path d="M8.88814 25.5627C6.61666 25.8577 4.68148 25.1851 2.7621 24.2316C2.62162 24.2237 2.60581 24.5046 2.7463 24.5125L2.88678 24.5204L2.89468 24.3799C3.02727 24.5283 3.01936 24.6688 3.29243 24.8251C3.42501 24.9735 3.83857 25.1377 3.97905 25.1456C4.53309 25.3177 4.94664 25.4819 5.50068 25.654C6.61666 25.8577 7.74054 25.921 8.88023 25.7032C9.02072 25.7111 8.88814 25.5627 8.88814 25.5627Z" fill="#D9DBE9"/>
<path d="M8.85623 26.1248C7.86492 26.21 6.87362 26.2951 6.03071 26.2477C5.04731 26.1924 4.23601 25.583 3.26842 25.2467C3.12794 25.2388 3.12003 25.3793 3.12003 25.3793C4.8752 26.7464 6.71733 26.5682 8.84832 26.2653C8.98881 26.2732 8.85623 26.1248 8.85623 26.1248Z" fill="#D9DBE9"/>
<path d="M9.09781 26.843C6.97472 27.0054 5.2968 26.7701 3.36952 25.957C3.22904 25.9491 3.22113 26.0896 3.36162 26.0975C4.98421 27.3163 7.23988 27.3022 9.22249 27.1319C9.23039 26.9914 9.10572 26.7025 9.09781 26.843Z" fill="#D9DBE9"/>
<path d="M3.41104 22.7178C3.3399 23.9822 3.68231 25.4107 4.46199 26.582C4.45409 26.7225 4.60248 26.59 4.61039 26.4495C3.97119 25.2861 3.61297 24.1385 3.41104 22.7178C3.55152 22.7257 3.41894 22.5773 3.41104 22.7178Z" fill="#D9DBE9"/>
<path d="M3.94128 23.3115C4.15901 24.4512 4.51724 25.5988 5.01595 26.7543C5.00805 26.8947 5.15644 26.7622 5.15644 26.7622C4.65773 25.6067 4.2995 24.4591 3.94128 23.3115C3.94918 23.171 3.80869 23.1631 3.94128 23.3115Z" fill="#D9DBE9"/>
<path d="M4.53509 22.7811C4.60444 24.0534 4.80637 25.474 5.44557 26.6374L5.58605 26.6453C5.10315 25.2088 4.74492 24.0613 4.53509 22.7811C4.68348 22.6485 4.54299 22.6406 4.53509 22.7811Z" fill="#D9DBE9"/>
<path d="M4.81585 22.7969C5.16617 24.085 5.51649 25.3731 6.15568 26.5365L6.29617 26.5444C5.94585 25.2563 5.31456 23.9524 4.81585 22.7969C4.96424 22.6643 4.82375 22.6564 4.81585 22.7969Z" fill="#D9DBE9"/>
<path d="M5.37005 22.969C5.86876 24.1245 6.21909 25.4126 6.7257 26.4276L6.86619 26.4355C6.50796 25.2879 6.00924 24.1324 5.37005 22.969C5.51844 22.8365 5.37795 22.8286 5.37005 22.969Z" fill="#D9DBE9"/>
<path d="M6.0563 23.2895C6.56292 24.3045 6.92114 25.4521 7.28727 26.4592C7.27937 26.5997 7.42776 26.4671 7.42776 26.4671C7.21002 25.3274 6.70341 24.3124 6.1968 23.2974C6.2126 23.0164 6.06421 23.149 6.0563 23.2895Z" fill="#D9DBE9"/>
</svg>
