<svg width="82" height="76" viewBox="0 0 82 76" fill="none" xmlns="http://www.w3.org/2000/svg">
<path d="M63.0403 64.1996C64.9348 62.0439 66.4826 59.3631 66.7226 56.4146C67.0518 53.0302 65.7919 49.8657 64.5319 46.7011C63.4453 43.7991 62.2368 40.8267 61.1502 37.9247C59.4079 33.3443 57.4733 28.8155 54.4182 25.1019C51.1708 21.4398 46.3481 18.8178 41.7024 19.5476C39.0303 19.9545 36.1094 21.3552 33.6534 20.2622C31.6334 19.2584 30.7013 16.933 29.8911 14.678C29.2027 12.4934 28.4628 10.1165 29.101 7.88537C29.4905 6.64796 30.0722 5.35904 29.4491 4.18693C29.1539 3.85401 28.8587 3.52108 28.4931 3.31002C27.2745 2.60649 26.056 1.90295 24.767 1.32127C24.9427 8.89657 26.881 16.5146 30.5165 23.1629C27.9235 25.4027 25.5039 27.9052 24.1106 31.1627C22.5766 34.6638 22.4723 38.503 23.0664 42.258C23.8527 45.9615 25.4079 49.459 27.296 52.6612C28.8374 55.3384 30.571 57.964 32.9704 59.9992C34.4653 61.3497 36.2932 62.4051 37.9991 63.39C40.3144 64.7267 41.8093 66.0773 44.1761 67.6062C46.004 68.6615 47.921 69.2809 49.9084 69.7784C54.7036 70.7597 60.1282 67.5551 63.0403 64.1996Z" fill="#FBFAF4"/>
<path d="M34.3846 20.6842C33.7188 21.2746 33.1233 21.7432 32.406 22.1414C31.9512 22.3662 31.6886 22.5396 31.2339 22.7645C30.9713 22.9378 30.6572 22.919 30.5165 23.1627C30.4462 23.2845 30.568 23.3549 30.6899 23.4252C31.4399 23.5333 32.2276 23.0132 32.8745 22.7368C33.5919 22.3386 34.4499 21.6967 35.0643 20.9141C35.0128 20.7219 34.5253 20.4404 34.3846 20.6842Z" fill="#D9DBE9"/>
<path d="M34.7172 20.3892C28.6382 17.6918 28.6032 9.87283 29.6925 4.32768C29.852 3.7699 29.2239 3.73218 28.9425 4.2196C27.1736 9.53483 28.4598 18.5637 34.4358 20.8766C34.6795 21.0173 34.8391 20.4595 34.7172 20.3892Z" fill="#D9DBE9"/>
<path d="M30.9522 23.252C26.2527 16.4768 26.0066 9.0234 24.8372 1.19933C24.8561 0.885268 23.9842 0.706872 24.0872 1.09129C24.3848 8.73695 25.779 17.0158 30.2537 23.3362C30.5489 23.6691 31.2474 23.5849 30.9522 23.252Z" fill="#D9DBE9"/>
<path d="M29.327 4.11648C29.5054 3.24464 28.3572 2.41922 27.6965 1.87524C26.792 1.19055 25.6953 0.557352 24.4905 0.674157C24.1764 0.655306 23.7028 1.19425 24.1902 1.47566C25.0432 1.96814 26.1073 2.09506 26.9603 2.58754C27.8133 3.08002 28.263 3.98954 29.1348 4.16795C29.2567 4.2383 29.4489 4.18684 29.327 4.11648Z" fill="#D9DBE9"/>
<path d="M59.4484 67.3252C72.0464 60.1383 65.4187 43.4763 60.2607 33.8368C57.1968 28.1685 54.1518 22.1861 47.6695 19.9058C42.7902 18.226 37.0804 18.8289 33.1043 22.0574C32.7713 22.3527 32.9258 22.9293 33.451 22.5826C38.3316 20.0387 43.6758 19.2248 48.8315 21.5515C54.4746 24.1597 57.2056 30.1233 59.9743 35.4587C65.1134 45.4122 70.3405 59.1534 59.4484 67.3252C59.3266 67.2548 59.2562 67.3767 59.4484 67.3252Z" fill="#D9DBE9"/>
<path d="M58.5715 68.281C52.1155 71.865 45.7601 68.5207 40.2439 64.8485C35.1448 61.5795 30.3975 57.7013 27.4366 52.4174C21.7396 42.3043 20.0528 25.2454 34.5528 22.0812C34.745 22.0297 35.0264 21.5423 34.7123 21.5234C29.4247 21.3951 25.0076 25.6689 23.1545 30.2856C20.4898 36.8709 22.4984 44.3671 25.2808 50.5229C28.5834 57.4664 34.6524 62.4325 41.2841 66.4238C46.4536 69.5709 53.1092 72.1137 58.7449 68.5436C58.6934 68.3513 58.6419 68.1591 58.5715 68.281Z" fill="#D9DBE9"/>
<path d="M55.9509 68.8804C57.0991 69.7058 57.3115 65.1166 57.3492 64.4885C57.3492 64.4885 57.2273 64.4182 57.157 64.54C57.1381 64.8541 56.9446 69.1292 55.9509 68.8804C56.0212 68.7585 55.9509 68.8804 55.9509 68.8804Z" fill="#D9DBE9"/>
<path d="M57.0479 69.5133C58.0002 67.301 58.2729 64.8589 57.4111 62.4116C57.4111 62.4116 57.2892 62.3413 57.2189 62.4632C57.7666 64.8915 57.8783 67.2307 57.0479 69.5133C56.8557 69.5648 57.0479 69.5133 57.0479 69.5133Z" fill="#D9DBE9"/>
<path d="M58.3091 68.4544C58.7413 65.4544 58.6861 62.1731 57.4073 59.3226C57.4073 59.3226 57.2855 59.2522 57.2151 59.374C58.2314 62.3979 58.6195 65.3841 58.3091 68.4544C58.1169 68.5059 58.2388 68.5762 58.3091 68.4544Z" fill="#D9DBE9"/>
<path d="M59.275 67.0626C59.5853 63.9923 59.1646 60.4999 57.6232 57.8228C57.6232 57.8228 57.5014 57.7524 57.5529 57.9446C58.691 61.0388 59.5338 63.8001 59.275 67.0626C59.2046 67.1845 59.3265 67.2549 59.275 67.0626Z" fill="#D9DBE9"/>
<path d="M60.3391 67.1896C60.4623 63.0363 59.6433 58.8266 57.9147 55.0665C57.9147 55.0665 57.7929 54.9962 57.8444 55.1884C59.1885 59.0514 60.1482 63.0175 60.3391 67.1896C60.0765 67.3629 60.2687 67.3114 60.3391 67.1896Z" fill="#D9DBE9"/>
<path d="M60.7988 65.8302C61.3253 61.26 59.6345 56.8718 57.6107 52.7788L57.4889 52.7085C59.1282 56.9044 61.0301 60.927 60.6255 65.5677C60.6066 65.8817 60.9207 65.9006 60.7988 65.8302Z" fill="#D9DBE9"/>
<path d="M61.695 64.5602C62.4137 59.9384 59.7669 54.6733 57.6728 50.7022C57.5509 50.6318 57.4806 50.7537 57.6024 50.8241C59.2417 55.02 62.17 59.7977 61.695 64.5602C61.4324 64.7335 61.6247 64.682 61.695 64.5602Z" fill="#D9DBE9"/>
<path d="M62.5528 63.9183C63.3607 58.8605 60.2453 53 57.7856 48.8178C57.7856 48.8178 57.6638 48.7474 57.5934 48.8693C59.7202 53.3467 63.117 58.7198 62.3606 63.9697C62.3606 63.9697 62.6043 64.1105 62.5528 63.9183Z" fill="#D9DBE9"/>
<path d="M63.8657 63.0515C63.0569 56.5729 60.0118 50.5904 56.6853 45.0954C56.6853 45.0954 56.5635 45.0251 56.4931 45.1469C59.4867 50.9371 62.621 56.4836 63.5517 63.0326C63.6736 63.1029 63.8657 63.0515 63.8657 63.0515Z" fill="#D9DBE9"/>
<path d="M64.5879 61.519C62.9072 54.862 60.2139 48.2703 56.4 42.4939C56.4 42.4939 56.2781 42.4235 56.3296 42.6157C59.7591 48.4951 62.6635 54.7213 64.5879 61.519C64.3957 61.5705 64.5879 61.519 64.5879 61.519Z" fill="#D9DBE9"/>
<path d="M64.8092 58.8845C63.6347 52.1949 60.3271 46.3858 56.7569 40.7501C56.7569 40.7501 56.635 40.6798 56.7569 40.7501C59.9942 46.6811 63.4425 52.2464 64.8092 58.8845C64.7388 59.0064 64.8607 59.0768 64.8092 58.8845Z" fill="#D9DBE9"/>
<path d="M65.3635 55.9546C65.0646 52.5325 63.3498 49.5928 61.7054 46.5313C59.7143 42.9446 57.6529 39.4797 55.1366 36.2397L55.0663 36.3616C58.7583 42.0677 64.3297 49.0212 65.3635 55.9546C65.1009 56.128 65.2931 56.0765 65.3635 55.9546Z" fill="#D9DBE9"/>
<path d="M65.6685 54.019C63.641 46.8368 60.2166 39.823 55.1791 34.4775C55.1791 34.4775 54.9869 34.529 55.1088 34.5993C59.6023 40.6056 63.3973 46.6961 65.6685 54.019C65.5981 54.1408 65.5981 54.1408 65.6685 54.019Z" fill="#D9DBE9"/>
<path d="M64.6812 48.4121C62.3535 42.0315 58.8022 36.0817 53.8488 31.4346C53.7269 31.3643 53.6566 31.4861 53.7784 31.5565C58.3989 36.4988 62.1098 41.8908 64.6812 48.4121C64.6109 48.534 64.8031 48.4825 64.6812 48.4121Z" fill="#D9DBE9"/>
<path d="M57.0133 30.1746C54.9744 29.4848 52.7948 29.0388 50.6478 29.0991L50.5775 29.2209C52.7056 29.4748 54.7118 29.6582 56.943 30.2964C57.0648 30.3668 57.1352 30.2449 57.0133 30.1746Z" fill="#D9DBE9"/>
<path d="M55.9544 28.9135C53.967 28.4159 51.717 28.0918 49.5701 28.152L49.4997 28.2739C51.6982 28.4058 53.7044 28.5893 55.7622 28.965C55.884 29.0353 55.9544 28.9135 55.9544 28.9135Z" fill="#D9DBE9"/>
<path d="M55.3315 27.7414C52.716 27.2061 50.1519 26.8631 47.5502 27.1482C47.5502 27.1482 47.4799 27.2701 47.6017 27.3404C50.255 27.2475 52.7675 27.3984 55.3315 27.7414C55.4534 27.8117 55.5237 27.6899 55.3315 27.7414Z" fill="#D9DBE9"/>
<path d="M54.0988 26.2173C50.4004 25.8693 46.7346 26.0275 43.2233 26.7623C43.2233 26.7623 43.153 26.8842 43.3452 26.8327C46.908 26.29 50.4519 26.0615 54.0988 26.2173C54.3426 26.358 54.2911 26.1658 54.0988 26.2173Z" fill="#D9DBE9"/>
<path d="M53.0399 24.9562C49.4634 24.6785 45.6757 24.7663 42.0941 25.623L42.0237 25.7449C45.7084 25.2726 49.2523 25.044 53.0399 24.9562C53.0914 25.1484 53.0399 24.9562 53.0399 24.9562Z" fill="#D9DBE9"/>
<path d="M51.9806 23.695C48.0196 23.5203 43.8991 23.9034 40.1767 25.0038L40.1064 25.1256C44.0021 24.2878 47.8789 23.764 51.9103 23.8169C52.0322 23.8872 51.9806 23.695 51.9806 23.695Z" fill="#D9DBE9"/>
<path d="M50.2047 22.8316C46.5766 22.3616 42.5263 22.6229 39.0992 24.0562C39.0288 24.178 39.1507 24.2484 39.2211 24.1265C42.8731 23.148 46.4358 22.6054 50.2561 23.0238C50.378 23.0941 50.3969 22.7801 50.2047 22.8316Z" fill="#D9DBE9"/>
<path d="M48.6907 21.7953C44.3642 21.4095 39.5966 22.0689 35.8692 24.3037C35.7989 24.4256 35.7989 24.4256 35.9911 24.3741C40.1871 22.7347 44.2235 21.6532 48.8126 21.8656C48.7422 21.9875 48.8126 21.8656 48.6907 21.7953Z" fill="#D9DBE9"/>
<path d="M46.3757 20.4585C41.8707 20.9446 36.8595 21.4633 33.0944 24.3262C33.0944 24.3262 33.024 24.4481 33.1459 24.5184C37.2577 22.1806 41.6597 21.3101 46.4273 20.6507C46.4273 20.6507 46.4976 20.5288 46.3757 20.4585Z" fill="#D9DBE9"/>
<path d="M41.7352 20.0538C37.3332 20.9243 32.8231 22.5448 29.3206 25.2344C29.2502 25.3562 29.3721 25.4266 29.4424 25.3047C33.3621 23.0184 37.1925 21.168 41.7352 20.0538C41.857 20.1242 41.8055 19.932 41.7352 20.0538Z" fill="#D9DBE9"/>
<path d="M32.8416 22.2308C33.1934 21.6215 33.564 20.6981 33.4799 19.9996L33.358 19.9293C33.1281 20.6089 33.02 21.3589 32.7901 22.0385C32.6494 22.2823 32.7713 22.3526 32.8416 22.2308Z" fill="#D9DBE9"/>
<path d="M32.1812 21.6869C32.4626 21.1994 32.6925 20.5198 32.6083 19.8213C32.6083 19.8213 32.4865 19.751 32.4161 19.8728C32.2566 20.4306 32.2189 21.0587 32.0593 21.6165C31.989 21.7384 32.1812 21.6869 32.1812 21.6869Z" fill="#D9DBE9"/>
<path d="M31.9048 21.0397C31.8206 20.3413 31.9099 19.9053 32.0694 19.3475L31.9476 19.2772C31.5958 19.8865 31.6284 20.3928 31.9048 21.0397C31.7126 21.0912 31.9048 21.0397 31.9048 21.0397Z" fill="#D9DBE9"/>
<path d="M31.2251 20.8099C31.0706 20.2333 31.2302 19.6755 31.3897 19.1177C31.4601 18.9959 31.2679 19.0474 31.2679 19.0474C30.9865 19.5348 30.9488 20.1629 31.0329 20.8614C31.1548 20.9318 31.2251 20.8099 31.2251 20.8099Z" fill="#D9DBE9"/>
<path d="M30.6861 20.3363C30.7941 19.5863 30.9537 19.0285 31.0618 18.2785L30.9399 18.2081C30.71 18.8878 30.6723 19.5159 30.5642 20.2659C30.4939 20.3878 30.6157 20.4581 30.6861 20.3363Z" fill="#D9DBE9"/>
<path d="M30.2173 19.7409C30.3254 18.9909 30.5553 18.3113 30.4711 17.6128L30.3493 17.5424C30.1193 18.2221 30.1332 19.0424 30.0955 19.6705C30.0251 19.7924 30.2173 19.7409 30.2173 19.7409Z" fill="#D9DBE9"/>
<path d="M29.7681 18.8311C29.8761 18.0811 30.106 17.4015 30.1438 16.7734L30.0219 16.703C29.792 17.3827 29.7543 18.0108 29.6462 18.7608C29.5759 18.8826 29.7681 18.8311 29.7681 18.8311Z" fill="#D9DBE9"/>
<path d="M29.1255 17.9734C29.3039 17.1016 29.6042 16.3001 29.7826 15.4282L29.6607 15.3579C29.1167 16.0187 28.9898 17.0827 29.1255 17.9734C29.0036 17.9031 29.1255 17.9734 29.1255 17.9734Z" fill="#D9DBE9"/>
<path d="M28.606 17.1856C28.7844 16.3138 29.0846 15.5123 29.2631 14.6404L29.1412 14.5701C28.7191 15.3012 28.5407 16.1731 28.4841 17.1153C28.4138 17.2371 28.606 17.1856 28.606 17.1856Z" fill="#D9DBE9"/>
<path d="M28.2451 15.8401C28.4751 15.1605 28.9675 14.3075 28.8834 13.609L28.7615 13.5387C28.4097 14.148 28.2313 15.0198 28.0014 15.6994C28.0529 15.8916 28.1748 15.962 28.2451 15.8401Z" fill="#D9DBE9"/>
<path d="M27.7769 15.2445C28.0772 14.4431 28.5696 13.5901 28.6262 12.6479L28.5043 12.5775C28.0822 13.3087 27.8334 14.3023 27.5332 15.1038C27.5847 15.296 27.7065 15.3664 27.7769 15.2445Z" fill="#D9DBE9"/>
<path d="M27.2754 14.1428C27.7679 13.2898 28.4011 12.1931 28.4577 11.2509L28.3358 11.1805C28.1247 11.5461 27.9652 12.1039 27.7541 12.4695C27.5946 13.0272 27.3131 13.5147 27.0317 14.0021C27.0832 14.1943 27.2051 14.2647 27.2754 14.1428Z" fill="#D9DBE9"/>
<path d="M27.0367 12.8677C27.651 12.0851 28.1435 11.2321 28.3219 10.3602C28.3922 10.2384 28.2 10.2899 28.2 10.2899C27.7076 11.1429 27.4073 11.9444 26.9148 12.7974L27.0367 12.8677Z" fill="#D9DBE9"/>
<path d="M26.8498 11.7845C27.4127 10.8097 28.238 9.66147 28.679 8.61627L28.5572 8.54591C27.7506 9.38005 27.2908 10.7393 26.728 11.7141C26.5873 11.9579 26.7795 11.9064 26.8498 11.7845Z" fill="#D9DBE9"/>
<path d="M26.8736 10.3361C27.4364 9.36125 28.1211 8.45676 28.5621 7.41156C28.6324 7.2897 28.4402 7.3412 28.4402 7.3412C27.7555 8.2457 27.3145 9.29089 26.7517 10.2657L26.8736 10.3361Z" fill="#D9DBE9"/>
<path d="M26.5455 9.49708C27.3709 8.34887 28.1963 7.20066 28.7076 6.03359C28.7779 5.91174 28.6561 5.84139 28.5857 5.96325C27.8822 7.18181 27.249 8.27851 26.4236 9.42672C26.3533 9.54857 26.4751 9.61893 26.5455 9.49708Z" fill="#D9DBE9"/>
<path d="M27.1978 8.08616C27.831 6.98946 28.586 5.96309 29.027 4.91789C29.0974 4.79603 28.8536 4.65533 28.7833 4.77718C28.0282 5.80354 27.5169 6.97061 26.9541 7.94546C27.0759 8.01581 27.1978 8.08616 27.1978 8.08616Z" fill="#D9DBE9"/>
<path d="M27.2026 6.95191C27.8357 5.8552 28.3986 4.88034 29.1536 3.85398C29.224 3.73213 29.1021 3.66177 28.9099 3.71328C28.1549 4.73963 27.5217 5.83635 26.9588 6.8112C26.8181 7.05492 27.1322 7.07377 27.2026 6.95191Z" fill="#D9DBE9"/>
<path d="M26.9263 6.3048C27.4892 5.32995 28.1738 4.42546 28.6148 3.38026C28.6852 3.2584 28.493 3.30991 28.493 3.30991C27.8083 4.21441 27.3673 5.2596 26.8045 6.23445C26.6123 6.28596 26.9263 6.3048 26.9263 6.3048Z" fill="#D9DBE9"/>
<path d="M27.0532 5.24097C27.405 4.63168 27.8271 3.90054 27.8648 3.2724C27.9352 3.15055 27.743 3.20203 27.6726 3.32388C27.4427 4.00352 27.091 4.61279 26.7392 5.22208C26.7392 5.22208 26.9829 5.36282 27.0532 5.24097Z" fill="#D9DBE9"/>
<path d="M26.5661 4.95929C26.9882 4.22815 27.6025 3.44549 27.4669 2.55479L27.345 2.48444C26.9229 3.21558 26.7445 4.08745 26.3224 4.81859C26.252 4.94044 26.4957 5.08115 26.5661 4.95929Z" fill="#D9DBE9"/>
<path d="M26.1487 4.55621C26.6926 3.89543 27.2555 2.92058 27.1198 2.02989C27.1198 2.02989 26.998 1.9595 26.9276 2.08136C26.5055 2.81249 26.3271 3.68438 25.8346 4.53737C25.9564 4.60773 26.0783 4.67807 26.1487 4.55621Z" fill="#D9DBE9"/>
<path d="M25.9943 3.97938C26.2242 3.29974 26.6463 2.56863 26.7544 1.81864L26.6325 1.7483C26.1589 2.28722 25.9805 3.15904 25.7506 3.83867C25.6099 4.08239 25.924 4.10124 25.9943 3.97938Z" fill="#D9DBE9"/>
<path d="M25.6475 3.45451C25.7367 3.01858 25.9478 2.65302 25.9151 2.14674L25.7932 2.07638C25.5822 2.44195 25.493 2.87787 25.4038 3.31379C25.4553 3.506 25.5771 3.57636 25.6475 3.45451Z" fill="#D9DBE9"/>
<path d="M25.2305 3.0511C25.4415 2.68553 25.5308 2.24961 25.62 1.81369L25.4981 1.74333C25.287 2.1089 25.1978 2.54482 24.9868 2.91039C25.0383 3.1026 25.2305 3.0511 25.2305 3.0511Z" fill="#D9DBE9"/>
<path d="M46.5406 61.8223C45.9226 59.5157 45.8108 57.1766 45.5772 54.767C45.5772 54.767 45.4553 54.6967 45.5068 54.8889C45.4264 57.2796 45.8522 59.6376 46.5406 61.8223C46.4702 61.9441 46.6624 61.8926 46.5406 61.8223Z" fill="#D9DBE9"/>
<path d="M45.4248 61.5035C44.8118 58.0626 44.5129 54.6405 44.3359 51.2888L44.214 51.2184C44.077 54.5513 44.6196 58.1141 45.4248 61.5035C45.2326 61.555 45.4248 61.5035 45.4248 61.5035Z" fill="#D9DBE9"/>
<path d="M44.7129 60.7669C43.7206 56.2946 43.4782 51.9303 43.114 47.4957L42.9921 47.4253C42.8501 51.8926 43.6502 56.4164 44.7129 60.7669C44.5207 60.8184 44.7129 60.7669 44.7129 60.7669Z" fill="#D9DBE9"/>
<path d="M43.1851 58.9104C42.6098 54.8413 42.4705 50.8614 42.0874 46.7409L41.9656 46.6705C41.9642 50.8941 42.5395 54.9632 43.1851 58.9104C43.1148 59.0322 43.307 58.9807 43.1851 58.9104Z" fill="#D9DBE9"/>
<path d="M42.0885 58.277C41.4102 53.8235 41.1163 49.267 40.6302 44.762L40.5084 44.6917C40.7319 49.37 41.218 53.875 42.0885 58.277C42.0181 58.3989 42.14 58.4692 42.0885 58.277Z" fill="#D9DBE9"/>
<path d="M39.9604 58.0231C39.9089 57.8309 39.8574 57.6387 39.7356 57.5683C39.7871 57.7605 39.9089 57.8309 39.9604 58.0231Z" fill="#D9DBE9"/>
<path d="M40.1011 57.7796C39.0434 52.2947 38.7358 46.9178 38.5688 41.2973C38.2999 46.8286 38.9027 52.5384 40.1011 57.7796C40.0307 57.9014 40.1011 57.7796 40.1011 57.7796Z" fill="#D9DBE9"/>
<path d="M38.958 55.8196C38.0875 51.4176 37.8452 47.0533 37.795 42.6376C37.795 42.6376 37.6732 42.5672 37.795 42.6376C37.3389 47.086 37.8953 51.4691 38.958 55.8196C38.8877 55.9415 38.958 55.8196 38.958 55.8196Z" fill="#D9DBE9"/>
<path d="M37.2105 52.3737C36.9769 49.9641 36.9355 47.5031 36.5096 45.1451L36.3878 45.0747C36.4995 47.4139 36.855 49.8938 37.2105 52.3737C37.0183 52.4252 37.2105 52.3737 37.2105 52.3737Z" fill="#D9DBE9"/>
<path d="M26.0083 47.856C23.756 40.2191 24.7147 32.6488 28.1156 25.3512C28.1859 25.2294 27.9937 25.2809 27.9937 25.2809C24.0539 32.1049 23.6153 40.4628 26.0083 47.856C25.938 47.9778 26.0083 47.856 26.0083 47.856Z" fill="#D9DBE9"/>
<path d="M26.0337 42.1839C25.0703 35.1287 26.6847 29.2369 29.715 22.8626C29.7853 22.7408 29.5931 22.7923 29.4713 22.7219C25.8506 28.4303 24.9811 35.5646 26.0337 42.1839Z" fill="#D9DBE9"/>
<path d="M27.5865 38.3686C27.0351 32.8511 28.2085 28.0044 30.3431 22.9002C30.4134 22.7784 30.2212 22.8299 30.1509 22.9517C27.4774 27.5823 26.824 33.2166 27.5865 38.3686C27.5161 38.4905 27.5161 38.4905 27.5865 38.3686Z" fill="#D9DBE9"/>
<path d="M29.5801 33.5083C28.7938 29.8048 29.4559 26.1252 31.1632 22.8866C31.2336 22.7647 30.9195 22.7459 30.8492 22.8677C29.02 26.036 28.6015 29.8563 29.5801 33.5083C29.3879 33.5598 29.5801 33.5083 29.5801 33.5083Z" fill="#D9DBE9"/>
<path d="M30.7766 31.4366C30.0229 28.2394 30.4877 25.7457 31.3044 22.6427C31.3747 22.5209 31.1825 22.5724 31.1122 22.6943C29.7566 25.3236 29.8633 28.7972 30.7766 31.4366C30.6358 31.6803 30.7062 31.5585 30.7766 31.4366Z" fill="#D9DBE9"/>
<path d="M31.6206 29.9744C31.073 27.546 31.1534 25.1553 31.862 22.8023C31.9324 22.6805 31.6183 22.6617 31.5479 22.7835C30.8394 25.1365 30.8807 27.5975 31.6206 29.9744C31.4284 30.0259 31.5503 30.0962 31.6206 29.9744Z" fill="#D9DBE9"/>
<path d="M32.587 28.5823C32.278 27.429 32.283 26.2946 32.1662 25.0899C32.1009 24.0773 32.42 22.9618 32.3547 21.9492L32.2329 21.8788C31.4213 23.8474 31.8986 26.3976 32.3433 28.4416C32.5166 28.7042 32.7088 28.6527 32.587 28.5823Z" fill="#D9DBE9"/>
<path d="M34.021 27.7862C33.7635 26.8251 33.6279 25.9344 33.4922 25.0437C33.3566 24.153 33.535 23.2812 33.3993 22.3905C33.3993 22.3905 33.2774 22.3201 33.2071 22.442C32.7284 24.1153 33.2246 26.3515 34.021 27.7862C33.8288 27.8377 33.9507 27.908 34.021 27.7862Z" fill="#D9DBE9"/>
<path d="M35.0342 27.7206C34.5895 25.6766 34.3371 23.5811 33.7002 21.5887L33.5783 21.5183C33.7089 23.5434 34.3458 25.5359 34.7905 27.5799C34.842 27.7721 35.0342 27.7206 35.0342 27.7206Z" fill="#D9DBE9"/>
<path d="M61.7682 40.2314C61.7857 44.1409 61.611 48.1019 61.1926 51.9222L61.3145 51.9925C61.8032 48.0504 61.9779 44.0894 61.7682 40.2314C61.8386 40.1095 61.7167 40.0391 61.7682 40.2314Z" fill="#D9DBE9"/>
<path d="M62.0634 40.5641C61.8786 46.794 60.7705 52.6532 59.0857 58.6669L59.2075 58.7372C61.3282 52.8127 62.1412 46.6206 62.0634 40.5641C62.1338 40.4423 62.0119 40.3719 62.0634 40.5641Z" fill="#D9DBE9"/>
<path d="M62.3724 41.7175C62.5858 48.6647 61.3369 54.7676 58.9348 61.1795C58.8645 61.3014 59.0567 61.2499 59.0567 61.2499C61.8759 55.2412 62.9187 48.3695 62.3724 41.7175C62.5646 41.666 62.3724 41.7175 62.3724 41.7175Z" fill="#D9DBE9"/>
<path d="M63.4692 42.3507C64.273 49.9637 62.5317 56.9196 58.906 63.7624L59.0278 63.8327C63.1925 57.4636 64.4841 49.5981 63.4692 42.3507C63.5396 42.2288 63.4177 42.1585 63.4692 42.3507Z" fill="#D9DBE9"/>
<path d="M64.2745 45.74C64.7127 53.142 62.6247 59.5728 58.6007 65.6982C58.5303 65.8201 58.6522 65.8905 58.7225 65.7686C63.1636 60.0464 64.9238 52.7764 64.2745 45.74C64.4152 45.4963 64.3448 45.6182 64.2745 45.74Z" fill="#D9DBE9"/>
<path d="M64.7038 51.1871C64.2238 57.084 61.9674 62.1178 58.3518 66.6918C58.2814 66.8137 58.4033 66.884 58.4737 66.7622C62.3845 62.5211 64.416 57.0325 64.7038 51.1871C64.896 51.1356 64.7038 51.1871 64.7038 51.1871Z" fill="#D9DBE9"/>
<path d="M64.8674 53.7185C64.2328 59.0388 61.9438 63.5663 58.5392 67.7747C58.4689 67.8966 58.5907 67.967 58.6611 67.8451C62.3609 63.9696 64.425 58.9873 64.8674 53.7185C65.0596 53.667 64.8674 53.7185 64.8674 53.7185Z" fill="#D9DBE9"/>
<path d="M64.6688 59.1279C63.2755 62.3854 61.7981 64.9444 58.9614 67.0436C58.8911 67.1654 59.0129 67.2358 59.0833 67.1139C62.1963 65.6617 63.7303 62.1606 64.9125 59.2687C64.9829 59.1468 64.7392 59.0061 64.6688 59.1279Z" fill="#D9DBE9"/>
<path d="M59.209 54.5137C60.5508 51.064 61.4566 47.5251 61.9266 43.897C62.2696 41.333 63.232 36.8519 61.4795 34.5403C61.3577 34.47 61.2873 34.5918 61.4092 34.6622C62.9694 37.0253 62.0208 42.3267 61.6075 45.0126C61.0345 48.2562 60.2179 51.3592 59.209 54.5137C59.0168 54.5652 59.209 54.5137 59.209 54.5137Z" fill="#D9DBE9"/>
<path d="M59.3833 50.5528C60.9789 44.975 61.2152 38.9374 59.5295 33.4148L59.4076 33.3444C60.5683 39.2137 60.8056 44.7124 59.2615 50.4824C59.1911 50.6043 59.313 50.6747 59.3833 50.5528Z" fill="#D9DBE9"/>
<path d="M58.836 48.1243C60.0283 42.9636 60.1754 37.3619 58.4004 32.2752L58.2785 32.2049C59.5988 37.5164 59.9253 42.5791 58.5923 47.9836C58.6438 48.1758 58.7656 48.2461 58.836 48.1243Z" fill="#D9DBE9"/>
<path d="M58.3829 44.1254C59.1908 39.0676 58.9534 33.569 56.9674 28.8479C56.9674 28.8479 56.8455 28.7775 56.7752 28.8994C58.2361 33.9672 58.947 38.9269 58.1907 44.1769L58.3829 44.1254Z" fill="#D9DBE9"/>
<path d="M56.5411 42.2497C56.9319 36.7888 57.6933 30.4044 54.6432 25.5564C54.6432 25.5564 54.5214 25.4861 54.451 25.6079C56.6431 31.0979 56.6367 36.4558 56.227 42.2309C56.3488 42.3013 56.6629 42.3201 56.5411 42.2497Z" fill="#D9DBE9"/>
<path d="M55.6465 39.2962C55.8263 34.2008 56.1141 28.3554 53.2185 24.084L53.0263 24.1355C55.4483 28.9458 55.5826 34.0601 55.4543 39.3477L55.6465 39.2962Z" fill="#D9DBE9"/>
<path d="M54.0484 37.5616C55.1515 32.8368 54.286 27.3004 51.0387 23.6383C50.9168 23.5679 50.8464 23.6898 50.9683 23.7601C53.6202 27.8908 54.9266 32.382 54.0484 37.5616C53.8561 37.6131 54.0484 37.5616 54.0484 37.5616Z" fill="#D9DBE9"/>
<path d="M53.2712 35.8126C53.8354 30.6142 52.3606 24.726 48.4148 21.1481C48.2929 21.0777 48.2226 21.1996 48.3444 21.2699C51.7463 25.5087 53.7324 30.2298 53.2712 35.8126C53.0086 35.986 53.2008 35.9345 53.2712 35.8126Z" fill="#D9DBE9"/>
<path d="M51.8325 33.52C52.3264 28.4434 50.1343 22.9535 45.7663 20.1067C45.6445 20.0364 45.5741 20.1582 45.696 20.2285C49.7122 23.6846 52.0312 28.1105 51.8325 33.52C51.6403 33.5715 51.8325 33.52 51.8325 33.52Z" fill="#D9DBE9"/>
<path d="M49.8311 32.2022C51.5297 27.0088 48.4281 21.9686 43.7787 19.6092C43.6569 19.5388 43.5865 19.6607 43.7084 19.7311C47.9545 22.5075 51.3564 26.7462 49.7093 32.1318C49.6389 32.2537 49.8826 32.3944 49.8311 32.2022Z" fill="#D9DBE9"/>
<path d="M49.0537 30.4535C50.3302 25.9912 46.9798 21.9447 43.7274 19.417C43.7274 19.417 43.5352 19.4685 43.657 19.5389C46.4358 22.6055 50.1568 25.7287 49.0537 30.4535C48.8615 30.505 49.0537 30.4535 49.0537 30.4535Z" fill="#D9DBE9"/>
<path d="M48.271 29.8391C48.5676 25.9484 46.6846 21.6118 42.9397 19.9371C42.9397 19.9371 42.7475 19.9886 42.8693 20.059C46.2624 22.3429 48.3943 25.6859 48.0788 29.8906C48.0788 29.8906 48.2007 29.961 48.271 29.8391Z" fill="#D9DBE9"/>
<path d="M47.0199 28.6292C46.5803 25.4509 44.9548 22.0752 42.1006 20.2649C42.1006 20.2649 41.9083 20.3164 42.0302 20.3868C44.603 22.6845 46.4069 25.1883 46.9496 28.7511C46.7573 28.8026 46.9496 28.7511 47.0199 28.6292Z" fill="#D9DBE9"/>
<path d="M45.8012 27.9257C45.2158 26.1254 44.4382 24.3767 43.3277 22.9232C42.6858 22.0651 41.3177 19.6505 40.0238 20.2033L39.9534 20.3251C41.3504 20.1568 43.0136 22.9043 43.6555 23.7624C44.5223 25.0752 45.1266 26.5614 45.609 27.9772C45.6605 28.1694 45.7308 28.0475 45.8012 27.9257Z" fill="#D9DBE9"/>
<path d="M43.7574 28.3702C43.6507 24.8966 41.8518 21.2585 38.5428 19.673C38.4209 19.6026 38.3506 19.7245 38.4724 19.7948C41.5 21.8677 43.4773 24.6341 43.5651 28.4217L43.7574 28.3702Z" fill="#D9DBE9"/>
<path d="M42.5201 27.981C42.0566 26.2511 40.6145 20.8692 37.8532 21.7121L37.7829 21.8339C40.4361 21.741 41.691 26.04 42.2575 28.1543C42.4498 28.1028 42.5201 27.981 42.5201 27.981Z" fill="#D9DBE9"/>
<path d="M41.2827 27.5914C40.8192 25.8615 39.9713 24.2347 38.9311 22.6593C38.2892 21.8012 37.3194 20.104 35.9224 20.2723L35.8521 20.3941C37.352 20.6102 38.4437 22.3779 39.1371 23.4281C40.0039 24.7409 40.5566 26.0349 41.0905 27.6429C41.142 27.8351 41.4046 27.6618 41.2827 27.5914Z" fill="#D9DBE9"/>
<path d="M39.8529 27.2538C39.2537 24.6332 37.7123 21.9561 35.397 20.6193C35.397 20.6193 35.2048 20.6708 35.3267 20.7412C37.2902 22.6872 38.8881 24.4221 39.6607 27.3053C39.7825 27.3756 39.9747 27.3241 39.8529 27.2538Z" fill="#D9DBE9"/>
<path d="M38.8404 27.3186C37.9598 25.1855 36.3996 22.8224 34.328 21.6264C34.328 21.6264 34.1359 21.6779 34.2577 21.7482C36.1697 23.502 37.5943 24.9744 38.6482 27.3702C38.6482 27.3702 38.9623 27.389 38.8404 27.3186Z" fill="#D9DBE9"/>
<path d="M36.9046 27.0133C36.3896 25.0912 35.3683 23.2018 33.7327 22.095C33.6108 22.0246 33.5405 22.1464 33.6623 22.2168C35.1573 23.5673 36.2678 25.0209 36.7124 27.0648C36.8343 27.1352 37.0265 27.0837 36.9046 27.0133Z" fill="#D9DBE9"/>
<path d="M36.1544 26.9054C35.1657 25.5222 34.1256 23.9469 32.804 22.8589C32.804 22.8589 32.6118 22.9104 32.7336 22.9808C33.9145 24.3124 34.9735 25.5737 36.084 27.0273C36.084 27.0273 36.2762 26.9758 36.1544 26.9054Z" fill="#D9DBE9"/>
<path d="M59.6793 35.1256C57.3314 33.2826 54.5802 31.8567 51.5802 31.4245L51.5099 31.5463C54.491 32.2926 57.0688 33.456 59.4167 35.299C59.6089 35.2475 59.8012 35.196 59.6793 35.1256Z" fill="#D9DBE9"/>
<path d="M57.997 32.6922C56.0988 31.7588 54.1302 30.9472 51.9317 30.8152L51.8614 30.9371C53.9706 31.505 55.9581 32.0025 57.8563 32.9359C57.9781 33.0063 58.1188 32.7626 57.997 32.6922Z" fill="#D9DBE9"/>
<path d="M56.7646 31.1685C55.0398 30.4976 53.0524 30 51.168 29.8869C51.0461 29.8166 51.0976 30.0088 51.2195 30.0791C53.1554 30.3845 54.9694 30.6194 56.7646 31.1685C56.8865 31.2388 56.8865 31.2388 56.7646 31.1685Z" fill="#D9DBE9"/>
<path d="M61.3648 40.6484C61.4025 40.0202 61.4402 39.3921 61.4779 38.764C61.3183 39.3218 61.4025 40.0202 61.3648 40.6484C61.2944 40.7702 61.2944 40.7702 61.3648 40.6484Z" fill="#D9DBE9"/>
<path d="M37.0054 63.1414C36.5368 62.5459 36.3823 61.9693 36.4904 61.2193L36.3685 61.149C36.0682 61.9505 36.4665 62.6678 37.0054 63.1414C36.935 63.2633 37.0054 63.1414 37.0054 63.1414Z" fill="#D9DBE9"/>
<path d="M35.7867 62.4377C35.3369 61.5281 35.2013 60.6374 35.136 59.6249L35.0141 59.5545C34.8872 60.6186 35.2666 61.65 35.7867 62.4377C35.7163 62.5595 35.7163 62.5595 35.7867 62.4377Z" fill="#D9DBE9"/>
<path d="M34.484 61.0356C34.1561 60.1964 34.0205 59.3057 33.9552 58.2932C33.9552 58.2932 33.8333 58.2228 33.9552 58.2932C33.8986 59.2354 34.1561 60.1964 34.484 61.0356C34.4651 61.3497 34.5355 61.2278 34.484 61.0356Z" fill="#D9DBE9"/>
<path d="M33.425 59.7743C33.219 59.0054 33.1348 58.3069 33.121 57.4866L32.9992 57.4163C32.8208 58.2881 33.0268 59.0569 33.2328 59.8258C33.2843 60.018 33.4765 59.9665 33.425 59.7743Z" fill="#D9DBE9"/>
<path d="M32.4175 58.7051C32.4037 57.8848 32.5822 57.0129 32.4465 56.1222C32.4465 56.1222 32.3246 56.0519 32.2543 56.1737C32.2681 56.9941 32.2819 57.8144 32.4175 58.7051C32.3472 58.827 32.5394 58.7755 32.4175 58.7051Z" fill="#D9DBE9"/>
<path d="M31.9302 58.4237C32.0571 57.3597 32.184 56.2956 32.1187 55.283L31.9968 55.2127C31.8699 56.2767 31.743 57.3408 31.8083 58.3534C31.738 58.4752 31.9302 58.4237 31.9302 58.4237Z" fill="#D9DBE9"/>
<path d="M30.5053 56.9517C30.5053 56.9517 30.435 57.0735 30.5053 56.9517C30.5568 57.1439 30.6272 57.022 30.5053 56.9517Z" fill="#D9DBE9"/>
<path d="M30.9741 57.5469C31.101 56.4829 31.1061 55.3485 31.0408 54.3359L30.9189 54.2656C30.792 55.3296 30.787 56.464 30.8523 57.4766C30.7819 57.5984 30.9741 57.5469 30.9741 57.5469Z" fill="#D9DBE9"/>
<path d="M30.1587 56.4264C30.1638 55.292 30.2907 54.228 30.4176 53.1639L30.2958 53.0936C29.8548 54.1388 29.8497 55.2732 29.9665 56.478L30.1587 56.4264Z" fill="#D9DBE9"/>
<path d="M29.4137 55.1841C29.4702 54.2419 29.5268 53.2997 29.513 52.4793L29.3911 52.409C29.2127 53.2808 29.278 54.2934 29.2918 55.1137C29.2214 55.2356 29.4652 55.3763 29.4137 55.1841Z" fill="#D9DBE9"/>
<path d="M28.4955 53.6788C28.4302 52.6662 28.6086 51.7944 28.6652 50.8522L28.5433 50.7818C28.1727 51.7052 28.238 52.7177 28.3033 53.7303C28.2329 53.8521 28.4251 53.8006 28.4955 53.6788Z" fill="#D9DBE9"/>
<path d="M27.5394 52.802C27.6663 51.738 27.9151 50.7443 27.8498 49.7317C27.9201 49.6098 27.7279 49.6614 27.6576 49.7832C27.4088 50.7769 27.2819 51.841 27.2254 52.7832C27.2769 52.9754 27.5909 52.9942 27.5394 52.802Z" fill="#D9DBE9"/>
<path d="M26.5132 52.0469C26.7105 50.8609 26.9781 49.5531 26.9832 48.4187L26.8613 48.3484C26.5422 49.4639 26.4668 50.7202 26.2695 51.9061C26.1992 52.028 26.4429 52.1687 26.5132 52.0469Z" fill="#D9DBE9"/>
<path d="M25.8389 50.6825C26.1065 49.3747 26.4445 47.945 26.398 46.6184C26.398 46.6184 26.2762 46.5481 26.2058 46.6699C25.9382 47.9777 25.7924 49.3558 25.6467 50.734C25.6467 50.734 25.7686 50.8043 25.8389 50.6825Z" fill="#D9DBE9"/>
<path d="M25.0797 48.62C25.3988 47.5045 25.9101 46.3374 26.1074 45.1515C26.1074 45.1515 26.0559 44.9593 25.9855 45.0811C25.5446 46.1263 25.2769 47.4341 24.9578 48.5497C24.8875 48.6715 25.1312 48.8122 25.0797 48.62Z" fill="#D9DBE9"/>
<path d="M24.9494 46.5947C25.4092 45.2354 25.7987 43.998 26.1367 42.5684C26.207 42.4465 26.0148 42.498 26.0148 42.498C25.4331 43.787 25.1655 45.0947 24.7057 46.454C24.565 46.6977 24.879 46.7166 24.9494 46.5947Z" fill="#D9DBE9"/>
<path d="M24.2746 45.2303C24.8048 43.7492 25.4053 42.1462 25.6918 40.5244C25.7621 40.4025 25.5699 40.454 25.5699 40.454C24.9179 41.8648 24.4392 43.5381 24.0309 45.0896C23.8902 45.3333 24.2042 45.3522 24.2746 45.2303Z" fill="#D9DBE9"/>
<path d="M23.882 43.3783C24.2903 41.8268 24.9424 40.4161 25.6648 38.8834L25.5429 38.8131C24.6472 40.0831 24.1685 41.7565 23.7602 43.308C23.6195 43.5517 23.8117 43.5002 23.882 43.3783Z" fill="#D9DBE9"/>
<path d="M23.4698 41.8408C24.1218 40.43 24.8957 39.0896 25.3555 37.7303L25.2337 37.66C24.3379 38.93 23.8077 40.4112 23.1557 41.8219C23.1557 41.8219 23.3994 41.9626 23.4698 41.8408Z" fill="#D9DBE9"/>
<path d="M22.9874 40.425C23.902 38.8409 25.0088 37.2053 25.8016 35.5508C25.8719 35.4289 25.6797 35.4804 25.6797 35.4804C24.6432 36.9942 23.7801 38.7706 22.8655 40.3547C22.603 40.528 22.8467 40.6688 22.9874 40.425Z" fill="#D9DBE9"/>
<path d="M22.9272 38.2781C24.1044 36.5206 25.4738 34.7116 26.2853 32.743C26.2853 32.743 26.2339 32.5508 26.1635 32.6727C24.7426 34.2895 23.7388 36.3095 22.6835 38.1374C22.735 38.3296 22.8569 38.3999 22.9272 38.2781Z" fill="#D9DBE9"/>
<path d="M22.9507 36.8297C24.1982 34.9503 25.5676 33.1413 26.4495 31.0509C26.5199 30.9291 26.3277 30.9806 26.3277 30.9806C24.9068 32.5973 23.8326 34.7393 22.707 36.689C22.6366 36.8108 22.8803 36.9515 22.9507 36.8297Z" fill="#D9DBE9"/>
<path d="M23.359 35.2782C24.6254 33.0848 26.2058 30.9102 27.2285 28.5761C27.2988 28.4542 27.1066 28.5057 27.1066 28.5057C25.5965 30.5584 24.5035 33.0144 23.2371 35.2078C23.0449 35.2593 23.2886 35.4 23.359 35.2782Z" fill="#D9DBE9"/>
<path d="M23.1772 33.0609C24.3732 30.9893 25.813 29.0584 26.8871 26.9165C26.9575 26.7947 26.7653 26.8462 26.7653 26.8462C25.4474 28.8474 24.2514 30.919 23.0554 32.9905C22.7928 33.1639 22.985 33.1124 23.1772 33.0609Z" fill="#D9DBE9"/>
<path d="M23.5855 31.5094C25.063 28.9504 26.8356 26.7243 28.7301 24.5686C28.8005 24.4468 28.6786 24.3764 28.6082 24.4983C26.47 26.5133 24.7489 28.9316 23.2715 31.4906C23.3933 31.5609 23.5152 31.6313 23.5855 31.5094Z" fill="#D9DBE9"/>
<path d="M52.5615 69.6857C52.3882 69.4231 52.407 69.1091 52.4259 68.795L52.304 68.7247C52.2148 69.1606 52.196 69.4746 52.5615 69.6857C52.4912 69.8076 52.5615 69.6857 52.5615 69.6857Z" fill="#D9DBE9"/>
<path d="M51.6006 69.9432C51.4461 69.3666 51.4838 68.7384 51.3293 68.1618C51.3293 68.1618 51.2074 68.0914 51.3293 68.1618C51.2916 68.7899 51.3757 69.4884 51.6006 69.9432C51.4084 69.9947 51.6006 69.9432 51.6006 69.9432Z" fill="#D9DBE9"/>
<path d="M50.6773 69.5724C50.4009 68.9254 50.3683 68.4191 50.2138 67.8425L50.0919 67.7721C50.0542 68.4003 50.3306 69.0473 50.6773 69.5724C50.607 69.6942 50.7992 69.6427 50.6773 69.5724Z" fill="#D9DBE9"/>
<path d="M49.6836 69.3234C49.4072 68.6765 49.4965 68.2405 49.5342 67.6124L49.4123 67.542C49.1824 68.2217 49.3369 68.7983 49.6836 69.3234C49.6133 69.4453 49.6836 69.3234 49.6836 69.3234Z" fill="#D9DBE9"/>
<path d="M48.8823 69.0232C48.6575 68.5685 48.5545 68.184 48.5218 67.6777L48.4 67.6074C48.2404 68.1652 48.4653 68.62 48.8823 69.0232C48.812 69.1451 48.8823 69.0232 48.8823 69.0232Z" fill="#D9DBE9"/>
<path d="M47.7476 69.0181C47.715 68.5118 47.6308 67.8134 47.4763 67.2367C47.4763 67.2367 47.3545 67.1664 47.2841 67.2882C47.4386 67.8649 47.5931 68.4415 47.7476 69.0181C47.6773 69.14 47.8695 69.0885 47.7476 69.0181Z" fill="#D9DBE9"/>
<path d="M47.0677 68.7886C46.9132 68.2119 46.8806 67.7057 46.9183 67.0775C46.9886 66.9557 46.7964 67.0072 46.7261 67.129C46.6884 67.7571 46.721 68.2634 46.8755 68.84C46.9974 68.9104 47.1896 68.8589 47.0677 68.7886Z" fill="#D9DBE9"/>
<path d="M46.023 68.3474C45.9388 67.6489 45.8547 66.9505 45.7002 66.3738L45.5783 66.3035C45.5921 67.1238 45.7466 67.7004 46.023 68.3474C45.8308 68.3989 45.9526 68.4693 46.023 68.3474Z" fill="#D9DBE9"/>
<path d="M44.959 68.2203C44.9264 67.714 44.8937 67.2077 44.8611 66.7015C44.8611 66.7015 44.7392 66.6311 44.8611 66.7015C44.7015 67.2593 44.856 67.8359 44.959 68.2203C44.8887 68.3422 45.0809 68.2907 44.959 68.2203Z" fill="#D9DBE9"/>
<path d="M44.2467 67.4841C44.0407 66.7152 43.9565 66.0168 43.8723 65.3183C43.8723 65.3183 43.7505 65.2479 43.802 65.4401C43.6939 66.1901 43.8999 66.959 44.106 67.7278C44.106 67.7278 44.1763 67.6059 44.2467 67.4841Z" fill="#D9DBE9"/>
<path d="M42.7652 66.9539C42.6811 66.2554 42.7891 65.5054 42.6346 64.9288L42.5128 64.8584C42.4751 65.4866 42.5592 66.1851 42.6434 66.8836C42.573 67.0054 42.8871 67.0243 42.7652 66.9539Z" fill="#D9DBE9"/>
<path d="M42.3672 66.2368C41.7768 65.571 41.763 64.7506 41.6788 64.0522L41.557 63.9818C41.2567 64.7833 41.7064 65.6928 42.3672 66.2368C42.2969 66.3587 42.2969 66.3587 42.3672 66.2368Z" fill="#D9DBE9"/>
<path d="M41.1486 65.5332C41.0645 64.8347 41.1725 64.0847 40.9665 63.3159C40.9665 63.3159 40.8447 63.2455 40.8962 63.4377C40.7881 64.1877 40.8723 64.8862 41.1486 65.5332C41.0079 65.7769 41.0783 65.655 41.1486 65.5332Z" fill="#D9DBE9"/>
<path d="M40.3145 64.7265C39.9678 64.2014 40.0055 63.5733 39.9214 62.8748L39.7995 62.8044C39.5696 63.4841 39.8459 64.131 40.3145 64.7265C40.2442 64.8484 40.4364 64.7969 40.3145 64.7265Z" fill="#D9DBE9"/>
<path d="M39.3911 64.3563C39.1148 63.7093 39.0821 63.203 38.998 62.5045L38.8761 62.4342C38.8384 63.0623 38.9226 63.7608 39.199 64.4078C39.3208 64.4781 39.3911 64.3563 39.3911 64.3563Z" fill="#D9DBE9"/>
<path d="M38.2052 64.1588C37.9991 63.39 38.1072 62.64 37.9715 61.7493L37.8497 61.679C37.6198 62.3586 37.8773 63.3197 38.0833 64.0885C38.013 64.2103 38.327 64.2292 38.2052 64.1588Z" fill="#D9DBE9"/>
<path d="M37.5633 63.3009C37.0947 62.7054 36.9402 62.1288 37.0483 61.3788L36.9264 61.3085C36.6965 61.9881 36.9025 62.7569 37.4415 63.2306C37.493 63.4228 37.6852 63.3713 37.5633 63.3009Z" fill="#D9DBE9"/>
<path d="M53.1709 70.0373C53.4523 69.5498 53.6119 68.9921 53.5792 68.4858L53.4574 68.4155C53.2978 68.9732 53.2086 69.4091 53.0491 69.9669C52.9787 70.0888 53.1006 70.1591 53.1709 70.0373Z" fill="#D9DBE9"/>
<path d="M53.6773 70.0048C54.0994 69.2737 54.3293 68.594 54.1233 67.8252C54.1233 67.8252 54.0014 67.7548 54.0529 67.947C54.1371 68.6455 54.0994 69.2737 53.6773 70.0048C53.6069 70.1267 53.6069 70.1267 53.6773 70.0048Z" fill="#D9DBE9"/>
<path d="M54.5166 69.6766C54.9902 69.1376 55.2905 68.3362 55.0845 67.5673L54.9626 67.497C54.9764 68.3173 54.9387 68.9454 54.2729 69.5359C54.3244 69.7281 54.5166 69.6766 54.5166 69.6766Z" fill="#D9DBE9"/>
<path d="M55.1116 69.2084C55.7586 68.932 56.1104 68.3227 56.0262 67.6242L55.9043 67.5539C55.7963 68.3039 55.6367 68.8617 55.1116 69.2084C54.7975 69.1895 54.9194 69.2599 55.1116 69.2084Z" fill="#D9DBE9"/>
<path d="M55.5289 69.6114C56.3354 68.7773 57.1608 67.629 56.9737 66.5461L56.8518 66.4758C56.5842 67.7835 56.3354 68.7773 55.5289 69.6114C55.4585 69.7333 55.4585 69.7333 55.5289 69.6114Z" fill="#D9DBE9"/>
<path d="M56.3682 69.2836C57.2263 68.6416 58.1221 67.3715 57.9349 66.2886L57.813 66.2183C57.5454 67.526 57.2966 68.5198 56.3682 69.2836C56.176 69.3351 56.2979 69.4054 56.3682 69.2836Z" fill="#D9DBE9"/>
<path d="M57.3995 68.9044C58.5905 67.9673 59.5566 66.5753 59.5805 65.1269L59.4586 65.0565C58.9285 66.5376 58.539 67.7751 57.2777 68.8341C57.2073 68.9559 57.3292 69.0263 57.3995 68.9044Z" fill="#D9DBE9"/>
<path d="M58.6046 68.7873C59.974 66.9783 61.0996 65.0285 61.616 62.7271C61.6864 62.6052 61.4942 62.6567 61.4238 62.7786C60.7341 64.8175 59.8521 66.9079 58.6046 68.7873C58.4124 68.8388 58.4827 68.7169 58.6046 68.7873Z" fill="#D9DBE9"/>
<path d="M49.0587 45.0788C47.5688 42.5939 45.746 40.4042 43.2573 38.8049C43.1355 38.7345 43.0651 38.8564 43.187 38.9267C45.6053 40.6479 47.3766 42.6454 49.0587 45.0788C48.9883 45.2006 49.1805 45.1491 49.0587 45.0788Z" fill="#D9DBE9"/>
<path d="M51.8233 47.3253C49.1765 42.0602 45.0057 38.0275 40.5021 34.29C40.5021 34.29 40.3802 34.2196 40.4317 34.4118C44.7947 38.3931 48.9843 42.1117 51.8233 47.3253C51.7529 47.4471 51.9452 47.3956 51.8233 47.3253Z" fill="#D9DBE9"/>
<path d="M53.7407 47.9445C52.0964 44.883 50.1191 42.1166 47.8088 39.6455C45.3768 37.104 42.5226 35.2936 40.0905 32.7522C40.0905 32.7522 39.9686 32.6818 40.0905 32.7522C41.9133 34.9419 44.4019 36.5412 46.3654 38.4872C49.3553 41.1882 51.7496 44.3578 53.7407 47.9445C53.5485 47.996 53.7407 47.9445 53.7407 47.9445Z" fill="#D9DBE9"/>
<path d="M55.2352 49.2951C52.3874 42.1267 46.5999 36.6732 40.3714 32.2648C40.2496 32.1944 40.1792 32.3163 40.3011 32.3866C46.2481 37.2824 52.1437 41.986 55.043 49.3466C54.9727 49.4684 55.1649 49.4169 55.2352 49.2951Z" fill="#D9DBE9"/>
<path d="M54.0699 44.5604C50.5701 38.8028 45.8981 33.6683 40.1897 30.0476C40.0679 29.9773 39.9975 30.0991 40.1194 30.1695C45.7386 34.2261 50.3263 38.6621 54.0699 44.5604C53.9995 44.6822 54.1917 44.6307 54.0699 44.5604Z" fill="#D9DBE9"/>
<path d="M52.8612 41.5876C50.1629 36.1303 44.8389 32.4066 40.0727 28.8425C40.0727 28.8425 39.8805 28.894 40.0024 28.9643C44.5575 32.894 49.9707 36.1818 52.5987 41.761C52.7205 41.8313 52.9127 41.7798 52.8612 41.5876Z" fill="#D9DBE9"/>
<path d="M53.2745 38.9021C49.9379 35.6759 46.531 32.5716 42.7208 29.8844L42.6504 30.0062C46.1277 32.9887 49.7972 35.9196 53.0119 39.0755C53.1338 39.1458 53.2745 38.9021 53.2745 38.9021Z" fill="#D9DBE9"/>
<path d="M53.5885 38.9209C49.9429 34.5414 45.7019 30.6306 40.8979 27.6946L40.8276 27.8164C45.4204 31.118 49.6804 34.7148 53.3259 39.0943C53.5697 39.235 53.64 39.1131 53.5885 38.9209Z" fill="#D9DBE9"/>
<path d="M52.9327 37.2426C49.9479 33.4072 46.2457 29.9699 42.1026 27.5779C41.9808 27.5076 41.9104 27.6294 42.0323 27.6998C46.0862 30.5277 49.7557 33.4586 52.8623 37.3645C52.8623 37.3645 53.0545 37.313 52.9327 37.2426Z" fill="#D9DBE9"/>
<path d="M52.0662 35.9298C49.2221 31.8506 45.8529 28.1182 41.6068 25.3417C41.485 25.2714 41.4146 25.3932 41.5365 25.4636C45.4497 28.5353 48.9081 31.8318 51.8741 35.9813C51.9959 36.0516 52.1881 36.0002 52.0662 35.9298Z" fill="#D9DBE9"/>
<path d="M52.4746 34.3781C49.5928 30.927 46.378 27.7712 42.6193 25.2762C42.6193 25.2762 42.4271 25.3277 42.549 25.398C46.167 28.1368 49.4005 30.9785 52.2823 34.4296C52.212 34.5514 52.5261 34.5703 52.4746 34.3781Z" fill="#D9DBE9"/>
<path d="M52.3576 33.1732C49.7195 29.8629 46.5048 26.7071 42.9195 24.4746C42.7976 24.4042 42.8491 24.5965 42.8491 24.5965C46.3452 27.2649 49.5273 29.9144 52.1654 33.2247C52.2169 33.4169 52.4091 33.3654 52.3576 33.1732Z" fill="#D9DBE9"/>
<path d="M52.8124 32.9487C49.7384 29.5492 46.2284 26.0605 42.2775 23.6169C42.2775 23.6169 42.0853 23.6684 42.2072 23.7388C45.8767 26.6697 49.4243 29.5303 52.5498 33.1221C52.6717 33.1924 52.8639 33.1409 52.8124 32.9487Z" fill="#D9DBE9"/>
<path d="M54.0687 33.0239C50.4558 29.1508 46.5288 25.2587 41.9686 22.4634C41.9686 22.4634 41.7764 22.5149 41.8982 22.5853C46.1067 25.9899 50.1417 29.1319 53.8062 33.1973C53.928 33.2676 54.1202 33.2161 54.0687 33.0239Z" fill="#D9DBE9"/>
<path d="M55.5822 34.0605C52.4103 29.1421 47.8551 25.2124 43.0186 21.7701C43.0186 21.7701 42.8264 21.8216 42.9482 21.892C47.3815 25.7513 52.0962 29.1233 55.39 34.112C55.4415 34.3042 55.6337 34.2527 55.5822 34.0605Z" fill="#D9DBE9"/>
<path d="M56.6466 34.1871C53.5638 28.8328 48.7838 24.4483 43.7035 20.8653C43.5817 20.795 43.5113 20.9168 43.6332 20.9872C48.3617 25.1795 53.2497 28.814 56.384 34.3605C56.5059 34.4308 56.6466 34.1871 56.6466 34.1871Z" fill="#D9DBE9"/>
<path d="M57.5561 33.7374C55.467 28.6319 50.5275 24.8052 46.3191 21.4006C46.1972 21.3303 46.1269 21.4521 46.2487 21.5225C50.1757 25.4145 55.153 28.6131 57.3639 33.7889C57.2935 33.9108 57.6076 33.9296 57.5561 33.7374Z" fill="#D9DBE9"/>
<path d="M58.0349 32.0642C55.2612 27.8632 51.892 24.1308 47.7162 21.2325C47.5944 21.1621 47.524 21.2839 47.6459 21.3543C51.4887 24.5478 54.9987 28.0366 57.7724 32.2376C57.8943 32.3079 58.2083 32.3268 58.0349 32.0642Z" fill="#D9DBE9"/>
<path d="M56.3576 28.4965C54.3099 25.852 52.07 23.259 49.3565 21.2049C49.2347 21.1346 49.1643 21.2564 49.2862 21.3268C51.5964 23.7979 54.0473 26.0253 56.2872 28.6183C56.3387 28.8105 56.4794 28.5668 56.3576 28.4965Z" fill="#D9DBE9"/>
<path d="M53.8604 24.9421C52.7825 23.9948 51.7047 23.0476 50.6268 22.1003C50.6268 22.1003 50.4346 22.1518 50.5565 22.2222C51.564 23.2913 52.7122 24.1167 53.79 25.0639C53.79 25.0639 53.8604 24.9421 53.8604 24.9421Z" fill="#D9DBE9"/>
<path d="M55.314 66.8877C55.8253 65.7207 55.99 64.0284 55.1043 63.0297C55.1043 63.0297 54.9825 62.9594 54.9121 63.0812C55.2726 64.4267 55.5816 65.58 54.9999 66.8689C55.1218 66.9392 55.314 66.8877 55.314 66.8877Z" fill="#D9DBE9"/>
<path d="M56.4722 65.4445C56.4069 64.4319 56.2901 63.2272 55.5778 62.491C55.5778 62.491 55.4559 62.4206 55.5074 62.6128C55.8353 63.452 56.285 64.3616 56.4722 65.4445C56.28 65.496 56.4018 65.5664 56.4722 65.4445Z" fill="#D9DBE9"/>
<path d="M56.7213 64.4506C56.9186 63.2647 56.4877 62.0411 55.5832 61.3564C55.5832 61.3564 55.4613 61.2861 55.5128 61.4783C56.2766 62.4067 56.656 63.4381 56.5291 64.5021C56.5291 64.5021 56.7728 64.6428 56.7213 64.4506Z" fill="#D9DBE9"/>
<path d="M56.7966 63.1942C56.7313 62.1816 56.4223 61.0284 55.6585 60.1L55.5881 60.2218C56.1597 61.2017 56.6095 62.1113 56.7966 63.1942C56.6559 63.4379 56.8481 63.3864 56.7966 63.1942Z" fill="#D9DBE9"/>
<path d="M57.2754 61.521C56.999 60.8741 56.6712 60.0349 56.273 59.3175C56.273 59.3175 56.1511 59.2472 56.273 59.3175C56.479 60.0864 56.8772 60.8037 57.2754 61.521C57.0832 61.5725 57.2754 61.521 57.2754 61.521Z" fill="#D9DBE9"/>
<path d="M57.7538 59.8478C57.3041 58.9382 56.9059 58.2209 56.264 57.3628C56.264 57.3628 56.1421 57.2925 56.0718 57.4143C56.5918 58.202 57.0416 59.1116 57.4398 59.8289C57.6131 60.0915 57.8053 60.04 57.7538 59.8478Z" fill="#D9DBE9"/>
<path d="M38.6141 31.0876C37.9483 31.678 37.2121 32.3903 36.8415 33.3136L36.9634 33.384C37.4558 32.531 37.878 31.7999 38.6141 31.0876C38.8064 31.0361 38.6845 30.9657 38.6141 31.0876Z" fill="#D9DBE9"/>
<path d="M37.813 30.7871C37.0065 31.6212 36.1296 32.5772 35.8105 33.6928L35.9323 33.7631C36.4437 32.5961 36.9361 31.7431 37.813 30.7871Z" fill="#D9DBE9"/>
<path d="M35.7123 32.1742C35.2198 33.0272 34.5867 34.1239 34.3379 35.1176C34.9007 34.1427 35.1495 33.149 35.7123 32.1742C35.8342 32.2445 35.7123 32.1742 35.7123 32.1742Z" fill="#D9DBE9"/>
<path d="M34.1366 33.2144C33.8363 34.0159 33.4657 34.9393 33.2873 35.8111L33.4092 35.8815C33.6579 34.8878 33.9582 34.0863 34.1366 33.2144C34.207 33.0926 34.0851 33.0222 34.1366 33.2144Z" fill="#D9DBE9"/>
<path d="M32.8753 34.2735C32.5047 35.1969 32.2559 36.1906 32.4431 37.2735L32.5649 37.3438C32.57 36.2094 32.6266 35.2672 32.8753 34.2735C33.0675 34.222 32.9457 34.1517 32.8753 34.2735Z" fill="#D9DBE9"/>
<path d="M31.5249 35.7683C31.2247 36.5698 31.0977 37.6339 31.2334 38.5246C31.3603 37.4605 31.3465 36.6401 31.5249 35.7683C31.7171 35.7168 31.5953 35.6464 31.5249 35.7683Z" fill="#D9DBE9"/>
<path d="M50.979 64.5474C51.837 63.9054 50.6562 62.5737 50.0933 63.5486C49.5305 64.5235 51.2038 65.0021 51.3307 63.9381L51.2089 63.8677C50.9463 64.0411 50.876 64.163 50.6134 64.3363C50.0556 64.1768 50.0041 63.9845 50.5293 63.6378C50.7403 63.2722 50.9325 63.2207 51.1059 63.4833C51.2089 63.8677 51.19 64.1818 50.979 64.5474C50.8571 64.477 50.7868 64.5989 50.979 64.5474Z" fill="#D9DBE9"/>
<path d="M31.0435 45.8888C31.1465 46.2733 31.5498 45.8562 31.3764 45.5936C31.1001 44.9467 30.1579 44.8901 29.7546 45.3072C29.2295 45.6539 29.2948 46.6664 29.7118 47.0697C30.3211 47.4215 31.2822 47.164 31.3199 46.5358C31.3902 46.414 31.198 46.4655 31.198 46.4655C30.9869 46.8311 30.3915 47.2996 29.8526 46.826C29.6088 46.6853 29.5058 46.3009 29.5247 45.9868C29.5624 45.3587 30.0875 45.012 30.6453 45.1715C30.7671 45.2419 30.7671 45.2419 30.889 45.3122C31.1327 45.4529 31.2546 45.5233 31.0435 45.8888C31.1139 45.767 30.992 45.6966 31.0435 45.8888Z" fill="#D9DBE9"/>
<path d="M42.178 42.0813C42.0888 42.5172 41.7748 42.4984 41.4796 42.1655C40.9733 42.1981 40.8514 42.1278 40.9406 41.6919C41.1002 41.1341 41.8502 41.2421 42.1969 41.7672L42.3188 41.8376C42.3753 40.8954 40.9972 40.7497 40.6969 41.5512C40.3778 42.6667 41.9293 43.075 42.178 42.0813C42.2484 41.9595 42.2484 41.9595 42.178 42.0813Z" fill="#D9DBE9"/>
<path d="M54.8033 52.2948C54.8272 50.8464 52.6287 50.7144 52.8485 52.3036C53.0168 53.7006 55.2015 53.0122 54.7003 51.9104C54.7003 51.9104 54.4566 51.7698 54.5081 51.962C54.4892 52.276 54.5407 52.4682 54.2781 52.6416C53.8749 53.0587 53.1249 52.9506 53.0407 52.2521C53.0081 51.7458 53.2895 51.2584 53.8473 51.418C54.3535 51.3853 54.7003 51.9104 54.8033 52.2948C54.6111 52.3463 54.7329 52.4167 54.8033 52.2948Z" fill="#D9DBE9"/>
<path d="M50.6522 59.4844C51.1447 58.6314 49.401 58.2746 49.0818 59.3901C48.9926 59.8261 49.0957 60.2105 49.6019 60.1778C50.1082 60.1452 50.46 59.5359 50.4788 59.2218L50.357 59.1515C50.2866 59.2733 50.2163 59.3952 50.2163 59.3952C50.0756 59.6389 50.0755 59.6389 49.6911 59.7419C49.2552 59.6527 49.2552 59.6527 49.4663 59.2871C49.5366 59.1653 49.5367 59.1653 49.607 59.0434C49.8181 58.6778 50.1836 58.8889 50.6522 59.4844C50.5818 59.6063 50.5818 59.6063 50.6522 59.4844Z" fill="#D9DBE9"/>
<path d="M45.2986 46.8075C45.4066 46.0575 44.3614 45.6165 43.9393 46.3477C43.5172 47.0788 44.3513 47.8853 45.0171 47.2949L45.0875 47.1731C44.8953 47.2246 44.5108 47.3275 44.4593 47.1353C44.6704 46.7698 44.8111 46.5261 44.9003 46.0901C45.0737 46.3527 45.2471 46.6153 45.2986 46.8075C45.2282 46.9293 45.3501 46.9997 45.2986 46.8075Z" fill="#D9DBE9"/>
<path d="M38.2816 58.6791C38.46 57.8072 37.0819 57.6615 37.2175 58.5521C37.2828 59.5647 38.769 58.9605 38.3708 58.2431C38.3708 58.2431 38.2489 58.1728 38.1786 58.2946C38.2301 58.4868 38.2301 58.4868 37.9864 58.3461C38.0052 58.0321 37.9349 58.1539 38.2816 58.6791C38.2112 58.8009 38.2816 58.6791 38.2816 58.6791Z" fill="#D9DBE9"/>
<path d="M55.4578 42.4371C55.0784 41.4057 53.4892 41.6255 53.6764 42.7084C53.8635 43.7913 55.4716 43.2575 55.1437 42.4183C55.1437 42.4183 55.0218 42.3479 54.9515 42.4698C54.8434 43.2198 53.3108 42.4974 54.4126 41.9961C54.6751 41.8228 55.0407 42.0338 55.4578 42.4371C55.2656 42.4886 55.4578 42.4371 55.4578 42.4371Z" fill="#D9DBE9"/>
<path d="M35.0425 29.6755C34.785 28.7145 33.388 28.8828 33.5752 29.9657C33.7108 30.8564 35.1267 30.374 34.8503 29.7271L34.6581 29.7786C33.5048 30.0876 33.4533 29.8954 34.677 29.4645C34.7988 29.5348 34.9207 29.6052 35.0425 29.6755C34.9018 29.9193 35.094 29.8678 35.0425 29.6755Z" fill="#D9DBE9"/>
<path d="M45.5395 55.3954C44.1099 55.0574 42.6287 54.5272 41.1287 54.3111L41.0584 54.433C42.5395 54.9632 43.9691 55.3011 45.3988 55.6391C45.4691 55.5173 45.5395 55.3954 45.5395 55.3954Z" fill="#D9DBE9"/>
<path d="M44.0256 54.3589C42.282 54.002 40.6275 53.2093 39.0245 52.6088C39.0245 52.6088 38.8323 52.6603 38.9541 52.7306C40.4679 53.7671 42.3335 54.1943 44.0771 54.5511C44.0771 54.5511 44.1475 54.4292 44.0256 54.3589Z" fill="#D9DBE9"/>
<path d="M43.2619 53.4304C41.7104 53.0221 40.37 52.2482 38.9592 51.5961C38.9592 51.5961 38.767 51.6476 38.8888 51.718C40.1589 52.6137 41.7619 53.2143 43.3134 53.6226C43.3134 53.6226 43.3837 53.5007 43.2619 53.4304Z" fill="#D9DBE9"/>
<path d="M42.3762 52.4316C40.7544 52.1451 39.5358 51.4416 38.1251 50.7896C38.1251 50.7896 37.9329 50.8411 38.0547 50.9114C39.2544 51.929 40.9981 52.2859 42.4277 52.6238C42.3059 52.5535 42.4466 52.3098 42.3762 52.4316Z" fill="#D9DBE9"/>
<path d="M41.3687 51.3625C39.8876 50.8323 38.5987 50.2506 37.1879 49.5986C37.066 49.5283 37.1175 49.7205 37.1175 49.7205C38.3876 50.6162 39.9391 51.0245 41.4202 51.5547C41.5421 51.6251 41.4906 51.4329 41.3687 51.3625Z" fill="#D9DBE9"/>
<path d="M40.8159 50.0687C39.5785 49.6792 38.3599 48.9757 37.174 48.7784C37.174 48.7784 36.9818 48.8299 37.1036 48.9003C38.2003 49.5335 39.63 49.8715 40.8674 50.2609C40.797 50.3828 40.9377 50.1391 40.8159 50.0687Z" fill="#D9DBE9"/>
<path d="M39.2506 48.84C38.3273 48.4693 37.5446 47.855 36.6213 47.4844C36.6213 47.4844 36.4291 47.5359 36.5509 47.6062C37.2632 48.3424 38.3788 48.6615 39.1803 48.9618C39.2318 49.154 39.3725 48.9103 39.2506 48.84Z" fill="#D9DBE9"/>
<path d="M38.5244 47.2835C37.9152 46.9317 37.1137 46.6314 36.434 46.4015L36.3637 46.5234C37.1652 46.8236 37.7745 47.1754 38.5244 47.2835C38.5759 47.4757 38.6463 47.3538 38.5244 47.2835Z" fill="#D9DBE9"/>
<path d="M38.1642 45.938C37.7283 45.8488 37.222 45.8814 36.7861 45.7922C36.6642 45.7219 36.7157 45.9141 36.7157 45.9141C37.1516 46.0033 37.5875 46.0925 38.0235 46.1817C38.2157 46.1302 38.3564 45.8865 38.1642 45.938Z" fill="#D9DBE9"/>
<path d="M36.8782 21.1492C35.7576 21.9645 34.5151 22.7094 33.446 23.7169C33.446 23.7169 33.3756 23.8388 33.4975 23.9091C34.8103 23.0423 35.8794 22.0348 36.8782 21.1492C37 21.2196 36.9485 21.0273 36.8782 21.1492Z" fill="#D9DBE9"/>
<path d="M29.2062 31.3424C30.6509 28.2771 32.5128 25.6151 34.7402 23.1642C34.8106 23.0424 34.8106 23.0424 34.6184 23.0939C32.3394 25.3526 30.5291 28.2068 29.2062 31.3424C29.014 31.3939 29.2062 31.3424 29.2062 31.3424Z" fill="#D9DBE9"/>
<path d="M27.6304 32.3827C29.1318 28.3752 31.5891 25.2447 34.6042 22.2737C34.6746 22.1518 34.5527 22.0815 34.3605 22.133C31.0502 24.771 28.6958 28.286 27.3164 32.3638C27.4382 32.4342 27.5601 32.5046 27.6304 32.3827Z" fill="#D9DBE9"/>
<path d="M25.5063 35.218C26.9611 29.8839 29.7891 25.83 33.7326 22.0952C33.8029 21.9733 33.6811 21.903 33.4889 21.9545C29.1987 25.1641 26.4549 29.9165 25.2625 35.0773C25.314 35.2695 25.5063 35.218 25.5063 35.218Z" fill="#D9DBE9"/>
<path d="M23.6919 34.983C24.8465 30.4504 27.2009 26.9354 30.3052 23.5285C30.3755 23.4066 30.2537 23.3363 30.0615 23.3878C26.5401 26.3914 24.4621 30.5534 23.3779 34.9641C23.3779 34.9641 23.6216 35.1049 23.6919 34.983Z" fill="#D9DBE9"/>
<path d="M34.9423 20.8437C34.8205 20.7734 34.6471 20.5108 34.5253 20.4405L34.3331 20.492C34.4549 20.5623 34.5768 20.6327 34.8205 20.7734C34.9423 20.8437 35.2049 20.6704 35.0831 20.6C34.8393 20.4593 34.5956 20.3186 34.3519 20.1779C34.3519 20.1779 34.1597 20.2294 34.2816 20.2997C34.5253 20.4405 34.769 20.5812 35.0127 20.7219C35.0831 20.6 35.083 20.6 35.1534 20.4782C35.0315 20.4078 34.9097 20.3375 34.666 20.1968L34.4738 20.2482C34.6471 20.5108 34.769 20.5812 35.0127 20.7219C34.9235 21.1578 35.0642 20.9141 34.9423 20.8437Z" fill="#D9DBE9"/>
<path d="M65.5345 48.9046C64.6902 50.3669 63.5508 51.4962 62.0972 52.6067C62.0269 52.7286 62.1487 52.799 62.2191 52.6771C63.7241 51.7588 64.8121 50.4372 65.6563 48.9749C65.8485 48.9234 65.6048 48.7827 65.5345 48.9046Z" fill="#D9DBE9"/>
<path d="M65.6648 50.9298C64.5065 52.3732 63.1937 53.24 61.6183 54.2802C61.548 54.402 61.548 54.402 61.7402 54.3505C63.2967 53.6244 64.6987 52.3217 65.7867 51.0002C65.9789 50.9487 65.7352 50.808 65.6648 50.9298Z" fill="#D9DBE9"/>
<path d="M65.3974 52.2374C64.4313 53.6293 63.17 54.6883 61.8383 55.8692C61.8383 55.8692 61.8898 56.0614 61.9602 55.9396C63.4652 55.0213 64.675 53.7701 65.6411 52.3781C65.7115 52.2563 65.5896 52.1859 65.3974 52.2374Z" fill="#D9DBE9"/>
<path d="M65.3921 53.3721C64.4775 54.9562 63.0755 56.2589 61.4486 57.1068C61.3783 57.2287 61.5001 57.2991 61.622 57.3694C63.2489 56.5215 64.6509 55.2188 65.6358 53.5128C65.6358 53.5128 65.4625 53.2502 65.3921 53.3721Z" fill="#D9DBE9"/>
<path d="M65.5278 54.2627C64.2991 55.8279 62.8971 57.1307 61.3732 58.363C61.3028 58.4849 61.3029 58.4849 61.4247 58.5552C63.0001 57.5151 64.421 55.8983 65.5793 54.4548C65.6496 54.333 65.5981 54.1408 65.5278 54.2627Z" fill="#D9DBE9"/>
<path d="M64.8569 55.9873C63.769 57.3089 62.5076 58.3679 61.3682 59.4972C61.3682 59.4972 61.2978 59.6191 61.4901 59.5676C62.7514 58.5086 63.9612 57.2574 64.9788 56.0576C65.171 56.0061 65.0491 55.9358 64.8569 55.9873Z" fill="#D9DBE9"/>
<path d="M64.852 57.1218C63.7452 58.7574 62.2916 59.8679 60.6459 61.03C60.6459 61.03 60.5755 61.1518 60.6974 61.2222C62.3946 60.2524 63.7967 58.9496 64.9035 57.314C64.9738 57.1921 64.9223 56.9999 64.852 57.1218Z" fill="#D9DBE9"/>
<path d="M62.098 64.1429C59.9975 65.5298 57.8643 66.4103 55.7123 67.605C55.6419 67.7269 55.7638 67.7972 55.8341 67.6754C58.211 66.9355 60.2412 65.6705 62.3417 64.2836C62.2902 64.0914 62.1683 64.021 62.098 64.1429Z" fill="#D9DBE9"/>
<path d="M61.4273 65.8677C58.872 67.4794 56.1811 68.2005 53.3683 68.8511L53.2979 68.973C56.073 68.9505 59.1158 67.6201 61.4273 65.8677C61.4788 66.0599 61.4273 65.8677 61.4273 65.8677Z" fill="#D9DBE9"/>
<path d="M59.7112 67.1518C56.9072 69.7572 53.4713 69.2358 49.9462 69.1503C49.8244 69.0799 49.8759 69.2721 49.8759 69.2721C53.2414 69.9154 57.0994 69.7057 59.8331 67.2222C60.0253 67.1706 59.7816 67.0299 59.7112 67.1518Z" fill="#D9DBE9"/>
<path d="M32.5582 58.4616C31.9162 57.6035 31.4665 56.694 31.0872 55.6626L30.9653 55.5922C31.1524 56.6751 31.724 57.655 32.5582 58.4616C32.4878 58.5834 32.68 58.5319 32.5582 58.4616Z" fill="#D9DBE9"/>
<path d="M41.9364 65.0131C40.0005 64.7078 38.3461 63.9151 36.7808 62.6864C36.6589 62.616 36.5886 62.7379 36.5886 62.7379C38.0835 64.0884 40.052 64.9 41.9364 65.0131C41.9879 65.2053 42.0583 65.0835 41.9364 65.0131Z" fill="#D9DBE9"/>
<path d="M38.756 26.6203C38.4985 25.6593 38.4332 24.6467 38.3679 23.6341C38.3026 22.6216 38.2373 21.609 38.1016 20.7183C38.1016 20.7183 37.9798 20.648 37.9094 20.7698C37.6041 22.7057 38.1706 24.82 38.4934 26.7937C38.4934 26.7937 38.8075 26.8125 38.756 26.6203Z" fill="#D9DBE9"/>
<path d="M37.0588 27.5903C37.0827 26.1418 37.0362 24.8152 36.9383 23.2964C36.976 22.6682 37.2109 20.8542 36.6016 20.5025C36.6016 20.5025 36.4798 20.4321 36.4094 20.5539C36.4094 20.5539 36.4094 20.5539 36.3391 20.6758C36.3391 20.6758 36.3391 20.6758 36.2687 20.7977C36.2687 20.7977 36.2687 20.7977 36.3202 20.9899L36.4421 21.0602C36.4421 21.0602 36.5124 20.9384 36.4421 21.0602C36.7561 21.0791 36.6932 27.3792 36.6555 28.0074C36.7962 27.7637 36.9884 27.7122 37.0588 27.5903Z" fill="#D9DBE9"/>
<path d="M35.7649 28.143C35.7046 25.996 35.6444 23.849 35.3919 21.7536C35.4623 21.6317 35.2701 21.6832 35.1997 21.8051C35.3818 24.0224 35.5124 26.0475 35.7649 28.143C35.6242 28.3867 35.8164 28.3352 35.7649 28.143Z" fill="#D9DBE9"/>
<path d="M34.9449 28.1567C34.7439 26.2534 34.7352 24.2987 34.342 22.447C34.342 22.447 34.2202 22.3766 34.1498 22.4984C34.3508 24.4017 34.6736 26.3753 34.9449 28.1567C34.8745 28.2786 35.0667 28.2271 34.9449 28.1567Z" fill="#D9DBE9"/>
<path d="M34.0027 28.1C33.8017 26.1968 33.8633 24.1202 33.4702 22.2684L33.3483 22.198C33.2352 24.0824 33.558 26.056 33.759 27.9593C33.862 28.3437 34.0542 28.2922 34.0027 28.1Z" fill="#D9DBE9"/>
<path d="M32.6245 27.9543C32.5969 26.3136 32.71 24.4292 32.4902 22.84L32.3684 22.7696C32.2038 24.4618 32.3532 26.1729 32.3808 27.8135C32.4323 28.0058 32.5542 28.0761 32.6245 27.9543Z" fill="#D9DBE9"/>
<path d="M31.9587 28.5448C31.6685 27.0775 31.6924 25.629 31.7163 24.1805L31.5945 24.1102C31.3784 25.6102 31.4763 27.129 31.7665 28.5963C31.818 28.7885 32.0102 28.737 31.9587 28.5448Z" fill="#D9DBE9"/>
<path d="M26.6421 15.2396C26.9424 14.4381 27.2426 13.6366 27.5429 12.8352L27.4211 12.7648C26.9989 13.4959 26.8205 14.3678 26.6421 15.2396C26.4499 15.2911 26.6421 15.2396 26.6421 15.2396Z" fill="#D9DBE9"/>
<path d="M26.4034 13.9645C26.5114 13.2145 26.7413 12.5349 26.8494 11.7849C26.4273 12.516 26.3192 13.266 26.4034 13.9645C26.2111 14.016 26.333 14.0863 26.4034 13.9645Z" fill="#D9DBE9"/>
<path d="M26.1651 12.6893C26.4465 12.2019 26.606 11.6441 26.5734 11.1378L26.4515 11.0674C26.292 11.6252 26.2028 12.0611 25.9214 12.5486C25.9729 12.7408 26.0947 12.8111 26.1651 12.6893Z" fill="#D9DBE9"/>
<path d="M26.0996 11.6768C26.4514 11.0676 26.6813 10.3879 26.719 9.7598L26.5971 9.68945C26.3672 10.3691 26.2077 10.9269 25.8559 11.5361C25.9778 11.6065 26.0996 11.6768 26.0996 11.6768Z" fill="#D9DBE9"/>
<path d="M26.002 10.1578C26.213 9.79225 26.4944 9.30482 26.7055 8.93925L26.5837 8.86891C26.3726 9.23447 26.0912 9.72189 26.002 10.1578C25.8098 10.2093 26.002 10.1578 26.002 10.1578Z" fill="#D9DBE9"/>
<path d="M25.9693 9.65142C26.1288 9.09364 26.4102 8.60624 26.5698 8.04846L26.4479 7.9781C26.1665 8.46553 26.007 9.0233 25.6552 9.63258C25.7771 9.70293 25.8989 9.77328 25.9693 9.65142Z" fill="#D9DBE9"/>
<path d="M25.5192 8.7419C25.8007 8.25447 26.1336 7.95925 26.415 7.47183C26.0821 7.76704 25.8007 8.25447 25.5192 8.7419C25.3974 8.67154 25.5192 8.7419 25.5192 8.7419Z" fill="#D9DBE9"/>
<path d="M25.7681 7.74818C26.0495 7.26075 26.3309 6.77332 26.542 6.40775L26.4201 6.3374C26.1387 6.82483 25.8573 7.31226 25.6463 7.67783C25.5759 7.79969 25.6977 7.87003 25.7681 7.74818Z" fill="#D9DBE9"/>
<path d="M25.6324 6.85749C25.9138 6.37007 26.1952 5.88263 26.4063 5.51706L26.2844 5.4467C25.8811 5.86378 25.7216 6.42156 25.5105 6.78713C25.4401 6.90899 25.562 6.97935 25.6324 6.85749Z" fill="#D9DBE9"/>
<path d="M25.6189 6.03713C25.9003 5.54971 26.3036 5.13263 26.5147 4.76706C26.585 4.64521 26.3928 4.6967 26.3928 4.6967C25.9895 5.11378 25.7784 5.47935 25.497 5.96677C25.3048 6.01828 25.5485 6.15899 25.6189 6.03713Z" fill="#D9DBE9"/>
<path d="M25.6047 5.21682C25.8158 4.85125 26.2191 4.43418 26.4301 4.06861C26.5005 3.94676 26.3083 3.99826 26.3083 3.99826C25.9754 4.29347 25.6939 4.7809 25.361 5.07611C25.4125 5.26832 25.5344 5.33868 25.6047 5.21682Z" fill="#D9DBE9"/>
<path d="M25.3098 4.88407C25.7319 4.15293 26.2759 3.49214 26.6277 2.88286C26.6981 2.761 26.5058 2.8125 26.5058 2.8125C25.9619 3.47328 25.5397 4.20445 25.1176 4.93559C24.9958 4.86523 25.2395 5.00593 25.3098 4.88407Z" fill="#D9DBE9"/>
<path d="M25.3663 3.94183C25.6477 3.4544 25.9291 2.96696 26.2105 2.47953C26.2105 2.47953 26.159 2.28732 26.0886 2.40918C25.6854 2.82625 25.5258 3.38405 25.174 3.99333C25.0522 3.92298 25.2959 4.06368 25.3663 3.94183Z" fill="#D9DBE9"/>
<path d="M25.0381 3.10264C25.268 2.42301 25.5683 1.6215 25.6763 0.87151L25.5545 0.801162C25.3246 1.4808 25.0243 2.28229 24.9162 3.03228C24.8459 3.15414 25.0381 3.10264 25.0381 3.10264Z" fill="#D9DBE9"/>
<path d="M31.7076 22.2258C31.5531 21.6492 31.3985 21.0725 31.1222 20.4255C31.1222 20.4255 31.0003 20.3552 30.93 20.477C31.0845 21.0537 31.4312 21.5788 31.7076 22.2258C31.7076 22.2258 31.8294 22.2961 31.7076 22.2258Z" fill="#D9DBE9"/>
<path d="M31.2012 22.2584C30.8734 21.4192 30.7892 20.7207 30.7051 20.0222C30.7051 20.0222 30.5832 19.9519 30.5129 20.0737C30.5267 20.8941 30.7327 21.6629 31.0605 22.5021C31.1309 22.3802 31.2012 22.2584 31.2012 22.2584Z" fill="#D9DBE9"/>
<path d="M31.009 22.3098C30.1422 20.997 29.9035 19.7219 29.8759 18.0812L29.7541 18.0109C29.4161 19.4405 30.0719 21.1189 30.8871 22.2395C30.9902 22.6239 31.0605 22.5021 31.009 22.3098Z" fill="#D9DBE9"/>
<path d="M30.2779 21.8878C29.8282 20.9783 29.4488 19.9469 29.1913 18.9858C28.9338 18.0248 28.9903 17.0826 28.8547 16.1919L28.7328 16.1215C28.5494 18.1278 29.2378 20.3124 30.2779 21.8878C30.2076 22.0097 30.3294 22.08 30.2779 21.8878Z" fill="#D9DBE9"/>
<path d="M29.4297 20.2607C28.98 19.3512 28.7225 18.3901 28.465 17.4291C28.2075 16.468 28.264 15.5258 28.1987 14.5133L28.0769 14.4429C27.7715 16.3788 28.4599 18.5635 29.4297 20.2607C29.3594 20.3826 29.4297 20.2607 29.4297 20.2607Z" fill="#D9DBE9"/>
<path d="M28.043 18.1603C27.4011 17.3023 27.1435 16.3412 27.1486 15.2068C26.9513 16.3928 27.3307 17.4242 28.043 18.1603C27.9726 18.2822 28.043 18.1603 28.043 18.1603Z" fill="#D9DBE9"/>
<path d="M33.6487 21.3964C32.7254 21.0258 32.3786 20.5007 31.7882 19.8349C31.7882 19.8349 31.596 19.8864 31.7179 19.9567C31.9239 20.7256 32.8284 21.4102 33.6299 21.7105C33.7002 21.5886 33.6487 21.3964 33.6487 21.3964Z" fill="#D9DBE9"/>
<path d="M32.8418 22.2306C31.8858 21.3537 31.4361 20.4442 30.8645 19.4643L30.7427 19.3939C30.9298 20.4768 31.8155 21.4756 32.8418 22.2306C32.7715 22.3525 32.8418 22.2306 32.8418 22.2306Z" fill="#D9DBE9"/>
<path d="M31.8672 21.6678C31.0846 21.0535 30.4942 20.3876 29.8522 19.5296C29.8522 19.5296 29.7304 19.4592 29.66 19.5811C30.1801 20.3688 31.0143 21.1753 31.8672 21.6678C31.7969 21.7897 31.9891 21.7382 31.8672 21.6678Z" fill="#D9DBE9"/>
</svg>
