<svg width="78" height="51" viewBox="0 0 78 51" fill="none" xmlns="http://www.w3.org/2000/svg">
<path d="M73.0023 36.2212C72.3473 36.6734 71.5169 36.5213 70.6865 36.3692C69.856 36.217 69.0256 36.0649 68.3959 36.3787C67.7663 36.6925 67.3627 37.3339 67.0975 38.0006C64.2725 42.4898 58.9583 44.9496 53.6968 45.5593C48.4354 46.1691 43.176 45.2057 37.942 44.1039C32.8463 43.0275 27.7507 41.951 23.1601 39.6796C21.0724 38.582 19.0353 37.2075 16.9476 36.1098C12.2693 33.5363 7.06061 32.2961 1.87729 30.9174C4.51318 26.6797 7.51358 22.7948 10.7401 19.2374C12.3407 17.5279 13.9159 15.9568 15.7679 14.4364C22.0298 9.14622 30.2272 5.78409 38.3814 6.56251C40.9234 6.74204 43.5278 7.36215 45.943 8.23371C50.7988 9.83842 55.5279 12.1351 59.5005 15.4377C63.4731 18.7403 66.6892 23.0487 68.2309 27.9087C68.6947 29.2811 68.9948 30.7665 69.7862 31.9128C70.5775 33.0591 71.4957 33.5134 72.6906 34.0184C73.6087 34.4727 74.1233 35.5683 73.0023 36.2212Z" fill="#FBFAF4"/>
<path d="M8.88937 29.3409C10.9168 28.4248 12.3536 26.8284 14.0165 25.5594C17.1279 23.4114 20.2372 22.8366 23.9118 23.0806C29.1596 23.3266 34.569 25.0327 39.6139 26.3859C45.0741 27.8152 50.4212 29.0808 55.8813 30.5101C59.7059 31.4968 63.09 32.5458 66.6494 34.1991C67.706 34.6788 68.4604 35.2461 69.706 35.4743C69.8444 35.4996 69.8951 35.2228 69.7567 35.1974C67.5306 34.0744 66.1486 32.2477 63.8971 31.2631C61.5073 30.2532 58.5754 29.8592 55.9457 29.3775C49.4914 27.9091 43.0371 26.4407 36.6081 24.834C31.6762 23.6445 26.4305 21.8253 21.3836 22.0452C15.896 22.3275 12.7202 25.6081 8.71396 28.7366C8.52485 28.988 8.5872 29.4286 8.88937 29.3409Z" fill="#D9DBE9"/>
<path d="M43.5704 13.378C44.814 15.1793 46.0576 16.9806 46.999 18.8696C47.6266 20.129 47.9774 21.3377 48.9325 22.3709C50.1391 23.5933 51.7746 24.0359 53.0319 24.9814C54.6537 26.2798 55.9226 27.9428 57.3553 29.4927C57.6067 29.6818 58.0473 29.6194 57.9596 29.3173C57.0826 26.2957 55.4238 24.4182 52.7201 22.7786C50.5447 21.3788 49.3381 20.1565 47.8431 18.166C46.5742 16.5031 45.3053 14.8401 43.8726 13.2903C43.7595 13.1265 43.4573 13.2143 43.5704 13.378Z" fill="#D9DBE9"/>
<path d="M48.3349 36.5664C49.6703 35.5235 50.8673 34.4554 52.5419 33.9039C53.7505 33.5531 54.8831 33.6175 55.9787 33.1029C57.4018 32.3622 58.1075 31.6332 59.8191 31.6606C60.9517 31.7251 62.0843 31.7894 63.2169 31.8538C63.4937 31.9045 63.4314 31.464 63.2929 31.4386C61.2306 30.2026 58.1857 29.6449 55.9438 30.9508C54.8228 31.6037 55.4895 31.8689 53.6258 32.6719C52.8577 32.9604 52.115 33.1104 51.3216 33.5372C50.0369 34.3032 49.0036 35.2584 47.945 36.3519C47.9197 36.4903 48.3095 36.7048 48.3349 36.5664Z" fill="#D9DBE9"/>
<path d="M25.4008 29.7905C26.9877 28.9367 28.6623 28.3852 30.3992 28.2742C31.5571 28.2002 32.6644 28.403 33.7346 28.0269C34.7795 27.7891 35.2084 27.0094 36.1403 26.6079C37.0721 26.2064 37.9649 26.7991 38.6706 26.0701C38.8344 25.957 38.772 25.5165 38.659 25.3527C37.5538 23.5767 35.5147 23.7754 34.1286 25.095C33.2338 26.0755 32.9433 26.8806 31.4832 27.0422C30.7404 27.1923 30.0484 27.0656 29.4441 27.241C27.8202 27.5157 26.4225 28.118 25.1124 29.0224C24.8979 29.4122 25.0987 29.8782 25.4008 29.7905Z" fill="#D9DBE9"/>
<path d="M35.4201 38.3491C38.3286 37.3083 38.2314 34.7156 39.7949 32.4272C41.573 29.7488 46.0801 28.5717 49.164 28.1353C49.3024 28.1606 49.2147 27.8585 49.2147 27.8585C46.6495 26.2442 42.8228 26.8307 40.4795 28.6902C37.4811 31.002 39.0597 36.4409 35.4708 38.0723C35.1686 38.16 35.2817 38.3237 35.4201 38.3491Z" fill="#D9DBE9"/>
<path d="M27.4022 10.2734C33.9833 11.0498 32.5224 21.3678 38.2457 23.7036C38.3841 23.7289 38.5478 23.616 38.4348 23.4522C37.4173 21.9784 36.047 20.8691 35.0548 19.2569C33.9497 17.4809 33.4488 15.5294 32.5074 13.6404C31.453 11.5876 29.7688 9.84865 27.3399 9.83288C27.0377 9.92058 27.2638 10.2481 27.4022 10.2734Z" fill="#D9DBE9"/>
<path d="M71.5681 36.2444C68.9384 35.7627 67.0863 37.2832 65.322 39.1057C61.6549 42.7255 57.0834 45.0351 51.935 45.8087L51.9097 45.9471C55.2197 45.8382 58.1907 45.2379 61.0622 43.6182C64.3997 41.7977 67.4899 36.6418 71.5173 36.5213C71.5427 36.3829 71.7065 36.2698 71.5681 36.2444Z" fill="#D9DBE9"/>
<path d="M36.4882 39.5462C34.7142 39.0782 32.7512 38.8616 30.8506 39.0857L30.8252 39.2241C32.8136 39.3022 34.5251 39.3296 36.4628 39.6846C36.6012 39.7099 36.6266 39.5715 36.4882 39.5462Z" fill="#D9DBE9"/>
<path d="M37.7983 38.6416C35.7729 37.9845 33.42 37.5535 31.3302 38.029C31.1918 38.0037 31.3049 38.1674 31.4433 38.1927C33.5701 38.2962 35.5838 38.2359 37.7983 38.6416C37.9113 38.8053 37.7983 38.6416 37.7983 38.6416Z" fill="#D9DBE9"/>
<path d="M37.1201 37.6591C35.6484 37.1034 33.9875 36.7992 32.4513 37.3761C32.3129 37.3507 32.426 37.5145 32.5644 37.5398C34.1375 37.5419 35.5976 37.3802 37.0694 37.9359C37.2078 37.9613 37.1201 37.6591 37.1201 37.6591Z" fill="#D9DBE9"/>
<path d="M37.4105 36.854C36.0772 36.3237 34.4163 36.0194 33.0439 36.4833C32.9055 36.4579 33.0185 36.6216 33.0185 36.6216C34.5917 36.6237 35.888 36.5751 37.3851 36.9924C37.4982 37.1561 37.5489 36.8794 37.4105 36.854Z" fill="#D9DBE9"/>
<path d="M37.399 36.1366C36.5063 35.5439 35.286 35.1774 34.2157 35.5535C34.0773 35.5282 34.165 35.8303 34.1904 35.6919C35.323 35.7563 36.3172 35.7953 37.2099 36.388C37.4867 36.4387 37.5374 36.162 37.399 36.1366Z" fill="#D9DBE9"/>
<path d="M38.1044 35.4076C37.1863 34.9533 36.1298 34.4737 35.0849 34.7115C34.9465 34.6861 35.0595 34.8498 35.1979 34.8752C36.1668 35.0527 37.1609 35.0918 38.0791 35.546C38.1921 35.7098 38.2428 35.4329 38.1044 35.4076Z" fill="#D9DBE9"/>
<path d="M38.7228 34.3765C37.83 33.7838 36.7481 33.4426 35.6779 33.8188C35.5395 33.7934 35.6525 33.9571 35.7909 33.9825C36.7851 34.0215 37.6409 34.0353 38.5337 34.628C38.6721 34.6533 38.8612 34.4019 38.7228 34.3765Z" fill="#D9DBE9"/>
<path d="M38.9001 33.4075C38.095 33.117 37.2646 32.9648 36.2704 32.9258C36.132 32.9004 36.2451 33.0642 36.2451 33.0642C37.0755 33.2164 37.9059 33.3684 38.8494 33.6843C38.9878 33.7097 39.0385 33.4328 38.9001 33.4075Z" fill="#D9DBE9"/>
<path d="M38.4477 32.7526C38.4477 32.7526 38.3347 32.5889 38.4477 32.7526C38.284 32.8657 38.4224 32.8911 38.4477 32.7526Z" fill="#D9DBE9"/>
<path d="M44.1932 27.9398C41.5519 26.7407 38.507 26.183 35.6745 26.8085C35.5361 26.7832 35.6491 26.947 35.7875 26.9723C38.657 26.9257 41.4505 27.2944 44.1425 28.2166C44.2809 28.242 44.1932 27.9398 44.1932 27.9398Z" fill="#D9DBE9"/>
<path d="M40.6942 28.3004C38.392 27.5926 35.9007 27.1363 33.5341 27.5611L33.5088 27.6994C35.9377 27.7152 38.2029 27.8441 40.5051 28.5519C40.8072 28.4642 40.8326 28.3257 40.6942 28.3004Z" fill="#D9DBE9"/>
<path d="M40.8186 29.1815C38.2396 28.423 35.4968 27.7776 32.8281 28.2901C32.6897 28.2647 32.8027 28.4284 32.8027 28.4284C35.5085 28.4949 38.1889 28.6998 40.7679 29.4583C40.9063 29.4837 40.957 29.2069 40.8186 29.1815Z" fill="#D9DBE9"/>
<path d="M39.9491 30.0235C37.8361 29.0642 35.0933 28.4188 32.8398 29.0074C32.7014 28.982 32.8144 29.1457 32.8144 29.1457C35.3818 29.1869 37.5086 29.2904 39.8984 30.3003C40.1752 30.351 40.0875 30.0489 39.9491 30.0235Z" fill="#D9DBE9"/>
<path d="M39.2437 30.7526C37.0799 30.0701 34.8908 29.526 32.6879 29.8378C32.5495 29.8124 32.6626 29.9762 32.6626 29.9762C34.9278 30.1051 37.0292 30.3469 39.193 31.0293C39.4698 31.08 39.3567 30.9164 39.2437 30.7526Z" fill="#D9DBE9"/>
<path d="M38.8399 31.394C37.1791 31.0897 35.5436 30.647 33.9451 30.7834C33.8067 30.758 33.7813 30.8965 33.9197 30.9218C35.5806 31.226 37.1537 31.2281 38.8146 31.5323C38.9277 31.6961 38.9784 31.4193 38.8399 31.394Z" fill="#D9DBE9"/>
<path d="M38.2474 32.2866C36.8887 31.8947 35.5046 31.6412 34.2843 31.2746C34.1459 31.2493 34.1206 31.3876 34.259 31.413C35.6177 31.8049 37.0017 32.0585 38.222 32.425C38.3604 32.4504 38.3858 32.3119 38.2474 32.2866Z" fill="#D9DBE9"/>
<path d="M33.6565 30.0152C33.8846 28.7696 28.6115 28.662 27.7304 28.7867C27.592 28.7614 27.7051 28.9251 27.7051 28.9251C28.2587 29.0265 33.3934 29.1088 33.3797 29.9645C33.5181 29.9899 33.6565 30.0152 33.6565 30.0152Z" fill="#D9DBE9"/>
<path d="M31.4793 30.1886C29.1771 29.4808 26.6605 29.1628 24.2685 29.726C24.1301 29.7007 24.2432 29.8645 24.2432 29.8645C26.6721 29.8803 28.9626 29.8707 31.2902 30.4401C31.567 30.4908 31.6177 30.214 31.4793 30.1886Z" fill="#D9DBE9"/>
<path d="M29.666 30.7147C26.9233 30.0692 24.1045 29.8391 21.4357 30.3516C21.2973 30.3262 21.4104 30.4899 21.5488 30.5153C24.3052 30.305 26.8726 30.3461 29.6153 30.9915C29.7537 31.0169 29.9175 30.9038 29.666 30.7147Z" fill="#D9DBE9"/>
<path d="M27.6895 31.3541C25.5257 30.6717 23.0091 30.3538 20.7555 30.9423C20.6171 30.917 20.7302 31.0807 20.8686 31.106C23.3229 30.9834 25.475 30.9485 27.7772 31.6563L27.6895 31.3541Z" fill="#D9DBE9"/>
<path d="M26.4556 31.8432C24.1534 31.1354 21.4984 30.7922 19.0811 31.4938C18.9427 31.4684 18.892 31.7452 19.0557 31.6321C21.5354 31.3711 23.8259 31.3616 26.2665 32.0947C26.4049 32.1201 26.594 31.8686 26.4556 31.8432Z" fill="#D9DBE9"/>
<path d="M24.8683 32.6971C22.4784 31.6871 19.685 31.3186 17.33 32.4607C17.1916 32.4354 17.2793 32.7375 17.4431 32.6244C19.9734 32.0866 22.2893 31.9386 24.8176 32.9739C25.0944 33.0246 25.1451 32.7478 24.8683 32.6971Z" fill="#D9DBE9"/>
<path d="M23.8859 33.3753C21.6091 32.5291 18.7903 32.2988 16.6245 33.1895L16.5991 33.3279C19.1041 32.9284 21.2816 32.7551 23.8606 33.5136C23.9736 33.6774 24.0243 33.4006 23.8859 33.3753Z" fill="#D9DBE9"/>
<path d="M22.7394 34.1669C20.7394 33.3714 18.3612 33.0787 16.4721 34.0201C16.4721 34.0201 16.4468 34.1586 16.5852 34.1839C18.675 33.7084 20.7141 33.5097 22.6887 34.4436C22.9655 34.4943 22.8525 34.3306 22.7394 34.1669Z" fill="#D9DBE9"/>
<path d="M22.4492 34.9717C20.4239 34.3146 17.9072 33.9967 15.9928 35.0765C15.8544 35.0511 15.9675 35.2148 16.1059 35.2402C18.3341 34.7901 20.2347 34.566 22.3985 35.2485C22.5369 35.2738 22.5623 35.1354 22.4492 34.9717Z" fill="#D9DBE9"/>
<path d="M21.7435 35.7007C20.5486 35.1957 19.1392 35.0806 17.8798 35.7082C17.7414 35.6828 17.8291 35.985 17.9929 35.872C19.3399 35.5465 20.4979 35.4725 21.6928 35.9775C21.8312 36.0028 21.8819 35.726 21.7435 35.7007Z" fill="#D9DBE9"/>
<path d="M21.0379 36.4298C20.069 36.2523 18.9364 36.1879 18.03 36.451C17.8916 36.4256 18.0046 36.5894 18.143 36.6148C19.1625 36.5154 20.0437 36.3907 21.0125 36.5682C21.1256 36.7319 21.1763 36.4551 21.0379 36.4298Z" fill="#D9DBE9"/>
<path d="M20.521 36.9072C20.5463 36.7688 20.3826 36.8819 20.521 36.9072C20.3572 37.0203 20.4956 37.0456 20.521 36.9072Z" fill="#D9DBE9"/>
<path d="M31.3238 24.009C29.6629 23.7047 27.4601 24.0164 25.9863 25.0339C25.9863 25.0339 25.9609 25.1724 26.0993 25.1977C27.9377 24.5331 29.4485 24.0946 31.3238 24.009C31.4622 24.0343 31.3238 24.009 31.3238 24.009Z" fill="#D9DBE9"/>
<path d="M28.8069 23.691C26.8945 23.1977 24.6917 23.5095 23.5317 25.1566C23.5317 25.1566 23.5063 25.295 23.6448 25.3203C25.2823 24.1898 26.8438 23.4745 28.8946 23.9932C28.8946 23.9932 28.9453 23.7164 28.8069 23.691Z" fill="#D9DBE9"/>
<path d="M26.5671 23.4239C24.6918 23.5095 22.5513 24.2618 21.2783 25.7452C21.2783 25.7452 21.2529 25.8836 21.3913 25.9089C23.0289 24.7784 24.4774 23.8993 26.6549 23.726C26.6549 23.726 26.7055 23.4492 26.5671 23.4239Z" fill="#D9DBE9"/>
<path d="M24.9061 23.1196C22.4011 23.519 19.6056 24.7235 18.0673 26.8736C18.0673 26.8736 18.042 27.012 18.1804 27.0373C20.2215 25.2655 22.1866 23.9088 24.8554 23.3963C24.9938 23.4217 25.0445 23.1449 24.9061 23.1196Z" fill="#D9DBE9"/>
<path d="M23.3328 23.1175C21.0423 23.1271 18.7243 24.8483 17.5136 26.7723C17.4883 26.9107 17.6267 26.936 17.6267 26.936C19.3403 25.3903 20.7148 23.3532 23.2821 23.3944C23.4459 23.2813 23.3582 22.9791 23.3328 23.1175Z" fill="#D9DBE9"/>
<path d="M22.3895 22.8017C19.6077 23.1504 17.1883 25.4252 15.7632 27.739L15.8762 27.9028C17.8296 25.8288 19.4186 23.4018 22.5026 22.9654L22.3895 22.8017Z" fill="#D9DBE9"/>
<path d="M19.0543 23.049C16.5356 24.3042 14.1923 26.1637 13.0186 28.6667C13.0186 28.6667 12.9932 28.8051 13.157 28.692C14.7206 26.4036 16.6487 24.4679 19.1927 23.0743C19.1674 23.2127 19.1927 23.0743 19.0543 23.049Z" fill="#D9DBE9"/>
<path d="M16.9391 23.6629C14.6212 25.384 12.2018 27.6588 10.8897 30.1363C10.8897 30.1363 10.8643 30.2747 11.0281 30.1617C13.0069 27.9493 14.7342 25.5478 17.0775 23.6882C17.0775 23.6882 16.9645 23.5245 16.9391 23.6629Z" fill="#D9DBE9"/>
<path d="M13.6386 26.0623C11.9504 27.4697 9.93457 29.1031 8.86226 31.0524C8.86226 31.0524 8.83691 31.1908 8.97532 31.2161C10.5759 29.5066 12.0381 27.7718 13.8901 26.2514C13.9154 26.113 13.8024 25.9493 13.6386 26.0623Z" fill="#D9DBE9"/>
<path d="M11.1566 27.8966C9.82118 28.9394 8.46042 30.1206 7.60258 31.6801C7.60258 31.6801 7.71563 31.8438 7.74098 31.7054C8.85029 30.3351 9.79583 29.0778 11.295 27.9219C11.295 27.9219 11.1819 27.7582 11.1566 27.8966Z" fill="#D9DBE9"/>
<path d="M9.54485 28.8887C8.34785 29.9569 7.01245 30.9997 6.09226 32.1186L6.06689 32.257C7.37695 31.3526 8.46091 30.1206 9.51951 29.0271C9.68327 28.9141 9.57021 28.7503 9.54485 28.8887Z" fill="#D9DBE9"/>
<path d="M8.14697 29.4909C7.02602 30.1438 5.87972 30.9352 5.26169 31.9663C5.26169 31.9663 5.23633 32.1048 5.37473 32.1301C6.38263 31.3134 7.11371 30.446 8.23466 29.793C8.37307 29.8184 8.14697 29.4909 8.14697 29.4909Z" fill="#D9DBE9"/>
<path d="M7.26581 29.6156C6.44702 30.1808 5.46448 30.8592 4.75874 31.5882C4.75874 31.5882 4.7334 31.7266 4.8718 31.7519C5.82899 31.212 6.53472 30.483 7.35351 29.9178C7.54262 29.6663 7.42957 29.5025 7.26581 29.6156Z" fill="#D9DBE9"/>
<path d="M6.27149 29.5765C5.45271 30.1418 4.60856 30.8455 3.92818 31.4361C3.92818 31.4361 3.90283 31.5745 4.04124 31.5998C4.86002 31.0346 5.5404 30.444 6.38454 29.7403C6.38454 29.7403 6.43525 29.4635 6.27149 29.5765Z" fill="#D9DBE9"/>
<path d="M5.00074 29.4867C4.48411 29.9643 3.80373 30.5549 3.28711 31.0325C3.91679 30.7187 4.45876 30.1027 5.00074 29.4867C5.13914 29.5121 5.00074 29.4867 5.00074 29.4867Z" fill="#D9DBE9"/>
<path d="M4.4862 28.3913C3.99493 28.7304 3.36527 29.0442 2.87399 29.3833C2.87399 29.3833 2.84863 29.5218 2.98704 29.5471C3.61671 29.2333 4.08263 29.0326 4.5739 28.6934C4.73766 28.5804 4.51156 28.2529 4.4862 28.3913Z" fill="#D9DBE9"/>
<path d="M67.6226 31.2302C66.4784 30.4484 65.2835 29.9434 63.8741 29.8283L63.8487 29.9668C65.2074 30.3587 66.2893 30.6999 67.4589 31.3433C67.7103 31.5324 67.761 31.2556 67.6226 31.2302Z" fill="#D9DBE9"/>
<path d="M66.7182 29.9201C65.8254 29.3274 64.9072 28.8732 63.7747 28.8088C63.6363 28.7834 63.7493 28.9472 63.7493 28.9472C64.6928 29.263 65.6363 29.5789 66.3906 30.1462C66.8059 30.2223 66.9696 30.1092 66.7182 29.9201Z" fill="#D9DBE9"/>
<path d="M66.8452 29.2281C65.9777 28.4971 64.9719 27.7406 63.8393 27.6762C63.7009 27.6508 63.814 27.8146 63.814 27.8146C64.8958 28.1559 65.814 28.6102 66.6814 29.3412C66.9328 29.5304 66.9836 29.2535 66.8452 29.2281Z" fill="#D9DBE9"/>
<path d="M66.5196 27.8812C65.6268 27.2885 64.4573 26.6451 63.3247 26.5807C63.1863 26.5554 63.2993 26.7191 63.2993 26.7191C64.3812 27.0603 65.4631 27.4016 66.4943 28.0196C66.582 28.3217 66.6327 28.045 66.5196 27.8812Z" fill="#D9DBE9"/>
<path d="M66.1181 26.9494C65.2253 26.3567 64.1688 25.8771 63.2 25.6996C63.0616 25.6743 63.1746 25.8381 63.1746 25.8381C64.2565 26.1793 65.2 26.4952 66.0927 27.0879C66.0927 27.0879 66.2565 26.9748 66.1181 26.9494Z" fill="#D9DBE9"/>
<path d="M66.0694 25.653C65.2643 25.3625 64.4592 25.0719 63.6542 24.7814L63.6288 24.9199C64.4339 25.2104 65.2389 25.5009 66.044 25.7914C66.1824 25.8167 66.2078 25.6784 66.0694 25.653Z" fill="#D9DBE9"/>
<path d="M65.7558 25.0232C64.8884 24.2921 64.021 23.561 62.9391 23.2197C62.8007 23.1944 62.7753 23.3328 62.9137 23.3582C63.9703 23.8378 64.7246 24.4051 65.5921 25.1362C65.6798 25.4383 65.8689 25.1869 65.7558 25.0232Z" fill="#D9DBE9"/>
<path d="M65.6192 23.4248C64.6387 22.5299 63.3814 21.5843 61.9467 21.6076C61.8083 21.5823 61.9213 21.7461 61.9213 21.7461C63.2547 22.2764 64.475 22.643 65.5938 23.5632C65.7069 23.7269 65.7322 23.5885 65.6192 23.4248Z" fill="#D9DBE9"/>
<path d="M64.6271 21.8127C63.5336 20.7541 61.9742 19.8963 60.5141 20.058C60.3757 20.0326 60.3503 20.171 60.4634 20.3348C61.9605 20.7521 63.3192 21.144 64.4127 22.2026C64.5511 22.2279 64.7656 21.8381 64.6271 21.8127Z" fill="#D9DBE9"/>
<path d="M63.333 20.2879C61.9881 19.0402 60.1518 18.1317 58.4149 18.2427C58.2765 18.2173 58.3895 18.381 58.3895 18.381C60.1888 18.7106 61.6859 19.1279 63.0309 20.3756C63.257 20.7031 63.5845 20.477 63.333 20.2879Z" fill="#D9DBE9"/>
<path d="M61.7873 18.5744C60.4793 17.9057 59.0075 17.35 57.5474 17.5117C57.409 17.4863 57.5221 17.6501 57.6605 17.6755C59.1576 18.0927 60.4286 18.1825 61.875 18.8766C61.875 18.8766 61.9257 18.5998 61.7873 18.5744Z" fill="#D9DBE9"/>
<path d="M60.7812 17.8179C59.6877 16.7593 58.0152 15.7377 56.4166 15.8741C56.2782 15.8487 56.3913 16.0125 56.3913 16.0125C58.0521 16.3168 59.2724 16.6833 60.479 17.9057C60.6174 17.931 60.9196 17.8433 60.7812 17.8179Z" fill="#D9DBE9"/>
<path d="M59.7636 16.3442C58.3425 15.5117 56.7577 14.7922 55.0462 14.7648C54.9078 14.7395 55.0208 14.9032 55.0208 14.9032C56.6563 15.3458 58.1534 15.7632 59.5745 16.5957C59.8259 16.7848 59.8766 16.5079 59.7636 16.3442Z" fill="#D9DBE9"/>
<path d="M58.0036 15.0205C56.6956 14.3518 55.3876 13.683 53.9782 13.5679C53.8398 13.5425 53.9529 13.7063 53.9275 13.8447C55.2862 14.2367 56.6449 14.6286 57.9529 15.2973C58.0913 15.3227 58.142 15.0458 58.0036 15.0205Z" fill="#D9DBE9"/>
<path d="M56.0425 13.2306C54.7853 12.285 52.7092 11.9047 51.1984 12.3432C51.06 12.3179 51.1477 12.6201 51.2861 12.6454C52.0034 12.6338 52.8592 12.6475 53.5513 12.7742C54.3817 12.9263 55.1868 13.2169 55.9918 13.5074C56.1556 13.3943 56.1809 13.2559 56.0425 13.2306Z" fill="#D9DBE9"/>
<path d="M53.8421 11.9693C52.3957 11.2752 50.4834 10.7818 48.8341 11.195C48.6957 11.1696 48.8088 11.3333 48.9472 11.3587C50.6588 11.3861 52.2319 11.3882 53.8167 12.1077C53.9298 12.2714 54.1189 12.02 53.8421 11.9693Z" fill="#D9DBE9"/>
<path d="M51.3898 10.5188C50.0057 10.2653 48.4833 9.98642 47.1616 10.1735C47.1616 10.1735 46.9978 10.2865 47.1362 10.3118C48.5203 10.5654 49.955 10.5421 51.3391 10.7957C51.4775 10.821 51.5282 10.5442 51.3898 10.5188Z" fill="#D9DBE9"/>
<path d="M49.717 9.49721C48.1945 9.21834 46.6467 9.07783 45.1359 9.51633C44.9975 9.49098 45.1106 9.65479 45.249 9.68014C46.8221 9.68221 48.2822 9.52047 49.83 9.66094C49.9431 9.82469 49.8554 9.52257 49.717 9.49721Z" fill="#D9DBE9"/>
<path d="M47.7796 9.14221C46.4209 8.75029 44.873 8.60982 43.5006 9.07367C43.3622 9.04832 43.4753 9.21204 43.6137 9.23739C45.0738 9.0757 46.3955 8.88866 47.7542 9.28059C47.8673 9.44434 47.918 9.16757 47.7796 9.14221Z" fill="#D9DBE9"/>
<path d="M45.5281 8.1577C43.8165 8.13028 41.8281 8.05216 40.292 8.62906C40.292 8.62906 40.2666 8.76752 40.405 8.79287C42.1419 8.68188 43.9295 8.29409 45.6411 8.32151C45.7795 8.34686 45.6665 8.18305 45.5281 8.1577Z" fill="#D9DBE9"/>
<path d="M43.1496 7.86504C41.5141 7.42241 39.5004 7.48262 38.0012 8.6385C38.0012 8.6385 37.9505 8.91536 37.9758 8.77696C39.6758 8.087 41.1866 7.64845 42.9605 8.11643C43.2627 8.02873 43.288 7.8904 43.1496 7.86504Z" fill="#D9DBE9"/>
<path d="M40.797 7.43408C38.9471 7.38131 36.8826 7.71837 35.2704 8.71048C35.1067 8.82354 35.2197 8.98726 35.3835 8.87421C37.2218 8.2096 38.758 7.63273 40.7717 7.57245C41.0485 7.62315 40.9354 7.45943 40.797 7.43408Z" fill="#D9DBE9"/>
<path d="M37.3992 7.24089C35.713 7.07506 33.6232 7.55052 32.2878 8.59335C32.2625 8.73175 32.2371 8.87021 32.4009 8.75716C33.1689 8.4687 33.9624 8.04185 34.8689 7.77875C35.7753 7.51565 36.6311 7.5293 37.5123 7.40461L37.3992 7.24089Z" fill="#D9DBE9"/>
<path d="M34.5043 7.42579C32.818 7.25997 31.0304 7.64773 29.6697 8.82896C29.6697 8.82896 29.619 9.10582 29.7827 8.99277C31.3442 8.27746 32.742 7.6752 34.4535 7.70262C34.5919 7.72797 34.6427 7.45114 34.5043 7.42579Z" fill="#D9DBE9"/>
<path d="M31.7986 7.35936C30.2001 7.4957 28.3871 8.0219 27.2778 9.39224L27.2524 9.53061C28.7009 8.65154 29.9856 7.88558 31.7479 7.63619C31.7732 7.49778 31.7986 7.35936 31.7986 7.35936Z" fill="#D9DBE9"/>
<path d="M28.7401 7.65731C26.8141 8.01975 24.7613 9.07429 23.7397 10.7468L23.8528 10.9105C25.4026 9.47783 26.738 8.43499 28.8278 7.95949C28.9916 7.84644 28.9039 7.54426 28.7401 7.65731Z" fill="#D9DBE9"/>
<path d="M24.9503 8.82286C23.6149 9.86569 22.1411 10.8831 20.7803 12.0644C20.7803 12.0644 20.755 12.2028 20.9187 12.0897C22.3925 11.0723 23.7279 10.0294 25.0634 8.98659C25.0887 8.84818 24.9756 8.68446 24.9503 8.82286Z" fill="#D9DBE9"/>
<path d="M22.1295 10.1658C20.8448 10.9318 19.5347 11.8362 18.7276 13.1188C18.7276 13.1188 18.8406 13.2826 18.866 13.1442C19.9246 12.0507 20.9832 10.9571 22.2679 10.1911C22.2679 10.1911 22.1548 10.0274 22.1295 10.1658Z" fill="#D9DBE9"/>
<path d="M20.3419 10.5536C18.792 11.9863 17.0784 13.532 15.9184 15.1792C15.9184 15.1792 15.8931 15.3175 16.0315 15.3429C17.4683 13.7464 18.9051 12.15 20.455 10.7173C20.4803 10.5789 20.3673 10.4152 20.3419 10.5536Z" fill="#D9DBE9"/>
<path d="M17.2301 12.7015C15.5535 14.8262 13.7638 16.7872 12.1125 18.7735C12.0872 18.9119 12.0618 19.0503 12.2256 18.9373C14.1283 17.1401 15.8049 15.0154 17.3432 12.8653C17.3685 12.7269 17.2555 12.5631 17.2301 12.7015Z" fill="#D9DBE9"/>
<path d="M14.4211 14.7618C12.53 17.2763 10.5259 19.6271 8.91159 22.1924C8.88624 22.3308 9.02464 22.3562 9.02464 22.3562C11.0288 20.0054 12.8068 17.327 14.6726 14.9508C14.6979 14.8124 14.4465 14.6234 14.4211 14.7618Z" fill="#D9DBE9"/>
<path d="M9.8455 20.2177C8.48474 21.3989 7.35007 22.9077 6.49222 24.4671C6.49222 24.4671 6.46687 24.6055 6.63063 24.4925C7.76529 22.9837 8.73619 21.588 9.9839 20.243C9.95855 20.3814 10.0093 20.1046 9.8455 20.2177Z" fill="#D9DBE9"/>
<path d="M6.80801 23.5237C5.97552 24.9448 4.89157 26.1767 3.80762 27.4086C3.80762 27.4086 3.80762 27.4086 3.94602 27.434C5.14303 26.3658 6.11392 24.9701 6.94642 23.5491C7.11017 23.436 6.83336 23.3853 6.80801 23.5237Z" fill="#D9DBE9"/>
<path d="M3.60692 26.9426C3.63228 26.8042 3.49387 26.7789 3.60692 26.9426C3.46852 26.9173 3.60692 26.9426 3.60692 26.9426Z" fill="#D9DBE9"/>
<path d="M66.9012 34.3884C66.7628 34.363 66.4607 34.4507 66.3223 34.4253C66.5991 34.476 66.7628 34.363 66.9012 34.3884Z" fill="#D9DBE9"/>
<path d="M66.0201 34.513C65.252 34.8014 64.3962 34.7877 63.4897 35.0508L63.4644 35.1893C64.3201 35.203 65.2266 34.9398 66.0201 34.513C66.1331 34.6767 66.0201 34.513 66.0201 34.513Z" fill="#D9DBE9"/>
<path d="M65.9442 34.9282C65.2638 35.5188 64.5211 35.6688 63.6399 35.7935C63.6399 35.7935 63.4762 35.9066 63.6146 35.9319C64.558 36.2478 65.5152 35.7079 65.9442 34.9282C66.221 34.9789 66.1079 34.8151 65.9442 34.9282Z" fill="#D9DBE9"/>
<path d="M66.0939 35.6709C64.9476 36.4623 63.9027 36.7 62.581 36.887C62.4426 36.8617 62.5557 37.0254 62.5557 37.0254C63.9651 37.1405 65.199 36.6513 66.2069 35.8346C66.3707 35.7216 66.2576 35.5578 66.0939 35.6709Z" fill="#D9DBE9"/>
<path d="M66.1935 36.6905C64.7704 37.4311 63.1719 37.5675 61.6611 38.006L61.6357 38.1444C63.2089 38.1465 64.7451 37.5696 66.1682 36.8289C66.3066 36.8543 66.3319 36.7158 66.1935 36.6905Z" fill="#D9DBE9"/>
<path d="M64.7194 37.708C63.271 38.5871 61.8109 38.7488 60.2123 38.8851C60.0739 38.8598 60.187 39.0235 60.187 39.0235C61.7348 39.164 63.384 38.7508 64.8325 37.8717C64.9963 37.7587 64.8832 37.595 64.7194 37.708Z" fill="#D9DBE9"/>
<path d="M63.9886 38.5754C62.4017 39.4291 60.967 39.4524 59.3684 39.5888L59.3431 39.7271C60.9786 40.1698 62.6532 39.6182 64.1016 38.7392C64.24 38.7645 64.1523 38.4624 63.9886 38.5754Z" fill="#D9DBE9"/>
<path d="M61.5826 39.9943C61.2805 40.082 61.1167 40.1951 60.7892 40.4212C60.6254 40.5343 60.7385 40.6979 60.8769 40.7233C61.179 40.6356 61.3428 40.5226 61.6703 40.2965C61.8341 40.1834 61.5826 39.9943 61.5826 39.9943Z" fill="#D9DBE9"/>
<path d="M60.462 40.6473C59.2533 40.9981 57.9569 41.0468 56.6606 41.0954C56.5222 41.0701 56.6352 41.2338 56.6352 41.2338C57.8809 41.462 59.2026 41.2749 60.4112 40.9241C60.7134 40.8364 60.6257 40.5342 60.462 40.6473Z" fill="#D9DBE9"/>
<path d="M61.1538 40.7739C59.5299 41.0487 57.9314 41.185 56.4206 41.6235C56.2822 41.5982 56.3952 41.762 56.5336 41.7873C58.1321 41.651 59.7814 41.2378 61.2668 40.9377C61.4052 40.9631 61.2922 40.7993 61.1538 40.7739Z" fill="#D9DBE9"/>
<path d="M59.5669 41.6278C58.1692 42.2301 56.8475 42.4171 55.5004 42.7425C55.362 42.7172 55.4751 42.8809 55.4751 42.8809C56.8591 43.1344 58.3953 42.5575 59.6547 41.9299C59.8184 41.8168 59.7053 41.6531 59.5669 41.6278Z" fill="#D9DBE9"/>
<path d="M58.4323 43.1364C56.783 43.5496 55.0461 43.6606 53.2839 43.9099C53.1455 43.8846 53.2585 44.0484 53.3969 44.0738C55.2215 44.2649 57.0092 43.8771 58.6584 43.4639C58.8221 43.3509 58.596 43.0234 58.4323 43.1364Z" fill="#D9DBE9"/>
<path d="M20.4422 20.1563C20.6937 20.3454 20.7814 20.6475 21.0328 20.8366C20.9198 20.6728 20.6683 20.4838 20.4422 20.1563Z" fill="#D9DBE9"/>
<path d="M23.9904 21.0923C22.3549 20.6496 20.2904 20.9868 19.4326 22.5462C19.4326 22.5462 19.4072 22.6846 19.5456 22.71C21.0194 21.6925 22.2788 21.0649 24.0781 21.3945C24.0781 21.3945 24.1288 21.1176 23.9904 21.0923Z" fill="#D9DBE9"/>
<path d="M22.5185 20.5365C20.92 20.6728 19.0817 21.3374 18.1108 22.7331C18.1108 22.7331 18.0854 22.8714 18.2239 22.8968C19.5593 21.854 20.7056 21.0626 22.5809 20.977C22.6062 20.8386 22.6569 20.5618 22.5185 20.5365Z" fill="#D9DBE9"/>
<path d="M21.5128 19.78C19.3216 20.8091 16.9159 22.2281 15.5415 24.2652C15.5161 24.4036 15.6545 24.4289 15.6799 24.2905C17.5573 22.6317 19.2963 20.9475 21.6512 19.8054C21.7896 19.8307 21.5128 19.78 21.5128 19.78Z" fill="#D9DBE9"/>
<path d="M20.3038 20.1309C17.9489 21.2731 15.3795 22.8051 13.8159 25.0936C13.8159 25.0936 13.7905 25.2319 13.9289 25.2573C14.9368 24.4406 15.6933 23.4347 16.8396 22.6434C18.0112 21.7136 19.1322 21.0606 20.3915 20.433C20.4169 20.2946 20.4676 20.0179 20.3038 20.1309Z" fill="#D9DBE9"/>
<path d="M19.2472 19.6512C16.1612 21.6608 13.0498 23.8088 10.6674 26.6625C10.6674 26.6625 10.6421 26.8009 10.7805 26.8263C13.5274 24.3254 16.2742 21.8246 19.2472 19.6512C19.3856 19.6766 19.3856 19.6766 19.2472 19.6512Z" fill="#D9DBE9"/>
<path d="M17.7619 19.9514C15.7344 20.8674 14.1592 22.4385 12.584 24.0096C10.8704 25.5553 9.15672 27.1011 7.5815 28.6722C7.5815 28.6722 7.55615 28.8106 7.69456 28.8359C11.0458 26.1597 13.9331 22.111 17.7619 19.9514C17.8749 20.1151 17.7619 19.9514 17.7619 19.9514Z" fill="#D9DBE9"/>
<path d="M15.4324 20.955C12.5841 24.0095 9.28358 26.409 6.32224 29.2997C6.32224 29.2997 6.29687 29.4381 6.43528 29.4635C9.71042 27.2024 12.7225 24.0349 15.4324 20.955C15.5708 20.9804 15.4577 20.8166 15.4324 20.955Z" fill="#D9DBE9"/>
<path d="M12.5862 22.4364C10.6951 24.951 8.35175 26.8106 6.09615 28.9723C6.09615 28.9723 6.0708 29.1107 6.20921 29.136C8.80397 27.4656 10.9719 25.0017 12.5862 22.4364C12.7246 22.4618 12.6115 22.298 12.5862 22.4364Z" fill="#D9DBE9"/>
<path d="M11.7052 22.5612C9.95246 25.1011 7.63451 26.8223 5.40425 28.8456C5.40425 28.8456 5.37891 28.9839 5.51731 29.0093C8.06137 27.6157 10.2293 25.1518 11.8182 22.7249C11.8436 22.5865 11.7052 22.5612 11.7052 22.5612Z" fill="#D9DBE9"/>
<path d="M10.8494 22.5475C8.92127 24.4831 6.57796 26.3427 4.90132 28.4674C4.87597 28.6058 5.01438 28.6311 5.01438 28.6311C7.16858 27.023 9.03431 24.6469 10.9624 22.7113L10.8494 22.5475Z" fill="#D9DBE9"/>
<path d="M8.11585 24.1923C6.84279 25.6757 5.59508 27.0207 4.46042 28.5295C4.43507 28.6679 4.57346 28.6933 4.57346 28.6933C5.95958 27.3736 7.09424 25.8649 8.22889 24.3561C8.39265 24.2431 8.1412 24.0539 8.11585 24.1923Z" fill="#D9DBE9"/>
<path d="M7.15869 24.7325C6.26385 25.7129 5.2306 26.6681 4.47416 27.6739C4.47416 27.6739 4.44881 27.8123 4.61256 27.6993C5.62046 26.8826 6.40226 25.7383 7.4355 24.7832C7.2971 24.7578 7.18405 24.5941 7.15869 24.7325Z" fill="#D9DBE9"/>
<path d="M27.2016 9.80738C29.3284 9.91085 31.2153 10.5426 33.2407 11.1997C33.3791 11.2251 33.4044 11.0867 33.266 11.0613C31.4551 10.0144 29.2407 9.60869 27.2016 9.80738C27.0885 9.64362 27.2016 9.80738 27.2016 9.80738Z" fill="#D9DBE9"/>
<path d="M28.8998 10.6906C30.8374 11.0456 32.5353 11.9287 34.4222 12.5605L34.586 12.4474C33.0519 11.4512 30.8628 10.9071 29.0635 10.5775C28.7867 10.5268 28.7614 10.6653 28.8998 10.6906Z" fill="#D9DBE9"/>
<path d="M30.2699 11.7999C31.6539 12.0534 32.9872 12.5838 34.3206 13.1141C34.459 13.1394 34.4844 13.001 34.346 12.9756C33.2017 12.1938 31.7046 11.7766 30.3206 11.523C30.1822 11.4977 30.2699 11.7999 30.2699 11.7999Z" fill="#D9DBE9"/>
<path d="M30.8352 12.6186C32.1939 13.0105 33.5019 13.6793 34.8099 14.348C34.8099 14.348 34.9482 14.3734 34.9736 14.235C33.8294 13.4532 32.3576 12.8975 30.8605 12.4802C30.8605 12.4802 30.6968 12.5933 30.8352 12.6186Z" fill="#D9DBE9"/>
<path d="M32.0418 13.841C33.4005 14.233 34.5701 14.8764 35.8781 15.5451C35.8781 15.5451 36.0165 15.5704 36.0419 15.432C34.923 14.5118 33.5643 14.12 32.2056 13.728C31.9288 13.6773 31.9034 13.8157 32.0418 13.841Z" fill="#D9DBE9"/>
<path d="M32.5564 14.9366C33.6129 15.4163 34.6441 16.0343 35.8644 16.4008C36.0028 16.4262 35.8898 16.2625 35.8898 16.2625C34.8586 15.6444 33.6383 15.2778 32.5818 14.7982C32.4687 14.6344 32.5564 14.9366 32.5564 14.9366Z" fill="#D9DBE9"/>
<path d="M33.2344 15.9192C34.4547 16.2858 35.5112 16.7654 36.6808 17.4088C36.8192 17.4342 36.8445 17.2957 36.7061 17.2704C35.7257 16.3755 34.367 15.9836 33.1213 15.7555C33.2851 15.6424 33.2344 15.9192 33.2344 15.9192Z" fill="#D9DBE9"/>
<path d="M34.1391 17.2292C35.3594 17.5958 36.529 18.2392 37.7493 18.6058C37.8877 18.6311 37.913 18.4928 37.7746 18.4674C36.7688 17.711 35.4101 17.3191 34.1898 16.9525C33.8876 17.0402 34.0007 17.2039 34.1391 17.2292Z" fill="#D9DBE9"/>
<path d="M34.2892 17.972C35.5095 18.3386 36.5406 18.9566 37.7609 19.3232C37.8993 19.3485 37.9247 19.2101 37.7863 19.1848C36.7551 18.5668 35.5601 18.0618 34.3399 17.6952C34.1761 17.8083 34.1508 17.9466 34.2892 17.972Z" fill="#D9DBE9"/>
<path d="M34.552 18.8784C35.8853 19.4088 37.0549 20.0521 38.4136 20.4441C38.4136 20.4441 38.5774 20.331 38.439 20.3057C37.2694 19.6623 35.9107 19.2703 34.5774 18.74C34.5774 18.74 34.4136 18.8531 34.552 18.8784Z" fill="#D9DBE9"/>
<path d="M35.2306 19.861C36.3125 20.2023 37.482 20.8457 38.5639 21.1869C38.7023 21.2122 38.7277 21.0739 38.5893 21.0485C37.5581 20.4305 36.3378 20.0638 35.2813 19.5842C35.1429 19.5589 35.0922 19.8357 35.2306 19.861Z" fill="#D9DBE9"/>
<path d="M35.7956 20.6797C36.8775 21.021 37.9594 21.3622 39.0412 21.7034C39.1796 21.7288 39.205 21.5904 39.0666 21.565C37.9847 21.2238 36.9028 20.8826 35.8209 20.5414C35.6825 20.516 35.6572 20.6544 35.7956 20.6797Z" fill="#D9DBE9"/>
<path d="M36.5245 21.3857C37.7448 21.7522 38.8014 22.2318 40.0217 22.5984C40.1601 22.6238 40.1854 22.4854 40.047 22.46C38.9905 21.9804 37.7702 21.6138 36.5499 21.2472C36.4115 21.2219 36.3861 21.3603 36.5245 21.3857Z" fill="#D9DBE9"/>
<path d="M36.9514 22.1789C38.008 22.6585 39.0645 23.1381 40.1717 23.3409C40.3102 23.3663 40.1971 23.2026 40.1971 23.2026C39.1659 22.5845 37.9203 22.3564 36.8637 21.8767C36.7253 21.8514 36.813 22.1536 36.9514 22.1789Z" fill="#D9DBE9"/>
<path d="M37.6807 22.8848C38.5989 23.339 39.517 23.7933 40.3474 23.9455C40.4858 23.9708 40.3728 23.8071 40.3728 23.8071C39.4546 23.3528 38.5112 23.0369 37.593 22.5827C37.593 22.5827 37.5423 22.8594 37.6807 22.8848Z" fill="#D9DBE9"/>
<path d="M37.3278 23.2492C38.3843 23.7288 39.5792 24.2338 40.8249 24.4619L40.8502 24.3236C39.8191 23.7055 38.5988 23.3389 37.3785 22.9724C37.2401 22.947 37.1894 23.2238 37.3278 23.2492Z" fill="#D9DBE9"/>
<path d="M34.6727 22.906C37.1133 23.6391 39.2264 24.5984 41.5032 25.4446C41.6416 25.47 41.667 25.3315 41.5539 25.1678C39.4915 23.9317 36.9126 23.1732 34.585 22.6038C34.585 22.6038 34.5343 22.8806 34.6727 22.906Z" fill="#D9DBE9"/>
<path d="M33.2378 22.9291C35.7915 23.826 38.1307 25.1128 40.7096 25.8713C40.8481 25.8966 40.735 25.7329 40.735 25.7329C38.3958 24.4461 35.6784 23.6622 33.2632 22.7907C33.1248 22.7653 33.2378 22.9291 33.2378 22.9291Z" fill="#D9DBE9"/>
<path d="M34.0039 24.2139C36.4699 24.8086 38.7467 25.6548 41.1619 26.5264C41.3003 26.5517 41.3257 26.4133 41.1873 26.3879C38.9612 25.2649 36.3568 24.6449 34.0293 24.0755C33.8909 24.0501 33.8655 24.1885 34.0039 24.2139Z" fill="#D9DBE9"/>
<path d="M40.4555 8.51601C42.204 9.1224 43.7381 10.1187 45.4613 10.8634C45.5997 10.8888 45.6251 10.7503 45.4867 10.725C43.9779 9.59033 42.2547 8.84557 40.5062 8.23918C40.3678 8.21383 40.3171 8.49066 40.4555 8.51601Z" fill="#D9DBE9"/>
<path d="M40.7187 9.42247C42.1651 10.1166 43.5607 11.0875 45.0325 11.6431C45.1709 11.6685 45.1709 11.6685 45.0578 11.5048C43.6368 10.6723 42.1904 9.97819 40.744 9.2841C40.6056 9.25875 40.5803 9.39712 40.7187 9.42247Z" fill="#D9DBE9"/>
<path d="M41.1826 10.7947C42.9566 11.2627 44.3776 12.0952 45.9877 12.6763C46.1262 12.7016 46.1515 12.5632 46.0131 12.5378C44.7812 11.4539 42.8942 10.8221 41.2333 10.5179C41.0949 10.4926 41.0442 10.7694 41.1826 10.7947Z" fill="#D9DBE9"/>
<path d="M41.471 11.5629C43.6347 12.2454 45.3072 13.267 47.2565 14.3393C47.3949 14.3646 47.4203 14.2262 47.2819 14.2008C45.6855 12.764 43.4086 11.9178 41.3579 11.3991C41.3579 11.3991 41.3326 11.5376 41.471 11.5629Z" fill="#D9DBE9"/>
<path d="M41.4066 12.6954C43.4573 13.2141 45.2682 14.2611 47.0791 15.308C47.2175 15.3334 47.2429 15.195 47.1045 15.1696C45.4827 13.8712 43.3443 13.0504 41.4319 12.5571C41.3189 12.3933 41.2682 12.6701 41.4066 12.6954Z" fill="#D9DBE9"/>
<path d="M42.0849 13.6781C44.0342 14.7504 45.9835 15.8227 47.9582 16.7566C48.0966 16.782 48.1219 16.6436 47.9835 16.6182C46.198 15.4329 44.2233 14.4989 42.0849 13.6781C42.1103 13.5396 42.1103 13.5396 42.0849 13.6781Z" fill="#D9DBE9"/>
<path d="M42.9388 15.2649C44.662 16.0097 46.2215 16.8676 47.9193 17.7508C48.0577 17.7762 48.0831 17.6377 47.9447 17.6124C46.4106 16.6161 44.6874 15.8713 42.9642 15.1265C42.8258 15.1012 42.8004 15.2396 42.9388 15.2649Z" fill="#D9DBE9"/>
<path d="M43.9561 16.7387C45.5409 17.4582 47.2388 18.3414 48.8489 18.9224C48.9873 18.9478 49.0127 18.8093 48.8743 18.784C47.3149 17.9261 45.5916 17.1813 43.8684 16.4365C43.73 16.4112 43.8177 16.7134 43.9561 16.7387Z" fill="#D9DBE9"/>
<path d="M44.4455 17.9727C45.8665 18.8052 47.4259 19.6631 49.0614 20.1058C49.1998 20.1311 49.0868 19.9673 49.0868 19.9673C47.6404 19.2732 46.0556 18.5538 44.4708 17.8344C44.3324 17.809 44.4455 17.9727 44.4455 17.9727Z" fill="#D9DBE9"/>
<path d="M44.7708 19.3199C46.2425 19.8756 47.5505 20.5443 49.0476 20.9616L49.0729 20.8232C47.765 20.1544 46.2932 19.5987 44.8215 19.0431C44.6831 19.0177 44.7708 19.3199 44.7708 19.3199Z" fill="#D9DBE9"/>
<path d="M45.1724 20.2516C47.0593 20.8834 49.034 21.8173 51.0847 22.336C51.2231 22.3613 51.1101 22.1976 51.1101 22.1976C49.2738 21.2891 47.2231 20.7704 45.1977 20.1133C45.0847 19.9495 45.034 20.2263 45.1724 20.2516Z" fill="#D9DBE9"/>
<path d="M45.4101 21.2965C47.4608 21.8152 49.2971 22.7238 51.1841 23.3555C51.3225 23.3808 51.3478 23.2424 51.2094 23.217C49.3985 22.1701 47.3731 21.513 45.3224 20.9943C45.3224 20.9943 45.2717 21.2711 45.4101 21.2965Z" fill="#D9DBE9"/>
<path d="M45.8114 22.2283C48.3904 22.9868 50.944 23.8837 53.3339 24.8937C53.4723 24.919 53.523 24.6422 53.3846 24.6168C53.2462 24.5915 53.1078 24.5662 52.8563 24.3771L52.831 24.5154C50.9324 23.1663 48.0259 22.634 45.7237 21.9262C45.7237 21.9262 45.673 22.2029 45.8114 22.2283Z" fill="#D9DBE9"/>
<path d="M46.3768 23.047C49.1819 24.133 51.9617 25.3575 54.8175 26.1667C54.9559 26.1921 54.8428 26.0283 54.8428 26.0283C52.2268 24.6908 49.2326 23.8563 46.4275 22.7703C46.2891 22.7449 46.2384 23.0217 46.3768 23.047Z" fill="#D9DBE9"/>
<path d="M47.6966 24.4333C50.7161 25.1294 53.3575 26.3285 56.3263 27.3014C56.4647 27.3268 56.3517 27.1631 56.3517 27.1631C53.761 25.6872 50.6284 24.8272 47.7219 24.2948C47.4705 24.1057 47.5582 24.4079 47.6966 24.4333Z" fill="#D9DBE9"/>
<path d="M47.0665 24.7471C50.1738 25.7454 53.2303 27.0205 56.3883 27.742C56.5267 27.7674 56.5521 27.629 56.4137 27.6037C53.4955 26.3539 50.2245 25.4686 47.0919 24.6087C47.0919 24.6087 46.9281 24.7218 47.0665 24.7471Z" fill="#D9DBE9"/>
<path d="M46.1859 24.8718C49.4316 25.8955 52.7649 27.2213 56.0106 28.245C56.149 28.2703 56.1743 28.1319 56.0359 28.1066C52.8663 26.6677 49.4823 25.6186 46.2113 24.7334C46.0982 24.5696 46.0475 24.8465 46.1859 24.8718Z" fill="#D9DBE9"/>
<path d="M45.6689 25.3494C49.166 26.5622 52.6377 27.9133 56.3493 28.7363C56.3493 28.7363 56.5131 28.6232 56.3747 28.5979C52.9282 27.1083 49.2167 26.2853 45.7196 25.0726C45.5558 25.1856 45.5304 25.324 45.6689 25.3494Z" fill="#D9DBE9"/>
<path d="M46.209 26.3064C49.3416 27.1663 52.4235 28.303 55.4684 28.8607C55.6068 28.8861 55.6321 28.7477 55.4937 28.7224C52.6009 27.3342 49.2792 26.7257 46.1213 26.0042C46.1213 26.0042 46.0706 26.281 46.209 26.3064Z" fill="#D9DBE9"/>
<path d="M47.4661 27.252C49.8813 28.1235 52.2712 29.1335 54.8755 29.7536C55.0139 29.7789 54.9009 29.6151 54.9263 29.4767C52.5617 28.3284 50.0958 27.7336 47.6806 26.862C47.4038 26.8113 47.3277 27.2266 47.4661 27.252Z" fill="#D9DBE9"/>
<path d="M54.1423 32.1942C52.0018 32.9465 49.4578 34.3401 48.247 36.2641C48.2217 36.4025 48.3601 36.4278 48.3854 36.2894C49.2296 35.5857 50.0991 34.7437 51.0816 34.0654C52.0642 33.3871 53.1598 32.8725 54.3938 32.3833C54.4191 32.2449 54.1677 32.0558 54.1423 32.1942Z" fill="#D9DBE9"/>
<path d="M51.197 32.6561C49.7231 33.6735 48.0602 34.9424 47.0893 36.3381C47.064 36.4765 47.2024 36.5019 47.2277 36.3635C48.5885 35.1822 49.8362 33.8373 51.3354 32.6814C51.4738 32.7068 51.3354 32.6814 51.197 32.6561Z" fill="#D9DBE9"/>
<path d="M50.4795 32.6678C49.1441 33.7106 47.6449 34.8665 46.5356 36.2368C46.5103 36.3752 46.6487 36.4006 46.674 36.2622C48.0348 35.0809 49.2571 33.8743 50.6179 32.6931C50.7563 32.7185 50.5049 32.5294 50.4795 32.6678Z" fill="#D9DBE9"/>
<path d="M47.9863 33.7845C47.6335 34.1491 47.3059 34.3751 46.9531 34.7397L47.0661 34.9034C47.419 34.5389 47.7465 34.3128 48.0994 33.9483C48.1247 33.8099 47.9863 33.7845 47.9863 33.7845Z" fill="#D9DBE9"/>
<path d="M47.7095 33.7338C47.7095 33.7338 47.5964 33.57 47.7095 33.7338C47.5711 33.7084 47.7095 33.7338 47.7095 33.7338Z" fill="#D9DBE9"/>
<path d="M49.3469 32.6034C47.7601 33.4571 46.0971 34.726 45.2393 36.2854C45.2393 36.2854 45.3523 36.4492 45.3777 36.3108C46.7638 34.9911 47.8478 33.7592 49.4853 32.6287C49.6237 32.6541 49.5107 32.4903 49.3469 32.6034Z" fill="#D9DBE9"/>
<path d="M48.8186 32.3635C47.4832 33.4063 46.0094 34.4238 45.0132 35.9579C45.0132 35.9579 44.9878 36.0963 45.1262 36.1217C46.3739 34.7767 47.4579 33.5447 48.8186 32.3635C48.957 32.3888 48.9824 32.2504 48.8186 32.3635Z" fill="#D9DBE9"/>
<path d="M48.1521 32.0983C46.5653 32.952 45.0407 34.2463 44.2959 35.9695C44.2959 35.9695 44.2706 36.1079 44.4343 35.9949C45.569 34.4861 46.653 33.2541 48.2652 32.262L48.1521 32.0983Z" fill="#D9DBE9"/>
<path d="M47.0194 32.0337C45.684 33.0766 44.3232 34.2579 43.4654 35.8173C43.4654 35.8173 43.5784 35.9811 43.6038 35.8427C44.7131 34.4723 45.797 33.2403 47.1578 32.0591C47.1578 32.0591 47.0448 31.8953 47.0194 32.0337Z" fill="#D9DBE9"/>
<path d="M46.4153 32.2093C45.1306 32.9753 43.7698 34.1565 43.0757 35.6029C43.0757 35.6029 43.0504 35.7413 43.2141 35.6282C44.2981 34.3963 45.2183 33.2774 46.4153 32.2093C46.6921 32.26 46.579 32.0962 46.4153 32.2093Z" fill="#D9DBE9"/>
<path d="M46.0507 31.8564C44.5515 33.0122 43.0016 34.445 42.0054 35.9791L42.1438 36.0044C43.5299 34.6848 44.803 33.2014 46.0507 31.8564C46.3275 31.9071 46.1891 31.8817 46.0507 31.8564Z" fill="#D9DBE9"/>
<path d="M45.85 31.3905C43.6081 32.6964 41.1264 34.5306 39.978 36.8951C39.9526 37.0335 40.091 37.0589 40.091 37.0589C41.0112 35.94 41.793 34.7957 42.8263 33.8406C43.8595 32.8855 44.8421 32.2072 45.85 31.3905C46.1014 31.5796 45.9884 31.4158 45.85 31.3905Z" fill="#D9DBE9"/>
<path d="M46.7703 30.2716C43.735 32.0044 40.875 34.3416 38.7695 37.246C38.7695 37.246 38.7441 37.3844 38.8825 37.4097C41.2396 34.6944 43.6843 32.2813 46.8834 30.4354C46.8834 30.4354 46.9341 30.1586 46.7703 30.2716Z" fill="#D9DBE9"/>
<path d="M48.4329 29.0027C44.5164 30.8602 40.4479 33.548 38.0518 37.2575C38.0518 37.2575 38.1648 37.4213 38.1902 37.2829C41.366 34.0023 44.3273 31.1116 48.5713 29.028C48.7097 29.0534 48.4583 28.8643 48.4329 29.0027Z" fill="#D9DBE9"/>
<path d="M46.9359 28.5853C43.2085 30.1913 39.4674 32.6531 37.3989 36.1365L37.5119 36.3003C40.3856 33.1074 43.1578 30.4681 47.0489 28.749C47.1873 28.7744 47.0996 28.4722 46.9359 28.5853Z" fill="#D9DBE9"/>
<path d="M46.244 28.4587C42.8188 29.977 39.3799 32.351 37.5005 35.583C37.4751 35.7214 37.6135 35.7468 37.6389 35.6083C40.185 32.6416 42.7935 30.1154 46.3824 28.484C46.4955 28.6478 46.244 28.4587 46.244 28.4587Z" fill="#D9DBE9"/>
<path d="M42.1168 27.5597C42.1422 27.4213 42.1422 27.4213 42.1422 27.4213C41.5262 26.8793 40.1147 28.3374 39.6235 28.6765C38.3134 29.5809 36.978 30.6237 36.1709 31.9063L36.2839 32.0702C37.2665 31.3918 37.9975 30.5244 39.0054 29.7077C39.4967 29.3685 39.8496 29.004 40.3409 28.6648C40.5046 28.5518 40.8321 28.3257 40.9959 28.2127L42.1168 27.5597C42.0915 27.6981 42.0915 27.6981 42.1168 27.5597Z" fill="#D9DBE9"/>
<path d="M41.8284 26.7916C39.3097 28.0468 36.5765 29.6919 35.126 32.1441C35.126 32.1441 35.2391 32.3079 35.2644 32.1695C36.2977 31.2144 37.1925 30.2339 38.2258 29.2787C39.3974 28.349 40.6821 27.5829 41.9668 26.8169C42.1052 26.8423 41.9668 26.8169 41.8284 26.7916Z" fill="#D9DBE9"/>
<path d="M41.162 26.5264C38.9201 27.8323 36.6275 29.415 34.8378 31.376L34.8125 31.5144C36.8283 29.8809 38.8694 28.1091 41.1367 26.6647C41.2751 26.6901 41.162 26.5264 41.162 26.5264Z" fill="#D9DBE9"/>
<path d="M40.4445 26.5379C38.2279 27.7055 35.6585 29.2375 33.9819 31.3622C33.9819 31.3622 33.9565 31.5006 34.0949 31.5259C35.0775 30.8476 35.9723 29.8672 36.9802 29.0505C38.1265 28.2591 39.2728 27.4677 40.5322 26.8401C40.5575 26.7017 40.4445 26.5379 40.4445 26.5379Z" fill="#D9DBE9"/>
<path d="M38.9844 26.6997C36.8809 28.031 34.7774 29.3623 33.1768 31.0718C33.1768 31.0718 33.2898 31.2356 33.3152 31.0972C35.2803 29.7405 37.1577 28.0817 39.2612 26.7504C39.2612 26.7504 39.1481 26.5866 38.9844 26.6997Z" fill="#D9DBE9"/>
<path d="M38.0157 26.5224C36.1014 27.6022 34.1363 28.9588 32.8379 30.5806C32.8379 30.5806 32.8125 30.7191 32.9509 30.7444C34.6645 29.1987 36.2144 27.766 38.0157 26.5224C38.1542 26.5477 38.1542 26.5477 38.0157 26.5224Z" fill="#D9DBE9"/>
<path d="M36.883 26.4579C35.0446 27.1225 32.9919 28.177 31.9703 29.8495C31.9703 29.8495 32.0833 30.0132 32.1087 29.8748C33.6332 28.5805 34.9939 27.3993 36.996 26.6216C37.1344 26.647 37.0214 26.4832 36.883 26.4579Z" fill="#D9DBE9"/>
<path d="M35.2847 26.5943C33.6978 27.448 32.0856 28.4401 31.1147 29.8358C31.0894 29.9742 31.2278 29.9996 31.2278 29.9996C32.5885 28.8184 33.8109 27.6117 35.5362 26.7834C35.5615 26.6449 35.3101 26.4559 35.2847 26.5943Z" fill="#D9DBE9"/>
<path d="M33.8866 27.1964C31.9605 27.5589 29.857 28.8902 28.8608 30.4243C28.8608 30.4243 28.8354 30.5627 28.9739 30.588C29.818 29.8843 30.5237 29.1554 31.3425 28.5901C32.1613 28.0249 33.0678 27.7617 33.9996 27.3602C33.9996 27.3602 34.025 27.2218 33.8866 27.1964Z" fill="#D9DBE9"/>
<path d="M32.4267 27.3583C30.7521 27.9098 28.674 29.1026 27.6777 30.6367C27.6524 30.7751 27.7907 30.8005 27.7907 30.8005C29.3153 29.5062 30.5376 28.2996 32.5397 27.522C32.6781 27.5473 32.5651 27.3836 32.4267 27.3583Z" fill="#D9DBE9"/>
<path d="M30.7268 28.0482C29.216 28.4867 27.4907 29.3151 26.6836 30.5977C26.6582 30.7361 26.7966 30.7615 26.822 30.6231C28.1574 29.5803 29.1906 28.6251 30.8652 28.0735C31.0036 28.0989 30.8906 27.9351 30.7268 28.0482Z" fill="#D9DBE9"/>
<path d="M29.5687 28.1222C27.8688 28.8122 26.0928 29.9174 24.8198 31.4008C24.8198 31.4008 24.7944 31.5392 24.9328 31.5645C26.432 30.4086 27.7928 29.2274 29.518 28.3991C29.6818 28.286 29.7325 28.0092 29.5687 28.1222Z" fill="#D9DBE9"/>
<path d="M26.9624 29.0752C25.514 29.9543 23.9018 30.9464 22.7925 32.3167C22.7925 32.3167 22.7671 32.4552 22.9055 32.4806C24.2409 31.4377 25.4633 30.2311 27.0501 29.3774C27.0755 29.239 27.1262 28.9622 26.9624 29.0752Z" fill="#D9DBE9"/>
<path d="M26.005 29.6151C24.0029 30.3927 22.0378 31.7494 20.8271 33.6733C20.8018 33.8117 20.9402 33.8371 20.9655 33.6987C22.4277 31.9638 23.9522 30.6696 26.118 29.7789C26.4202 29.6912 26.1688 29.502 26.005 29.6151Z" fill="#D9DBE9"/>
<path d="M24.7711 30.1042C22.769 30.8818 20.7786 32.3769 19.8447 34.3516C19.8193 34.49 19.9577 34.5153 19.9577 34.5153C21.4199 32.7804 22.8314 31.3224 24.8588 30.4063C25.0226 30.2933 24.9095 30.1295 24.7711 30.1042Z" fill="#D9DBE9"/>
<path d="M24.1161 30.5566C22.0009 31.1705 19.8721 32.6401 19.0512 34.7786C19.0259 34.917 19.1643 34.9423 19.3281 34.8293C20.5388 32.9053 21.9502 31.4473 24.2291 30.7203C24.3675 30.7457 24.2545 30.5819 24.1161 30.5566Z" fill="#D9DBE9"/>
<path d="M23.235 30.6813C21.2329 31.4589 19.2678 32.8156 18.1955 34.7649C18.1955 34.7649 18.1448 35.0417 18.3086 34.9286C19.7708 33.1938 21.1569 31.8741 23.1843 30.958C23.3481 30.845 23.3988 30.5682 23.235 30.6813Z" fill="#D9DBE9"/>
<path d="M22.2661 30.5038C20.5155 31.4706 18.7142 32.7141 17.5542 34.3613C17.5542 34.3613 17.5288 34.4997 17.6672 34.525C19.0787 33.067 20.4648 31.7473 22.3538 30.8059C22.5176 30.6929 22.4045 30.5292 22.2661 30.5038Z" fill="#D9DBE9"/>
<path d="M21.083 30.7162C19.5839 31.8721 17.7825 33.1156 16.6225 34.7628C16.6225 34.7628 16.5972 34.9012 16.7356 34.9266C18.2601 33.6323 19.5332 32.1489 21.1707 31.0184C21.2214 30.7416 21.2468 30.6032 21.083 30.7162Z" fill="#D9DBE9"/>
<path d="M18.186 32.4742C17.644 33.0902 17.1274 33.5677 16.8369 34.3728C16.8115 34.5112 16.9499 34.5365 17.1137 34.4235C17.5173 33.7822 17.9208 33.1409 18.5759 32.6887C18.6012 32.5503 18.3498 32.3611 18.186 32.4742Z" fill="#D9DBE9"/>
<path d="M26.1663 41.2315C28.2424 41.6118 30.4569 42.0174 32.5836 42.1209C32.722 42.1463 32.609 41.9825 32.609 41.9825C30.5583 41.4638 28.2931 41.335 26.1917 41.0931C26.0533 41.0677 26.0279 41.2062 26.1663 41.2315Z" fill="#D9DBE9"/>
<path d="M30.1548 42.1052C32.6968 42.2847 35.2388 42.4642 37.8061 42.5053C35.2895 42.1874 32.7221 42.1463 30.1548 42.1052C30.0417 41.9414 30.1548 42.1052 30.1548 42.1052Z" fill="#D9DBE9"/>
<path d="M34.3066 42.8658C36.2697 43.0824 38.5095 43.3496 40.5486 43.151L40.5739 43.0125C38.4725 42.7706 36.4588 42.8309 34.3573 42.589C34.332 42.7274 34.3066 42.8658 34.3066 42.8658Z" fill="#D9DBE9"/>
<path d="M36.4704 43.5482C39.3145 43.64 42.184 43.5934 44.8528 43.0809C44.9912 43.1063 44.8781 42.9425 44.7397 42.9172C41.9579 43.2659 39.2015 43.4762 36.4704 43.5482C36.2189 43.3591 36.332 43.5228 36.4704 43.5482Z" fill="#D9DBE9"/>
<path d="M40.0185 44.4841C42.0323 44.4238 44.1591 44.5272 46.1981 44.3286C46.3365 44.3539 46.2235 44.1902 46.2235 44.1902C44.2351 44.1121 42.0576 44.2854 40.0693 44.2072C39.9055 44.3203 40.0185 44.4841 40.0185 44.4841Z" fill="#D9DBE9"/>
<path d="M41.4644 45.1782C43.868 45.3324 46.3477 45.0714 48.6266 44.3444L48.6519 44.206C46.26 44.7691 44.0572 45.0809 41.6282 45.0651C41.3514 45.0144 41.326 45.1529 41.4644 45.1782Z" fill="#D9DBE9"/>
<path d="M45.3905 45.6114C47.6187 45.1612 49.96 44.8748 52.1258 43.9841L52.1512 43.8458C49.923 44.2959 47.6441 45.0229 45.4159 45.473C45.1391 45.4223 45.2268 45.7244 45.3905 45.6114Z" fill="#D9DBE9"/>
<path d="M48.8647 45.3894C50.2117 45.064 51.5588 44.7385 52.7928 44.2493L52.8181 44.1109C51.4964 44.2979 50.124 44.7618 48.89 45.251C48.6132 45.2003 48.7009 45.5025 48.8647 45.3894Z" fill="#D9DBE9"/>
<path d="M8.59689 31.7192C9.12516 31.959 9.51502 32.1735 10.0686 32.2749C9.51502 32.1735 8.98676 31.9336 8.59689 31.7192C8.45849 31.6938 8.45849 31.6938 8.59689 31.7192Z" fill="#D9DBE9"/>
<path d="M11.1762 32.4777C9.79212 32.2242 8.26968 31.9452 6.92262 32.2707C6.78422 32.2453 6.75886 32.3838 6.89726 32.4092C8.30666 32.5243 9.74141 32.501 11.1255 32.7545C11.1508 32.6161 11.1762 32.4777 11.1762 32.4777Z" fill="#D9DBE9"/>
<path d="M11.7181 31.8618C9.66736 31.3431 7.17607 30.8867 5.17398 31.6644C5.03558 31.639 5.14864 31.8028 5.28704 31.8281C7.60293 31.6801 9.61665 31.6199 11.8058 32.1639C11.8058 32.1639 11.8565 31.8871 11.7181 31.8618Z" fill="#D9DBE9"/>
<path d="M9.4296 30.2981C8.1586 30.2083 6.77457 29.9547 5.59127 30.1671C5.45286 30.1418 5.56591 30.3056 5.56591 30.3056C6.8369 30.3953 8.13326 30.3467 9.40425 30.4364C9.54266 30.4618 9.56801 30.3234 9.4296 30.2981Z" fill="#D9DBE9"/>
<path d="M9.8583 29.5183C8.63801 29.1517 7.25395 28.8982 6.15836 29.4127C6.01995 29.3874 6.13301 29.5511 6.27142 29.5765C7.56777 29.5278 8.5873 29.4285 9.80759 29.7951C9.946 29.8204 9.99671 29.5436 9.8583 29.5183Z" fill="#D9DBE9"/>
<path d="M9.95996 28.9647C8.87807 28.6235 7.63243 28.3953 6.42378 28.7461L6.39844 28.8845C7.53103 28.9489 8.66362 29.0133 9.90927 29.2415C10.0477 29.2668 10.0984 28.9901 9.95996 28.9647Z" fill="#D9DBE9"/>
<path d="M10.1998 28.4365C9.00485 27.9315 7.34398 27.6273 6.08463 28.2549C5.94622 28.2296 6.05928 28.3933 6.19769 28.4186C7.51939 28.2316 8.81573 28.183 10.1491 28.7133C10.2875 28.7387 10.3382 28.4618 10.1998 28.4365Z" fill="#D9DBE9"/>
<path d="M10.3264 27.7444C9.2445 27.4031 7.99885 27.175 7.04166 27.7149C6.90325 27.6896 7.01631 27.8533 7.15472 27.8786C8.33801 27.6662 9.19379 27.68 10.2757 28.0212C10.4141 28.0465 10.6032 27.7951 10.3264 27.7444Z" fill="#D9DBE9"/>
<path d="M11.9134 26.8908C10.5293 26.6373 8.86844 26.3331 7.49604 26.7969C7.35763 26.7716 7.47069 26.9353 7.47069 26.9353C8.88009 27.0504 10.3402 26.8887 11.8373 27.306C12.0011 27.193 12.1902 26.9415 11.9134 26.8908Z" fill="#D9DBE9"/>
<path d="M12.5937 26.3C11.2604 25.7697 9.46114 25.4401 7.92498 26.017C7.78657 25.9916 7.89961 26.1554 8.03802 26.1808C9.61118 26.1828 11.0459 26.1596 12.543 26.5769C12.8198 26.6276 12.8705 26.3507 12.5937 26.3Z" fill="#D9DBE9"/>
<path d="M13.7146 25.6471C11.8023 25.1538 9.8393 24.9373 8.02632 25.4635L8.00098 25.6019C9.8763 25.5162 11.7516 25.4307 13.6386 26.0624C13.8023 25.9493 13.853 25.6725 13.7146 25.6471Z" fill="#D9DBE9"/>
<path d="M14.3327 24.616C12.5588 24.148 10.5705 24.0699 8.75748 24.5961C8.61908 24.5707 8.73213 24.7345 8.87054 24.7598C10.7712 24.5358 12.3951 24.2611 14.3074 24.7544C14.282 24.8929 14.4711 24.6413 14.3327 24.616Z" fill="#D9DBE9"/>
<path d="M15.5668 24.1268C13.9567 23.5457 12.019 23.1908 10.2314 23.5786C10.093 23.5532 10.206 23.717 10.206 23.717C12.0814 23.6314 13.7676 23.7972 15.5161 24.4036C15.6292 24.5673 15.6799 24.2905 15.5668 24.1268Z" fill="#D9DBE9"/>
<path d="M16.1087 23.5108C14.4732 23.0682 12.8377 22.6256 11.2138 22.9003C11.0754 22.875 11.1885 23.0387 11.1885 23.0387C12.8747 23.2045 14.4478 23.2066 16.058 23.7877C16.171 23.9514 16.2217 23.6746 16.1087 23.5108Z" fill="#D9DBE9"/>
<path d="M17.1282 23.4114C15.6565 22.8557 13.8572 22.5262 12.3718 22.8263C12.2333 22.8009 12.3464 22.9647 12.4848 22.9901C14.2217 22.8791 15.6311 22.9942 17.2413 23.5752C17.3543 23.739 17.2666 23.4368 17.1282 23.4114Z" fill="#D9DBE9"/>
<path d="M17.9468 22.8462C16.5004 22.1521 14.7012 21.8226 13.165 22.3995L13.1396 22.5379C14.8512 22.5653 16.286 22.542 17.8961 23.123C17.8961 23.123 18.0852 22.8716 17.9468 22.8462Z" fill="#D9DBE9"/>
<path d="M18.2996 22.4816C17.2431 22.002 16.0228 21.6355 14.7264 21.6841C14.588 21.6588 14.7011 21.8225 14.7011 21.8225C15.9467 22.0507 16.9156 22.2281 18.1105 22.7331C18.2489 22.7585 18.438 22.507 18.2996 22.4816Z" fill="#D9DBE9"/>
<path d="M20.1751 22.3961C19.1439 21.7781 17.9236 21.4116 16.6019 21.5986C16.4635 21.5733 16.5766 21.737 16.5766 21.737C17.8476 21.8267 18.8164 22.0042 19.986 22.6476C20.4012 22.7237 20.3135 22.4215 20.1751 22.3961Z" fill="#D9DBE9"/>
<path d="M22.5535 22.6886C21.4092 21.9068 19.9375 21.3511 18.452 21.6512C18.3136 21.6259 18.4267 21.7896 18.4267 21.7896C19.8361 21.9047 21.0817 22.1329 22.3897 22.8016C22.6665 22.8523 22.8303 22.7393 22.5535 22.6886Z" fill="#D9DBE9"/>
<path d="M24.5925 22.4899C23.3099 21.6827 21.9765 21.1523 20.5418 21.1756C20.4034 21.1503 20.5164 21.3141 20.5164 21.3141C21.9004 21.5676 23.2591 21.9595 24.5418 22.7667C24.6802 22.792 24.7055 22.6536 24.5925 22.4899Z" fill="#D9DBE9"/>
<path d="M25.4484 22.5036C24.5303 22.0493 23.6122 21.595 22.618 21.5559L22.5926 21.6944C23.5361 22.0102 24.4796 22.326 25.2593 22.755C25.5361 22.8057 25.5615 22.6673 25.4484 22.5036Z" fill="#D9DBE9"/>
<path d="M30.8604 12.4803C29.7024 12.5543 28.6322 12.9304 27.5366 13.445L27.5112 13.5834C28.5815 13.2073 29.6517 12.8311 30.8097 12.7571C30.9734 12.6441 30.9988 12.5057 30.8604 12.4803Z" fill="#D9DBE9"/>
<path d="M29.1626 11.5971C27.8156 11.9225 26.6069 12.2734 25.5737 13.2285L25.6867 13.3922C26.833 12.6008 27.9286 12.0863 29.1626 11.5971C29.4141 11.7862 29.301 11.6224 29.1626 11.5971Z" fill="#D9DBE9"/>
<path d="M28.1061 11.1173C26.5699 11.6942 24.9577 12.6863 23.7353 13.8929C23.71 14.0313 23.8484 14.0567 23.8484 14.0567C25.2091 12.8755 26.5445 11.8326 28.1061 11.1173C28.2445 11.1427 28.1314 10.9789 28.1061 11.1173Z" fill="#D9DBE9"/>
<path d="M28.2073 10.5638C26.8603 10.8893 25.714 11.6806 24.7061 12.4973C23.3453 13.6786 22.123 14.8852 21.039 16.1171C21.039 16.1171 21.0137 16.2555 21.1521 16.2808C23.6338 14.4466 25.3241 11.4661 28.4588 10.7529C28.3204 10.7276 28.2073 10.5638 28.2073 10.5638Z" fill="#D9DBE9"/>
<path d="M26.9874 10.1973C23.9774 11.7916 20.9791 14.1034 19.4018 17.2477L19.5149 17.4114C21.7588 14.5323 23.763 12.1815 26.9874 10.1973C27.1005 10.361 26.9874 10.1973 26.9874 10.1973Z" fill="#D9DBE9"/>
<path d="M26.1569 10.045C22.4433 10.7953 19.3922 14.9571 17.5634 17.9122C17.5634 17.9122 17.5381 18.0506 17.6765 18.0759C20.1719 15.3859 22.3672 11.2105 26.2446 10.3472C26.27 10.2088 26.1569 10.045 26.1569 10.045Z" fill="#D9DBE9"/>
<path d="M23.7649 10.6084C20.3514 12.8441 17.3393 16.0116 15.6353 19.8479C15.6353 19.8479 15.6099 19.9863 15.7737 19.8733C18.006 16.2768 20.2753 13.2594 23.7396 10.7469C23.9033 10.6338 23.7903 10.47 23.7649 10.6084Z" fill="#D9DBE9"/>
<path d="M21.2463 11.8636C18.0103 13.1305 15.6765 17.2805 14.1499 20.148C14.1499 20.148 14.263 20.3117 14.2883 20.1733C16.507 17.4327 17.8211 13.3819 21.2463 11.8636C21.3847 11.8889 21.2717 11.7252 21.2463 11.8636Z" fill="#D9DBE9"/>
<path d="M20.1761 12.2398C16.4234 13.9842 13.7875 18.2219 11.6059 21.5416C11.6059 21.5416 11.5806 21.68 11.719 21.7053C14.4289 18.6255 16.3727 14.261 20.1508 12.3781C20.2892 12.4035 20.1761 12.2398 20.1761 12.2398Z" fill="#D9DBE9"/>
<path d="M16.7232 15.4694C13.7502 17.6428 11.015 20.8611 8.74564 23.8786C8.74564 23.8786 8.8587 24.0423 8.88405 23.9039C11.5179 21.2393 13.6995 17.9196 16.7232 15.4694C16.8616 15.4948 16.7232 15.4694 16.7232 15.4694Z" fill="#D9DBE9"/>
<path d="M14.2669 17.1653C11.7462 19.9937 9.11235 22.6583 6.70463 25.6505C6.70463 25.6505 6.67927 25.7889 6.84303 25.6758C9.47686 23.0112 11.8846 20.0191 14.38 17.3291C14.5438 17.216 14.4307 17.0522 14.2669 17.1653Z" fill="#D9DBE9"/>
<path d="M10.6001 20.785C12.2746 20.2335 13.8108 19.6566 15.4854 19.105C15.6238 19.1304 15.5107 18.9666 15.3723 18.9413C13.7484 19.216 11.9101 19.8806 10.4617 20.7597C10.3233 20.7343 10.4363 20.8981 10.6001 20.785Z" fill="#D9DBE9"/>
<path d="M10.7011 20.2316C12.7032 19.4539 14.6799 18.8146 16.6567 18.1754C16.7951 18.2007 16.682 18.037 16.5436 18.0116C14.4792 18.3487 12.3387 19.101 10.4497 20.0424C10.4497 20.0424 10.5627 20.2062 10.7011 20.2316Z" fill="#D9DBE9"/>
<path d="M11.7089 19.4148C13.8748 18.5241 15.9646 18.0486 18.105 17.2963C18.2434 17.3217 18.1304 17.1579 17.992 17.1325C15.7892 17.4442 13.4849 18.3097 11.4575 19.2257C11.4575 19.2257 11.5705 19.3895 11.7089 19.4148Z" fill="#D9DBE9"/>
<path d="M13.0448 18.372C14.8461 17.1284 16.6591 16.6023 18.8619 16.2905L18.8873 16.1521C16.7605 16.0486 14.7584 16.8263 13.0955 18.0952C12.9317 18.2083 12.881 18.485 13.0448 18.372Z" fill="#D9DBE9"/>
<path d="M14.2048 16.7249C16.2069 15.9472 18.2966 15.4717 20.2734 14.8325C20.4118 14.8578 20.2987 14.694 20.2987 14.694C18.2596 14.8927 16.1191 15.6451 14.0917 16.5611C13.928 16.6742 14.041 16.8379 14.2048 16.7249Z" fill="#D9DBE9"/>
<path d="M14.3057 16.1713C16.3585 15.1168 18.4483 14.6413 20.8403 14.0781C20.9787 14.1034 21.0294 13.8267 20.8656 13.9397C18.5751 13.9493 16.2455 14.953 14.3311 16.0329C14.1927 16.0075 14.142 16.2844 14.3057 16.1713Z" fill="#D9DBE9"/>
<path d="M16.4604 14.5631C17.6691 14.2123 18.7393 13.8361 19.9226 13.6237C20.9675 13.386 21.9617 13.425 23.0066 13.1873C23.145 13.2127 23.0319 13.0488 22.8935 13.0235C20.7667 12.92 18.2364 13.4579 16.2089 14.374C16.1836 14.5124 16.322 14.5377 16.4604 14.5631Z" fill="#D9DBE9"/>
<path d="M18.0976 13.4326C19.9613 12.6296 21.6728 12.657 23.6612 12.7351C23.7996 12.7604 23.6865 12.5967 23.6865 12.5967C21.7742 12.1034 19.6845 12.5789 17.9845 13.2689C17.8461 13.2435 17.9592 13.4072 18.0976 13.4326Z" fill="#D9DBE9"/>
<path d="M18.8796 12.2883C20.9694 11.8128 22.9578 11.891 24.9968 11.6923C25.1352 11.7177 25.0475 11.4155 25.0475 11.4155C22.9715 11.0352 20.7686 11.3469 18.7919 11.9862C18.7666 12.1246 18.7412 12.2629 18.8796 12.2883Z" fill="#D9DBE9"/>
<path d="M20.0513 11.3586C22.5816 10.8208 24.9852 10.975 27.4648 10.714C27.6033 10.7393 27.5156 10.4372 27.3771 10.4118C24.8859 9.95547 22.2171 10.4679 19.9636 11.0565C19.7998 11.1695 19.8875 11.4717 20.0513 11.3586Z" fill="#D9DBE9"/>
<path d="M22.33 10.6316C24.9987 10.1191 27.4023 10.2733 30.0827 10.4782C30.2211 10.5035 30.1081 10.3397 30.1081 10.3397C27.5037 9.71962 24.7473 9.92995 22.2423 10.3294C22.0785 10.4424 22.33 10.6316 22.33 10.6316Z" fill="#D9DBE9"/>
<path d="M23.0613 9.76419C25.8178 9.55386 28.3344 9.87185 31.0402 9.93833C31.1786 9.96368 31.0655 9.79988 31.0655 9.79988C28.4358 9.31818 25.7047 9.39014 23.0867 9.62582C22.9483 9.60047 22.9229 9.73884 23.0613 9.76419Z" fill="#D9DBE9"/>
<path d="M25.8938 9.13867C28.4865 9.0414 30.8648 9.33402 33.3814 9.65195C33.5198 9.67731 33.5452 9.53885 33.4068 9.5135C30.9662 8.78035 28.3988 8.73922 25.9446 8.86185C25.7808 8.9749 25.7554 9.11332 25.8938 9.13867Z" fill="#D9DBE9"/>
<path d="M27.9328 8.93983C30.3617 8.9556 32.6015 9.22287 35.0051 9.37705C35.1435 9.4024 35.0305 9.23868 35.0305 9.23868C32.7029 8.66928 30.274 8.65351 27.9835 8.66309C27.7066 8.61238 27.7944 8.91448 27.9328 8.93983Z" fill="#D9DBE9"/>
<path d="M30.7907 8.17602C33.1066 8.02804 35.3211 8.43364 37.674 8.86463C37.8124 8.88998 37.8378 8.75161 37.6993 8.72626C35.4225 7.88005 33.1573 7.75121 30.7031 7.87384C30.6777 8.01224 30.7907 8.17602 30.7907 8.17602Z" fill="#D9DBE9"/>
<path d="M34.8434 7.91703C36.668 8.1082 38.4165 8.71456 40.3542 9.06949C40.4926 9.09484 40.3796 8.93112 40.3796 8.93112C38.6564 8.18633 36.6933 7.96983 34.8687 7.77866C34.6173 7.58955 34.705 7.89167 34.8434 7.91703Z" fill="#D9DBE9"/>
<path d="M38.6312 8.32472C39.7384 8.52754 40.9587 8.89411 42.0913 8.95853C42.0913 8.95853 42.2551 8.84551 42.1167 8.82016C41.0094 8.61734 39.7638 8.38913 38.6312 8.32472C38.5181 8.16096 38.4928 8.29937 38.6312 8.32472Z" fill="#D9DBE9"/>
<path d="M42.0912 8.95853C42.8963 9.24905 43.8397 9.5649 44.6448 9.85542C43.8651 9.4265 42.9216 9.11064 42.0912 8.95853C42.1165 8.82012 41.9528 8.93318 42.0912 8.95853Z" fill="#D9DBE9"/>
</svg>
