<svg width="66" height="72" viewBox="0 0 66 72" fill="none" xmlns="http://www.w3.org/2000/svg">
<path d="M23.0246 20.3557L22.3772 21.0749L22.4731 21.1469C22.4731 21.1469 23.0006 21.6264 23.8637 22.034L22.8807 23.7842L23.7438 24.2637L24.7988 22.3936C24.9426 22.4416 25.1105 22.4895 25.2543 22.5135L24.2953 24.5515L25.1824 24.983L26.2853 22.6574C26.6449 22.6813 27.0286 22.6334 27.4122 22.5614L26.573 24.5754L27.4841 24.9591L28.6829 22.0819C29.1384 21.8422 29.57 21.5305 29.9776 21.1229L30.0735 21.051L29.4022 20.3317L29.3063 20.4036C26.3572 23.2328 23.2403 20.5475 23.1205 20.4276L23.0246 20.3557Z" fill="#AC3964"/>
<path d="M36.6669 22.1059L37.8657 24.983L38.7768 24.5994L37.9377 22.5854C38.2973 22.6574 38.6809 22.7053 39.0645 22.6813L40.1674 25.007L41.0545 24.5754L40.0955 22.5375C40.2633 22.5135 40.4072 22.4655 40.551 22.4176L41.606 24.2877L42.4691 23.8082L41.4861 22.058C42.3492 21.6504 42.8767 21.1708 42.8767 21.1708L42.9726 21.0989L42.3253 20.3557L42.2294 20.4276C42.1095 20.5475 38.9926 23.2328 36.0915 20.4516L35.9956 20.3796L35.3243 21.0989L35.4202 21.1708C35.7798 21.5305 36.2114 21.8661 36.6669 22.1059Z" fill="#AC3964"/>
<path d="M22.0655 39.8961C22.7368 34.7173 22.2333 29.9221 22.2333 29.8741L22.2094 29.7543L21.2263 29.8741L21.2503 29.994C21.2503 30.042 21.7538 34.7173 21.0825 39.8002C20.4831 44.4036 18.7568 50.2538 13.9856 52.076L13.8657 52.1239L14.2253 53.035L14.3452 52.9871C16.6709 52.0999 18.5171 50.3017 19.8597 47.6644C20.9147 45.5545 21.6579 42.9651 22.0655 39.8961Z" fill="#AC3964"/>
<path d="M25.0385 35.029V34.9091L24.0555 34.9331V35.053C24.3432 45.4825 18.7328 52.1239 18.6849 52.1958L18.613 52.2917L19.3562 52.9391L19.4281 52.8432C19.5001 52.7713 20.9386 51.069 22.3532 48.024C23.6719 45.1948 25.1824 40.6634 25.0385 35.029Z" fill="#AC3964"/>
<path d="M44.4831 39.7762C43.8118 34.7173 44.3153 30.018 44.3153 29.97L44.3393 29.8502L43.3562 29.7303L43.3323 29.8502C43.3323 29.8981 42.8048 34.6694 43.5001 39.8722C43.9077 42.9411 44.6509 45.5545 45.7059 47.6164C47.0485 50.2538 48.8947 52.052 51.2204 52.9391L51.3403 52.9871L51.6999 52.076L51.58 52.028C46.8088 50.2298 45.0825 44.3557 44.4831 39.7762Z" fill="#AC3964"/>
<path d="M41.5101 35.053V34.9331L40.5271 34.9091V35.029C40.3832 40.6873 41.8937 45.2188 43.2124 48.024C44.627 51.069 46.0895 52.7713 46.1375 52.8432L46.2094 52.9391L46.9526 52.2917L46.8807 52.1958C46.8328 52.1239 41.2463 45.4825 41.5101 35.053Z" fill="#AC3964"/>
<path d="M54.6969 49.6304C52.611 49.3427 50.8847 48.3117 49.566 46.5135C48.7988 45.4586 48.1515 44.1399 47.648 42.5814C48.2713 42.2218 48.8468 41.8142 49.3263 41.3826C49.3742 41.4306 49.4222 41.4785 49.4941 41.5265C49.8777 41.8382 50.6929 42.3417 51.556 42.3417C51.8677 42.3417 52.1554 42.2698 52.4192 42.1499C52.9946 41.8861 53.618 41.2628 53.642 40.5435C53.642 39.8722 53.2104 39.2728 52.4192 38.8652C53.1624 38.6254 53.9776 38.1699 54.3373 37.2588C54.577 36.5874 54.601 35.6044 54.0256 35.029C53.4502 34.4296 52.4671 34.3337 51.3882 34.7892C52.2993 33.3267 52.4671 31.9121 51.7958 31.1449C51.2204 30.4735 50.1415 30.4016 49.3742 30.6174C48.2713 30.9291 47.4561 31.984 47.1445 33.6144C47.0725 33.9501 47.0486 34.3337 47.0486 34.6933C46.8088 34.7653 46.569 34.8851 46.3532 35.029C45.8497 27.3327 47.1924 19.5165 47.1924 19.4446L47.2643 18.965L46.8088 18.8691C44.0995 18.3177 41.5341 17.3107 39.1604 15.8721C38.2254 15.2967 37.3143 14.6494 36.4272 13.954C36.3073 13.8581 36.1874 13.7383 36.0675 13.6424L35.9956 13.5944C34.9646 12.7313 34.0056 11.7722 33.1424 10.7413L32.7588 10.2857L32.3752 10.7173C31.4641 11.7483 30.4571 12.7313 29.4022 13.6184C29.1864 13.7862 28.9946 13.9301 28.8507 14.0739C28.0595 14.6973 27.2204 15.2727 26.3572 15.7762C23.9356 17.2388 21.2983 18.2697 18.5171 18.8452L18.0615 18.9411L18.1334 19.4206C18.1334 19.4685 19.1165 25.055 19.0925 31.4805C18.9246 31.3846 18.7568 31.3127 18.589 31.2648C18.613 30.8332 18.589 30.4016 18.4931 29.994C18.1334 28.1958 17.2463 27.021 15.9996 26.6614C15.1604 26.4216 13.9616 26.4935 13.3382 27.2368C12.571 28.1239 12.8108 29.7543 13.9137 31.4326C12.6909 30.9291 11.4441 31.001 10.7968 31.6484C10.1734 32.2957 10.1974 33.3746 10.4611 34.0939C10.8687 35.1489 11.8517 35.6763 12.7388 35.9401C11.7798 36.3956 11.2283 37.1149 11.2283 37.8582C11.2283 38.6494 11.9236 39.3207 12.571 39.6324C12.8587 39.7763 13.1704 39.8242 13.5061 39.8242C14.4891 39.8242 15.3522 39.2488 15.8078 38.9131C15.8797 38.8652 15.9516 38.7932 16.0475 38.7213C16.6949 39.2967 17.4621 39.8242 18.2773 40.2797C17.7258 42.8692 16.8627 44.979 15.7358 46.4895C14.4172 48.2877 12.6909 49.3427 10.605 49.6064L10.4851 49.6304L10.605 50.6134L10.7248 50.5894C13.0745 50.2778 15.0166 49.1029 16.5031 47.065C18.7568 43.996 19.9316 39.057 20.0515 32.3437V32.2478C20.0515 31.4326 20.0515 30.7133 20.0515 30.018C19.9556 25.2228 19.3562 21.027 19.1644 19.6843C19.6919 19.5644 20.2194 19.4206 20.7708 19.2528C20.7948 20.4516 21.0106 23.976 22.2094 27.7163C23.2164 30.8332 24.6789 33.2787 26.549 35.053C27.0765 40.4476 24.9666 43.4206 24.9426 43.4686L24.8707 43.5645L25.6619 44.1399L25.7338 44.044C25.8297 43.9241 27.8437 41.1189 27.604 35.9401C29.1145 37.043 30.8407 37.7623 32.7348 38.026H32.8787C34.7488 37.7623 36.4511 37.067 37.9377 35.988C37.7219 41.1429 39.7119 43.9241 39.8078 44.044L39.8797 44.1399L40.6709 43.5645L40.599 43.4686C40.575 43.4446 38.4891 40.4955 38.9926 35.1489C40.9107 33.3986 42.3972 30.9051 43.4282 27.7403C44.603 24.0719 44.8188 20.5954 44.8667 19.3726C45.3223 19.4925 45.7538 19.6124 46.1375 19.7083C45.9217 21.051 45.3223 25.2468 45.2503 30.042C45.1065 37.9301 46.2813 43.6604 48.7988 47.0889C50.2853 49.1029 52.2274 50.3017 54.577 50.6134L54.6969 50.6374L54.8168 49.6544L54.6969 49.6304ZM48.0795 33.7583C48.2234 33.039 48.607 31.8162 49.614 31.5285C50.0935 31.3846 50.7409 31.4326 51.0046 31.7443C51.2204 31.984 51.2204 32.5355 51.0286 33.1349C50.8128 33.8062 50.3812 34.5255 49.7818 35.2208C49.5421 35.005 48.9906 34.5974 48.1994 34.5015C48.1275 34.5015 48.0795 34.5015 48.0076 34.4775C48.0076 34.2618 48.0316 33.998 48.0795 33.7583ZM49.9976 37.4506C49.9976 37.4985 50.0216 37.5705 50.0456 37.6664C50.0456 37.6903 50.1415 38.3377 49.9257 39.057C49.7818 39.5365 48.9666 40.6634 47.3842 41.5984C46.9526 40.016 46.641 38.1938 46.4492 36.1798C46.7129 35.9161 47.3363 35.4126 48.1035 35.4845C48.6789 35.5565 49.0625 35.8921 49.1824 35.988C49.3982 36.2278 49.8298 36.7073 49.9976 37.4506ZM51.0286 38.0979C51.0286 37.7623 51.0046 37.5465 51.0046 37.5225C50.9806 37.4026 50.9566 37.3067 50.9566 37.2348C50.8847 36.9231 50.7648 36.6114 50.621 36.2997C51.7958 35.3167 52.9467 35.3167 53.3063 35.6763C53.5461 35.9161 53.5461 36.4915 53.4022 36.8751C53.0665 37.7623 51.8677 38.002 51.3403 38.0739C51.2444 38.0979 51.1485 38.0979 51.0286 38.0979ZM50.8368 39.3447C52.0116 39.5125 52.635 40.1359 52.635 40.5195C52.635 40.7832 52.2993 41.0949 51.9876 41.2388C51.2923 41.5505 50.4292 40.9751 50.0695 40.7113C50.0456 40.6873 50.0216 40.6634 49.9976 40.6634C50.4292 40.2078 50.7169 39.7523 50.8368 39.3447ZM35.3962 14.7692H35.3482C34.9167 14.6733 34.4851 14.5534 34.1015 14.3616L33.6939 14.1938L33.4781 14.5774C33.3103 14.8651 33.0226 15.2488 32.6629 15.3447C32.2793 15.2488 32.0156 14.8651 31.8477 14.5774L31.632 14.1938L31.2004 14.3616C30.7928 14.5295 30.3852 14.6733 29.9297 14.7692C29.7378 14.8172 29.57 14.8412 29.4022 14.8651C29.4262 14.8412 29.4741 14.7932 29.5221 14.7692C30.6729 13.8581 31.7518 12.8512 32.7348 11.7962C33.6459 12.8272 34.6529 13.7862 35.7319 14.6733C35.8038 14.7453 35.8997 14.8172 35.9716 14.8891C35.7558 14.8412 35.5161 14.7932 35.3962 14.7692ZM30.1694 15.7283C30.5291 15.6563 30.8887 15.5604 31.2244 15.4166C31.584 15.8961 32.0156 16.2078 32.4951 16.3037C32.4951 16.3037 32.4951 16.3037 32.5191 16.3037V16.3277H32.8068V16.3037C32.8068 16.3037 32.8068 16.3037 32.8308 16.3037C33.3103 16.2078 33.7418 15.8961 34.1015 15.4166C34.4371 15.5365 34.7968 15.6563 35.1564 15.7283H35.2044C36.0915 15.9201 36.7388 16.016 37.0985 15.6803C37.602 16.04 38.1295 16.3756 38.6569 16.7113C38.9207 16.8791 39.2084 17.023 39.5201 17.2148C38.8967 17.2388 38.0815 17.2627 37.2663 17.3826C34.605 17.6943 33.2383 18.4615 33.1664 19.6364V28.1958C32.9027 28.3876 32.615 28.2917 32.4232 28.1718V19.6124C32.3512 18.4376 30.9846 17.6703 28.3233 17.3586C27.4361 17.2627 26.549 17.2148 25.8537 17.1908C26.2134 16.999 26.549 16.8072 26.8847 16.6154C27.3163 16.3277 27.7958 16.04 28.2753 15.7043C28.6349 16.016 29.3063 15.8961 30.1694 15.7283ZM31.4162 19.6364V28.6034L31.584 28.7473C31.608 28.7712 31.9197 29.035 32.3512 29.1788C32.9746 29.3706 33.574 29.2028 34.0296 28.7233L34.1494 28.5794V19.6603C34.2214 18.6294 37.6979 18.0779 40.8867 18.1738H41.0066V17.958C41.9417 18.3896 42.9007 18.7732 43.8837 19.1089C43.8597 20.02 43.7159 23.6883 42.4691 27.4765C41.6539 29.994 40.5271 32.056 39.1365 33.6144C37.4342 35.5325 35.3003 36.6833 32.8068 37.067C30.3133 36.6833 28.1794 35.5325 26.4771 33.6144C25.0865 32.056 23.9596 29.994 23.1444 27.4765C21.8497 23.4965 21.7538 19.5884 21.7298 18.989C22.6889 18.6534 23.624 18.2937 24.535 17.8621V18.1978H24.6549C27.8677 18.0779 31.3442 18.6054 31.4162 19.6364ZM17.3422 31.1209C16.4072 31.2168 15.7838 31.7203 15.544 31.9601C13.9856 30.2098 13.578 28.4835 14.1055 27.8841C14.4172 27.5245 15.2084 27.4765 15.7598 27.6204C16.9346 27.9561 17.3902 29.3706 17.558 30.2098C17.606 30.4975 17.6539 30.8092 17.6299 31.1209C17.5101 31.1209 17.4142 31.1209 17.3422 31.1209ZM15.1844 34.6214C15.2084 34.5255 15.2084 34.4296 15.2323 34.3816C15.4241 33.5185 15.9276 32.9431 16.1914 32.6793C16.3592 32.5355 16.7908 32.1519 17.4381 32.1039C18.1334 32.032 18.7089 32.3437 19.0925 32.6314C19.0445 35.0769 18.8287 37.3067 18.4931 39.2488C16.527 38.1459 15.52 36.8032 15.3522 36.2038C15.0645 35.3886 15.1844 34.6454 15.1844 34.6214ZM14.3692 36.4676V36.4915C14.5131 36.9471 14.8487 37.4745 15.3282 38.026C15.2803 38.0739 15.2323 38.0979 15.1844 38.1459C14.8008 38.4576 13.7938 39.1289 12.9546 38.7453C12.595 38.5774 12.1874 38.1938 12.1874 37.8582C12.2353 37.4026 12.9786 36.6594 14.3692 36.4676ZM14.2733 34.1659C14.2493 34.2378 14.2253 34.3337 14.2014 34.4775C14.2014 34.5015 14.1534 34.7653 14.1774 35.1968C14.0335 35.1968 13.8897 35.1968 13.7698 35.1728C13.1944 35.1009 11.7798 34.8132 11.3962 33.7822C11.2283 33.3267 11.2283 32.6554 11.516 32.3437C11.9476 31.9121 13.3143 31.9121 14.6809 33.0869C14.4891 33.4226 14.3452 33.7822 14.2733 34.1659Z" fill="#AC3964"/>
<path d="M16.9586 37.5225L17.0545 37.5944L17.6539 36.9711L17.558 36.8991C17.534 36.8751 16.1194 35.4845 16.7428 34.1898L16.7908 34.07L16.0235 33.7103L15.9756 33.8302C15.0885 35.6763 16.8627 37.4506 16.9586 37.5225Z" fill="#AC3964"/>
<path d="M13.0505 38.2658C13.2359 38.2658 13.3862 38.1155 13.3862 37.9301C13.3862 37.7447 13.2359 37.5944 13.0505 37.5944C12.8651 37.5944 12.7149 37.7447 12.7149 37.9301C12.7149 38.1155 12.8651 38.2658 13.0505 38.2658Z" fill="#AC3964"/>
<path d="M13.7458 37.4746C13.8417 37.4746 13.9376 37.4266 13.9856 37.3547C14.0575 37.2827 14.0815 37.2108 14.0815 37.1149C14.0815 37.019 14.0335 36.9471 13.9616 36.8751C13.8177 36.7553 13.602 36.7553 13.4821 36.8991C13.3622 37.043 13.3622 37.2588 13.5061 37.3786C13.578 37.4506 13.6739 37.4746 13.7458 37.4746Z" fill="#AC3964"/>
<path d="M14.0575 37.7862C13.9376 37.9301 13.9376 38.1459 14.0815 38.2658C14.1534 38.3377 14.2253 38.3617 14.3212 38.3617C14.4172 38.3617 14.5131 38.3137 14.585 38.2418C14.7049 38.0979 14.7049 37.8821 14.561 37.7623C14.4172 37.6424 14.2014 37.6424 14.0575 37.7862Z" fill="#AC3964"/>
<path d="M12.1874 32.6793C12.1154 32.6314 12.0435 32.5834 11.9476 32.5834C11.8517 32.5834 11.7798 32.6314 11.7318 32.6793C11.612 32.7992 11.612 33.015 11.7558 33.1349C11.8277 33.1828 11.8997 33.2308 11.9716 33.2308C12.0675 33.2308 12.1394 33.2068 12.2114 33.1349C12.3312 33.015 12.3073 32.7992 12.1874 32.6793Z" fill="#AC3964"/>
<path d="M12.2353 33.8542C12.1154 33.974 12.1154 34.1898 12.2593 34.3097C12.3312 34.3577 12.4032 34.4056 12.4751 34.4056C12.571 34.4056 12.6429 34.3816 12.7149 34.3097C12.8347 34.1898 12.8347 33.974 12.6909 33.8542C12.571 33.7103 12.3552 33.7343 12.2353 33.8542Z" fill="#AC3964"/>
<path d="M13.3622 33.4945C13.4102 33.5185 13.4821 33.5425 13.53 33.5425C13.554 33.5425 13.578 33.5425 13.602 33.5425C13.6979 33.5185 13.7458 33.4706 13.7938 33.3986C13.8417 33.3267 13.8417 33.2308 13.8417 33.1589C13.8417 33.0869 13.7698 33.015 13.6979 32.9671C13.6259 32.9191 13.53 32.9191 13.4581 32.9191C13.3622 32.9431 13.3143 32.991 13.2663 33.063C13.2183 33.1349 13.2183 33.2308 13.2183 33.3027C13.2423 33.3746 13.2903 33.4466 13.3622 33.4945Z" fill="#AC3964"/>
<path d="M15.52 30.0899C15.4961 29.994 15.4481 29.9461 15.3762 29.8981C15.3043 29.8502 15.2084 29.8502 15.1364 29.8502C15.0405 29.8741 14.9926 29.9221 14.9446 29.994C14.8967 30.066 14.8967 30.1619 14.8967 30.2338C14.8967 30.3057 14.9686 30.3776 15.0405 30.4256C15.0885 30.4496 15.1604 30.4735 15.2084 30.4735C15.2323 30.4735 15.2563 30.4735 15.2803 30.4735C15.3762 30.4496 15.4241 30.4016 15.4721 30.3297C15.52 30.2578 15.544 30.1619 15.52 30.0899Z" fill="#AC3964"/>
<path d="M15.9756 28.987C16.1477 28.987 16.2873 28.8475 16.2873 28.6753C16.2873 28.5032 16.1477 28.3637 15.9756 28.3637C15.8035 28.3637 15.6639 28.5032 15.6639 28.6753C15.6639 28.8475 15.8035 28.987 15.9756 28.987Z" fill="#AC3964"/>
<path d="M14.8247 28.1479C14.6809 28.028 14.4891 28.052 14.3692 28.1958C14.3212 28.2677 14.2973 28.3397 14.2973 28.4356C14.2973 28.5315 14.3452 28.6034 14.4172 28.6514C14.4651 28.6993 14.537 28.7233 14.609 28.7233C14.6329 28.7233 14.6329 28.7233 14.6569 28.7233C14.7528 28.7233 14.8247 28.6753 14.8727 28.6034C14.9206 28.5315 14.9446 28.4596 14.9446 28.3637C14.9446 28.2917 14.8967 28.1958 14.8247 28.1479Z" fill="#AC3964"/>
<path d="M47.648 39.5844L47.552 39.6564L48.2474 40.3517L48.3433 40.2797C48.4152 40.2078 50.0456 38.6014 49.2543 36.8991L49.2064 36.7792L48.3193 37.2108L48.3672 37.3307C48.8707 38.3856 47.6719 39.5844 47.648 39.5844Z" fill="#AC3964"/>
<path d="M51.1485 40.2318C51.2204 40.3037 51.2923 40.3277 51.3882 40.3277C51.4601 40.3277 51.5321 40.3037 51.604 40.2318C51.7239 40.1119 51.7479 39.9201 51.628 39.7762C51.5081 39.6564 51.3163 39.6324 51.1724 39.7523C51.1005 39.8002 51.0765 39.8961 51.0765 39.9681C51.0526 40.0879 51.1005 40.1838 51.1485 40.2318Z" fill="#AC3964"/>
<path d="M53.1385 35.9161C53.0905 35.8682 53.0186 35.8202 52.9227 35.8202C52.8508 35.8202 52.7548 35.8442 52.7069 35.8921C52.6589 35.9401 52.611 36.012 52.611 36.1079C52.611 36.1798 52.635 36.2757 52.6829 36.3237C52.7309 36.3956 52.8268 36.4196 52.8987 36.4196C52.9706 36.4196 53.0426 36.3956 53.0905 36.3477C53.1385 36.2997 53.1864 36.2278 53.1864 36.1319C53.2104 36.036 53.1864 35.9641 53.1385 35.9161Z" fill="#AC3964"/>
<path d="M52.6589 36.8751C52.5151 36.8032 52.3233 36.8751 52.2514 37.019C52.1794 37.1629 52.2514 37.3547 52.3952 37.4266C52.4432 37.4506 52.4911 37.4506 52.5151 37.4506C52.5391 37.4506 52.587 37.4506 52.611 37.4266C52.6829 37.4026 52.7548 37.3547 52.7788 37.2827C52.8028 37.2108 52.8268 37.1389 52.7788 37.043C52.7788 36.9711 52.7309 36.8991 52.6589 36.8751Z" fill="#AC3964"/>
<path d="M51.8198 35.9161C51.6759 35.8442 51.4841 35.8921 51.4122 36.036C51.3403 36.1798 51.3882 36.3717 51.5321 36.4436C51.58 36.4676 51.628 36.4915 51.6759 36.4915C51.7718 36.4915 51.8917 36.4436 51.9397 36.3477C52.0116 36.1798 51.9636 36.012 51.8198 35.9161Z" fill="#AC3964"/>
<path d="M50.1175 33.8302C50.1415 33.8302 50.1654 33.8302 50.1894 33.8302C50.3333 33.8302 50.4532 33.7343 50.4771 33.5904C50.5011 33.5185 50.4771 33.4226 50.4292 33.3746C50.3812 33.3027 50.3093 33.2548 50.2374 33.2308C50.0695 33.1828 49.9257 33.3027 49.8777 33.4466C49.8538 33.6384 49.9497 33.8062 50.1175 33.8302Z" fill="#AC3964"/>
<path d="M49.2064 32.8951C49.3742 32.8951 49.4941 32.7513 49.4941 32.5834C49.4941 32.4156 49.3503 32.2717 49.2064 32.2717C49.0625 32.2717 48.8947 32.4396 48.8947 32.5834C48.8947 32.7273 49.0386 32.8951 49.2064 32.8951Z" fill="#AC3964"/>
<path d="M50.3572 32.4156C50.4292 32.4156 50.4771 32.3916 50.5491 32.3437C50.621 32.2957 50.645 32.2238 50.6689 32.1519C50.6929 32.0799 50.645 31.984 50.597 31.9361C50.5491 31.8642 50.4771 31.8402 50.4052 31.8162C50.3333 31.8162 50.2374 31.8402 50.1894 31.8881C50.1175 31.9361 50.0935 32.008 50.0695 32.0799C50.0456 32.1519 50.0935 32.2478 50.1415 32.2957C50.1894 32.3916 50.2613 32.4156 50.3572 32.4156Z" fill="#AC3964"/>
<path d="M51.4122 40.6394C51.3403 40.6394 51.2683 40.6634 51.1964 40.7113C51.1485 40.7593 51.1005 40.8312 51.1005 40.9031C51.1005 40.9751 51.1245 41.047 51.1724 41.1189C51.2204 41.1908 51.2923 41.2148 51.3642 41.2148H51.3882C51.4601 41.2148 51.5321 41.1908 51.58 41.1429C51.628 41.0949 51.6759 41.023 51.6759 40.9511C51.6759 40.8791 51.652 40.8072 51.604 40.7353C51.556 40.6634 51.4841 40.6394 51.4122 40.6394Z" fill="#AC3964"/>
<path d="M52.1315 40.8072C52.2993 40.8072 52.4192 40.6634 52.4192 40.5195C52.4192 40.3517 52.2753 40.2318 52.1315 40.2318C51.9636 40.2318 51.8438 40.3757 51.8438 40.5195C51.8438 40.6634 51.9636 40.8072 52.1315 40.8072Z" fill="#AC3964"/>
<path d="M29.6899 31.984L29.4741 32.9431L29.594 32.9671C30.6489 33.2068 31.7518 33.3507 32.8547 33.3507C33.9337 33.3507 35.0126 33.2308 36.0675 32.9671L36.1874 32.9431L35.9716 31.984L35.8517 32.008C34.8687 32.2478 33.8617 32.3677 32.8547 32.3677C31.8238 32.3677 30.7928 32.2478 29.8337 32.008L29.6899 31.984Z" fill="#AC3964"/>
<path d="M37.5465 60.5395V61.6903L37.1868 61.7143C36.1079 61.7143 35.4366 61.6903 34.5255 60.4196L31.6244 55.984L29.2747 56.032V61.5704H27.7882V47.2807H33.1589C36.0839 47.2807 37.2827 49.4385 37.2827 51.6443C37.2827 53.8022 36.2038 55.9361 33.3507 55.96H33.2068L35.5804 59.5564C36.2997 60.6114 36.6594 60.5395 37.3307 60.5395H37.5465ZM29.2987 54.6653H33.0869C35.1009 54.6653 35.8442 53.1548 35.8442 51.6204C35.8442 50.1339 35.1009 48.6234 33.1589 48.6234H29.2987V54.6653Z" fill="#AC3964"/>
</svg>
