<svg width="74" height="55" viewBox="0 0 74 55" fill="none" xmlns="http://www.w3.org/2000/svg">
<path d="M63.6668 14.1663H53.6668V0.833008H7.00016C3.3335 0.833008 0.333496 3.83301 0.333496 7.49967V44.1663H7.00016C7.00016 49.6997 11.4668 54.1663 17.0002 54.1663C22.5335 54.1663 27.0002 49.6997 27.0002 44.1663H47.0002C47.0002 49.6997 51.4668 54.1663 57.0002 54.1663C62.5335 54.1663 67.0002 49.6997 67.0002 44.1663H73.6668V27.4997L63.6668 14.1663ZM17.0002 49.1663C14.2335 49.1663 12.0002 46.933 12.0002 44.1663C12.0002 41.3997 14.2335 39.1663 17.0002 39.1663C19.7668 39.1663 22.0002 41.3997 22.0002 44.1663C22.0002 46.933 19.7668 49.1663 17.0002 49.1663ZM62.0002 19.1663L68.5335 27.4997H53.6668V19.1663H62.0002ZM57.0002 49.1663C54.2335 49.1663 52.0002 46.933 52.0002 44.1663C52.0002 41.3997 54.2335 39.1663 57.0002 39.1663C59.7668 39.1663 62.0002 41.3997 62.0002 44.1663C62.0002 46.933 59.7668 49.1663 57.0002 49.1663Z" fill="#14142B"/>
</svg>
