<svg width="68" height="67" viewBox="0 0 68 67" fill="none" xmlns="http://www.w3.org/2000/svg">
<path d="M67.3332 30.167H53.4332L64.2332 19.367L59.5332 14.6337L43.9998 30.167H37.3332V23.5003L52.8665 7.96699L48.1332 3.26699L37.3332 14.067V0.166992H30.6665V14.067L19.8665 3.26699L15.1332 7.96699L30.6665 23.5003V30.167H23.9998L8.4665 14.6337L3.7665 19.367L14.5665 30.167H0.666504V36.8337H14.5665L3.7665 47.6337L8.4665 52.367L23.9998 36.8337H30.6665V43.5003L15.1332 59.0337L19.8665 63.7337L30.6665 52.9337V66.8337H37.3332V52.9337L48.1332 63.7337L52.8665 59.0337L37.3332 43.5003V36.8337H43.9998L59.5332 52.367L64.2332 47.6337L53.4332 36.8337H67.3332V30.167Z" fill="#14142B"/>
</svg>
