<svg width="60" height="61" viewBox="0 0 60 61" fill="none" xmlns="http://www.w3.org/2000/svg">
<path d="M56.6667 42.1667C52.5 42.1667 48.5 41.5 44.7667 40.2667C43.6 39.9 42.3 40.1667 41.3667 41.0667L34.0333 48.4C24.6 43.6 16.8667 35.9 12.0667 26.4667L19.4 19.1C20.3333 18.2 20.6 16.9 20.2333 15.7333C19 12 18.3333 8 18.3333 3.83333C18.3333 2 16.8333 0.5 15 0.5H3.33333C1.5 0.5 0 2 0 3.83333C0 35.1333 25.3667 60.5 56.6667 60.5C58.5 60.5 60 59 60 57.1667V45.5C60 43.6667 58.5 42.1667 56.6667 42.1667ZM30 0.5V33.8333L40 23.8333H60V0.5H30Z" fill="#14142B"/>
</svg>
