<svg width="40" height="40" viewBox="0 0 40 40" fill="none" xmlns="http://www.w3.org/2000/svg">
<path fill-rule="evenodd" clip-rule="evenodd" d="M40 9.53127C40 3.75 36.25 0 30.4687 0H9.53127C3.75 0 0 3.75 0 9.53127V30.4687C0 36.25 3.75 40 9.53127 40H30.4687C36.25 40 40 36.25 40 30.4687V9.53127ZM11.4879 34.8622C12.0386 34.8622 12.485 34.4158 12.485 33.8651V16.0723C12.485 15.5216 12.0386 15.0752 11.4879 15.0752H7.24341C6.69269 15.0752 6.24629 15.5216 6.24629 16.0723V33.8651C6.24629 34.4158 6.69269 34.8622 7.24341 34.8622H11.4879ZM5.33335 9.36566C5.33335 11.5926 7.1387 13.398 9.36566 13.398C11.5927 13.398 13.398 11.5926 13.398 9.36566C13.398 7.1387 11.5926 5.33335 9.36566 5.33335C7.1387 5.33335 5.33335 7.1387 5.33335 9.36566ZM33.7499 34.8622C34.2562 34.8622 34.6667 34.4517 34.6667 33.9454L34.6667 25.2705C34.6669 21.5137 34.6673 14.7766 27.4153 14.7766C24.1218 14.7766 22.5749 15.9823 21.5341 17.5443V15.992C21.5341 15.4857 21.1236 15.0752 20.6173 15.0752H16.2121C15.7058 15.0752 15.2953 15.4857 15.2953 15.992V33.9454C15.2953 34.4517 15.7058 34.8622 16.2121 34.8622H20.6173C21.1237 34.8622 21.5341 34.4517 21.5341 33.9454V24.3194C21.6484 23.026 22.2178 20.1439 25.0248 20.1439C28.377 20.1439 28.3106 23.7571 28.2826 25.279C28.2804 25.4001 28.2784 25.5079 28.2784 25.5996V33.9454C28.2784 34.4517 28.6889 34.8622 29.1952 34.8622H33.7499Z" fill="white"/>
</svg>
