<svg width="40" height="40" viewBox="0 0 40 40" fill="none" xmlns="http://www.w3.org/2000/svg">
<path d="M17 24L25.3333 19.8333L17 15.6667V24Z" fill="white"/>
<path fill-rule="evenodd" clip-rule="evenodd" d="M40 9.53127C40 3.75 36.25 0 30.4687 0H9.53127C3.75 0 0 3.75 0 9.53127V30.4687C0 36.25 3.75 40 9.53127 40H30.4687C36.25 40 40 36.25 40 30.4687V9.53127ZM20.1432 9.33334C12.988 9.33334 9.2797 9.67664 9.2797 9.67664C5.8602 10.02 5.52093 12.9553 5.52093 12.9553C4.34883 20.3037 5.52093 27.0523 5.52093 27.0523C5.52093 27.0523 5.92297 29.7182 8.78487 30.19C11.6468 30.6618 20.1432 30.6667 20.1432 30.6667C24.7843 30.6667 29.6683 30.4682 31.1746 30.2879C32.6808 30.1076 33.3637 29.4465 33.3637 29.4465C33.3637 29.4465 34.428 28.7854 34.91 26.5218C35.392 24.258 35.3307 20 35.3307 20C35.3307 13.1219 34.3137 11.7113 34.3137 11.7113C33.2963 9.76708 30.6938 9.67664 30.6938 9.67664C30.6938 9.67664 27.2983 9.33334 20.1432 9.33334Z" fill="white"/>
</svg>
