<svg width="41" height="40" viewBox="0 0 41 40" fill="none" xmlns="http://www.w3.org/2000/svg">
<path d="M20.5781 15.1953C17.7951 15.1953 15.539 17.4514 15.539 20.2344C15.539 23.0174 17.7951 25.2735 20.5781 25.2735C23.3611 25.2735 25.6172 23.0174 25.6172 20.2344C25.6172 17.4514 23.3611 15.1953 20.5781 15.1953Z" fill="white"/>
<path fill-rule="evenodd" clip-rule="evenodd" d="M14.25 8.16406C11.0787 8.16406 8.50781 10.7349 8.50781 13.9062V26.3281C8.50781 29.4995 11.0787 32.0703 14.25 32.0703H26.8281C29.9994 32.0703 32.5703 29.4995 32.5703 26.3281V13.9062C32.5703 10.7349 29.9994 8.16406 26.8281 8.16406H14.25ZM12.8047 20.2344C12.8047 15.9412 16.285 12.461 20.5781 12.461C24.8713 12.461 28.3515 15.9412 28.3515 20.2344C28.3515 24.5275 24.8713 28.0078 20.5781 28.0078C16.285 28.0078 12.8047 24.5275 12.8047 20.2344ZM30.3047 12.2656C30.3047 13.3012 29.4652 14.1406 28.4297 14.1406C27.3942 14.1406 26.5547 13.3012 26.5547 12.2656C26.5547 11.2301 27.3942 10.3906 28.4297 10.3906C29.4652 10.3906 30.3047 11.2301 30.3047 12.2656Z" fill="white"/>
<path fill-rule="evenodd" clip-rule="evenodd" d="M40.5 9.53127C40.5 3.75 36.75 0 30.9687 0H10.0313C4.25 0 0.5 3.75 0.5 9.53127V30.4687C0.5 36.25 4.25 40 10.0313 40H30.9687C36.75 40 40.5 36.25 40.5 30.4687V9.53127ZM5.77344 13.9062C5.77344 9.22477 9.56852 5.42969 14.25 5.42969H26.8281C31.5096 5.42969 35.3047 9.22477 35.3047 13.9062V26.3281C35.3047 31.0096 31.5096 34.8047 26.8281 34.8047H14.25C9.56852 34.8047 5.77344 31.0096 5.77344 26.3281V13.9062Z" fill="white"/>
</svg>
