<svg width="41" height="40" viewBox="0 0 41 40" fill="none" xmlns="http://www.w3.org/2000/svg">
<path fill-rule="evenodd" clip-rule="evenodd" d="M40.5 9.53127C40.5 3.75 36.75 0 30.9687 0H10.0313C4.25 0 0.5 3.75 0.5 9.53127V30.4687C0.5 36.25 4.25 40 10.0313 40H30.9687C36.75 40 40.5 36.25 40.5 30.4687V9.53127ZM20.846 16.2552C13.9313 15.9158 9.39232 10.2738 9.39232 10.2738C6.93299 15.1785 11 17.6905 11 17.6905C10.042 17.8235 8.57832 17.0785 8.57832 17.0785C9.37666 22.4538 12.9693 22.4275 12.9693 22.4275C12.2773 22.9862 10.5743 22.6935 10.5743 22.6935C12.251 26.7118 15.657 26.3925 15.657 26.3925C12.9427 29.2398 7.83332 28.7078 7.83332 28.7078C12.65 32.4865 19.4893 30.9432 19.4893 30.9432C32.4223 28.0425 31.6873 14.7898 31.6873 14.7898C34.103 13.5732 34.385 11.8982 34.385 11.8982C32.904 12.8682 31.5993 12.9738 31.5993 12.9738C33.9443 11.0168 33.6797 9.80017 33.6797 9.80017C31.8813 11.1225 30.3893 11.1948 30.3893 11.1948C27.0813 7.93483 23.6537 9.94817 23.6537 9.94817C19.4347 12.5132 20.846 16.2552 20.846 16.2552Z" fill="white"/>
</svg>
