<svg width="45" height="38" viewBox="0 0 45 38" fill="none" xmlns="http://www.w3.org/2000/svg">
<g clip-path="url(#clip0_1579_108455)">
<path fill-rule="evenodd" clip-rule="evenodd" d="M31.9101 29.6345C32.5793 29.396 33.2835 29.0791 33.8266 28.6202C34.4716 28.0752 34.7339 27.3733 34.9101 26.6345C35.1362 25.6853 35.2266 24.6741 35.5008 23.7233C35.6024 23.3702 35.7978 23.2368 35.8816 23.1775C36.0936 23.0279 36.3078 22.9879 36.5093 23.0029C36.7482 23.0203 37.0762 23.1106 37.292 23.511C37.3228 23.5683 37.3628 23.6556 37.3897 23.7752C37.4093 23.8629 37.422 24.1372 37.4428 24.2502C37.4947 24.5287 37.5382 24.8072 37.5789 25.0872C37.7147 26.0191 37.7928 26.8106 38.2216 27.6668C38.8035 28.8291 39.3866 29.5402 40.1774 29.8552C40.942 30.1599 41.8562 30.1026 43.0243 29.8637C43.1355 29.8368 43.2455 29.8137 43.3543 29.7949C43.8693 29.7049 44.3616 30.0429 44.4628 30.556C44.5639 31.0687 44.2366 31.5683 43.7262 31.681C43.6197 31.7045 43.5147 31.7268 43.4109 31.7472C41.8324 32.1379 40.0051 33.5326 38.9432 34.7537C38.6158 35.1303 38.1366 36.1829 37.6478 36.8545C37.287 37.3499 36.8816 37.6764 36.5412 37.7918C36.3132 37.8695 36.1209 37.8576 35.962 37.8183C35.7312 37.7614 35.5397 37.6364 35.3928 37.4375C35.3128 37.3287 35.2385 37.1829 35.2032 36.9968C35.1862 36.9072 35.1843 36.6795 35.1847 36.5764C35.0851 36.2337 34.9632 35.8991 34.8743 35.5533C34.6624 34.7283 34.2466 34.206 33.7528 33.516C33.2908 32.8702 32.7947 32.4645 32.0674 32.1406C31.9728 32.1176 31.2093 31.9306 30.9397 31.8233C30.5459 31.666 30.3582 31.4025 30.2901 31.2606C30.1743 31.0199 30.1624 30.8095 30.1855 30.6341C30.2197 30.3753 30.3359 30.1537 30.542 29.9749C30.6697 29.8637 30.8605 29.7556 31.1159 29.7029C31.3132 29.6618 31.8366 29.6379 31.9101 29.6345ZM36.3889 28.2899C36.4243 28.3687 36.462 28.4479 36.502 28.5279C37.3543 30.2302 38.3074 31.1806 39.4658 31.6418L39.5047 31.6568C38.7297 32.2322 38.0281 32.8752 37.492 33.4918C37.2712 33.7456 36.9789 34.2729 36.6632 34.8137C36.3762 33.881 35.907 33.2218 35.317 32.3968C34.8662 31.7672 34.3939 31.2933 33.8135 30.9072C34.2639 30.676 34.6935 30.4053 35.0678 30.0891C35.6908 29.5626 36.1028 28.9525 36.3889 28.2899Z" fill="#D9DBE9"/>
</g>
<path fill-rule="evenodd" clip-rule="evenodd" d="M9.90268 4.9268C9.83572 4.52948 9.78527 4.13666 9.75268 3.74381C9.70357 3.15452 9.73393 2.56073 9.71652 1.97144C9.70893 1.72144 9.67902 1.06967 9.69107 0.975917C9.80045 0.158952 10.4598 0.033937 10.6527 0.0116155C10.746 -0.00177731 11.704 -0.108872 11.9107 0.953628C12.1643 2.25274 12.2455 3.56075 12.1558 4.842C12.3652 5.93129 12.7232 7.01609 13.196 7.99823C15.0772 11.9045 18.662 12.284 22.546 12.2482C23.1433 12.2393 23.6393 12.7081 23.6706 13.3018C23.7018 13.9 23.2572 14.4179 22.6625 14.4714C20.4915 14.6813 16.6397 16.4224 15.308 18.2349C15.0295 18.6143 14.8674 19.5295 14.6531 20.4268C14.354 21.6724 13.9982 22.9045 13.5996 23.4224C13.5397 23.5027 12.8125 24.3242 12.5955 24.4447C12.0741 24.7304 11.6567 24.5652 11.4196 24.4134C11.1826 24.2616 10.9143 23.9625 10.8071 23.467C10.6951 22.9491 10.7897 21.8866 10.7723 21.6589C10.7089 20.833 10.5438 19.2125 10.2067 17.8197C10.025 17.0697 9.83126 16.3777 9.51072 16.0339C8.32411 14.7616 6.42679 14.9491 4.82902 15.159C4.64554 15.1813 4.46206 15.2081 4.27903 15.2304C3.62858 15.4224 2.93794 15.5652 2.20803 15.65C1.10579 15.7795 0.924557 14.7661 0.914735 14.6991C0.8942 14.5518 0.817852 13.7929 1.64866 13.4893C1.73928 13.4581 2.40804 13.3107 2.66563 13.2527C3.02456 13.1723 3.38749 13.1099 3.75178 13.0518C7.51473 11.8822 9.55848 8.59644 9.90268 4.9268ZM11.1942 8.98487C12.6147 11.9224 14.7705 13.342 17.3259 13.9849H17.3255C15.7299 14.8197 14.2786 15.8643 13.5094 16.9135C13.2174 17.3108 12.9496 18.1099 12.708 19.0072C12.5772 18.1724 12.4005 17.2839 12.167 16.525C11.9014 15.6589 11.5437 14.9402 11.1446 14.5117C10.3741 13.6858 9.40713 13.2259 8.3674 12.9983C9.61204 11.8956 10.5558 10.5206 11.1942 8.98487Z" fill="#D9DBE9"/>
<defs>
<clipPath id="clip0_1579_108455">
<rect width="15" height="15" fill="white" transform="translate(30 23)"/>
</clipPath>
</defs>
</svg>
