<svg width="146" height="12" viewBox="0 0 146 12" fill="none" xmlns="http://www.w3.org/2000/svg">
<path fill-rule="evenodd" clip-rule="evenodd" d="M36.2486 7.06676C30.4057 8.15118 23.6598 9.23039 17.1702 9.49986C11.6234 9.72986 6.2657 9.37262 1.88035 7.85267C1.26218 7.63866 0.48805 7.78578 0.153734 8.18184C-0.181091 8.57757 0.0492582 9.07314 0.667437 9.28748C5.45131 10.9451 11.2845 11.3787 17.3348 11.1275C23.9411 10.8534 30.8089 9.76704 36.769 8.66696C37.4605 9.56379 38.8926 10.3999 41.4152 11.0169C45.2899 11.9646 50.5804 11.9528 56.1537 11.4188C64.2369 10.6446 72.9322 8.79844 78.5228 7.48663C78.7521 7.43312 79.0936 7.34798 79.5115 7.23575C79.6389 7.41584 79.7815 7.59332 79.9395 7.76753C81.3104 9.28585 83.7363 10.5135 86.208 10.952C101.884 13.7322 120.18 10.4009 135.076 7.68987C135.749 7.56688 136.141 7.11538 135.953 6.68246C135.759 6.24954 135.056 5.998 134.378 6.12099C119.899 8.75636 102.124 12.0814 86.8857 9.37979C85.0103 9.04703 83.1859 8.10355 82.1462 6.95127C82.029 6.82273 81.9271 6.69126 81.8303 6.55783C83.8841 5.90633 86.2997 4.99808 87.5992 4.02588C88.9345 3.02922 89.2657 1.96535 88.1038 0.960532C87.1049 0.101542 85.5913 0.0284625 84.0165 0.47378C82.3195 0.950743 80.5715 2.06581 80.0058 2.5891C78.9457 3.56652 78.6094 4.62681 78.8031 5.66067C78.3036 5.79573 77.898 5.8962 77.6478 5.95493C72.1794 7.2377 63.6804 9.04835 55.7766 9.80555C50.691 10.293 45.8602 10.3579 42.3244 9.49333C40.8164 9.12435 39.8201 8.69373 39.2794 8.19393C40.3465 7.9897 41.3755 7.78873 42.3586 7.5969C44.3028 7.21748 48.3508 6.58948 51.2429 5.47015C53.5429 4.58016 55.1023 3.36949 55.0116 1.85182C54.9652 1.0721 54.2604 0.551742 53.1387 0.260083C51.4625 -0.175447 48.5638 0.0352995 47.4844 0.182107C44.2105 0.626446 39.841 2.4658 37.6792 4.5384C36.8164 5.36542 36.3032 6.23061 36.2486 7.06676ZM38.9379 6.55717C39.8629 6.37904 40.7568 6.20417 41.6155 6.03649C43.4303 5.68219 47.224 5.11942 49.9245 4.07415C51.3545 3.52085 52.5221 2.85794 52.4655 1.91412C52.4609 1.84072 52.3473 1.81985 52.2469 1.78983C52.0914 1.74383 51.9136 1.71218 51.724 1.68738C50.4412 1.5197 48.7182 1.68183 48.0129 1.77774C45.266 2.15064 41.6119 3.70518 39.7982 5.44436C39.4149 5.81171 39.1097 6.18591 38.9379 6.55717ZM81.3206 4.90966C82.5182 4.51524 83.7719 4.03827 84.7606 3.51922C85.2855 3.24355 85.7289 2.96005 86.0092 2.66579C86.2436 2.42241 86.3354 2.17315 86.0551 1.93238C85.9429 1.83484 85.7748 1.83289 85.6015 1.85116C85.418 1.87074 85.2295 1.91248 85.0409 1.96631C83.7974 2.31669 82.5132 3.13523 82.1004 3.51922C81.6162 3.96454 81.3767 4.43563 81.3206 4.90966Z" fill="#D9DBE9"/>
</svg>
